<?xml version="1.0" standalone="no"?>
<!DOCTYPE svg PUBLIC "-//W3C//DTD SVG 1.1//EN" "http://www.w3.org/Graphics/SVG/1.1/DTD/svg11.dtd" >
<svg xmlns="http://www.w3.org/2000/svg" xmlns:xlink="http://www.w3.org/1999/xlink" version="1.1">
<metadata>
Created by FontForge 20170731 at Thu Aug 18 03:13:15 2022
 By Aleksey,,,
Copyright (c) 2022 by Bekeen.co. All rights reserved.
</metadata>
<defs>
<font id="Avenix-Italic" horiz-adv-x="1400" >
  <font-face 
    font-family="Avenix Italic"
    font-weight="400"
    font-style="italic"
    font-stretch="normal"
    units-per-em="1000"
    panose-1="0 0 5 0 0 0 0 0 0 0"
    ascent="800"
    descent="-200"
    x-height="700"
    cap-height="700"
    bbox="-931 -310 2394.16 1020"
    underline-thickness="50"
    underline-position="-150"
    slope="-13"
    unicode-range="U+0020-25CA"
  />
<missing-glyph horiz-adv-x="480" 
d="M394 760v-960h-305v960h305zM320 696h-159v-32h63v-36h-64v-31h160v31h-64v36h64v32zM256 572h-96v-100h160v33h-64v67zM224 539v-34h-32v34h32zM320 446h-160v-32h64v-35h-64v-32h96v67h64v32zM320 388h-32v-63h-128v-33h160v96zM320 271h-96v-53h32v22h32v-45h-96v76
h-32v-108h160v108zM320 105h-160v-108h160v108zM288 74v-46h-96v46h96zM320 -25h-160v-32h68l-68 -45v-32h160v32h-98l67 45h31v32z" />
    <glyph glyph-name=".notdef" horiz-adv-x="480" 
d="M394 760v-960h-305v960h305zM320 696h-159v-32h63v-36h-64v-31h160v31h-64v36h64v32zM256 572h-96v-100h160v33h-64v67zM224 539v-34h-32v34h32zM320 446h-160v-32h64v-35h-64v-32h96v67h64v32zM320 388h-32v-63h-128v-33h160v96zM320 271h-96v-53h32v22h32v-45h-96v76
h-32v-108h160v108zM320 105h-160v-108h160v108zM288 74v-46h-96v46h96zM320 -25h-160v-32h68l-68 -45v-32h160v32h-98l67 45h31v32z" />
    <glyph glyph-name=".null" horiz-adv-x="0" 
 />
    <glyph glyph-name="nonmarkingreturn" horiz-adv-x="333" 
 />
    <glyph glyph-name="space" unicode=" " horiz-adv-x="640" 
 />
    <glyph glyph-name="exclam" unicode="!" horiz-adv-x="320" 
d="M161 760h220l-136 -500h-180zM22 160h220l-37 -160h-220z" />
    <glyph glyph-name="quotedbl" unicode="&#x22;" horiz-adv-x="619" 
d="M366 700l-190 -350h-140l130 350h200zM666 700l-190 -350h-140l130 350h200z" />
    <glyph glyph-name="numbersign" unicode="#" horiz-adv-x="1301" 
d="M19 140l32 140h233l87 140h-288l32 140h342l88 140h179l-87 -140h320l87 140h180l-87 -140h178l-32 -140h-233l-86 -140h287l-32 -140h-342l-87 -140h-180l87 140h-320l-87 -140h-180l88 140h-179zM464 280h320l86 140h-320z" />
    <glyph glyph-name="dollar" unicode="$" horiz-adv-x="1228" 
d="M39 232h182q-7 -31 44.5 -45t168.5 -14h428q118 0 131 55q7 30 -18.5 44t-86.5 14h-546q-140 0 -195.5 44.5t-33.5 139.5q24 106 121.5 156.5t279.5 50.5h110l15 103h180l-33 -103h92q191 0 270 -50.5t54 -158.5h-181q7 31 -42.5 45t-162.5 14h-409q-109 0 -122 -55
q-7 -30 16.5 -44t79.5 -14h546q144 0 202.5 -44.5t37.5 -137.5q-25 -108 -129 -158.5t-301 -50.5h-101l-15 -103h-180l33 103h-110q-192 0 -271 50.5t-54 158.5z" />
    <glyph glyph-name="percent" unicode="%" horiz-adv-x="1715" 
d="M103 510q23 103 102 151.5t222 48.5h126q143 0 199 -48.5t33 -151.5q-24 -103 -102.5 -151.5t-221.5 -48.5h-126q-143 0 -199.5 48.5t-32.5 151.5zM243 0l1062 700h200l-1062 -700h-200zM244 510q-10 -40 18 -59t96 -19h136q68 0 104 18.5t46 59.5q9 41 -18.5 59.5
t-95.5 18.5h-136q-133 0 -150 -78zM965 200q24 103 102.5 151.5t221.5 48.5h126q143 0 199.5 -48.5t32.5 -151.5q-23 -103 -102 -151.5t-222 -48.5h-126q-143 0 -199 48.5t-33 151.5zM1106 200q-9 -40 18.5 -59t95.5 -19h136q132 0 150 78q9 40 -18.5 59t-95.5 19h-136
q-132 0 -150 -78z" />
    <glyph glyph-name="ampersand" unicode="&#x26;" 
d="M28 185q17 75 77 110.5t169 35.5l9 40q-37 28 -49 61t0 82q24 105 125 150.5t300 45.5h50l10 70h180l-22 -70h52q211 0 295 -68t50 -212h-200q14 59 -37.5 87t-175.5 28h-310q-109 0 -124 -61q-15 -66 88 -94l551 -152q36 49 50 112h200q-23 -98 -65 -168l71 -22
l-37 -160l-168 50q-107 -60 -274 -60h-490q-191 0 -269.5 47.5t-55.5 147.5zM233 206q-7 -29 26.5 -42.5t110.5 -13.5h159l241 -40l9 40l-321 80q-41 11 -87 30q-126 -4 -138 -54z" />
    <glyph glyph-name="quotesingle" unicode="'" horiz-adv-x="319" 
d="M366 700l-190 -350h-140l130 350h200z" />
    <glyph glyph-name="parenleft" unicode="(" horiz-adv-x="470" 
d="M66 350q29 125 105.5 224.5t209.5 185.5h210q-150 -92 -233.5 -191.5t-111.5 -218.5t10 -218t145 -192h-210q-93 86 -123.5 185.5t-1.5 224.5z" />
    <glyph glyph-name="parenright" unicode=")" horiz-adv-x="471" 
d="M437 350q-29 -125 -105.5 -224.5t-209.5 -185.5h-210q150 92 233.5 191.5t111.5 218.5t-10 218t-145 192h210q93 -86 123.5 -185.5t1.5 -224.5z" />
    <glyph glyph-name="asterisk" unicode="*" horiz-adv-x="820" 
d="M72 377l30 130l245 -41l18 40l-122 104l111 90l98 -155h40l168 155l69 -90l-170 -104v-40l263 41l-30 -130l-246 31l-19 -40l124 -98l-111 -90l-97 155h-40l-169 -155l-69 90l168 98l1 40z" />
    <glyph glyph-name="plus" unicode="+" horiz-adv-x="900" 
d="M50 280l32 140h320l42 180h160l-42 -180h320l-32 -140h-320l-42 -180h-160l42 180h-320z" />
    <glyph glyph-name="comma" unicode="," horiz-adv-x="500" 
d="M436 220l-348 -340h-200l288 340h260z" />
    <glyph glyph-name="hyphen" unicode="-" horiz-adv-x="900" 
d="M82 420h800l-32 -140h-800z" />
    <glyph glyph-name="period" unicode="." horiz-adv-x="361" 
d="M36 220h260l-50 -220h-260z" />
    <glyph glyph-name="slash" unicode="/" horiz-adv-x="891" 
d="M822 760h220l-990 -820h-220z" />
    <glyph glyph-name="zero" unicode="0" horiz-adv-x="1380" 
d="M66 350q43 185 184.5 272.5t398.5 87.5h280q257 0 358.5 -87.5t58.5 -272.5t-184.5 -272.5t-398.5 -87.5h-280q-257 0 -358.5 87.5t-58.5 272.5zM266 350q-19 -85 17 -133l552 288l9 40h-263q-139 0 -215.5 -47.5t-99.5 -147.5zM564 155h267q139 0 215.5 47.5t99.5 147.5
q20 88 -18 134l-555 -289z" />
    <glyph glyph-name="one" unicode="1" horiz-adv-x="801" 
d="M69 490q151 0 243 51t136 159h370l-162 -700h-200l106 460l84 190h-40q-80 -164 -219.5 -242t-354.5 -78z" />
    <glyph glyph-name="two" unicode="2" horiz-adv-x="1240" 
d="M-25 0l68 295l832 95q144 16 161 91q8 34 -21 49t-104 15h-360q-124 0 -188.5 -28t-78.5 -87h-200q34 144 149 212t326 68h320q212 0 298.5 -54t59.5 -169q-23 -101 -113.5 -159.5t-260.5 -77.5l-801 -90l-9 -40l459 40h660l-37 -160h-1160z" />
    <glyph glyph-name="three" unicode="3" horiz-adv-x="1339" 
d="M45 260h200q-13 -56 37 -83t168 -27h460q150 0 165 64q7 32 -25.5 46.5t-110.5 14.5h-560l34 150h550q151 0 164 61q8 32 -25.5 48t-109.5 16h-450q-220 0 -245 -110h-200q31 139 141.5 204.5t310.5 65.5h460q193 0 272.5 -39.5t58.5 -131.5q-17 -69 -73.5 -105.5
t-161.5 -43.5l-9 -40q107 -8 148.5 -48t22.5 -119q-24 -103 -123 -148t-291 -45h-480q-200 0 -280 65.5t-48 204.5z" />
    <glyph glyph-name="four" unicode="4" horiz-adv-x="1397" 
d="M11 150l71 310q319 31 499.5 89.5t242.5 150.5h390l-90 -390h240l-37 -160h-240l-35 -150h-200l35 150h-876zM97 305l-10 -40l401 45h436l39 170l79 170h-40q-91 -142 -311.5 -226t-593.5 -119z" />
    <glyph glyph-name="five" unicode="5" horiz-adv-x="1330" 
d="M28 230h200q-8 -38 48.5 -56.5t184.5 -18.5h430q161 0 177 74q9 39 -25.5 57.5t-116.5 18.5h-260q-236 0 -405 -20l-191 80l77 335h1180l-37 -160h-980l-23 -100l-27 -75l36 -14q173 94 412 94h270q175 0 245.5 -52t45.5 -161q-28 -124 -151 -183t-355 -59h-380
q-211 0 -297 58t-58 182z" />
    <glyph glyph-name="six" unicode="6" horiz-adv-x="1360" 
d="M64 340q44 191 188 280.5t407 89.5h330q211 0 297.5 -56t59.5 -174h-200q7 34 -47 49.5t-178 15.5h-370q-238 0 -284 -192l35 -20q73 60 168.5 86t247.5 26h290q175 0 245.5 -51.5t45.5 -161.5q-29 -125 -151.5 -183.5t-354.5 -58.5h-370q-226 0 -313 85.5t-46 264.5z
M248 229q-9 -38 25.5 -56t117.5 -18h530q160 0 177 74q9 39 -25.5 57.5t-116.5 18.5h-530q-160 0 -178 -76z" />
    <glyph glyph-name="seven" unicode="7" horiz-adv-x="1240" 
d="M1317 700l-68 -295q-407 -46 -617 -144t-247 -261h-200q52 225 306 356t739 184l9 40l-459 -40h-700l37 160h1200z" />
    <glyph glyph-name="eight" unicode="8" horiz-adv-x="1340" 
d="M27 181q19 80 83.5 120.5t185.5 48.5l9 40q-101 8 -141 44t-24 105q21 92 118.5 131.5t290.5 39.5h440q193 0 272.5 -39.5t58.5 -131.5q-17 -69 -73.5 -105.5t-161.5 -43.5l-9 -40q117 -8 163.5 -48.5t27.5 -120.5q-24 -101 -123 -146t-291 -45h-500q-192 0 -271 45
t-55 146zM327 484q-8 -33 25 -48.5t110 -15.5h480q150 0 165 64q8 34 -25 50t-110 16h-480q-150 0 -165 -66zM235 216q-8 -34 25 -50t110 -16h540q150 0 165 66q8 33 -25 48.5t-110 15.5h-540q-150 0 -165 -64z" />
    <glyph glyph-name="nine" unicode="9" horiz-adv-x="1360" 
d="M1328 360q-44 -191 -188 -280.5t-407 -89.5h-340q-211 0 -297.5 56t-59.5 174h200q-7 -34 47 -49.5t178 -15.5h380q238 0 284 192l-35 20q-73 -60 -168.5 -86t-247.5 -26h-290q-175 0 -245.5 51.5t-45.5 161.5q29 125 151.5 183.5t354.5 58.5h370q226 0 313 -85.5
t46 -264.5zM1144 471q9 38 -25.5 56t-117.5 18h-530q-160 0 -177 -74q-9 -39 25.5 -57.5t116.5 -18.5h530q160 0 178 76z" />
    <glyph glyph-name="colon" unicode=":" horiz-adv-x="360" 
d="M115 560h260l-51 -220h-260zM36 220h260l-51 -220h-260z" />
    <glyph glyph-name="semicolon" unicode=";" horiz-adv-x="500" 
d="M254 560h260l-50 -220h-260zM436 220l-348 -340h-200l288 340h260z" />
    <glyph glyph-name="less" unicode="&#x3c;" horiz-adv-x="811" 
d="M34 205l66 290l788 205l-42 -180l-547 -120l-177 -30l-10 -40l163 -30l493 -120l-42 -180z" />
    <glyph glyph-name="equal" unicode="=" horiz-adv-x="961" 
d="M79 400l32 140h860l-32 -140h-860zM23 160l32 140h860l-32 -140h-860z" />
    <glyph glyph-name="greater" unicode="&#x3e;" horiz-adv-x="810" 
d="M-45 0l42 180l547 120l177 30l10 40l-163 30l-493 120l42 180l692 -205l-66 -290z" />
    <glyph glyph-name="question" unicode="?" horiz-adv-x="1221" 
d="M516 260l9 40q21 90 86.5 125.5t210.5 54.5l77 10q124 16 135 62q4 18 -7 30t-34 16.5t-36.5 5.5t-30.5 1h-360q-124 0 -190.5 -35.5t-83.5 -109.5h-200q37 160 154 235t328 75h320q198 0 282 -52t59 -160q-22 -92 -105.5 -141.5t-242.5 -66.5l-97 -10q-77 -7 -89 -60
l-5 -20h-180zM473 160h220l-37 -160h-220z" />
    <glyph glyph-name="at" unicode="@" horiz-adv-x="1513" 
d="M43 248q53 232 229 342t495 110h173q319 0 445 -107t73 -334q-32 -138 -101.5 -203.5t-184.5 -65.5q-90 0 -126.5 41t-23.5 129h-40q-44 -82 -112.5 -121t-169.5 -39h-96q-169 0 -236 58.5t-38 183.5q28 124 122 183t264 59h66q97 0 153.5 -31.5t76.5 -97.5h40l-12 79
l10 40h150l-56 -242q-26 -112 50 -112q82 0 114 138q37 161 -52.5 236.5t-315.5 75.5h-233q-226 0 -351 -78t-163 -244q-38 -164 51 -241t315 -77h233l-30 -130h-203q-319 0 -444 109t-72 339zM480 242q-13 -58 26 -85t135 -27h142q96 0 148 27t65 85q14 58 -25.5 85.5
t-135.5 27.5h-142q-187 0 -213 -113z" />
    <glyph glyph-name="A" unicode="A" 
d="M-75 0l682 700h380l358 -700h-240l-54 110h-780l-106 -110h-240zM405 250h576l-115 230l-61 170h-40l-139 -170z" />
    <glyph glyph-name="B" unicode="B" horiz-adv-x="1310" 
d="M15 0l162 700h820q165 0 233.5 -38.5t48.5 -126.5q-16 -69 -72 -103t-162 -42l-9 -40q124 0 173 -40t29 -125q-23 -99 -109.5 -142t-253.5 -43h-860zM312 420h640q100 0 114 58q7 32 -13.5 47t-72.5 15h-640zM252 160h680q101 0 114 62q7 30 -13.5 44t-72.5 14h-680z" />
    <glyph glyph-name="C" unicode="C" horiz-adv-x="1380" 
d="M66 350q43 185 184.5 272.5t398.5 87.5h270q257 0 361.5 -72.5t69.5 -227.5h-200q16 70 -42 102.5t-197 32.5h-330q-139 0 -215.5 -47.5t-99.5 -147.5t31.5 -147.5t193.5 -47.5h340q139 0 212 32.5t89 102.5h200q-35 -154 -173.5 -227t-395.5 -73h-280
q-257 0 -358.5 87.5t-58.5 272.5z" />
    <glyph glyph-name="D" unicode="D" horiz-adv-x="1330" 
d="M15 0l162 700h720q247 0 343.5 -85t55.5 -265t-177.5 -265t-383.5 -85h-720zM253 165h550q128 0 199.5 45t93.5 140t-28.5 140t-178.5 45h-550z" />
    <glyph glyph-name="E" unicode="E" horiz-adv-x="1220" 
d="M15 0l162 700h1090l-37 -160h-890l-27 -115h840l-34 -150h-840l-27 -115h900l-37 -160h-1100z" />
    <glyph glyph-name="F" unicode="F" horiz-adv-x="1200" 
d="M15 0l162 700h1080l-37 -160h-880l-31 -135h830l-35 -150h-830l-59 -255h-200z" />
    <glyph glyph-name="G" unicode="G" horiz-adv-x="1380" 
d="M66 350q43 185 184.5 272.5t398.5 87.5h270q257 0 364.5 -62t76.5 -193h-200q11 46 -49.5 68t-199.5 22h-330q-139 0 -215.5 -47.5t-99.5 -147.5t31.5 -147.5t193.5 -47.5h340q270 0 295 110h-710l30 130h910l-26 -115q-34 -149 -172 -219.5t-395 -70.5h-280
q-257 0 -358.5 87.5t-58.5 272.5z" />
    <glyph glyph-name="H" unicode="H" horiz-adv-x="1340" 
d="M15 0l162 700h200l-64 -275h780l64 275h200l-162 -700h-200l64 275h-780l-64 -275h-200z" />
    <glyph glyph-name="I" unicode="I" horiz-adv-x="360" 
d="M15 0l162 700h200l-162 -700h-200z" />
    <glyph glyph-name="J" unicode="J" horiz-adv-x="1220" 
d="M42 290h200q-16 -70 31 -102.5t163 -32.5h250q116 0 180 40t83 125l88 380h200l-88 -380q-39 -170 -168 -250t-363 -80h-190q-234 0 -327.5 73t-58.5 227z" />
    <glyph glyph-name="K" unicode="K" horiz-adv-x="1290" 
d="M15 0l162 700h200l-63 -270h264l439 270h320l-570 -320l-9 -40l467 -340h-340l-333 270h-274l-63 -270h-200z" />
    <glyph glyph-name="L" unicode="L" horiz-adv-x="1200" 
d="M15 0l162 700h200l-125 -540h900l-37 -160h-1100z" />
    <glyph glyph-name="M" unicode="M" horiz-adv-x="1630" 
d="M15 0l162 700h380l156 -480l29 -170h40l107 170l378 480h380l-162 -700h-200l116 500l74 150h-40l-500 -650h-370l-200 650h-40l6 -150l-116 -500h-200z" />
    <glyph glyph-name="N" unicode="N" horiz-adv-x="1360" 
d="M15 0l162 700h400l450 -650h40l-1 170l111 480h200l-162 -700h-400l-450 650h-40l1 -170l-111 -480h-200z" />
    <glyph glyph-name="O" unicode="O" 
d="M66 350q43 185 184.5 272.5t398.5 87.5h300q257 0 358.5 -87.5t58.5 -272.5t-184.5 -272.5t-398.5 -87.5h-300q-257 0 -358.5 87.5t-58.5 272.5zM266 350q-23 -100 31.5 -147.5t193.5 -47.5h360q139 0 215.5 47.5t99.5 147.5t-31.5 147.5t-193.5 47.5h-360
q-139 0 -215.5 -47.5t-99.5 -147.5z" />
    <glyph glyph-name="P" unicode="P" horiz-adv-x="1289" 
d="M15 0l162 700h810q180 0 250.5 -61.5t40.5 -191.5t-129 -191t-279 -61h-610l-45 -195h-200zM297 355h630q131 0 151 89q10 44 -16.5 65t-93.5 21h-630z" />
    <glyph glyph-name="Q" unicode="Q" 
d="M66 350q43 185 184.5 272.5t398.5 87.5h300q257 0 360 -80.5t64 -250.5q-27 -114 -97 -177t-193 -82l-9 -40h101l140 -210h-240l-70 120h-522q-257 0 -358.5 87.5t-58.5 272.5zM266 350q-23 -100 31.5 -147.5t193.5 -47.5h360q139 0 215.5 47.5t99.5 147.5t-31.5 147.5
t-193.5 47.5h-360q-139 0 -215.5 -47.5t-99.5 -147.5z" />
    <glyph glyph-name="R" unicode="R" horiz-adv-x="1310" 
d="M15 0l162 700h800q180 0 254.5 -46.5t51.5 -144.5q-18 -76 -78 -115.5t-170 -48.5l-9 -40h70l129 -305h-240l-78 225h-640l-52 -225h-200zM302 375h620q131 0 148 81q10 43 -16.5 63.5t-93.5 20.5h-620z" />
    <glyph glyph-name="S" unicode="S" horiz-adv-x="1340" 
d="M36 220h200q-5 -23 18.5 -37t77 -21t139.5 -7h470q129 0 144 61q7 33 -20.5 48.5t-94.5 15.5h-600q-155 0 -216.5 49t-37.5 153q27 117 135 172.5t308 55.5h400q211 0 297.5 -56t59.5 -174h-200q7 34 -47 49.5t-178 15.5h-450q-119 0 -134 -61q-7 -33 18 -48.5t87 -15.5
h600q160 0 224 -48.5t40 -151.5q-27 -118 -142 -174t-331 -56h-410q-211 0 -297.5 56t-59.5 174z" />
    <glyph glyph-name="T" unicode="T" horiz-adv-x="1280" 
d="M80 540l37 160h1240l-37 -160h-520l-125 -540h-200l125 540h-520z" />
    <glyph glyph-name="U" unicode="U" horiz-adv-x="1360" 
d="M89 320l88 380h200l-88 -380q-20 -85 30.5 -125t176.5 -40h310q126 0 194.5 40t88.5 125l88 380h200l-88 -380q-39 -170 -173 -250t-378 -80h-250q-244 0 -341 80t-58 250z" />
    <glyph glyph-name="V" unicode="V" 
d="M87 700h240l239 -480l61 -170h40l139 170l461 480h240l-682 -700h-380z" />
    <glyph glyph-name="W" unicode="W" horiz-adv-x="2138" 
d="M117 700h230l169 -480l11 -170h40l414 650h370l114 -650h40l89 170l391 480h230l-572 -700h-367l-91 480l-11 170h-40l-89 -170l-313 -480h-367z" />
    <glyph glyph-name="X" unicode="X" horiz-adv-x="1300" 
d="M-75 0l537 330l10 40l-325 330h270l245 -280h40l375 280h270l-477 -330l-10 -40l385 -330h-300l-275 280h-40l-405 -280h-300z" />
    <glyph glyph-name="Y" unicode="Y" horiz-adv-x="1280" 
d="M87 700h250l216 -275l68 -140h40l132 140l344 275h250l-588 -465h-70l-54 -235h-200l54 235h-70z" />
    <glyph glyph-name="Z" unicode="Z" horiz-adv-x="1180" 
d="M-25 0l72 310l1093 230l9 40l-429 -40h-600l37 160h1070l-72 -310l-1093 -230l-9 -40l459 40h600l-37 -160h-1100z" />
    <glyph glyph-name="bracketleft" unicode="[" horiz-adv-x="651" 
d="M-28 -60l190 820h600l-28 -120h-420l-134 -580h420l-28 -120h-600z" />
    <glyph glyph-name="backslash" unicode="\" horiz-adv-x="1079" 
d="M241 760l800 -820h-220l-800 820h220z" />
    <glyph glyph-name="bracketright" unicode="]" horiz-adv-x="651" 
d="M522 -60h-600l28 120h420l134 580h-420l28 120h600z" />
    <glyph glyph-name="asciicircum" unicode="^" horiz-adv-x="800" 
d="M66 350l295 350h270l135 -350h-190l-57 210l-14 90h-40l-56 -90l-153 -210h-190z" />
    <glyph glyph-name="underscore" unicode="_" horiz-adv-x="921" 
d="M-118 -60h1000l-32 -140h-1000z" />
    <glyph glyph-name="grave" unicode="`" horiz-adv-x="640" 
d="M161 760l186 110l322 -250h-140z" />
    <glyph glyph-name="a" unicode="a" 
d="M-75 0l682 700h380l358 -700h-240l-54 110h-780l-106 -110h-240zM405 250h576l-115 230l-61 170h-40l-139 -170z" />
    <glyph glyph-name="b" unicode="b" horiz-adv-x="1310" 
d="M15 0l162 700h820q165 0 233.5 -38.5t48.5 -126.5q-16 -69 -72 -103t-162 -42l-9 -40q124 0 173 -40t29 -125q-23 -99 -109.5 -142t-253.5 -43h-860zM312 420h640q100 0 114 58q7 32 -13.5 47t-72.5 15h-640zM252 160h680q101 0 114 62q7 30 -13.5 44t-72.5 14h-680z" />
    <glyph glyph-name="c" unicode="c" horiz-adv-x="1380" 
d="M66 350q43 185 184.5 272.5t398.5 87.5h270q257 0 361.5 -72.5t69.5 -227.5h-200q16 70 -42 102.5t-197 32.5h-330q-139 0 -215.5 -47.5t-99.5 -147.5t31.5 -147.5t193.5 -47.5h340q139 0 212 32.5t89 102.5h200q-35 -154 -173.5 -227t-395.5 -73h-280
q-257 0 -358.5 87.5t-58.5 272.5z" />
    <glyph glyph-name="d" unicode="d" horiz-adv-x="1330" 
d="M15 0l162 700h720q247 0 343.5 -85t55.5 -265t-177.5 -265t-383.5 -85h-720zM253 165h550q128 0 199.5 45t93.5 140t-28.5 140t-178.5 45h-550z" />
    <glyph glyph-name="e" unicode="e" horiz-adv-x="1220" 
d="M15 0l162 700h1090l-37 -160h-890l-27 -115h840l-34 -150h-840l-27 -115h900l-37 -160h-1100z" />
    <glyph glyph-name="f" unicode="f" horiz-adv-x="1200" 
d="M15 0l162 700h1080l-37 -160h-880l-31 -135h830l-35 -150h-830l-59 -255h-200z" />
    <glyph glyph-name="g" unicode="g" horiz-adv-x="1380" 
d="M66 350q43 185 184.5 272.5t398.5 87.5h270q257 0 364.5 -62t76.5 -193h-200q11 46 -49.5 68t-199.5 22h-330q-139 0 -215.5 -47.5t-99.5 -147.5t31.5 -147.5t193.5 -47.5h340q270 0 295 110h-710l30 130h910l-26 -115q-34 -149 -172 -219.5t-395 -70.5h-280
q-257 0 -358.5 87.5t-58.5 272.5z" />
    <glyph glyph-name="h" unicode="h" horiz-adv-x="1340" 
d="M15 0l162 700h200l-64 -275h780l64 275h200l-162 -700h-200l64 275h-780l-64 -275h-200z" />
    <glyph glyph-name="i" unicode="i" horiz-adv-x="360" 
d="M15 0l162 700h200l-162 -700h-200z" />
    <glyph glyph-name="j" unicode="j" horiz-adv-x="1220" 
d="M42 290h200q-16 -70 31 -102.5t163 -32.5h250q116 0 180 40t83 125l88 380h200l-88 -380q-39 -170 -168 -250t-363 -80h-190q-234 0 -327.5 73t-58.5 227z" />
    <glyph glyph-name="k" unicode="k" horiz-adv-x="1290" 
d="M15 0l162 700h200l-63 -270h264l439 270h320l-570 -320l-9 -40l467 -340h-340l-333 270h-274l-63 -270h-200z" />
    <glyph glyph-name="l" unicode="l" horiz-adv-x="1200" 
d="M15 0l162 700h200l-125 -540h900l-37 -160h-1100z" />
    <glyph glyph-name="m" unicode="m" horiz-adv-x="1630" 
d="M15 0l162 700h380l156 -480l29 -170h40l107 170l378 480h380l-162 -700h-200l116 500l74 150h-40l-500 -650h-370l-200 650h-40l6 -150l-116 -500h-200z" />
    <glyph glyph-name="n" unicode="n" horiz-adv-x="1360" 
d="M15 0l162 700h400l450 -650h40l-1 170l111 480h200l-162 -700h-400l-450 650h-40l1 -170l-111 -480h-200z" />
    <glyph glyph-name="o" unicode="o" 
d="M66 350q43 185 184.5 272.5t398.5 87.5h300q257 0 358.5 -87.5t58.5 -272.5t-184.5 -272.5t-398.5 -87.5h-300q-257 0 -358.5 87.5t-58.5 272.5zM266 350q-23 -100 31.5 -147.5t193.5 -47.5h360q139 0 215.5 47.5t99.5 147.5t-31.5 147.5t-193.5 47.5h-360
q-139 0 -215.5 -47.5t-99.5 -147.5z" />
    <glyph glyph-name="p" unicode="p" horiz-adv-x="1289" 
d="M15 0l162 700h810q180 0 250.5 -61.5t40.5 -191.5t-129 -191t-279 -61h-610l-45 -195h-200zM297 355h630q131 0 151 89q10 44 -16.5 65t-93.5 21h-630z" />
    <glyph glyph-name="q" unicode="q" 
d="M66 350q43 185 184.5 272.5t398.5 87.5h300q257 0 360 -80.5t64 -250.5q-27 -114 -97 -177t-193 -82l-9 -40h101l140 -210h-240l-70 120h-522q-257 0 -358.5 87.5t-58.5 272.5zM266 350q-23 -100 31.5 -147.5t193.5 -47.5h360q139 0 215.5 47.5t99.5 147.5t-31.5 147.5
t-193.5 47.5h-360q-139 0 -215.5 -47.5t-99.5 -147.5z" />
    <glyph glyph-name="r" unicode="r" horiz-adv-x="1310" 
d="M15 0l162 700h800q180 0 254.5 -46.5t51.5 -144.5q-18 -76 -78 -115.5t-170 -48.5l-9 -40h70l129 -305h-240l-78 225h-640l-52 -225h-200zM302 375h620q131 0 148 81q10 43 -16.5 63.5t-93.5 20.5h-620z" />
    <glyph glyph-name="s" unicode="s" horiz-adv-x="1340" 
d="M36 220h200q-5 -23 18.5 -37t77 -21t139.5 -7h470q129 0 144 61q7 33 -20.5 48.5t-94.5 15.5h-600q-155 0 -216.5 49t-37.5 153q27 117 135 172.5t308 55.5h400q211 0 297.5 -56t59.5 -174h-200q7 34 -47 49.5t-178 15.5h-450q-119 0 -134 -61q-7 -33 18 -48.5t87 -15.5
h600q160 0 224 -48.5t40 -151.5q-27 -118 -142 -174t-331 -56h-410q-211 0 -297.5 56t-59.5 174z" />
    <glyph glyph-name="t" unicode="t" horiz-adv-x="1280" 
d="M80 540l37 160h1240l-37 -160h-520l-125 -540h-200l125 540h-520z" />
    <glyph glyph-name="u" unicode="u" horiz-adv-x="1360" 
d="M89 320l88 380h200l-88 -380q-20 -85 30.5 -125t176.5 -40h310q126 0 194.5 40t88.5 125l88 380h200l-88 -380q-39 -170 -173 -250t-378 -80h-250q-244 0 -341 80t-58 250z" />
    <glyph glyph-name="v" unicode="v" 
d="M87 700h240l239 -480l61 -170h40l139 170l461 480h240l-682 -700h-380z" />
    <glyph glyph-name="w" unicode="w" horiz-adv-x="2138" 
d="M117 700h230l169 -480l11 -170h40l414 650h370l114 -650h40l89 170l391 480h230l-572 -700h-367l-91 480l-11 170h-40l-89 -170l-313 -480h-367z" />
    <glyph glyph-name="x" unicode="x" horiz-adv-x="1300" 
d="M-75 0l537 330l10 40l-325 330h270l245 -280h40l375 280h270l-477 -330l-10 -40l385 -330h-300l-275 280h-40l-405 -280h-300z" />
    <glyph glyph-name="y" unicode="y" horiz-adv-x="1280" 
d="M87 700h250l216 -275l68 -140h40l132 140l344 275h250l-588 -465h-70l-54 -235h-200l54 235h-70z" />
    <glyph glyph-name="z" unicode="z" horiz-adv-x="1180" 
d="M-25 0l72 310l1093 230l9 40l-429 -40h-600l37 160h1070l-72 -310l-1093 -230l-9 -40l459 40h600l-37 -160h-1100z" />
    <glyph glyph-name="braceleft" unicode="{" horiz-adv-x="730" 
d="M52 290l28 120q230 0 248 78q3 12 4 61.5t7 75.5q17 74 93.5 109.5t221.5 35.5q78 0 187 -10l-35 -150q-81 10 -144 10q-163 0 -182 -79q-2 -12 -6 -49.5t-7 -48.5q-16 -73 -186 -73l-10 -40q87 0 124.5 -18t29.5 -55q-2 -9 -16 -47.5t-17 -51.5q-10 -40 25.5 -59
t120.5 -19q61 0 148 10l-35 -150q-111 -10 -191 -10q-145 0 -204.5 35.5t-42.5 110.5q6 26 27 75t24 61q9 40 -42.5 59t-169.5 19z" />
    <glyph glyph-name="bar" unicode="|" horiz-adv-x="281" 
d="M-28 -60l190 820h180l-190 -820h-180z" />
    <glyph glyph-name="braceright" unicode="}" horiz-adv-x="731" 
d="M683 290q-230 0 -248 -78q-3 -12 -4 -61t-7 -75q-17 -75 -93.5 -110.5t-221.5 -35.5q-78 0 -187 10l35 150q81 -10 144 -10q163 0 182 78q2 12 6 50t7 49q16 73 186 73l10 40q-87 0 -124.5 18t-29.5 55q2 9 16 47t17 51q10 41 -25.5 60t-120.5 19q-61 0 -148 -10l35 150
q111 10 191 10q145 0 204.5 -35.5t42.5 -109.5q-6 -27 -27 -76t-24 -61q-9 -40 42.5 -59t169.5 -19z" />
    <glyph glyph-name="asciitilde" unicode="~" horiz-adv-x="820" 
d="M56 250q0 123 48.5 181.5t149.5 58.5q62 0 115.5 -22t83.5 -48t69 -48t77 -22q40 0 58.5 24t18.5 76h120q0 -123 -48.5 -181.5t-149.5 -58.5q-62 0 -115.5 22t-83.5 48t-69 48t-77 22q-40 0 -58.5 -24t-18.5 -76h-120z" />
    <glyph glyph-name="exclamdown" unicode="&#xa1;" horiz-adv-x="321" 
d="M111 540l37 160h220l-37 -160h-220zM-28 -60l136 500h180l-96 -500h-220z" />
    <glyph glyph-name="cent" unicode="&#xa2;" horiz-adv-x="1264" 
d="M66 350q39 169 167.5 248t362.5 79h46l15 103h180l-33 -103h37q234 0 329.5 -66t63.5 -206h-182q14 63 -38.5 92.5t-179.5 29.5h-300q-126 0 -195.5 -43t-90.5 -134t28.5 -134t175.5 -43h310q126 0 192.5 29.5t80.5 92.5h182q-32 -140 -157.5 -206t-359.5 -66h-46
l-15 -103h-180l33 103h-46q-234 0 -326.5 79t-53.5 248z" />
    <glyph glyph-name="sterling" unicode="&#xa3;" horiz-adv-x="1301" 
d="M-14 0l54 235q131 0 166 65h-151l23 100h138v35q0 134 133 204.5t361 70.5h220q200 0 280.5 -63t49.5 -197h-200q11 49 -37 72t-161 23h-260q-85 0 -134 -28t-52 -82l-1 -35h573l-23 -100h-558q-37 -128 -339 -160l-9 -40l464 60h700l-37 -160h-1200z" />
    <glyph glyph-name="currency" unicode="&#xa4;" horiz-adv-x="900" 
d="M17 138l66 48q-41 59 -17 164q24 104 93 164l-44 48l139 113l58 -90q70 15 159 15h106q89 0 151 -15l100 90l87 -113l-66 -48q41 -59 17 -164q-24 -104 -93 -164l44 -48l-139 -113l-58 90q-70 -15 -159 -15h-106q-89 0 -151 15l-100 -90zM205 350q-16 -70 22 -102.5
t134 -32.5h148q189 0 219 135q16 70 -22.5 102.5t-134.5 32.5h-148q-96 0 -149 -32.5t-69 -102.5z" />
    <glyph glyph-name="yen" unicode="&#xa5;" 
d="M1447 700l-456 -335h228l-20 -90h-400l-16 -70h400l-21 -90h-400l-27 -115h-200l27 115h-400l21 90h400l16 70h-400l20 90h229l-301 335h250l211 -235l82 -140h40l148 140l319 235h250z" />
    <glyph glyph-name="brokenbar" unicode="&#xa6;" horiz-adv-x="281" 
d="M162 760h180l-93 -360h-160zM-28 -60l93 360h160l-73 -360h-180z" />
    <glyph glyph-name="section" unicode="&#xa7;" horiz-adv-x="1228" 
d="M-13 9h182q-5 -20 16.5 -33t70.5 -19.5t127 -6.5h428q118 0 130 55q7 30 -18 44t-86 14h-546q-140 0 -197.5 37.5t-39.5 116.5q15 62 64 94t139 38l9 40q-87 6 -121 38.5t-20 95.5q21 91 117 134t278 43h364q191 0 270 -51t54 -158h-181q7 30 -43.5 44.5t-162.5 14.5
h-409q-109 0 -121 -55q-7 -30 16 -44t79 -14h546q146 0 205.5 -38t40.5 -120q-29 -128 -203 -128l-9 -40q88 -6 122.5 -37.5t20.5 -92.5q-22 -93 -125 -137t-299 -44h-373q-192 0 -271 51t-54 158zM234 249q-7 -30 16 -44t79 -14h537q119 0 132 60q7 30 -18 44t-86 14h-537
q-110 0 -123 -60z" />
    <glyph glyph-name="dieresis" unicode="&#xa8;" horiz-adv-x="840" 
d="M161 760h220l-32 -140h-220zM581 760h220l-32 -140h-220z" />
    <glyph glyph-name="copyright" unicode="&#xa9;" horiz-adv-x="1260" 
d="M66 350q43 185 184.5 272.5t398.5 87.5h160q257 0 358.5 -87.5t58.5 -272.5t-184.5 -272.5t-398.5 -87.5h-160q-257 0 -358.5 87.5t-58.5 272.5zM166 350q-33 -142 32 -208.5t235 -66.5h300q170 0 265 66.5t128 208.5t-32 208.5t-235 66.5h-300q-170 0 -265 -66.5
t-128 -208.5zM256 350q25 107 106.5 157.5t230.5 50.5h176q149 0 210 -42t40 -131h-116q9 40 -24.5 59t-113.5 19h-211q-157 0 -183 -113q-14 -58 18 -85.5t113 -27.5h216q157 0 175 78h115q-21 -89 -100.5 -131t-228.5 -42h-182q-149 0 -207.5 50.5t-33.5 157.5z" />
    <glyph glyph-name="logicalnot" unicode="&#xac;" horiz-adv-x="900" 
d="M68 360l33 140h800l-70 -300h-140l37 160h-660z" />
    <glyph glyph-name="registered" unicode="&#xae;" horiz-adv-x="906" 
d="M105 520q30 129 128 189.5t277 60.5h112q179 0 249 -60.5t40 -189.5t-128 -189.5t-277 -60.5h-112q-179 0 -249 60.5t-40 189.5zM175 520q-23 -98 22 -144.5t163 -46.5h208q118 0 184.5 46.5t88.5 144.5q23 98 -22 144.5t-163 46.5h-208q-118 0 -184.5 -46.5
t-88.5 -144.5zM313 403l54 234h268q61 0 86 -15.5t17 -48.5q-12 -49 -83 -55l-2 -6h20l46 -109h-81l-26 75h-215l-17 -75h-67zM409 528h208q44 0 50 27q4 15 -5 22t-32 7h-208z" />
    <glyph glyph-name="macron" unicode="&#xaf;" horiz-adv-x="900" 
d="M156 740h800l-28 -120h-800z" />
    <glyph glyph-name="degree" unicode="&#xb0;" horiz-adv-x="740" 
d="M103 510q24 103 102.5 151.5t221.5 48.5h84q143 0 199.5 -48.5t32.5 -151.5t-102.5 -151.5t-221.5 -48.5h-84q-143 0 -199.5 48.5t-32.5 151.5zM244 510q-9 -40 18.5 -59t95.5 -19h94q133 0 150 78q9 41 -18.5 59.5t-95.5 18.5h-94q-133 0 -150 -78z" />
    <glyph glyph-name="plusminus" unicode="&#xb1;" horiz-adv-x="900" 
d="M585 520h320l-32 -140h-320l-42 -180h-160l42 180h-320l32 140h320l42 180h160zM-15 0l33 140h800l-33 -140h-800z" />
    <glyph glyph-name="acute" unicode="&#xb4;" horiz-adv-x="640" 
d="M700 760l-432 -140h-140l438 250z" />
    <glyph glyph-name="paragraph" unicode="&#xb6;" horiz-adv-x="1211" 
d="M89 447q30 130 129 191.5t279 61.5h760l-184 -800h-180l145 630h-120l-145 -630h-180l68 295h-280q-180 0 -251 61t-41 191z" />
    <glyph glyph-name="periodcentered" unicode="&#xb7;" horiz-adv-x="321" 
d="M92 460h220l-50 -220h-220z" />
    <glyph glyph-name="cedilla" unicode="&#xb8;" horiz-adv-x="730" 
d="M-45 -170h102q-4 -19 25 -28.5t94 -9.5h218q80 0 89 38q5 20 -12.5 29.5t-59.5 9.5h-91q-122 0 -206 -11l-98 41l54 101h160l-77 -101l19 -7q87 48 210 48h56q89 0 125 -26.5t23 -82.5q-15 -63 -77.5 -93t-180.5 -30h-192q-108 0 -151.5 29.5t-29.5 92.5z" />
    <glyph glyph-name="onequarter" unicode="&#xbc;" horiz-adv-x="1381" 
d="M152 594q150 0 194 107h188l-82 -357h-102l54 235l43 97h-21q-41 -84 -112 -124t-181 -40zM99 70l516 300l492 330l34 -70l-516 -300l-492 -330zM623 77l36 158q318 31 378 122h199l-46 -199h123l-19 -81h-122l-18 -77h-102l18 77h-447zM666 156l-5 -21l205 23h222l20 87
l41 87h-21q-47 -73 -159.5 -116t-302.5 -60z" />
    <glyph glyph-name="onehalf" unicode="&#xbd;" horiz-adv-x="1401" 
d="M152 594q150 0 194 107h188l-82 -357h-102l54 235l43 97h-21q-41 -84 -112 -124t-181 -40zM99 70l516 300l492 330l34 -70l-516 -300l-492 -330zM704 0l35 151l424 48q74 9 83 46q4 17 -11 25t-53 8h-184q-122 0 -136 -59h-102q17 74 76 108.5t166 34.5h163
q108 0 152 -27.5t31 -86.5q-23 -101 -191 -120l-408 -46l-5 -21l234 21h337l-19 -82h-592z" />
    <glyph glyph-name="threequarters" unicode="&#xbe;" horiz-adv-x="1626" 
d="M96 481h102q-7 -29 18.5 -42.5t86.5 -13.5h234q77 0 84 32q4 17 -12.5 24t-56.5 7h-286l18 77h280q77 0 84 31q8 33 -69 33h-229q-113 0 -125 -57h-103q16 71 72.5 104.5t158.5 33.5h235q98 0 138.5 -20t30.5 -67q-18 -69 -120 -76l-5 -20q55 -5 76 -25.5t11 -60.5
q-12 -52 -62.5 -75t-148.5 -23h-245q-102 0 -142.5 33.5t-24.5 104.5zM344 70l516 300l492 330l34 -70l-516 -300l-492 -330zM868 77l36 158q318 31 378 122h199l-46 -199h123l-19 -81h-122l-18 -77h-102l18 77h-447zM911 156l-5 -21l205 23h222l20 87l41 87h-21
q-47 -73 -159.5 -116t-302.5 -60z" />
    <glyph glyph-name="questiondown" unicode="&#xbf;" horiz-adv-x="1220" 
d="M780 540h-220l37 160h220zM737 440l-9 -40q-21 -90 -86.5 -125.5t-210.5 -54.5l-77 -10q-124 -16 -135 -62q-4 -18 7 -30t34 -16.5t36.5 -5.5t30.5 -1h360q124 0 190.5 35.5t83.5 109.5h200q-37 -160 -154 -235t-328 -75h-320q-198 0 -282 52t-59 160q22 92 105.5 141.5
t242.5 66.5l97 10q77 7 89 60l5 20h180z" />
    <glyph glyph-name="Agrave" unicode="&#xc0;" 
d="M373 900l186 110l322 -250h-140zM-75 0l682 700h380l358 -700h-240l-54 110h-780l-106 -110h-240zM405 250h576l-115 230l-61 170h-40l-139 -170z" />
    <glyph glyph-name="Aacute" unicode="&#xc1;" 
d="M1313 900l-432 -140h-140l438 250zM-75 0l682 700h380l358 -700h-240l-54 110h-780l-106 -110h-240zM405 250h576l-115 230l-61 170h-40l-139 -170z" />
    <glyph glyph-name="Acircumflex" unicode="&#xc2;" 
d="M452 820l398 190h180l222 -190l-228 -60l-87 200h-40l-273 -200zM-75 0l682 700h380l358 -700h-240l-54 110h-780l-106 -110h-240zM405 250h576l-115 230l-61 170h-40l-139 -170z" />
    <glyph glyph-name="Atilde" unicode="&#xc3;" 
d="M494 800q26 113 86.5 166.5t162.5 53.5q51 0 91.5 -14.5t66 -35t48 -41t49.5 -35t58 -14.5q77 0 100 100h120q-26 -113 -86.5 -166.5t-162.5 -53.5q-51 0 -91.5 14.5t-66 35t-48 41t-49.5 35t-58 14.5q-77 0 -100 -100h-120zM-75 0l682 700h380l358 -700h-240l-54 110
h-780l-106 -110h-240zM405 250h576l-115 230l-61 170h-40l-139 -170z" />
    <glyph glyph-name="Adieresis" unicode="&#xc4;" 
d="M523 900h220l-32 -140h-220zM943 900h220l-32 -140h-220zM-75 0l682 700h380l358 -700h-240l-54 110h-780l-106 -110h-240zM405 250h576l-115 230l-61 170h-40l-139 -170z" />
    <glyph glyph-name="Aring" unicode="&#xc5;" 
d="M992 690l353 -690h-240l-54 110h-780l-106 -110h-240l673 691q-146 29 -116 159q20 87 97 128.5t220 41.5h144q143 0 201 -41.5t38 -128.5q-30 -129 -190 -160zM593 850q-9 -38 23.5 -55.5t110.5 -17.5h177q150 0 167 73q9 38 -23.5 55.5t-110.5 17.5h-177
q-150 0 -167 -73zM405 250h576l-115 230l-61 170h-40l-139 -170z" />
    <glyph glyph-name="AE" unicode="&#xc6;" horiz-adv-x="1910" 
d="M-75 0l687 700h1345l-37 -160h-790l-28 -120h740l-32 -140h-740l-28 -120h800l-37 -160h-1000l26 110h-560l-106 -110h-240zM405 250h458l67 290h-255l-49 -60z" />
    <glyph glyph-name="Ccedilla" unicode="&#xc7;" horiz-adv-x="1380" 
d="M1350 410h-200q16 70 -42 102.5t-197 32.5h-330q-139 0 -215.5 -47.5t-99.5 -147.5t31.5 -147.5t193.5 -47.5h340q139 0 212 32.5t89 102.5h200q-35 -154 -173.5 -227t-395.5 -73h-67l-69 -91l19 -7q87 48 210 48h56q89 0 125 -26.5t23 -82.5q-15 -63 -77.5 -93
t-180.5 -30h-192q-108 0 -151.5 29.5t-29.5 92.5h102q-4 -19 25 -28.5t94 -9.5h218q80 0 89 38q5 20 -12.5 29.5t-59.5 9.5h-91q-122 0 -206 -11l-98 41l49 91h-56q-257 0 -358.5 87.5t-58.5 272.5t184.5 272.5t398.5 87.5h270q257 0 361.5 -72.5t69.5 -227.5z" />
    <glyph glyph-name="Egrave" unicode="&#xc8;" horiz-adv-x="1220" 
d="M283 900l186 110l322 -250h-140zM15 0l162 700h1090l-37 -160h-890l-27 -115h840l-34 -150h-840l-27 -115h900l-37 -160h-1100z" />
    <glyph glyph-name="Eacute" unicode="&#xc9;" horiz-adv-x="1220" 
d="M1223 900l-432 -140h-140l438 250zM15 0l162 700h1090l-37 -160h-890l-27 -115h840l-34 -150h-840l-27 -115h900l-37 -160h-1100z" />
    <glyph glyph-name="Ecircumflex" unicode="&#xca;" horiz-adv-x="1220" 
d="M362 820l398 190h180l222 -190l-228 -60l-87 200h-40l-273 -200zM15 0l162 700h1090l-37 -160h-890l-27 -115h840l-34 -150h-840l-27 -115h900l-37 -160h-1100z" />
    <glyph glyph-name="Edieresis" unicode="&#xcb;" horiz-adv-x="1220" 
d="M433 900h220l-32 -140h-220zM853 900h220l-32 -140h-220zM15 0l162 700h1090l-37 -160h-890l-27 -115h840l-34 -150h-840l-27 -115h900l-37 -160h-1100z" />
    <glyph glyph-name="Igrave" unicode="&#xcc;" horiz-adv-x="360" 
d="M-147 900l186 110l322 -250h-140zM15 0l162 700h200l-162 -700h-200z" />
    <glyph glyph-name="Iacute" unicode="&#xcd;" horiz-adv-x="360" 
d="M793 900l-432 -140h-140l438 250zM15 0l162 700h200l-162 -700h-200z" />
    <glyph glyph-name="Icircumflex" unicode="&#xce;" horiz-adv-x="360" 
d="M-68 820l398 190h180l222 -190l-228 -60l-87 200h-40l-273 -200zM15 0l162 700h200l-162 -700h-200z" />
    <glyph glyph-name="Idieresis" unicode="&#xcf;" horiz-adv-x="360" 
d="M3 900h220l-32 -140h-220zM423 900h220l-32 -140h-220zM15 0l162 700h200l-162 -700h-200z" />
    <glyph glyph-name="Eth" unicode="&#xd0;" horiz-adv-x="1470" 
d="M1037 700q247 0 343.5 -85t55.5 -265t-177.5 -265t-383.5 -85h-720l65 280h-200l32 140h200l65 280h720zM1236 350q22 95 -28.5 140t-178.5 45h-550l-27 -115h600l-32 -140h-600l-27 -115h550q128 0 199.5 45t93.5 140z" />
    <glyph glyph-name="Ntilde" unicode="&#xd1;" horiz-adv-x="1360" 
d="M474 800q26 113 86.5 166.5t162.5 53.5q51 0 91.5 -14.5t66 -35t48 -41t49.5 -35t58 -14.5q77 0 100 100h120q-26 -113 -86.5 -166.5t-162.5 -53.5q-51 0 -91.5 14.5t-66 35t-48 41t-49.5 35t-58 14.5q-77 0 -100 -100h-120zM15 0l162 700h400l450 -650h40l-1 170
l111 480h200l-162 -700h-400l-450 650h-40l1 -170l-111 -480h-200z" />
    <glyph glyph-name="Ograve" unicode="&#xd2;" 
d="M373 900l186 110l322 -250h-140zM66 350q43 185 184.5 272.5t398.5 87.5h300q257 0 358.5 -87.5t58.5 -272.5t-184.5 -272.5t-398.5 -87.5h-300q-257 0 -358.5 87.5t-58.5 272.5zM266 350q-23 -100 31.5 -147.5t193.5 -47.5h360q139 0 215.5 47.5t99.5 147.5t-31.5 147.5
t-193.5 47.5h-360q-139 0 -215.5 -47.5t-99.5 -147.5z" />
    <glyph glyph-name="Oacute" unicode="&#xd3;" 
d="M1313 900l-432 -140h-140l438 250zM66 350q43 185 184.5 272.5t398.5 87.5h300q257 0 358.5 -87.5t58.5 -272.5t-184.5 -272.5t-398.5 -87.5h-300q-257 0 -358.5 87.5t-58.5 272.5zM266 350q-23 -100 31.5 -147.5t193.5 -47.5h360q139 0 215.5 47.5t99.5 147.5
t-31.5 147.5t-193.5 47.5h-360q-139 0 -215.5 -47.5t-99.5 -147.5z" />
    <glyph glyph-name="Ocircumflex" unicode="&#xd4;" 
d="M452 820l398 190h180l222 -190l-228 -60l-87 200h-40l-273 -200zM66 350q43 185 184.5 272.5t398.5 87.5h300q257 0 358.5 -87.5t58.5 -272.5t-184.5 -272.5t-398.5 -87.5h-300q-257 0 -358.5 87.5t-58.5 272.5zM266 350q-23 -100 31.5 -147.5t193.5 -47.5h360
q139 0 215.5 47.5t99.5 147.5t-31.5 147.5t-193.5 47.5h-360q-139 0 -215.5 -47.5t-99.5 -147.5z" />
    <glyph glyph-name="Otilde" unicode="&#xd5;" 
d="M494 800q26 113 86.5 166.5t162.5 53.5q51 0 91.5 -14.5t66 -35t48 -41t49.5 -35t58 -14.5q77 0 100 100h120q-26 -113 -86.5 -166.5t-162.5 -53.5q-51 0 -91.5 14.5t-66 35t-48 41t-49.5 35t-58 14.5q-77 0 -100 -100h-120zM66 350q43 185 184.5 272.5t398.5 87.5h300
q257 0 358.5 -87.5t58.5 -272.5t-184.5 -272.5t-398.5 -87.5h-300q-257 0 -358.5 87.5t-58.5 272.5zM266 350q-23 -100 31.5 -147.5t193.5 -47.5h360q139 0 215.5 47.5t99.5 147.5t-31.5 147.5t-193.5 47.5h-360q-139 0 -215.5 -47.5t-99.5 -147.5z" />
    <glyph glyph-name="Odieresis" unicode="&#xd6;" 
d="M523 900h220l-32 -140h-220zM943 900h220l-32 -140h-220zM66 350q43 185 184.5 272.5t398.5 87.5h300q257 0 358.5 -87.5t58.5 -272.5t-184.5 -272.5t-398.5 -87.5h-300q-257 0 -358.5 87.5t-58.5 272.5zM266 350q-23 -100 31.5 -147.5t193.5 -47.5h360q139 0 215.5 47.5
t99.5 147.5t-31.5 147.5t-193.5 47.5h-360q-139 0 -215.5 -47.5t-99.5 -147.5z" />
    <glyph glyph-name="multiply" unicode="&#xd7;" horiz-adv-x="836" 
d="M26 178l273 152l10 40l-203 152l106 115l242 -202l334 202l54 -115l-273 -152l-10 -40l203 -152l-106 -115l-242 202l-334 -202z" />
    <glyph glyph-name="Oslash" unicode="&#xd8;" 
d="M13 120l60 25q-36 80 -7 205q43 185 184.5 272.5t398.5 87.5h300q217 0 319 -60l119 50l32 -120l-60 -25q36 -80 7 -205q-43 -185 -184.5 -272.5t-398.5 -87.5h-300q-217 0 -319 60l-119 -50zM266 350q-18 -73 8 -120l658 278l9 37h-360q-139 0 -215.5 -47.5
t-99.5 -147.5zM491 155h360q139 0 215.5 47.5t99.5 147.5q18 73 -8 120l-658 -278z" />
    <glyph glyph-name="Ugrave" unicode="&#xd9;" horiz-adv-x="1360" 
d="M353 900l186 110l322 -250h-140zM89 320l88 380h200l-88 -380q-20 -85 30.5 -125t176.5 -40h310q126 0 194.5 40t88.5 125l88 380h200l-88 -380q-39 -170 -173 -250t-378 -80h-250q-244 0 -341 80t-58 250z" />
    <glyph glyph-name="Uacute" unicode="&#xda;" horiz-adv-x="1360" 
d="M1293 900l-432 -140h-140l438 250zM89 320l88 380h200l-88 -380q-20 -85 30.5 -125t176.5 -40h310q126 0 194.5 40t88.5 125l88 380h200l-88 -380q-39 -170 -173 -250t-378 -80h-250q-244 0 -341 80t-58 250z" />
    <glyph glyph-name="Ucircumflex" unicode="&#xdb;" horiz-adv-x="1360" 
d="M432 820l398 190h180l222 -190l-228 -60l-87 200h-40l-273 -200zM89 320l88 380h200l-88 -380q-20 -85 30.5 -125t176.5 -40h310q126 0 194.5 40t88.5 125l88 380h200l-88 -380q-39 -170 -173 -250t-378 -80h-250q-244 0 -341 80t-58 250z" />
    <glyph glyph-name="Udieresis" unicode="&#xdc;" horiz-adv-x="1360" 
d="M503 900h220l-32 -140h-220zM923 900h220l-32 -140h-220zM89 320l88 380h200l-88 -380q-20 -85 30.5 -125t176.5 -40h310q126 0 194.5 40t88.5 125l88 380h200l-88 -380q-39 -170 -173 -250t-378 -80h-250q-244 0 -341 80t-58 250z" />
    <glyph glyph-name="Yacute" unicode="&#xdd;" horiz-adv-x="1280" 
d="M1253 900l-432 -140h-140l438 250zM87 700h250l216 -275l68 -140h40l132 140l344 275h250l-588 -465h-70l-54 -235h-200l54 235h-70z" />
    <glyph glyph-name="Thorn" unicode="&#xde;" horiz-adv-x="1290" 
d="M15 0l162 700h200l-23 -97h610q180 0 251 -61.5t41 -191.5t-129 -191t-279 -61h-610l-23 -98h-200zM275 258h630q130 0 150 89q10 44 -16.5 65t-93.5 21h-630z" />
    <glyph glyph-name="germandbls" unicode="&#xdf;" horiz-adv-x="1330" 
d="M15 0l81 350q41 180 156 265t315 85h450q164 0 232.5 -40t49.5 -125q-16 -67 -72.5 -102.5t-161.5 -42.5l-9 -40q123 0 172.5 -40t29.5 -124q-22 -96 -110 -141t-253 -45h-580l37 160h600q101 0 114 62q7 30 -13.5 44t-72.5 14h-482l32 140h442q100 0 114 58
q7 32 -13.5 47t-72.5 15h-440q-113 0 -177 -46t-87 -144l-81 -350h-200z" />
    <glyph glyph-name="agrave" unicode="&#xe0;" 
d="M373 900l186 110l322 -250h-140zM-75 0l682 700h380l358 -700h-240l-54 110h-780l-106 -110h-240zM405 250h576l-115 230l-61 170h-40l-139 -170z" />
    <glyph glyph-name="aacute" unicode="&#xe1;" 
d="M1313 900l-432 -140h-140l438 250zM-75 0l682 700h380l358 -700h-240l-54 110h-780l-106 -110h-240zM405 250h576l-115 230l-61 170h-40l-139 -170z" />
    <glyph glyph-name="acircumflex" unicode="&#xe2;" 
d="M452 820l398 190h180l222 -190l-228 -60l-87 200h-40l-273 -200zM-75 0l682 700h380l358 -700h-240l-54 110h-780l-106 -110h-240zM405 250h576l-115 230l-61 170h-40l-139 -170z" />
    <glyph glyph-name="atilde" unicode="&#xe3;" 
d="M494 800q26 113 86.5 166.5t162.5 53.5q51 0 91.5 -14.5t66 -35t48 -41t49.5 -35t58 -14.5q77 0 100 100h120q-26 -113 -86.5 -166.5t-162.5 -53.5q-51 0 -91.5 14.5t-66 35t-48 41t-49.5 35t-58 14.5q-77 0 -100 -100h-120zM-75 0l682 700h380l358 -700h-240l-54 110
h-780l-106 -110h-240zM405 250h576l-115 230l-61 170h-40l-139 -170z" />
    <glyph glyph-name="adieresis" unicode="&#xe4;" 
d="M523 900h220l-32 -140h-220zM943 900h220l-32 -140h-220zM-75 0l682 700h380l358 -700h-240l-54 110h-780l-106 -110h-240zM405 250h576l-115 230l-61 170h-40l-139 -170z" />
    <glyph glyph-name="aring" unicode="&#xe5;" 
d="M992 690l353 -690h-240l-54 110h-780l-106 -110h-240l673 691q-146 29 -116 159q20 87 97 128.5t220 41.5h144q143 0 201 -41.5t38 -128.5q-30 -129 -190 -160zM593 850q-9 -38 23.5 -55.5t110.5 -17.5h177q150 0 167 73q9 38 -23.5 55.5t-110.5 17.5h-177
q-150 0 -167 -73zM405 250h576l-115 230l-61 170h-40l-139 -170z" />
    <glyph glyph-name="ae" unicode="&#xe6;" horiz-adv-x="1910" 
d="M-75 0l687 700h1345l-37 -160h-790l-28 -120h740l-32 -140h-740l-28 -120h800l-37 -160h-1000l26 110h-560l-106 -110h-240zM405 250h458l67 290h-255l-49 -60z" />
    <glyph glyph-name="ccedilla" unicode="&#xe7;" horiz-adv-x="1380" 
d="M1350 410h-200q16 70 -42 102.5t-197 32.5h-330q-139 0 -215.5 -47.5t-99.5 -147.5t31.5 -147.5t193.5 -47.5h340q139 0 212 32.5t89 102.5h200q-35 -154 -173.5 -227t-395.5 -73h-67l-69 -91l19 -7q87 48 210 48h56q89 0 125 -26.5t23 -82.5q-15 -63 -77.5 -93
t-180.5 -30h-192q-108 0 -151.5 29.5t-29.5 92.5h102q-4 -19 25 -28.5t94 -9.5h218q80 0 89 38q5 20 -12.5 29.5t-59.5 9.5h-91q-122 0 -206 -11l-98 41l49 91h-56q-257 0 -358.5 87.5t-58.5 272.5t184.5 272.5t398.5 87.5h270q257 0 361.5 -72.5t69.5 -227.5z" />
    <glyph glyph-name="egrave" unicode="&#xe8;" horiz-adv-x="1220" 
d="M283 900l186 110l322 -250h-140zM15 0l162 700h1090l-37 -160h-890l-27 -115h840l-34 -150h-840l-27 -115h900l-37 -160h-1100z" />
    <glyph glyph-name="eacute" unicode="&#xe9;" horiz-adv-x="1220" 
d="M1223 900l-432 -140h-140l438 250zM15 0l162 700h1090l-37 -160h-890l-27 -115h840l-34 -150h-840l-27 -115h900l-37 -160h-1100z" />
    <glyph glyph-name="ecircumflex" unicode="&#xea;" horiz-adv-x="1220" 
d="M362 820l398 190h180l222 -190l-228 -60l-87 200h-40l-273 -200zM15 0l162 700h1090l-37 -160h-890l-27 -115h840l-34 -150h-840l-27 -115h900l-37 -160h-1100z" />
    <glyph glyph-name="edieresis" unicode="&#xeb;" horiz-adv-x="1220" 
d="M433 900h220l-32 -140h-220zM853 900h220l-32 -140h-220zM15 0l162 700h1090l-37 -160h-890l-27 -115h840l-34 -150h-840l-27 -115h900l-37 -160h-1100z" />
    <glyph glyph-name="igrave" unicode="&#xec;" horiz-adv-x="360" 
d="M-147 900l186 110l322 -250h-140zM15 0l162 700h200l-162 -700h-200z" />
    <glyph glyph-name="iacute" unicode="&#xed;" horiz-adv-x="360" 
d="M793 900l-432 -140h-140l438 250zM15 0l162 700h200l-162 -700h-200z" />
    <glyph glyph-name="icircumflex" unicode="&#xee;" horiz-adv-x="360" 
d="M-68 820l398 190h180l222 -190l-228 -60l-87 200h-40l-273 -200zM15 0l162 700h200l-162 -700h-200z" />
    <glyph glyph-name="idieresis" unicode="&#xef;" horiz-adv-x="360" 
d="M3 900h220l-32 -140h-220zM423 900h220l-32 -140h-220zM15 0l162 700h200l-162 -700h-200z" />
    <glyph glyph-name="eth" unicode="&#xf0;" horiz-adv-x="1360" 
d="M1421 760l-23 -100l-111 -31q81 -97 40 -275q-43 -187 -170 -275.5t-354 -88.5h-370q-231 0 -326.5 59t-67.5 183q26 110 120 161.5t269 51.5h290q281 0 364 -112l45 20q33 153 -54 215l-349 -98l23 100l157 44q-12 1 -37 1h-540l34 145h470q244 0 367 -63zM1088 229
q9 39 -25.5 57.5t-116.5 18.5h-530q-160 0 -178 -76q-8 -38 26.5 -56t116.5 -18h530q161 0 177 74z" />
    <glyph glyph-name="ntilde" unicode="&#xf1;" horiz-adv-x="1360" 
d="M474 800q26 113 86.5 166.5t162.5 53.5q51 0 91.5 -14.5t66 -35t48 -41t49.5 -35t58 -14.5q77 0 100 100h120q-26 -113 -86.5 -166.5t-162.5 -53.5q-51 0 -91.5 14.5t-66 35t-48 41t-49.5 35t-58 14.5q-77 0 -100 -100h-120zM15 0l162 700h400l450 -650h40l-1 170
l111 480h200l-162 -700h-400l-450 650h-40l1 -170l-111 -480h-200z" />
    <glyph glyph-name="ograve" unicode="&#xf2;" 
d="M373 900l186 110l322 -250h-140zM66 350q43 185 184.5 272.5t398.5 87.5h300q257 0 358.5 -87.5t58.5 -272.5t-184.5 -272.5t-398.5 -87.5h-300q-257 0 -358.5 87.5t-58.5 272.5zM266 350q-23 -100 31.5 -147.5t193.5 -47.5h360q139 0 215.5 47.5t99.5 147.5t-31.5 147.5
t-193.5 47.5h-360q-139 0 -215.5 -47.5t-99.5 -147.5z" />
    <glyph glyph-name="oacute" unicode="&#xf3;" 
d="M1313 900l-432 -140h-140l438 250zM66 350q43 185 184.5 272.5t398.5 87.5h300q257 0 358.5 -87.5t58.5 -272.5t-184.5 -272.5t-398.5 -87.5h-300q-257 0 -358.5 87.5t-58.5 272.5zM266 350q-23 -100 31.5 -147.5t193.5 -47.5h360q139 0 215.5 47.5t99.5 147.5
t-31.5 147.5t-193.5 47.5h-360q-139 0 -215.5 -47.5t-99.5 -147.5z" />
    <glyph glyph-name="ocircumflex" unicode="&#xf4;" 
d="M452 820l398 190h180l222 -190l-228 -60l-87 200h-40l-273 -200zM66 350q43 185 184.5 272.5t398.5 87.5h300q257 0 358.5 -87.5t58.5 -272.5t-184.5 -272.5t-398.5 -87.5h-300q-257 0 -358.5 87.5t-58.5 272.5zM266 350q-23 -100 31.5 -147.5t193.5 -47.5h360
q139 0 215.5 47.5t99.5 147.5t-31.5 147.5t-193.5 47.5h-360q-139 0 -215.5 -47.5t-99.5 -147.5z" />
    <glyph glyph-name="otilde" unicode="&#xf5;" 
d="M494 800q26 113 86.5 166.5t162.5 53.5q51 0 91.5 -14.5t66 -35t48 -41t49.5 -35t58 -14.5q77 0 100 100h120q-26 -113 -86.5 -166.5t-162.5 -53.5q-51 0 -91.5 14.5t-66 35t-48 41t-49.5 35t-58 14.5q-77 0 -100 -100h-120zM66 350q43 185 184.5 272.5t398.5 87.5h300
q257 0 358.5 -87.5t58.5 -272.5t-184.5 -272.5t-398.5 -87.5h-300q-257 0 -358.5 87.5t-58.5 272.5zM266 350q-23 -100 31.5 -147.5t193.5 -47.5h360q139 0 215.5 47.5t99.5 147.5t-31.5 147.5t-193.5 47.5h-360q-139 0 -215.5 -47.5t-99.5 -147.5z" />
    <glyph glyph-name="odieresis" unicode="&#xf6;" 
d="M523 900h220l-32 -140h-220zM943 900h220l-32 -140h-220zM66 350q43 185 184.5 272.5t398.5 87.5h300q257 0 358.5 -87.5t58.5 -272.5t-184.5 -272.5t-398.5 -87.5h-300q-257 0 -358.5 87.5t-58.5 272.5zM266 350q-23 -100 31.5 -147.5t193.5 -47.5h360q139 0 215.5 47.5
t99.5 147.5t-31.5 147.5t-193.5 47.5h-360q-139 0 -215.5 -47.5t-99.5 -147.5z" />
    <glyph glyph-name="divide" unicode="&#xf7;" horiz-adv-x="900" 
d="M417 700h260l-51 -220h-260zM52 290l28 120h800l-28 -120h-800zM255 0l51 220h260l-51 -220h-260z" />
    <glyph glyph-name="oslash" unicode="&#xf8;" 
d="M13 120l60 25q-36 80 -7 205q43 185 184.5 272.5t398.5 87.5h300q217 0 319 -60l119 50l32 -120l-60 -25q36 -80 7 -205q-43 -185 -184.5 -272.5t-398.5 -87.5h-300q-217 0 -319 60l-119 -50zM266 350q-18 -73 8 -120l658 278l9 37h-360q-139 0 -215.5 -47.5
t-99.5 -147.5zM491 155h360q139 0 215.5 47.5t99.5 147.5q18 73 -8 120l-658 -278z" />
    <glyph glyph-name="ugrave" unicode="&#xf9;" horiz-adv-x="1360" 
d="M353 900l186 110l322 -250h-140zM89 320l88 380h200l-88 -380q-20 -85 30.5 -125t176.5 -40h310q126 0 194.5 40t88.5 125l88 380h200l-88 -380q-39 -170 -173 -250t-378 -80h-250q-244 0 -341 80t-58 250z" />
    <glyph glyph-name="uacute" unicode="&#xfa;" horiz-adv-x="1360" 
d="M1293 900l-432 -140h-140l438 250zM89 320l88 380h200l-88 -380q-20 -85 30.5 -125t176.5 -40h310q126 0 194.5 40t88.5 125l88 380h200l-88 -380q-39 -170 -173 -250t-378 -80h-250q-244 0 -341 80t-58 250z" />
    <glyph glyph-name="ucircumflex" unicode="&#xfb;" horiz-adv-x="1360" 
d="M432 820l398 190h180l222 -190l-228 -60l-87 200h-40l-273 -200zM89 320l88 380h200l-88 -380q-20 -85 30.5 -125t176.5 -40h310q126 0 194.5 40t88.5 125l88 380h200l-88 -380q-39 -170 -173 -250t-378 -80h-250q-244 0 -341 80t-58 250z" />
    <glyph glyph-name="udieresis" unicode="&#xfc;" horiz-adv-x="1360" 
d="M503 900h220l-32 -140h-220zM923 900h220l-32 -140h-220zM89 320l88 380h200l-88 -380q-20 -85 30.5 -125t176.5 -40h310q126 0 194.5 40t88.5 125l88 380h200l-88 -380q-39 -170 -173 -250t-378 -80h-250q-244 0 -341 80t-58 250z" />
    <glyph glyph-name="yacute" unicode="&#xfd;" horiz-adv-x="1280" 
d="M1253 900l-432 -140h-140l438 250zM87 700h250l216 -275l68 -140h40l132 140l344 275h250l-588 -465h-70l-54 -235h-200l54 235h-70z" />
    <glyph glyph-name="thorn" unicode="&#xfe;" horiz-adv-x="1290" 
d="M15 0l162 700h200l-23 -97h610q180 0 251 -61.5t41 -191.5t-129 -191t-279 -61h-610l-23 -98h-200zM275 258h630q130 0 150 89q10 44 -16.5 65t-93.5 21h-630z" />
    <glyph glyph-name="ydieresis" unicode="&#xff;" horiz-adv-x="1280" 
d="M463 900h220l-32 -140h-220zM883 900h220l-32 -140h-220zM87 700h250l216 -275l68 -140h40l132 140l344 275h250l-588 -465h-70l-54 -235h-200l54 235h-70z" />
    <glyph glyph-name="Amacron" unicode="&#x100;" 
d="M443 898h800l-28 -120h-800zM-75 0l682 700h380l358 -700h-240l-54 110h-780l-106 -110h-240zM405 250h576l-115 230l-61 170h-40l-139 -170z" />
    <glyph glyph-name="amacron" unicode="&#x101;" 
d="M443 898h800l-28 -120h-800zM-75 0l682 700h380l358 -700h-240l-54 110h-780l-106 -110h-240zM405 250h576l-115 230l-61 170h-40l-139 -170z" />
    <glyph glyph-name="Abreve" unicode="&#x102;" 
d="M853 760q-250 0 -328 180l76 70q38 -58 109.5 -94t170.5 -36t187 36t153 94l44 -70q-162 -180 -412 -180zM-75 0l682 700h380l358 -700h-240l-54 110h-780l-106 -110h-240zM405 250h576l-115 230l-61 170h-40l-139 -170z" />
    <glyph glyph-name="abreve" unicode="&#x103;" 
d="M853 760q-250 0 -328 180l76 70q38 -58 109.5 -94t170.5 -36t187 36t153 94l44 -70q-162 -180 -412 -180zM-75 0l682 700h380l358 -700h-240l-54 110h-780l-106 -110h-240zM405 250h576l-115 230l-61 170h-40l-139 -170z" />
    <glyph glyph-name="Aogonek" unicode="&#x104;" 
d="M1221 -146q174 0 291 30l-19 -84q-98 -30 -269 -30q-153 0 -214.5 26.5t-47.5 85.5q18 79 142 119l-53 109h-780l-106 -110h-240l682 700h380l356 -697l30 -3q-289 -35 -306 -104q-5 -23 29.5 -32.5t124.5 -9.5zM405 250h576l-115 230l-61 170h-40l-139 -170z" />
    <glyph glyph-name="aogonek" unicode="&#x105;" 
d="M1221 -146q174 0 291 30l-19 -84q-98 -30 -269 -30q-153 0 -214.5 26.5t-47.5 85.5q18 79 142 119l-53 109h-780l-106 -110h-240l682 700h380l356 -697l30 -3q-289 -35 -306 -104q-5 -23 29.5 -32.5t124.5 -9.5zM405 250h576l-115 230l-61 170h-40l-139 -170z" />
    <glyph glyph-name="Cacute" unicode="&#x106;" horiz-adv-x="1380" 
d="M1303 900l-432 -140h-140l438 250zM66 350q43 185 184.5 272.5t398.5 87.5h270q257 0 361.5 -72.5t69.5 -227.5h-200q16 70 -42 102.5t-197 32.5h-330q-139 0 -215.5 -47.5t-99.5 -147.5t31.5 -147.5t193.5 -47.5h340q139 0 212 32.5t89 102.5h200q-35 -154 -173.5 -227
t-395.5 -73h-280q-257 0 -358.5 87.5t-58.5 272.5z" />
    <glyph glyph-name="cacute" unicode="&#x107;" horiz-adv-x="1380" 
d="M1303 900l-432 -140h-140l438 250zM66 350q43 185 184.5 272.5t398.5 87.5h270q257 0 361.5 -72.5t69.5 -227.5h-200q16 70 -42 102.5t-197 32.5h-330q-139 0 -215.5 -47.5t-99.5 -147.5t31.5 -147.5t193.5 -47.5h340q139 0 212 32.5t89 102.5h200q-35 -154 -173.5 -227
t-395.5 -73h-280q-257 0 -358.5 87.5t-58.5 272.5z" />
    <glyph glyph-name="Cdotaccent" unicode="&#x10a;" horiz-adv-x="1380" 
d="M801 760q-67 0 -94.5 18t-18.5 57q17 75 147 75q67 0 94.5 -18t18.5 -57q-17 -75 -147 -75zM66 350q43 185 184.5 272.5t398.5 87.5h270q257 0 361.5 -72.5t69.5 -227.5h-200q16 70 -42 102.5t-197 32.5h-330q-139 0 -215.5 -47.5t-99.5 -147.5t31.5 -147.5t193.5 -47.5
h340q139 0 212 32.5t89 102.5h200q-35 -154 -173.5 -227t-395.5 -73h-280q-257 0 -358.5 87.5t-58.5 272.5z" />
    <glyph glyph-name="cdotaccent" unicode="&#x10b;" horiz-adv-x="1380" 
d="M801 760q-67 0 -94.5 18t-18.5 57q17 75 147 75q67 0 94.5 -18t18.5 -57q-17 -75 -147 -75zM66 350q43 185 184.5 272.5t398.5 87.5h270q257 0 361.5 -72.5t69.5 -227.5h-200q16 70 -42 102.5t-197 32.5h-330q-139 0 -215.5 -47.5t-99.5 -147.5t31.5 -147.5t193.5 -47.5
h340q139 0 212 32.5t89 102.5h200q-35 -154 -173.5 -227t-395.5 -73h-280q-257 0 -358.5 87.5t-58.5 272.5z" />
    <glyph glyph-name="Ccaron" unicode="&#x10c;" horiz-adv-x="1380" 
d="M445 950l214 60l134 -200h40l226 200l186 -60l-354 -190h-180zM66 350q43 185 184.5 272.5t398.5 87.5h270q257 0 361.5 -72.5t69.5 -227.5h-200q16 70 -42 102.5t-197 32.5h-330q-139 0 -215.5 -47.5t-99.5 -147.5t31.5 -147.5t193.5 -47.5h340q139 0 212 32.5t89 102.5
h200q-35 -154 -173.5 -227t-395.5 -73h-280q-257 0 -358.5 87.5t-58.5 272.5z" />
    <glyph glyph-name="ccaron" unicode="&#x10d;" horiz-adv-x="1380" 
d="M445 950l214 60l134 -200h40l226 200l186 -60l-354 -190h-180zM66 350q43 185 184.5 272.5t398.5 87.5h270q257 0 361.5 -72.5t69.5 -227.5h-200q16 70 -42 102.5t-197 32.5h-330q-139 0 -215.5 -47.5t-99.5 -147.5t31.5 -147.5t193.5 -47.5h340q139 0 212 32.5t89 102.5
h200q-35 -154 -173.5 -227t-395.5 -73h-280q-257 0 -358.5 87.5t-58.5 272.5z" />
    <glyph glyph-name="Dcaron" unicode="&#x10e;" horiz-adv-x="1330" 
d="M420 950l214 60l134 -200h40l226 200l186 -60l-354 -190h-180zM15 0l162 700h720q247 0 343.5 -85t55.5 -265t-177.5 -265t-383.5 -85h-720zM253 165h550q128 0 199.5 45t93.5 140t-28.5 140t-178.5 45h-550z" />
    <glyph glyph-name="dcaron" unicode="&#x10f;" horiz-adv-x="1330" 
d="M420 950l214 60l134 -200h40l226 200l186 -60l-354 -190h-180zM15 0l162 700h720q247 0 343.5 -85t55.5 -265t-177.5 -265t-383.5 -85h-720zM253 165h550q128 0 199.5 45t93.5 140t-28.5 140t-178.5 45h-550z" />
    <glyph glyph-name="Dcroat" unicode="&#x110;" horiz-adv-x="1470" 
d="M1037 700q247 0 343.5 -85t55.5 -265t-177.5 -265t-383.5 -85h-720l65 280h-200l32 140h200l65 280h720zM1236 350q22 95 -28.5 140t-178.5 45h-550l-27 -115h600l-32 -140h-600l-27 -115h550q128 0 199.5 45t93.5 140z" />
    <glyph glyph-name="dcroat" unicode="&#x111;" horiz-adv-x="1470" 
d="M1037 700q247 0 343.5 -85t55.5 -265t-177.5 -265t-383.5 -85h-720l65 280h-200l32 140h200l65 280h720zM1236 350q22 95 -28.5 140t-178.5 45h-550l-27 -115h600l-32 -140h-600l-27 -115h550q128 0 199.5 45t93.5 140z" />
    <glyph glyph-name="Emacron" unicode="&#x112;" horiz-adv-x="1220" 
d="M353 898h800l-28 -120h-800zM15 0l162 700h1090l-37 -160h-890l-27 -115h840l-34 -150h-840l-27 -115h900l-37 -160h-1100z" />
    <glyph glyph-name="emacron" unicode="&#x113;" horiz-adv-x="1220" 
d="M353 898h800l-28 -120h-800zM15 0l162 700h1090l-37 -160h-890l-27 -115h840l-34 -150h-840l-27 -115h900l-37 -160h-1100z" />
    <glyph glyph-name="Edotaccent" unicode="&#x116;" horiz-adv-x="1220" 
d="M721 760q-67 0 -94.5 18t-18.5 57q17 75 147 75q67 0 94.5 -18t18.5 -57q-17 -75 -147 -75zM15 0l162 700h1090l-37 -160h-890l-27 -115h840l-34 -150h-840l-27 -115h900l-37 -160h-1100z" />
    <glyph glyph-name="edotaccent" unicode="&#x117;" horiz-adv-x="1220" 
d="M721 760q-67 0 -94.5 18t-18.5 57q17 75 147 75q67 0 94.5 -18t18.5 -57q-17 -75 -147 -75zM15 0l162 700h1090l-37 -160h-890l-27 -115h840l-34 -150h-840l-27 -115h900l-37 -160h-1100z" />
    <glyph glyph-name="Eogonek" unicode="&#x118;" horiz-adv-x="1220" 
d="M1230 540h-890l-27 -115h840l-34 -150h-840l-27 -115h900l-37 -160h-172q-289 -35 -306 -104q-5 -23 29.5 -32.5t124.5 -9.5q174 0 291 30l-19 -84q-98 -30 -269 -30q-153 0 -214.5 26.5t-47.5 85.5q18 79 138 118h-655l162 700h1090z" />
    <glyph glyph-name="eogonek" unicode="&#x119;" horiz-adv-x="1220" 
d="M1230 540h-890l-27 -115h840l-34 -150h-840l-27 -115h900l-37 -160h-172q-289 -35 -306 -104q-5 -23 29.5 -32.5t124.5 -9.5q174 0 291 30l-19 -84q-98 -30 -269 -30q-153 0 -214.5 26.5t-47.5 85.5q18 79 138 118h-655l162 700h1090z" />
    <glyph glyph-name="Ecaron" unicode="&#x11a;" horiz-adv-x="1220" 
d="M365 950l214 60l134 -200h40l226 200l186 -60l-354 -190h-180zM15 0l162 700h1090l-37 -160h-890l-27 -115h840l-34 -150h-840l-27 -115h900l-37 -160h-1100z" />
    <glyph glyph-name="ecaron" unicode="&#x11b;" horiz-adv-x="1220" 
d="M365 950l214 60l134 -200h40l226 200l186 -60l-354 -190h-180zM15 0l162 700h1090l-37 -160h-890l-27 -115h840l-34 -150h-840l-27 -115h900l-37 -160h-1100z" />
    <glyph glyph-name="Gbreve" unicode="&#x11e;" horiz-adv-x="1380" 
d="M843 760q-250 0 -328 180l76 70q38 -58 109.5 -94t170.5 -36t187 36t153 94l44 -70q-162 -180 -412 -180zM66 350q43 185 184.5 272.5t398.5 87.5h270q257 0 364.5 -62t76.5 -193h-200q11 46 -49.5 68t-199.5 22h-330q-139 0 -215.5 -47.5t-99.5 -147.5t31.5 -147.5
t193.5 -47.5h340q270 0 295 110h-710l30 130h910l-26 -115q-34 -149 -172 -219.5t-395 -70.5h-280q-257 0 -358.5 87.5t-58.5 272.5z" />
    <glyph glyph-name="gbreve" unicode="&#x11f;" horiz-adv-x="1380" 
d="M843 760q-250 0 -328 180l76 70q38 -58 109.5 -94t170.5 -36t187 36t153 94l44 -70q-162 -180 -412 -180zM66 350q43 185 184.5 272.5t398.5 87.5h270q257 0 364.5 -62t76.5 -193h-200q11 46 -49.5 68t-199.5 22h-330q-139 0 -215.5 -47.5t-99.5 -147.5t31.5 -147.5
t193.5 -47.5h340q270 0 295 110h-710l30 130h910l-26 -115q-34 -149 -172 -219.5t-395 -70.5h-280q-257 0 -358.5 87.5t-58.5 272.5z" />
    <glyph glyph-name="Gdotaccent" unicode="&#x120;" horiz-adv-x="1380" 
d="M801 760q-67 0 -94.5 18t-18.5 57q17 75 147 75q67 0 94.5 -18t18.5 -57q-17 -75 -147 -75zM66 350q43 185 184.5 272.5t398.5 87.5h270q257 0 364.5 -62t76.5 -193h-200q11 46 -49.5 68t-199.5 22h-330q-139 0 -215.5 -47.5t-99.5 -147.5t31.5 -147.5t193.5 -47.5h340
q270 0 295 110h-710l30 130h910l-26 -115q-34 -149 -172 -219.5t-395 -70.5h-280q-257 0 -358.5 87.5t-58.5 272.5z" />
    <glyph glyph-name="gdotaccent" unicode="&#x121;" horiz-adv-x="1380" 
d="M801 760q-67 0 -94.5 18t-18.5 57q17 75 147 75q67 0 94.5 -18t18.5 -57q-17 -75 -147 -75zM66 350q43 185 184.5 272.5t398.5 87.5h270q257 0 364.5 -62t76.5 -193h-200q11 46 -49.5 68t-199.5 22h-330q-139 0 -215.5 -47.5t-99.5 -147.5t31.5 -147.5t193.5 -47.5h340
q270 0 295 110h-710l30 130h910l-26 -115q-34 -149 -172 -219.5t-395 -70.5h-280q-257 0 -358.5 87.5t-58.5 272.5z" />
    <glyph glyph-name="uni0122" unicode="&#x122;" horiz-adv-x="1380" 
d="M66 350q43 185 184.5 272.5t398.5 87.5h270q257 0 364.5 -62t76.5 -193h-200q11 46 -49.5 68t-199.5 22h-330q-139 0 -215.5 -47.5t-99.5 -147.5t31.5 -147.5t193.5 -47.5h340q270 0 295 110h-710l30 130h910l-26 -115q-34 -149 -172 -219.5t-395 -70.5h-280
q-257 0 -358.5 87.5t-58.5 272.5zM855 -170l-432 -140h-140l438 250z" />
    <glyph glyph-name="uni0123" unicode="&#x123;" horiz-adv-x="1380" 
d="M671 760l520 260l44 -70l-304 -190h-260zM66 350q43 185 184.5 272.5t398.5 87.5h270q257 0 364.5 -62t76.5 -193h-200q11 46 -49.5 68t-199.5 22h-330q-139 0 -215.5 -47.5t-99.5 -147.5t31.5 -147.5t193.5 -47.5h340q270 0 295 110h-710l30 130h910l-26 -115
q-34 -149 -172 -219.5t-395 -70.5h-280q-257 0 -358.5 87.5t-58.5 272.5z" />
    <glyph glyph-name="Hbar" unicode="&#x126;" horiz-adv-x="1420" 
d="M71 500l27 120h100l19 80h200l-19 -80h780l19 80h200l-19 -80h100l-27 -120h-100l-116 -500h-200l64 275h-780l-64 -275h-200l116 500h-100zM353 425h780l18 75h-780z" />
    <glyph glyph-name="hbar" unicode="&#x127;" horiz-adv-x="1420" 
d="M71 500l27 120h100l19 80h200l-19 -80h780l19 80h200l-19 -80h100l-27 -120h-100l-116 -500h-200l64 275h-780l-64 -275h-200l116 500h-100zM353 425h780l18 75h-780z" />
    <glyph glyph-name="Imacron" unicode="&#x12a;" horiz-adv-x="360" 
d="M-77 898h800l-28 -120h-800zM15 0l162 700h200l-162 -700h-200z" />
    <glyph glyph-name="imacron" unicode="&#x12b;" horiz-adv-x="360" 
d="M-77 898h800l-28 -120h-800zM15 0l162 700h200l-162 -700h-200z" />
    <glyph glyph-name="Iogonek" unicode="&#x12e;" horiz-adv-x="360" 
d="M-91 -104q-5 -23 29.5 -32.5t124.5 -9.5q174 0 291 30l-19 -84q-98 -30 -269 -30q-153 0 -214.5 26.5t-47.5 85.5q23 100 216 138l157 680h200l-162 -700q-289 -35 -306 -104z" />
    <glyph glyph-name="iogonek" unicode="&#x12f;" horiz-adv-x="360" 
d="M325 910q67 0 94.5 -18t18.5 -57q-17 -75 -147 -75q-67 0 -94.5 18t-18.5 57q17 75 147 75zM215 0q-289 -35 -306 -104q-5 -23 29.5 -32.5t124.5 -9.5q174 0 291 30l-19 -84q-98 -30 -269 -30q-153 0 -214.5 26.5t-47.5 85.5q23 100 216 138l157 680h200z" />
    <glyph glyph-name="Idotaccent" unicode="&#x130;" horiz-adv-x="360" 
d="M291 760q-67 0 -94.5 18t-18.5 57q17 75 147 75q67 0 94.5 -18t18.5 -57q-17 -75 -147 -75zM15 0l162 700h200l-162 -700h-200z" />
    <glyph glyph-name="dotlessi" unicode="&#x131;" horiz-adv-x="360" 
d="M15 0l162 700h200l-162 -700h-200z" />
    <glyph glyph-name="uni0136" unicode="&#x136;" horiz-adv-x="1290" 
d="M15 0l162 700h200l-63 -270h264l439 270h320l-570 -320l-9 -40l467 -340h-340l-333 270h-274l-63 -270h-200zM810 -170l-432 -140h-140l438 250z" />
    <glyph glyph-name="uni0137" unicode="&#x137;" horiz-adv-x="1290" 
d="M15 0l162 700h200l-63 -270h264l439 270h320l-570 -320l-9 -40l467 -340h-340l-333 270h-274l-63 -270h-200zM810 -170l-432 -140h-140l438 250z" />
    <glyph glyph-name="Lacute" unicode="&#x139;" horiz-adv-x="1200" 
d="M793 900l-432 -140h-140l438 250zM15 0l162 700h200l-125 -540h900l-37 -160h-1100z" />
    <glyph glyph-name="lacute" unicode="&#x13a;" horiz-adv-x="1200" 
d="M793 900l-432 -140h-140l438 250zM15 0l162 700h200l-125 -540h900l-37 -160h-1100z" />
    <glyph glyph-name="uni013B" unicode="&#x13b;" horiz-adv-x="1200" 
d="M15 0l162 700h200l-125 -540h900l-37 -160h-1100zM765 -170l-432 -140h-140l438 250z" />
    <glyph glyph-name="uni013C" unicode="&#x13c;" horiz-adv-x="1200" 
d="M15 0l162 700h200l-125 -540h900l-37 -160h-1100zM765 -170l-432 -140h-140l438 250z" />
    <glyph glyph-name="Lcaron" unicode="&#x13d;" horiz-adv-x="1200" 
d="M795 760l-190 -350h-140l130 350h200zM15 0l162 700h200l-125 -540h900l-37 -160h-1100z" />
    <glyph glyph-name="lcaron" unicode="&#x13e;" horiz-adv-x="1200" 
d="M795 760l-190 -350h-140l130 350h200zM15 0l162 700h200l-125 -540h900l-37 -160h-1100z" />
    <glyph glyph-name="Lslash" unicode="&#x141;" horiz-adv-x="1340" 
d="M18 270l32 140l208 34l59 256h200l-51 -222l498 82l-32 -140l-499 -82l-41 -178h900l-37 -160h-1100l70 304z" />
    <glyph glyph-name="lslash" unicode="&#x142;" horiz-adv-x="1340" 
d="M18 270l32 140l208 34l59 256h200l-51 -222l498 82l-32 -140l-499 -82l-41 -178h900l-37 -160h-1100l70 304z" />
    <glyph glyph-name="Nacute" unicode="&#x143;" horiz-adv-x="1360" 
d="M1293 900l-432 -140h-140l438 250zM15 0l162 700h400l450 -650h40l-1 170l111 480h200l-162 -700h-400l-450 650h-40l1 -170l-111 -480h-200z" />
    <glyph glyph-name="nacute" unicode="&#x144;" horiz-adv-x="1360" 
d="M1293 900l-432 -140h-140l438 250zM15 0l162 700h400l450 -650h40l-1 170l111 480h200l-162 -700h-400l-450 650h-40l1 -170l-111 -480h-200z" />
    <glyph glyph-name="uni0145" unicode="&#x145;" horiz-adv-x="1360" 
d="M15 0l162 700h400l450 -650h40l-1 170l111 480h200l-162 -700h-400l-450 650h-40l1 -170l-111 -480h-200zM845 -170l-432 -140h-140l438 250z" />
    <glyph glyph-name="uni0146" unicode="&#x146;" horiz-adv-x="1360" 
d="M15 0l162 700h400l450 -650h40l-1 170l111 480h200l-162 -700h-400l-450 650h-40l1 -170l-111 -480h-200zM845 -170l-432 -140h-140l438 250z" />
    <glyph glyph-name="Ncaron" unicode="&#x147;" horiz-adv-x="1360" 
d="M435 950l214 60l134 -200h40l226 200l186 -60l-354 -190h-180zM15 0l162 700h400l450 -650h40l-1 170l111 480h200l-162 -700h-400l-450 650h-40l1 -170l-111 -480h-200z" />
    <glyph glyph-name="ncaron" unicode="&#x148;" horiz-adv-x="1360" 
d="M435 950l214 60l134 -200h40l226 200l186 -60l-354 -190h-180zM15 0l162 700h400l450 -650h40l-1 170l111 480h200l-162 -700h-400l-450 650h-40l1 -170l-111 -480h-200z" />
    <glyph glyph-name="Eng" unicode="&#x14a;" horiz-adv-x="1360" 
d="M15 0l162 700h400l450 -650h40l-1 170l111 480h200l-162 -700q-37 -160 -165 -235t-362 -75h-325l39 165h355q115 0 178 35.5t80 109.5h-200l-450 650h-40l1 -170l-111 -480h-200z" />
    <glyph glyph-name="eng" unicode="&#x14b;" horiz-adv-x="1360" 
d="M15 0l162 700h400l450 -650h40l-1 170l111 480h200l-162 -700q-37 -160 -165 -235t-362 -75h-325l39 165h355q115 0 178 35.5t80 109.5h-200l-450 650h-40l1 -170l-111 -480h-200z" />
    <glyph glyph-name="Omacron" unicode="&#x14c;" 
d="M443 898h800l-28 -120h-800zM66 350q43 185 184.5 272.5t398.5 87.5h300q257 0 358.5 -87.5t58.5 -272.5t-184.5 -272.5t-398.5 -87.5h-300q-257 0 -358.5 87.5t-58.5 272.5zM266 350q-23 -100 31.5 -147.5t193.5 -47.5h360q139 0 215.5 47.5t99.5 147.5t-31.5 147.5
t-193.5 47.5h-360q-139 0 -215.5 -47.5t-99.5 -147.5z" />
    <glyph glyph-name="omacron" unicode="&#x14d;" 
d="M443 898h800l-28 -120h-800zM66 350q43 185 184.5 272.5t398.5 87.5h300q257 0 358.5 -87.5t58.5 -272.5t-184.5 -272.5t-398.5 -87.5h-300q-257 0 -358.5 87.5t-58.5 272.5zM266 350q-23 -100 31.5 -147.5t193.5 -47.5h360q139 0 215.5 47.5t99.5 147.5t-31.5 147.5
t-193.5 47.5h-360q-139 0 -215.5 -47.5t-99.5 -147.5z" />
    <glyph glyph-name="Ohungarumlaut" unicode="&#x150;" 
d="M1103 900l-432 -140h-140l438 250zM1523 900l-432 -140h-140l438 250zM66 350q43 185 184.5 272.5t398.5 87.5h300q257 0 358.5 -87.5t58.5 -272.5t-184.5 -272.5t-398.5 -87.5h-300q-257 0 -358.5 87.5t-58.5 272.5zM266 350q-23 -100 31.5 -147.5t193.5 -47.5h360
q139 0 215.5 47.5t99.5 147.5t-31.5 147.5t-193.5 47.5h-360q-139 0 -215.5 -47.5t-99.5 -147.5z" />
    <glyph glyph-name="ohungarumlaut" unicode="&#x151;" 
d="M1103 900l-432 -140h-140l438 250zM1523 900l-432 -140h-140l438 250zM66 350q43 185 184.5 272.5t398.5 87.5h300q257 0 358.5 -87.5t58.5 -272.5t-184.5 -272.5t-398.5 -87.5h-300q-257 0 -358.5 87.5t-58.5 272.5zM266 350q-23 -100 31.5 -147.5t193.5 -47.5h360
q139 0 215.5 47.5t99.5 147.5t-31.5 147.5t-193.5 47.5h-360q-139 0 -215.5 -47.5t-99.5 -147.5z" />
    <glyph glyph-name="OE" unicode="&#x152;" horiz-adv-x="1920" 
d="M66 350q42 184 182 267t399 83h1320l-37 -160h-790l-28 -120h740l-32 -140h-740l-28 -120h800l-37 -160h-1330q-259 0 -360 83t-59 267zM266 350q-23 -99 31.5 -142t195.5 -43h360l86 370h-360q-141 0 -215.5 -43t-97.5 -142z" />
    <glyph glyph-name="oe" unicode="&#x153;" horiz-adv-x="1920" 
d="M66 350q42 184 182 267t399 83h1320l-37 -160h-790l-28 -120h740l-32 -140h-740l-28 -120h800l-37 -160h-1330q-259 0 -360 83t-59 267zM266 350q-23 -99 31.5 -142t195.5 -43h360l86 370h-360q-141 0 -215.5 -43t-97.5 -142z" />
    <glyph glyph-name="Racute" unicode="&#x154;" horiz-adv-x="1310" 
d="M1268 900l-432 -140h-140l438 250zM15 0l162 700h800q180 0 254.5 -46.5t51.5 -144.5q-18 -76 -78 -115.5t-170 -48.5l-9 -40h70l129 -305h-240l-78 225h-640l-52 -225h-200zM302 375h620q131 0 148 81q10 43 -16.5 63.5t-93.5 20.5h-620z" />
    <glyph glyph-name="racute" unicode="&#x155;" horiz-adv-x="1310" 
d="M1268 900l-432 -140h-140l438 250zM15 0l162 700h800q180 0 254.5 -46.5t51.5 -144.5q-18 -76 -78 -115.5t-170 -48.5l-9 -40h70l129 -305h-240l-78 225h-640l-52 -225h-200zM302 375h620q131 0 148 81q10 43 -16.5 63.5t-93.5 20.5h-620z" />
    <glyph glyph-name="uni0156" unicode="&#x156;" horiz-adv-x="1310" 
d="M15 0l162 700h800q180 0 254.5 -46.5t51.5 -144.5q-18 -76 -78 -115.5t-170 -48.5l-9 -40h70l129 -305h-240l-78 225h-640l-52 -225h-200zM302 375h620q131 0 148 81q10 43 -16.5 63.5t-93.5 20.5h-620zM820 -170l-432 -140h-140l438 250z" />
    <glyph glyph-name="uni0157" unicode="&#x157;" horiz-adv-x="1310" 
d="M15 0l162 700h800q180 0 254.5 -46.5t51.5 -144.5q-18 -76 -78 -115.5t-170 -48.5l-9 -40h70l129 -305h-240l-78 225h-640l-52 -225h-200zM302 375h620q131 0 148 81q10 43 -16.5 63.5t-93.5 20.5h-620zM820 -170l-432 -140h-140l438 250z" />
    <glyph glyph-name="Rcaron" unicode="&#x158;" horiz-adv-x="1310" 
d="M410 950l214 60l134 -200h40l226 200l186 -60l-354 -190h-180zM15 0l162 700h800q180 0 254.5 -46.5t51.5 -144.5q-18 -76 -78 -115.5t-170 -48.5l-9 -40h70l129 -305h-240l-78 225h-640l-52 -225h-200zM302 375h620q131 0 148 81q10 43 -16.5 63.5t-93.5 20.5h-620z" />
    <glyph glyph-name="rcaron" unicode="&#x159;" horiz-adv-x="1310" 
d="M410 950l214 60l134 -200h40l226 200l186 -60l-354 -190h-180zM15 0l162 700h800q180 0 254.5 -46.5t51.5 -144.5q-18 -76 -78 -115.5t-170 -48.5l-9 -40h70l129 -305h-240l-78 225h-640l-52 -225h-200zM302 375h620q131 0 148 81q10 43 -16.5 63.5t-93.5 20.5h-620z" />
    <glyph glyph-name="Sacute" unicode="&#x15a;" horiz-adv-x="1340" 
d="M1283 900l-432 -140h-140l438 250zM36 220h200q-5 -23 18.5 -37t77 -21t139.5 -7h470q129 0 144 61q7 33 -20.5 48.5t-94.5 15.5h-600q-155 0 -216.5 49t-37.5 153q27 117 135 172.5t308 55.5h400q211 0 297.5 -56t59.5 -174h-200q7 34 -47 49.5t-178 15.5h-450
q-119 0 -134 -61q-7 -33 18 -48.5t87 -15.5h600q160 0 224 -48.5t40 -151.5q-27 -118 -142 -174t-331 -56h-410q-211 0 -297.5 56t-59.5 174z" />
    <glyph glyph-name="sacute" unicode="&#x15b;" horiz-adv-x="1340" 
d="M1283 900l-432 -140h-140l438 250zM36 220h200q-5 -23 18.5 -37t77 -21t139.5 -7h470q129 0 144 61q7 33 -20.5 48.5t-94.5 15.5h-600q-155 0 -216.5 49t-37.5 153q27 117 135 172.5t308 55.5h400q211 0 297.5 -56t59.5 -174h-200q7 34 -47 49.5t-178 15.5h-450
q-119 0 -134 -61q-7 -33 18 -48.5t87 -15.5h600q160 0 224 -48.5t40 -151.5q-27 -118 -142 -174t-331 -56h-410q-211 0 -297.5 56t-59.5 174z" />
    <glyph glyph-name="Scedilla" unicode="&#x15e;" horiz-adv-x="1340" 
d="M1316 480h-200q7 34 -47 49.5t-178 15.5h-450q-119 0 -134 -61q-7 -33 18 -48.5t87 -15.5h600q160 0 224 -48.5t40 -151.5q-27 -118 -142 -174t-331 -56h-127l-69 -91l19 -7q87 48 210 48h56q89 0 125 -26.5t23 -82.5q-15 -63 -77.5 -93t-180.5 -30h-192
q-108 0 -151.5 29.5t-29.5 92.5h102q-4 -19 25 -28.5t94 -9.5h218q80 0 89 38q5 20 -12.5 29.5t-59.5 9.5h-91q-122 0 -206 -11l-98 41l49 91h-126q-211 0 -297.5 56t-59.5 174h200q-5 -23 18.5 -37t77 -21t139.5 -7h470q129 0 144 61q7 33 -20.5 48.5t-94.5 15.5h-600
q-155 0 -216.5 49t-37.5 153q27 117 135 172.5t308 55.5h400q211 0 297.5 -56t59.5 -174z" />
    <glyph glyph-name="scedilla" unicode="&#x15f;" horiz-adv-x="1340" 
d="M1316 480h-200q7 34 -47 49.5t-178 15.5h-450q-119 0 -134 -61q-7 -33 18 -48.5t87 -15.5h600q160 0 224 -48.5t40 -151.5q-27 -118 -142 -174t-331 -56h-127l-69 -91l19 -7q87 48 210 48h56q89 0 125 -26.5t23 -82.5q-15 -63 -77.5 -93t-180.5 -30h-192
q-108 0 -151.5 29.5t-29.5 92.5h102q-4 -19 25 -28.5t94 -9.5h218q80 0 89 38q5 20 -12.5 29.5t-59.5 9.5h-91q-122 0 -206 -11l-98 41l49 91h-126q-211 0 -297.5 56t-59.5 174h200q-5 -23 18.5 -37t77 -21t139.5 -7h470q129 0 144 61q7 33 -20.5 48.5t-94.5 15.5h-600
q-155 0 -216.5 49t-37.5 153q27 117 135 172.5t308 55.5h400q211 0 297.5 -56t59.5 -174z" />
    <glyph glyph-name="Scaron" unicode="&#x160;" horiz-adv-x="1340" 
d="M425 950l214 60l134 -200h40l226 200l186 -60l-354 -190h-180zM36 220h200q-5 -23 18.5 -37t77 -21t139.5 -7h470q129 0 144 61q7 33 -20.5 48.5t-94.5 15.5h-600q-155 0 -216.5 49t-37.5 153q27 117 135 172.5t308 55.5h400q211 0 297.5 -56t59.5 -174h-200
q7 34 -47 49.5t-178 15.5h-450q-119 0 -134 -61q-7 -33 18 -48.5t87 -15.5h600q160 0 224 -48.5t40 -151.5q-27 -118 -142 -174t-331 -56h-410q-211 0 -297.5 56t-59.5 174z" />
    <glyph glyph-name="scaron" unicode="&#x161;" horiz-adv-x="1340" 
d="M425 950l214 60l134 -200h40l226 200l186 -60l-354 -190h-180zM36 220h200q-5 -23 18.5 -37t77 -21t139.5 -7h470q129 0 144 61q7 33 -20.5 48.5t-94.5 15.5h-600q-155 0 -216.5 49t-37.5 153q27 117 135 172.5t308 55.5h400q211 0 297.5 -56t59.5 -174h-200
q7 34 -47 49.5t-178 15.5h-450q-119 0 -134 -61q-7 -33 18 -48.5t87 -15.5h600q160 0 224 -48.5t40 -151.5q-27 -118 -142 -174t-331 -56h-410q-211 0 -297.5 56t-59.5 174z" />
    <glyph glyph-name="uni0162" unicode="&#x162;" horiz-adv-x="1280" 
d="M675 0h-21l-77 -101l19 -7q87 48 210 48h56q89 0 125 -26.5t23 -82.5q-15 -63 -77.5 -93t-180.5 -30h-192q-108 0 -151.5 29.5t-29.5 92.5h102q-4 -19 25 -28.5t94 -9.5h218q80 0 89 38q5 20 -12.5 29.5t-59.5 9.5h-91q-122 0 -206 -11l-98 41l54 101h-19l125 540h-520
l37 160h1240l-37 -160h-520z" />
    <glyph glyph-name="uni0163" unicode="&#x163;" horiz-adv-x="1280" 
d="M675 0h-21l-77 -101l19 -7q87 48 210 48h56q89 0 125 -26.5t23 -82.5q-15 -63 -77.5 -93t-180.5 -30h-192q-108 0 -151.5 29.5t-29.5 92.5h102q-4 -19 25 -28.5t94 -9.5h218q80 0 89 38q5 20 -12.5 29.5t-59.5 9.5h-91q-122 0 -206 -11l-98 41l54 101h-19l125 540h-520
l37 160h1240l-37 -160h-520z" />
    <glyph glyph-name="Tcaron" unicode="&#x164;" horiz-adv-x="1280" 
d="M395 950l214 60l134 -200h40l226 200l186 -60l-354 -190h-180zM80 540l37 160h1240l-37 -160h-520l-125 -540h-200l125 540h-520z" />
    <glyph glyph-name="tcaron" unicode="&#x165;" horiz-adv-x="1280" 
d="M395 950l214 60l134 -200h40l226 200l186 -60l-354 -190h-180zM80 540l37 160h1240l-37 -160h-520l-125 -540h-200l125 540h-520z" />
    <glyph glyph-name="Tbar" unicode="&#x166;" horiz-adv-x="1280" 
d="M80 540l37 160h1240l-37 -160h-520l-28 -120h420l-32 -140h-420l-65 -280h-200l65 280h-420l32 140h420l28 120h-520z" />
    <glyph glyph-name="tbar" unicode="&#x167;" horiz-adv-x="1280" 
d="M80 540l37 160h1240l-37 -160h-520l-28 -120h420l-32 -140h-420l-65 -280h-200l65 280h-420l32 140h420l28 120h-520z" />
    <glyph glyph-name="Umacron" unicode="&#x16a;" horiz-adv-x="1360" 
d="M423 898h800l-28 -120h-800zM89 320l88 380h200l-88 -380q-20 -85 30.5 -125t176.5 -40h310q126 0 194.5 40t88.5 125l88 380h200l-88 -380q-39 -170 -173 -250t-378 -80h-250q-244 0 -341 80t-58 250z" />
    <glyph glyph-name="umacron" unicode="&#x16b;" horiz-adv-x="1360" 
d="M423 898h800l-28 -120h-800zM89 320l88 380h200l-88 -380q-20 -85 30.5 -125t176.5 -40h310q126 0 194.5 40t88.5 125l88 380h200l-88 -380q-39 -170 -173 -250t-378 -80h-250q-244 0 -341 80t-58 250z" />
    <glyph glyph-name="Uring" unicode="&#x16e;" horiz-adv-x="1360" 
d="M462 850q20 87 97 128.5t220 41.5h144q143 0 201 -41.5t38 -128.5t-97 -128.5t-220 -41.5h-144q-143 0 -201 41.5t-38 128.5zM573 850q-9 -38 23.5 -55.5t110.5 -17.5h177q150 0 167 73q9 38 -23.5 55.5t-110.5 17.5h-177q-150 0 -167 -73zM89 320l88 380h200l-88 -380
q-20 -85 30.5 -125t176.5 -40h310q126 0 194.5 40t88.5 125l88 380h200l-88 -380q-39 -170 -173 -250t-378 -80h-250q-244 0 -341 80t-58 250z" />
    <glyph glyph-name="uring" unicode="&#x16f;" horiz-adv-x="1360" 
d="M462 850q20 87 97 128.5t220 41.5h144q143 0 201 -41.5t38 -128.5t-97 -128.5t-220 -41.5h-144q-143 0 -201 41.5t-38 128.5zM573 850q-9 -38 23.5 -55.5t110.5 -17.5h177q150 0 167 73q9 38 -23.5 55.5t-110.5 17.5h-177q-150 0 -167 -73zM89 320l88 380h200l-88 -380
q-20 -85 30.5 -125t176.5 -40h310q126 0 194.5 40t88.5 125l88 380h200l-88 -380q-39 -170 -173 -250t-378 -80h-250q-244 0 -341 80t-58 250z" />
    <glyph glyph-name="Uhungarumlaut" unicode="&#x170;" horiz-adv-x="1360" 
d="M1083 900l-432 -140h-140l438 250zM1503 900l-432 -140h-140l438 250zM89 320l88 380h200l-88 -380q-20 -85 30.5 -125t176.5 -40h310q126 0 194.5 40t88.5 125l88 380h200l-88 -380q-39 -170 -173 -250t-378 -80h-250q-244 0 -341 80t-58 250z" />
    <glyph glyph-name="uhungarumlaut" unicode="&#x171;" horiz-adv-x="1360" 
d="M1083 900l-432 -140h-140l438 250zM1503 900l-432 -140h-140l438 250zM89 320l88 380h200l-88 -380q-20 -85 30.5 -125t176.5 -40h310q126 0 194.5 40t88.5 125l88 380h200l-88 -380q-39 -170 -173 -250t-378 -80h-250q-244 0 -341 80t-58 250z" />
    <glyph glyph-name="Uogonek" unicode="&#x172;" horiz-adv-x="1360" 
d="M1177 700h200l-88 -380q-39 -170 -173 -250t-378 -80h-96q-218 -34 -233 -94q-5 -23 29.5 -32.5t124.5 -9.5q174 0 291 30l-19 -84q-98 -30 -269 -30q-153 0 -214.5 26.5t-47.5 85.5q17 70 115 110q-205 10 -285.5 90.5t-44.5 237.5l88 380h200l-88 -380
q-20 -85 30.5 -125t176.5 -40h310q126 0 194.5 40t88.5 125z" />
    <glyph glyph-name="uogonek" unicode="&#x173;" horiz-adv-x="1360" 
d="M1177 700h200l-88 -380q-39 -170 -173 -250t-378 -80h-96q-218 -34 -233 -94q-5 -23 29.5 -32.5t124.5 -9.5q174 0 291 30l-19 -84q-98 -30 -269 -30q-153 0 -214.5 26.5t-47.5 85.5q17 70 115 110q-205 10 -285.5 90.5t-44.5 237.5l88 380h200l-88 -380
q-20 -85 30.5 -125t176.5 -40h310q126 0 194.5 40t88.5 125z" />
    <glyph glyph-name="Wcircumflex" unicode="&#x174;" horiz-adv-x="2138" 
d="M821 820l398 190h180l222 -190l-228 -60l-87 200h-40l-273 -200zM117 700h230l169 -480l11 -170h40l414 650h370l114 -650h40l89 170l391 480h230l-572 -700h-367l-91 480l-11 170h-40l-89 -170l-313 -480h-367z" />
    <glyph glyph-name="wcircumflex" unicode="&#x175;" horiz-adv-x="2138" 
d="M821 820l398 190h180l222 -190l-228 -60l-87 200h-40l-273 -200zM117 700h230l169 -480l11 -170h40l414 650h370l114 -650h40l89 170l391 480h230l-572 -700h-367l-91 480l-11 170h-40l-89 -170l-313 -480h-367z" />
    <glyph glyph-name="Ycircumflex" unicode="&#x176;" horiz-adv-x="1280" 
d="M392 820l398 190h180l222 -190l-228 -60l-87 200h-40l-273 -200zM87 700h250l216 -275l68 -140h40l132 140l344 275h250l-588 -465h-70l-54 -235h-200l54 235h-70z" />
    <glyph glyph-name="ycircumflex" unicode="&#x177;" horiz-adv-x="1280" 
d="M392 820l398 190h180l222 -190l-228 -60l-87 200h-40l-273 -200zM87 700h250l216 -275l68 -140h40l132 140l344 275h250l-588 -465h-70l-54 -235h-200l54 235h-70z" />
    <glyph glyph-name="Ydieresis" unicode="&#x178;" horiz-adv-x="1280" 
d="M463 900h220l-32 -140h-220zM883 900h220l-32 -140h-220zM87 700h250l216 -275l68 -140h40l132 140l344 275h250l-588 -465h-70l-54 -235h-200l54 235h-70z" />
    <glyph glyph-name="Zacute" unicode="&#x179;" horiz-adv-x="1180" 
d="M1203 900l-432 -140h-140l438 250zM-25 0l72 310l1093 230l9 40l-429 -40h-600l37 160h1070l-72 -310l-1093 -230l-9 -40l459 40h600l-37 -160h-1100z" />
    <glyph glyph-name="zacute" unicode="&#x17a;" horiz-adv-x="1180" 
d="M1203 900l-432 -140h-140l438 250zM-25 0l72 310l1093 230l9 40l-429 -40h-600l37 160h1070l-72 -310l-1093 -230l-9 -40l459 40h600l-37 -160h-1100z" />
    <glyph glyph-name="Zdotaccent" unicode="&#x17b;" horiz-adv-x="1180" 
d="M701 760q-67 0 -94.5 18t-18.5 57q17 75 147 75q67 0 94.5 -18t18.5 -57q-17 -75 -147 -75zM-25 0l72 310l1093 230l9 40l-429 -40h-600l37 160h1070l-72 -310l-1093 -230l-9 -40l459 40h600l-37 -160h-1100z" />
    <glyph glyph-name="zdotaccent" unicode="&#x17c;" horiz-adv-x="1180" 
d="M701 760q-67 0 -94.5 18t-18.5 57q17 75 147 75q67 0 94.5 -18t18.5 -57q-17 -75 -147 -75zM-25 0l72 310l1093 230l9 40l-429 -40h-600l37 160h1070l-72 -310l-1093 -230l-9 -40l459 40h600l-37 -160h-1100z" />
    <glyph glyph-name="Zcaron" unicode="&#x17d;" horiz-adv-x="1180" 
d="M345 950l214 60l134 -200h40l226 200l186 -60l-354 -190h-180zM-25 0l72 310l1093 230l9 40l-429 -40h-600l37 160h1070l-72 -310l-1093 -230l-9 -40l459 40h600l-37 -160h-1100z" />
    <glyph glyph-name="zcaron" unicode="&#x17e;" horiz-adv-x="1180" 
d="M345 950l214 60l134 -200h40l226 200l186 -60l-354 -190h-180zM-25 0l72 310l1093 230l9 40l-429 -40h-600l37 160h1070l-72 -310l-1093 -230l-9 -40l459 40h600l-37 -160h-1100z" />
    <glyph glyph-name="uni0218" unicode="&#x218;" horiz-adv-x="1340" 
d="M36 220h200q-5 -23 18.5 -37t77 -21t139.5 -7h470q129 0 144 61q7 33 -20.5 48.5t-94.5 15.5h-600q-155 0 -216.5 49t-37.5 153q27 117 135 172.5t308 55.5h400q211 0 297.5 -56t59.5 -174h-200q7 34 -47 49.5t-178 15.5h-450q-119 0 -134 -61q-7 -33 18 -48.5t87 -15.5
h600q160 0 224 -48.5t40 -151.5q-27 -118 -142 -174t-331 -56h-410q-211 0 -297.5 56t-59.5 174zM835 -170l-432 -140h-140l438 250z" />
    <glyph glyph-name="uni0219" unicode="&#x219;" horiz-adv-x="1340" 
d="M36 220h200q-5 -23 18.5 -37t77 -21t139.5 -7h470q129 0 144 61q7 33 -20.5 48.5t-94.5 15.5h-600q-155 0 -216.5 49t-37.5 153q27 117 135 172.5t308 55.5h400q211 0 297.5 -56t59.5 -174h-200q7 34 -47 49.5t-178 15.5h-450q-119 0 -134 -61q-7 -33 18 -48.5t87 -15.5
h600q160 0 224 -48.5t40 -151.5q-27 -118 -142 -174t-331 -56h-410q-211 0 -297.5 56t-59.5 174zM835 -170l-432 -140h-140l438 250z" />
    <glyph glyph-name="uni021A" unicode="&#x21a;" horiz-adv-x="1280" 
d="M80 540l37 160h1240l-37 -160h-520l-125 -540h-200l125 540h-520zM805 -170l-432 -140h-140l438 250z" />
    <glyph glyph-name="uni021B" unicode="&#x21b;" horiz-adv-x="1280" 
d="M80 540l37 160h1240l-37 -160h-520l-125 -540h-200l125 540h-520zM805 -170l-432 -140h-140l438 250z" />
    <glyph glyph-name="circumflex" unicode="&#x2c6;" horiz-adv-x="900" 
d="M142 680l398 190h180l222 -190l-228 -60l-87 200h-40l-273 -200z" />
    <glyph glyph-name="caron" unicode="&#x2c7;" horiz-adv-x="900" 
d="M172 810l214 60l134 -200h40l226 200l186 -60l-354 -190h-180z" />
    <glyph glyph-name="breve" unicode="&#x2d8;" horiz-adv-x="840" 
d="M486 620q-250 0 -328 180l76 70q38 -58 109.5 -94t170.5 -36t187 36t153 94l44 -70q-162 -180 -412 -180z" />
    <glyph glyph-name="dotaccent" unicode="&#x2d9;" horiz-adv-x="360" 
d="M259 620q-67 0 -94.5 18t-18.5 57q17 75 147 75q67 0 94.5 -18t18.5 -57q-17 -75 -147 -75z" />
    <glyph glyph-name="ring" unicode="&#x2da;" horiz-adv-x="800" 
d="M149 710q20 87 97 128.5t220 41.5h144q143 0 201 -41.5t38 -128.5t-97 -128.5t-220 -41.5h-144q-143 0 -201 41.5t-38 128.5zM260 710q-9 -38 23.5 -55.5t110.5 -17.5h177q150 0 167 73q9 38 -23.5 55.5t-110.5 17.5h-177q-150 0 -167 -73z" />
    <glyph glyph-name="ogonek" unicode="&#x2db;" horiz-adv-x="650" 
d="M489 -200q-98 -30 -269 -30q-153 0 -214.5 26.5t-47.5 85.5q23 100 216 138l195 -20q-289 -35 -306 -104q-5 -23 29.5 -32.5t124.5 -9.5q174 0 291 30z" />
    <glyph glyph-name="tilde" unicode="&#x2dc;" horiz-adv-x="840" 
d="M138 660q26 113 86.5 166.5t162.5 53.5q51 0 91.5 -14.5t66 -35t48 -41t49.5 -35t58 -14.5q77 0 100 100h120q-26 -113 -86.5 -166.5t-162.5 -53.5q-51 0 -91.5 14.5t-66 35t-48 41t-49.5 35t-58 14.5q-77 0 -100 -100h-120z" />
    <glyph glyph-name="hungarumlaut" unicode="&#x2dd;" horiz-adv-x="1060" 
d="M700 760l-432 -140h-140l438 250zM1120 760l-432 -140h-140l438 250z" />
    <glyph glyph-name="gravecomb" unicode="&#x300;" horiz-adv-x="0" 
d="M-480 760l186 110l322 -250h-140z" />
    <glyph glyph-name="acutecomb" unicode="&#x301;" horiz-adv-x="0" 
d="M61 760l-432 -140h-140l438 250z" />
    <glyph glyph-name="uni0302" unicode="&#x302;" horiz-adv-x="0" 
d="M-758 680l398 190h180l222 -190l-228 -60l-87 200h-40l-273 -200z" />
    <glyph glyph-name="tildecomb" unicode="&#x303;" horiz-adv-x="0" 
d="M-703 660q26 113 86.5 166.5t162.5 53.5q51 0 91.5 -14.5t66 -35t48 -41t49.5 -35t58 -14.5q77 0 100 100h120q-26 -113 -86.5 -166.5t-162.5 -53.5q-51 0 -91.5 14.5t-66 35t-48 41t-49.5 35t-58 14.5q-77 0 -100 -100h-120z" />
    <glyph glyph-name="uni0304" unicode="&#x304;" horiz-adv-x="0" 
d="M-744 740h800l-28 -120h-800z" />
    <glyph glyph-name="uni0306" unicode="&#x306;" horiz-adv-x="0" 
d="M-354 620q-250 0 -328 180l76 70q38 -58 109.5 -94t170.5 -36t187 36t153 94l44 -70q-162 -180 -412 -180z" />
    <glyph glyph-name="uni0307" unicode="&#x307;" horiz-adv-x="0" 
d="M-101 620q-67 0 -94.5 18t-18.5 57q17 75 147 75q67 0 94.5 -18t18.5 -57q-17 -75 -147 -75z" />
    <glyph glyph-name="uni0308" unicode="&#x308;" horiz-adv-x="0" 
d="M-580 760h220l-32 -140h-220zM-160 760h220l-32 -140h-220z" />
    <glyph glyph-name="uni030A" unicode="&#x30a;" horiz-adv-x="0" 
d="M-651 710q20 87 97 128.5t220 41.5h144q143 0 201 -41.5t38 -128.5t-97 -128.5t-220 -41.5h-144q-143 0 -201 41.5t-38 128.5zM-540 710q-9 -38 23.5 -55.5t110.5 -17.5h177q150 0 167 73q9 38 -23.5 55.5t-110.5 17.5h-177q-150 0 -167 -73z" />
    <glyph glyph-name="uni030B" unicode="&#x30b;" horiz-adv-x="0" 
d="M-359 760l-432 -140h-140l438 250zM61 760l-432 -140h-140l438 250z" />
    <glyph glyph-name="uni030C" unicode="&#x30c;" horiz-adv-x="0" 
d="M-728 810l214 60l134 -200h40l226 200l186 -60l-354 -190h-180z" />
    <glyph glyph-name="uni0312" unicode="&#x312;" horiz-adv-x="0" 
d="M-492 620l520 260l44 -70l-304 -190h-260z" />
    <glyph glyph-name="uni0326" unicode="&#x326;" horiz-adv-x="0" 
d="M-154 -170l-432 -140h-140l438 250z" />
    <glyph glyph-name="uni0327" unicode="&#x327;" horiz-adv-x="0" 
d="M-782 -170h102q-4 -19 25 -28.5t94 -9.5h218q80 0 89 38q5 20 -12.5 29.5t-59.5 9.5h-91q-122 0 -206 -11l-98 41l54 101h160l-77 -101l19 -7q87 48 210 48h56q89 0 125 -26.5t23 -82.5q-15 -63 -77.5 -93t-180.5 -30h-192q-108 0 -151.5 29.5t-29.5 92.5z" />
    <glyph glyph-name="uni0328" unicode="&#x328;" horiz-adv-x="0" 
d="M-161 -200q-98 -30 -269 -30q-153 0 -214.5 26.5t-47.5 85.5q23 100 216 138l195 -20q-289 -35 -306 -104q-5 -23 29.5 -32.5t124.5 -9.5q174 0 291 30z" />
    <glyph glyph-name="Wgrave" unicode="&#x1e80;" horiz-adv-x="2138" 
d="M742 900l186 110l322 -250h-140zM117 700h230l169 -480l11 -170h40l414 650h370l114 -650h40l89 170l391 480h230l-572 -700h-367l-91 480l-11 170h-40l-89 -170l-313 -480h-367z" />
    <glyph glyph-name="wgrave" unicode="&#x1e81;" horiz-adv-x="2138" 
d="M742 900l186 110l322 -250h-140zM117 700h230l169 -480l11 -170h40l414 650h370l114 -650h40l89 170l391 480h230l-572 -700h-367l-91 480l-11 170h-40l-89 -170l-313 -480h-367z" />
    <glyph glyph-name="Wacute" unicode="&#x1e82;" horiz-adv-x="2138" 
d="M1682 900l-432 -140h-140l438 250zM117 700h230l169 -480l11 -170h40l414 650h370l114 -650h40l89 170l391 480h230l-572 -700h-367l-91 480l-11 170h-40l-89 -170l-313 -480h-367z" />
    <glyph glyph-name="wacute" unicode="&#x1e83;" horiz-adv-x="2138" 
d="M1682 900l-432 -140h-140l438 250zM117 700h230l169 -480l11 -170h40l414 650h370l114 -650h40l89 170l391 480h230l-572 -700h-367l-91 480l-11 170h-40l-89 -170l-313 -480h-367z" />
    <glyph glyph-name="Wdieresis" unicode="&#x1e84;" horiz-adv-x="2138" 
d="M892 900h220l-32 -140h-220zM1312 900h220l-32 -140h-220zM117 700h230l169 -480l11 -170h40l414 650h370l114 -650h40l89 170l391 480h230l-572 -700h-367l-91 480l-11 170h-40l-89 -170l-313 -480h-367z" />
    <glyph glyph-name="wdieresis" unicode="&#x1e85;" horiz-adv-x="2138" 
d="M892 900h220l-32 -140h-220zM1312 900h220l-32 -140h-220zM117 700h230l169 -480l11 -170h40l414 650h370l114 -650h40l89 170l391 480h230l-572 -700h-367l-91 480l-11 170h-40l-89 -170l-313 -480h-367z" />
    <glyph glyph-name="Ygrave" unicode="&#x1ef2;" horiz-adv-x="1280" 
d="M313 900l186 110l322 -250h-140zM87 700h250l216 -275l68 -140h40l132 140l344 275h250l-588 -465h-70l-54 -235h-200l54 235h-70z" />
    <glyph glyph-name="ygrave" unicode="&#x1ef3;" horiz-adv-x="1280" 
d="M313 900l186 110l322 -250h-140zM87 700h250l216 -275l68 -140h40l132 140l344 275h250l-588 -465h-70l-54 -235h-200l54 235h-70z" />
    <glyph glyph-name="endash" unicode="&#x2013;" horiz-adv-x="1100" 
d="M82 420h1000l-32 -140h-1000z" />
    <glyph glyph-name="emdash" unicode="&#x2014;" 
d="M82 420h1300l-32 -140h-1300z" />
    <glyph glyph-name="quoteleft" unicode="&#x2018;" horiz-adv-x="319" 
d="M66 350l190 350h140l-130 -350h-200z" />
    <glyph glyph-name="quoteright" unicode="&#x2019;" horiz-adv-x="319" 
d="M366 700l-190 -350h-140l130 350h200z" />
    <glyph glyph-name="quotesinglbase" unicode="&#x201a;" horiz-adv-x="500" 
d="M436 220l-348 -340h-200l288 340h260z" />
    <glyph glyph-name="quotedblleft" unicode="&#x201c;" horiz-adv-x="619" 
d="M66 350l190 350h140l-130 -350h-200zM366 350l190 350h140l-130 -350h-200z" />
    <glyph glyph-name="quotedblright" unicode="&#x201d;" horiz-adv-x="619" 
d="M366 700l-190 -350h-140l130 350h200zM666 700l-190 -350h-140l130 350h200z" />
    <glyph glyph-name="quotedblbase" unicode="&#x201e;" horiz-adv-x="500" 
d="M176 220h260l-348 -340h-200z" />
    <glyph glyph-name="dagger" unicode="&#x2020;" horiz-adv-x="900" 
d="M73 380l32 140h320l42 180h160l-42 -180h320l-32 -140h-320l-88 -380h-160l88 380h-320z" />
    <glyph glyph-name="daggerdbl" unicode="&#x2021;" horiz-adv-x="901" 
d="M19 140l32 140h320l32 140h-320l32 140h320l33 140h160l-33 -140h320l-32 -140h-320l-32 -140h320l-32 -140h-320l-33 -140h-160l33 140h-320z" />
    <glyph glyph-name="bullet" unicode="&#x2022;" horiz-adv-x="460" 
d="M211 200q-92 0 -127.5 36.5t-17.5 113.5t70 113.5t145 36.5q92 0 127.5 -36.5t17.5 -113.5t-70 -113.5t-145 -36.5z" />
    <glyph glyph-name="ellipsis" unicode="&#x2026;" horiz-adv-x="361" 
d="M36 220h260l-50 -220h-260z" />
    <glyph glyph-name="perthousand" unicode="&#x2030;" horiz-adv-x="2455" 
d="M335 310q-143 0 -199.5 48.5t-32.5 151.5q23 103 102 151.5t222 48.5h116q143 0 199 -48.5t33 -151.5q-24 -103 -102.5 -151.5t-221.5 -48.5h-116zM1305 700h200l-1062 -700h-200zM358 432h126q68 0 104 18.5t46 59.5q9 41 -18.5 59.5t-95.5 18.5h-126q-133 0 -150 -78
q-10 -40 18 -59t96 -19zM1207 0q-143 0 -199 48.5t-33 151.5q24 103 102.5 151.5t221.5 48.5h116q143 0 199.5 -48.5t32.5 -151.5q-23 -103 -102 -151.5t-222 -48.5h-116zM1715 200q24 103 102.5 151.5t221.5 48.5h116q143 0 199.5 -48.5t32.5 -151.5q-23 -103 -102 -151.5
t-222 -48.5h-116q-143 0 -199 48.5t-33 151.5zM1230 122h126q132 0 150 78q9 40 -18.5 59t-95.5 19h-126q-132 0 -150 -78q-9 -40 18.5 -59t95.5 -19zM1856 200q-9 -40 18.5 -59t95.5 -19h126q132 0 150 78q9 40 -18.5 59t-95.5 19h-126q-132 0 -150 -78z" />
    <glyph glyph-name="fraction" unicode="&#x2044;" horiz-adv-x="833" 
d="M-88 70l516 300l492 330l34 -70l-516 -300l-492 -330z" />
    <glyph glyph-name="Euro" unicode="&#x20ac;" horiz-adv-x="1530" 
d="M37 225l21 90h151q1 11 7 35l9 35h-151l21 90h167q64 120 195.5 177.5t341.5 57.5h270q257 0 361.5 -72.5t69.5 -227.5h-200q16 70 -42 102.5t-197 32.5h-330q-169 0 -246 -70h610l-21 -90h-648q-1 -4 -4.5 -16t-5.5 -19q-4 -18 -6 -35h648l-21 -90h-610q45 -70 214 -70
h340q139 0 212 32.5t89 102.5h200q-35 -154 -173.5 -227t-395.5 -73h-280q-210 0 -315.5 57.5t-113.5 177.5h-167z" />
    <glyph glyph-name="trademark" unicode="&#x2122;" horiz-adv-x="1343" 
d="M131 633l16 68h529l-16 -68h-221l-54 -231h-85l53 231h-222zM693 402l70 299h162l66 -205l13 -73h17l45 73l162 205h162l-69 -299h-85l49 213l32 64h-17l-214 -277h-158l-85 277h-17l2 -64l-49 -213h-86z" />
    <glyph glyph-name="uni2150" unicode="&#x2150;" horiz-adv-x="1451" 
d="M152 594q150 0 194 107h188l-82 -357h-102l54 235l43 97h-21q-41 -84 -112 -124t-181 -40zM99 70l516 300l492 330l34 -70l-516 -300l-492 -330zM1449 357l-35 -150q-207 -23 -314.5 -73.5t-126.5 -133.5h-102q27 115 156.5 182t377.5 94l4 20l-234 -20h-357l19 81h612z
" />
    <glyph glyph-name="uni2151" unicode="&#x2151;" horiz-adv-x="1461" 
d="M152 594q150 0 194 107h188l-82 -357h-102l54 235l43 97h-21q-41 -84 -112 -124t-181 -40zM99 70l516 300l492 330l34 -70l-516 -300l-492 -330zM1389 179q-23 -98 -96.5 -143.5t-207.5 -45.5h-173q-108 0 -152.5 28.5t-30.5 88.5h102q-4 -17 24 -25t91 -8h194
q121 0 145 98l-18 10q-68 -57 -212 -57h-148q-89 0 -125 26.5t-24 82.5q15 63 78 93t181 30h188q116 0 160.5 -43.5t23.5 -134.5zM1295 235q5 20 -13 29t-60 9h-271q-81 0 -90 -38q-5 -20 12.5 -29t59.5 -9h271q82 0 91 38z" />
    <glyph glyph-name="uni2152" unicode="&#x2152;" horiz-adv-x="1879" 
d="M152 594q150 0 194 107h188l-82 -357h-102l54 235l43 97h-21q-41 -84 -112 -124t-181 -40zM99 70l516 300l492 330l34 -70l-516 -300l-492 -330zM762 250q150 0 194 107h188l-82 -357h-102l54 235l43 97h-21q-41 -84 -112 -124t-181 -40zM1152 174q22 94 94 138.5
t203 44.5h143q131 0 183 -44.5t30 -138.5t-94.5 -139t-203.5 -45h-143q-131 0 -182.5 44.5t-29.5 139.5zM1254 174q-10 -44 8 -68l282 147l5 20h-135q-137 0 -160 -99zM1406 74h136q138 0 161 100q9 45 -9 68l-284 -148z" />
    <glyph glyph-name="uni2156" unicode="&#x2156;" horiz-adv-x="1697" 
d="M76 348l35 151l424 48q74 9 83 46q4 17 -11 25t-53 8h-184q-122 0 -136 -59h-102q17 74 76 108.5t166 34.5h163q108 0 152 -27.5t31 -86.5q-23 -101 -191 -120l-408 -46l-5 -21l234 21h337l-19 -82h-592zM324 70l516 300l492 330l34 -70l-516 -300l-492 -330zM985 112
h102q-4 -20 25 -29t94 -9h220q81 0 90 38q5 20 -13 29.5t-60 9.5h-132q-125 0 -207 -11l-97 41l39 171h602l-19 -81h-500l-12 -52l-13 -38l18 -7q89 48 210 48h138q89 0 125 -26.5t23 -82.5q-14 -63 -77 -93t-181 -30h-194q-107 0 -151 29.5t-30 92.5z" />
    <glyph glyph-name="uni2157" unicode="&#x2157;" horiz-adv-x="1737" 
d="M96 481h102q-7 -29 18.5 -42.5t86.5 -13.5h234q77 0 84 32q4 17 -12.5 24t-56.5 7h-286l18 77h280q77 0 84 31q8 33 -69 33h-229q-113 0 -125 -57h-103q16 71 72.5 104.5t158.5 33.5h235q98 0 138.5 -20t30.5 -67q-18 -69 -120 -76l-5 -20q55 -5 76 -25.5t11 -60.5
q-12 -52 -62.5 -75t-148.5 -23h-245q-102 0 -142.5 33.5t-24.5 104.5zM344 70l516 300l492 330l34 -70l-516 -300l-492 -330zM1025 112h102q-4 -20 25 -29t94 -9h220q81 0 90 38q5 20 -13 29.5t-60 9.5h-132q-125 0 -207 -11l-97 41l39 171h602l-19 -81h-500l-12 -52
l-13 -38l18 -7q89 48 210 48h138q89 0 125 -26.5t23 -82.5q-14 -63 -77 -93t-181 -30h-194q-107 0 -151 29.5t-30 92.5z" />
    <glyph glyph-name="uni2158" unicode="&#x2158;" horiz-adv-x="1717" 
d="M93 421l36 158q318 31 378 122h199l-46 -199h123l-19 -81h-122l-18 -77h-102l18 77h-447zM324 70l516 300l492 330l34 -70l-516 -300l-492 -330zM136 500l-5 -21l205 23h222l20 87l41 87h-21q-47 -73 -159.5 -116t-302.5 -60zM1005 112h102q-4 -20 25 -29t94 -9h220
q81 0 90 38q5 20 -13 29.5t-60 9.5h-132q-125 0 -207 -11l-97 41l39 171h602l-19 -81h-500l-12 -52l-13 -38l18 -7q89 48 210 48h138q89 0 125 -26.5t23 -82.5q-14 -63 -77 -93t-181 -30h-194q-107 0 -151 29.5t-30 92.5z" />
    <glyph glyph-name="uni215A" unicode="&#x215a;" horiz-adv-x="1707" 
d="M101 460h102q-4 -20 25 -29t94 -9h220q81 0 90 38q5 20 -13 29.5t-60 9.5h-132q-125 0 -207 -11l-97 41l39 171h602l-19 -81h-500l-12 -52l-13 -38l18 -7q89 48 210 48h138q89 0 125 -26.5t23 -82.5q-14 -63 -77 -93t-181 -30h-194q-107 0 -151 29.5t-30 92.5zM345 70
l516 300l492 330l34 -70l-516 -300l-492 -330zM990 168q22 98 95.5 143.5t207.5 45.5h169q107 0 151 -28t31 -89h-102q4 17 -24 25t-91 8h-189q-121 0 -145 -98l18 -10q38 31 86.5 44t125.5 13h148q89 0 125.5 -26.5t23.5 -82.5q-15 -63 -77.5 -93t-180.5 -30h-189
q-115 0 -159.5 43.5t-23.5 134.5zM1084 112q-5 -19 12.5 -28.5t59.5 -9.5h271q81 0 90 38q5 20 -12.5 29.5t-59.5 9.5h-271q-81 0 -90 -39z" />
    <glyph glyph-name="oneeighth" unicode="&#x215b;" horiz-adv-x="1451" 
d="M152 594q150 0 194 107h188l-82 -357h-102l54 235l43 97h-21q-41 -84 -112 -124t-181 -40zM99 70l516 300l492 330l34 -70l-516 -300l-492 -330zM725 87q10 41 42.5 61.5t94.5 25.5l5 20q-52 4 -72.5 22.5t-12.5 53.5q11 47 61 67t148 20h225q98 0 138.5 -20t29.5 -67
q-16 -69 -119 -76l-5 -20q60 -5 83.5 -25.5t13.5 -61.5q-12 -52 -62.5 -74.5t-148.5 -22.5h-255q-98 0 -138.5 22.5t-27.5 74.5zM878 242q-4 -17 12.5 -25t56.5 -8h245q77 0 84 33q4 17 -13 25.5t-56 8.5h-245q-77 0 -84 -34zM831 105q-4 -17 12.5 -25t56.5 -8h275
q77 0 84 33q4 17 -12.5 25t-55.5 8h-276q-77 0 -84 -33z" />
    <glyph glyph-name="threeeighths" unicode="&#x215c;" horiz-adv-x="1696" 
d="M96 481h102q-7 -29 18.5 -42.5t86.5 -13.5h234q77 0 84 32q4 17 -12.5 24t-56.5 7h-286l18 77h280q77 0 84 31q8 33 -69 33h-229q-113 0 -125 -57h-103q16 71 72.5 104.5t158.5 33.5h235q98 0 138.5 -20t30.5 -67q-18 -69 -120 -76l-5 -20q55 -5 76 -25.5t11 -60.5
q-12 -52 -62.5 -75t-148.5 -23h-245q-102 0 -142.5 33.5t-24.5 104.5zM344 70l516 300l492 330l34 -70l-516 -300l-492 -330zM970 87q10 41 42.5 61.5t94.5 25.5l5 20q-52 4 -72.5 22.5t-12.5 53.5q11 47 61 67t148 20h225q98 0 138.5 -20t29.5 -67q-16 -69 -119 -76l-5 -20
q60 -5 83.5 -25.5t13.5 -61.5q-12 -52 -62.5 -74.5t-148.5 -22.5h-255q-98 0 -138.5 22.5t-27.5 74.5zM1123 242q-4 -17 12.5 -25t56.5 -8h245q77 0 84 33q4 17 -13 25.5t-56 8.5h-245q-77 0 -84 -34zM1076 105q-4 -17 12.5 -25t56.5 -8h275q77 0 84 33q4 17 -12.5 25
t-55.5 8h-276q-77 0 -84 -33z" />
    <glyph glyph-name="fiveeighths" unicode="&#x215d;" horiz-adv-x="1697" 
d="M101 460h102q-4 -20 25 -29t94 -9h220q81 0 90 38q5 20 -13 29.5t-60 9.5h-132q-125 0 -207 -11l-97 41l39 171h602l-19 -81h-500l-12 -52l-13 -38l18 -7q89 48 210 48h138q89 0 125 -26.5t23 -82.5q-14 -63 -77 -93t-181 -30h-194q-107 0 -151 29.5t-30 92.5zM345 70
l516 300l492 330l34 -70l-516 -300l-492 -330zM971 87q10 41 42.5 61.5t94.5 25.5l5 20q-52 4 -72.5 22.5t-12.5 53.5q11 47 61 67t148 20h225q98 0 138.5 -20t29.5 -67q-16 -69 -119 -76l-5 -20q60 -5 83.5 -25.5t13.5 -61.5q-12 -52 -62.5 -74.5t-148.5 -22.5h-255
q-98 0 -138.5 22.5t-27.5 74.5zM1124 242q-4 -17 12.5 -25t56.5 -8h245q77 0 84 33q4 17 -13 25.5t-56 8.5h-245q-77 0 -84 -34zM1077 105q-4 -17 12.5 -25t56.5 -8h275q77 0 84 33q4 17 -12.5 25t-55.5 8h-276q-77 0 -84 -33z" />
    <glyph glyph-name="seveneighths" unicode="&#x215e;" horiz-adv-x="1446" 
d="M94 70l516 300l492 330l34 -70l-516 -300l-492 -330zM789 700l-35 -150q-207 -23 -314.5 -73.5t-126.5 -133.5h-102q27 115 156.5 182t377.5 94l4 20l-234 -20h-357l19 81h612zM720 87q10 41 42.5 61.5t94.5 25.5l5 20q-52 4 -72.5 22.5t-12.5 53.5q11 47 61 67t148 20
h225q98 0 138.5 -20t29.5 -67q-16 -69 -119 -76l-5 -20q60 -5 83.5 -25.5t13.5 -61.5q-12 -52 -62.5 -74.5t-148.5 -22.5h-255q-98 0 -138.5 22.5t-27.5 74.5zM873 242q-4 -17 12.5 -25t56.5 -8h245q77 0 84 33q4 17 -13 25.5t-56 8.5h-245q-77 0 -84 -34zM826 105
q-4 -17 12.5 -25t56.5 -8h275q77 0 84 33q4 17 -12.5 25t-55.5 8h-276q-77 0 -84 -33z" />
    <glyph glyph-name="partialdiff" unicode="&#x2202;" horiz-adv-x="1353" 
d="M46 232q0 109 82.5 161t257.5 52h290q281 0 390 -112l40 20q-2 124 -80 183t-240 59h-540v165h470q306 0 448 -98t142 -308q0 -186 -108 -275t-332 -89h-370q-232 0 -341 58.5t-109 183.5zM246 229q0 -74 160 -74h530q160 0 160 74q0 76 -160 76h-530q-160 0 -160 -76z
" />
    <glyph glyph-name="product" unicode="&#x220f;" horiz-adv-x="1340" 
d="M110 540l37 160h1240l-37 -160h-260l-147 -640h-180l147 640h-360l-147 -640h-180l147 640h-260z" />
    <glyph glyph-name="minus" unicode="&#x2212;" horiz-adv-x="900" 
d="M50 280l32 140h800l-32 -140h-800z" />
    <glyph glyph-name="approxequal" unicode="&#x2248;" horiz-adv-x="840" 
d="M73 380q28 124 90 182t163 58q51 0 91.5 -14.5t66 -35t48 -41t49.5 -35t58 -14.5q40 0 64 24t36 76h120q-28 -124 -90 -182t-163 -58q-51 0 -91.5 14.5t-66 35t-48 41t-49.5 35t-58 14.5q-40 0 -64 -24t-36 -76h-120zM13 120q28 124 90 182t163 58q51 0 91.5 -14.5
t66 -35t48 -41t49.5 -35t58 -14.5q40 0 64 24t36 76h120q-28 -124 -90 -182t-163 -58q-51 0 -91.5 14.5t-66 35t-48 41t-49.5 35t-58 14.5q-40 0 -64 -24t-36 -76h-120z" />
    <glyph glyph-name="notequal" unicode="&#x2260;" horiz-adv-x="961" 
d="M939 400h-281l-124 -100h381l-32 -140h-521l-202 -164l-76 99l80 65h-141l32 140h281l124 100h-381l32 140h521l202 164l76 -99l-80 -65h141z" />
    <glyph glyph-name="lessequal" unicode="&#x2264;" horiz-adv-x="810" 
d="M56 305l57 250l774 145l-35 -150l-539 -84l-174 -16l-9 -40l166 -16l501 -84l-35 -150zM-15 0l33 140h740l-33 -140h-740z" />
    <glyph glyph-name="greaterequal" unicode="&#x2265;" horiz-adv-x="810" 
d="M-8 160l35 150l539 84l174 16l9 40l-166 16l-501 84l35 150l706 -145l-57 -250zM-45 0l33 140h740l-33 -140h-740z" />
    <glyph glyph-name="lozenge" unicode="&#x25ca;" horiz-adv-x="1080" 
d="M66 350l416 350h310l254 -350l-416 -350h-310zM276 350l157 -210l34 -90h40l76 90l253 210l-157 210l-34 90h-40l-76 -90z" />
    <glyph glyph-name="i.loclTRK" horiz-adv-x="360" 
d="M291 760q-67 0 -94.5 18t-18.5 57q17 75 147 75q67 0 94.5 -18t18.5 -57q-17 -75 -147 -75zM15 0l162 700h200l-162 -700h-200z" />
    <glyph glyph-name="zero.dnom" horiz-adv-x="753" 
d="M26 174q22 94 94 138.5t203 44.5h143q131 0 183 -44.5t30 -138.5t-94.5 -139t-203.5 -45h-143q-131 0 -182.5 44.5t-29.5 139.5zM128 174q-10 -44 8 -68l282 147l5 20h-135q-137 0 -160 -99zM280 74h136q138 0 161 100q9 45 -9 68l-284 -148z" />
    <glyph glyph-name="one.dnom" horiz-adv-x="458" 
d="M43 250q150 0 194 107h188l-82 -357h-102l54 235l43 97h-21q-41 -84 -112 -124t-181 -40z" />
    <glyph glyph-name="two.dnom" horiz-adv-x="692" 
d="M-15 0l35 151l424 48q74 9 83 46q4 17 -11 25t-53 8h-184q-122 0 -136 -59h-102q17 74 76 108.5t166 34.5h163q108 0 152 -27.5t31 -86.5q-23 -101 -191 -120l-408 -46l-5 -21l234 21h337l-19 -82h-592z" />
    <glyph glyph-name="three.dnom" horiz-adv-x="733" 
d="M15 128h102q-7 -29 18.5 -42.5t86.5 -13.5h234q77 0 84 32q4 17 -12.5 24t-56.5 7h-286l18 77h280q77 0 84 31q4 17 -13 25t-56 8h-229q-113 0 -125 -57h-103q16 71 72.5 104.5t158.5 33.5h235q98 0 138.5 -20t30.5 -67q-18 -69 -120 -76l-5 -20q55 -5 76 -25.5t11 -60.5
q-12 -52 -62.5 -75t-148.5 -23h-245q-102 0 -142.5 33.5t-24.5 104.5z" />
    <glyph glyph-name="four.dnom" horiz-adv-x="772" 
d="M4 77l36 158q318 31 378 122h199l-46 -199h123l-19 -81h-122l-18 -77h-102l18 77h-447zM47 156l-5 -21l205 23h222l20 87l41 87h-21q-47 -73 -159.5 -116t-302.5 -60z" />
    <glyph glyph-name="five.dnom" horiz-adv-x="733" 
d="M11 112h102q-4 -20 25 -29t94 -9h220q81 0 90 38q5 20 -13 29.5t-60 9.5h-132q-125 0 -207 -11l-97 41l39 171h602l-19 -81h-500l-12 -52l-13 -38l18 -7q89 48 210 48h138q89 0 125 -26.5t23 -82.5q-14 -63 -77 -93t-181 -30h-194q-107 0 -151 29.5t-30 92.5z" />
    <glyph glyph-name="six.dnom" horiz-adv-x="743" 
d="M25 168q22 98 95.5 143.5t207.5 45.5h169q107 0 151 -28t31 -89h-102q4 17 -24 25t-91 8h-189q-121 0 -145 -98l18 -10q38 31 86.5 44t125.5 13h148q89 0 125.5 -26.5t23.5 -82.5q-15 -63 -77.5 -93t-180.5 -30h-189q-115 0 -159.5 43.5t-23.5 134.5zM119 112
q-5 -19 12.5 -28.5t59.5 -9.5h271q81 0 90 38q5 20 -12.5 29.5t-59.5 9.5h-271q-81 0 -90 -39z" />
    <glyph glyph-name="seven.dnom" horiz-adv-x="712" 
d="M680 357l-35 -150q-207 -23 -314.5 -73.5t-126.5 -133.5h-102q27 115 156.5 182t377.5 94l4 20l-234 -20h-357l19 81h612z" />
    <glyph glyph-name="eight.dnom" horiz-adv-x="733" 
d="M6 87q10 41 42.5 61.5t94.5 25.5l5 20q-52 4 -72.5 22.5t-12.5 53.5q11 47 61 67t148 20h225q98 0 138.5 -20t29.5 -67q-16 -69 -119 -76l-5 -20q60 -5 83.5 -25.5t13.5 -61.5q-12 -52 -62.5 -74.5t-148.5 -22.5h-255q-98 0 -138.5 22.5t-27.5 74.5zM159 242
q-4 -17 12.5 -25t56.5 -8h245q77 0 84 33q4 17 -13 25.5t-56 8.5h-245q-77 0 -84 -34zM112 105q-4 -17 12.5 -25t56.5 -8h275q77 0 84 33q4 17 -12.5 25t-55.5 8h-276q-77 0 -84 -33z" />
    <glyph glyph-name="nine.dnom" horiz-adv-x="743" 
d="M670 179q-23 -98 -96.5 -143.5t-207.5 -45.5h-173q-108 0 -152.5 28.5t-30.5 88.5h102q-4 -17 24 -25t91 -8h194q121 0 145 98l-18 10q-68 -57 -212 -57h-148q-89 0 -125 26.5t-24 82.5q15 63 78 93t181 30h188q116 0 160.5 -43.5t23.5 -134.5zM576 235q5 20 -13 29
t-60 9h-271q-81 0 -90 -38q-5 -20 12.5 -29t59.5 -9h271q82 0 91 38z" />
    <glyph glyph-name="zero.numr" horiz-adv-x="753" 
d="M107 527q22 94 94 138.5t203 44.5h143q131 0 183 -44.5t30 -138.5t-94.5 -139t-203.5 -45h-143q-131 0 -182.5 44.5t-29.5 139.5zM209 527q-10 -44 8 -68l282 147l5 20h-135q-137 0 -160 -99zM361 427h136q138 0 161 100q9 45 -9 68l-284 -148z" />
    <glyph glyph-name="one.numr" horiz-adv-x="457" 
d="M122 594q150 0 194 107h188l-82 -357h-102l54 235l43 97h-21q-41 -84 -112 -124t-181 -40z" />
    <glyph glyph-name="two.numr" horiz-adv-x="692" 
d="M66 348l35 151l424 48q74 9 83 46q4 17 -11 25t-53 8h-184q-122 0 -136 -59h-102q17 74 76 108.5t166 34.5h163q108 0 152 -27.5t31 -86.5q-23 -101 -191 -120l-408 -46l-5 -21l234 21h337l-19 -82h-592z" />
    <glyph glyph-name="three.numr" horiz-adv-x="732" 
d="M96 481h102q-7 -29 18.5 -42.5t86.5 -13.5h234q77 0 84 32q4 17 -12.5 24t-56.5 7h-286l18 77h280q77 0 84 31q8 33 -69 33h-229q-113 0 -125 -57h-103q16 71 72.5 104.5t158.5 33.5h235q98 0 138.5 -20t30.5 -67q-18 -69 -120 -76l-5 -20q55 -5 76 -25.5t11 -60.5
q-12 -52 -62.5 -75t-148.5 -23h-245q-102 0 -142.5 33.5t-24.5 104.5z" />
    <glyph glyph-name="four.numr" horiz-adv-x="772" 
d="M83 421l36 158q318 31 378 122h199l-46 -199h123l-19 -81h-122l-18 -77h-102l18 77h-447zM126 500l-5 -21l205 23h222l20 87l41 87h-21q-47 -73 -159.5 -116t-302.5 -60z" />
    <glyph glyph-name="five.numr" horiz-adv-x="733" 
d="M91 460h102q-4 -20 25 -29t94 -9h220q81 0 90 38q5 20 -13 29.5t-60 9.5h-132q-125 0 -207 -11l-97 41l39 171h602l-19 -81h-500l-12 -52l-13 -38l18 -7q89 48 210 48h138q89 0 125 -26.5t23 -82.5q-14 -63 -77 -93t-181 -30h-194q-107 0 -151 29.5t-30 92.5z" />
    <glyph glyph-name="six.numr" horiz-adv-x="743" 
d="M106 521q22 98 95.5 143.5t207.5 45.5h169q107 0 151 -28t31 -89h-102q4 17 -24 25t-91 8h-189q-121 0 -145 -98l18 -10q38 31 86.5 44t125.5 13h148q89 0 125.5 -26.5t23.5 -82.5q-15 -63 -77.5 -93t-180.5 -30h-189q-115 0 -159.5 43.5t-23.5 134.5zM200 465
q-5 -19 12.5 -28.5t59.5 -9.5h271q81 0 90 38q5 20 -12.5 29.5t-59.5 9.5h-271q-81 0 -90 -39z" />
    <glyph glyph-name="seven.numr" horiz-adv-x="712" 
d="M759 700l-35 -150q-207 -23 -314.5 -73.5t-126.5 -133.5h-102q27 115 156.5 182t377.5 94l4 20l-234 -20h-357l19 81h612z" />
    <glyph glyph-name="eight.numr" horiz-adv-x="732" 
d="M87 440q10 41 42.5 61.5t94.5 25.5l5 20q-52 4 -72.5 22.5t-12.5 53.5q11 47 61 67t148 20h225q98 0 138.5 -20t29.5 -67q-16 -69 -119 -76l-5 -20q60 -5 83.5 -25.5t13.5 -61.5q-12 -52 -62.5 -74.5t-148.5 -22.5h-255q-98 0 -138.5 22.5t-27.5 74.5zM240 595
q-4 -17 12.5 -25t56.5 -8h245q77 0 84 33q4 17 -13 25.5t-56 8.5h-245q-77 0 -84 -34zM193 458q-4 -17 12.5 -25t56.5 -8h275q77 0 84 33q4 17 -12.5 25t-55.5 8h-276q-77 0 -84 -33z" />
    <glyph glyph-name="nine.numr" horiz-adv-x="742" 
d="M751 532q-23 -98 -96.5 -143.5t-207.5 -45.5h-173q-108 0 -152.5 28.5t-30.5 88.5h102q-4 -17 24 -25t91 -8h194q121 0 145 98l-18 10q-68 -57 -212 -57h-148q-89 0 -125 26.5t-24 82.5q15 63 78 93t181 30h188q116 0 160.5 -43.5t23.5 -134.5zM657 588q5 20 -13 29
t-60 9h-271q-81 0 -90 -38q-5 -20 12.5 -29t59.5 -9h271q82 0 91 38z" />
    <glyph glyph-name="two_fraction_seven" horiz-adv-x="1716" 
d="M76 348l35 151l424 48q74 9 83 46q4 17 -11 25t-53 8h-184q-122 0 -136 -59h-102q17 74 76 108.5t166 34.5h163q108 0 152 -27.5t31 -86.5q-23 -101 -191 -120l-408 -46l-5 -21l234 21h337l-19 -82h-592zM344 70l516 300l492 330l34 -70l-516 -300l-492 -330zM1714 357
l-35 -150q-207 -23 -314.5 -73.5t-126.5 -133.5h-102q27 115 156.5 182t377.5 94l4 20l-234 -20h-357l19 81h612z" />
    <glyph glyph-name="three_fraction_seven" horiz-adv-x="1696" 
d="M96 481h102q-7 -29 18.5 -42.5t86.5 -13.5h234q77 0 84 32q4 17 -12.5 24t-56.5 7h-286l18 77h280q77 0 84 31q8 33 -69 33h-229q-113 0 -125 -57h-103q16 71 72.5 104.5t158.5 33.5h235q98 0 138.5 -20t30.5 -67q-18 -69 -120 -76l-5 -20q55 -5 76 -25.5t11 -60.5
q-12 -52 -62.5 -75t-148.5 -23h-245q-102 0 -142.5 33.5t-24.5 104.5zM344 70l516 300l492 330l34 -70l-516 -300l-492 -330zM1694 357l-35 -150q-207 -23 -314.5 -73.5t-126.5 -133.5h-102q27 115 156.5 182t377.5 94l4 20l-234 -20h-357l19 81h612z" />
    <glyph glyph-name="four_fraction_seven" horiz-adv-x="1676" 
d="M93 421l36 158q318 31 378 122h199l-46 -199h123l-19 -81h-122l-18 -77h-102l18 77h-447zM324 70l516 300l492 330l34 -70l-516 -300l-492 -330zM136 500l-5 -21l205 23h222l20 87l41 87h-21q-47 -73 -159.5 -116t-302.5 -60zM1674 357l-35 -150q-207 -23 -314.5 -73.5
t-126.5 -133.5h-102q27 115 156.5 182t377.5 94l4 20l-234 -20h-357l19 81h612z" />
    <glyph glyph-name="five_fraction_seven" horiz-adv-x="1727" 
d="M101 460h102q-4 -20 25 -29t94 -9h220q81 0 90 38q5 20 -13 29.5t-60 9.5h-132q-125 0 -207 -11l-97 41l39 171h602l-19 -81h-500l-12 -52l-13 -38l18 -7q89 48 210 48h138q89 0 125 -26.5t23 -82.5q-14 -63 -77 -93t-181 -30h-194q-107 0 -151 29.5t-30 92.5zM345 70
l516 300l492 330l34 -70l-516 -300l-492 -330zM1725 357l-35 -150q-207 -23 -314.5 -73.5t-126.5 -133.5h-102q27 115 156.5 182t377.5 94l4 20l-234 -20h-357l19 81h612z" />
    <glyph glyph-name="six_fraction_seven" horiz-adv-x="1756" 
d="M106 521q22 98 95.5 143.5t207.5 45.5h169q107 0 151 -28t31 -89h-102q4 17 -24 25t-91 8h-189q-121 0 -145 -98l18 -10q38 31 86.5 44t125.5 13h148q89 0 125.5 -26.5t23.5 -82.5q-15 -63 -77.5 -93t-180.5 -30h-189q-115 0 -159.5 43.5t-23.5 134.5zM354 70l516 300
l492 330l34 -70l-516 -300l-492 -330zM200 465q-5 -19 12.5 -28.5t59.5 -9.5h271q81 0 90 38q5 20 -12.5 29.5t-59.5 9.5h-271q-81 0 -90 -39zM1754 357l-35 -150q-207 -23 -314.5 -73.5t-126.5 -133.5h-102q27 115 156.5 182t377.5 94l4 20l-234 -20h-357l19 81h612z" />
    <glyph glyph-name="two_fraction_nine" horiz-adv-x="1656" 
d="M76 348l35 151l424 48q74 9 83 46q4 17 -11 25t-53 8h-184q-122 0 -136 -59h-102q17 74 76 108.5t166 34.5h163q108 0 152 -27.5t31 -86.5q-23 -101 -191 -120l-408 -46l-5 -21l234 21h337l-19 -82h-592zM294 70l516 300l492 330l34 -70l-516 -300l-492 -330zM1584 179
q-23 -98 -96.5 -143.5t-207.5 -45.5h-173q-108 0 -152.5 28.5t-30.5 88.5h102q-4 -17 24 -25t91 -8h194q121 0 145 98l-18 10q-68 -57 -212 -57h-148q-89 0 -125 26.5t-24 82.5q15 63 78 93t181 30h188q116 0 160.5 -43.5t23.5 -134.5zM1490 235q5 20 -13 29t-60 9h-271
q-81 0 -90 -38q-5 -20 12.5 -29t59.5 -9h271q82 0 91 38z" />
    <glyph glyph-name="four_fraction_nine" horiz-adv-x="1666" 
d="M93 421l36 158q318 31 378 122h199l-46 -199h123l-19 -81h-122l-18 -77h-102l18 77h-447zM304 70l516 300l492 330l34 -70l-516 -300l-492 -330zM136 500l-5 -21l205 23h222l20 87l41 87h-21q-47 -73 -159.5 -116t-302.5 -60zM1594 179q-23 -98 -96.5 -143.5
t-207.5 -45.5h-173q-108 0 -152.5 28.5t-30.5 88.5h102q-4 -17 24 -25t91 -8h194q121 0 145 98l-18 10q-68 -57 -212 -57h-148q-89 0 -125 26.5t-24 82.5q15 63 78 93t181 30h188q116 0 160.5 -43.5t23.5 -134.5zM1500 235q5 20 -13 29t-60 9h-271q-81 0 -90 -38
q-5 -20 12.5 -29t59.5 -9h271q82 0 91 38z" />
    <glyph glyph-name="five_fraction_nine" horiz-adv-x="1707" 
d="M101 460h102q-4 -20 25 -29t94 -9h220q81 0 90 38q5 20 -13 29.5t-60 9.5h-132q-125 0 -207 -11l-97 41l39 171h602l-19 -81h-500l-12 -52l-13 -38l18 -7q89 48 210 48h138q89 0 125 -26.5t23 -82.5q-14 -63 -77 -93t-181 -30h-194q-107 0 -151 29.5t-30 92.5zM345 70
l516 300l492 330l34 -70l-516 -300l-492 -330zM1635 179q-23 -98 -96.5 -143.5t-207.5 -45.5h-173q-108 0 -152.5 28.5t-30.5 88.5h102q-4 -17 24 -25t91 -8h194q121 0 145 98l-18 10q-68 -57 -212 -57h-148q-89 0 -125 26.5t-24 82.5q15 63 78 93t181 30h188
q116 0 160.5 -43.5t23.5 -134.5zM1541 235q5 20 -13 29t-60 9h-271q-81 0 -90 -38q-5 -20 12.5 -29t59.5 -9h271q82 0 91 38z" />
    <glyph glyph-name="seven_fraction_nine" horiz-adv-x="1456" 
d="M94 70l516 300l492 330l34 -70l-516 -300l-492 -330zM789 700l-35 -150q-207 -23 -314.5 -73.5t-126.5 -133.5h-102q27 115 156.5 182t377.5 94l4 20l-234 -20h-357l19 81h612zM1384 179q-23 -98 -96.5 -143.5t-207.5 -45.5h-173q-108 0 -152.5 28.5t-30.5 88.5h102
q-4 -17 24 -25t91 -8h194q121 0 145 98l-18 10q-68 -57 -212 -57h-148q-89 0 -125 26.5t-24 82.5q15 63 78 93t181 30h188q116 0 160.5 -43.5t23.5 -134.5zM1290 235q5 20 -13 29t-60 9h-271q-81 0 -90 -38q-5 -20 12.5 -29t59.5 -9h271q82 0 91 38z" />
    <glyph glyph-name="eight_fraction_nine" horiz-adv-x="1706" 
d="M87 440q10 41 42.5 61.5t94.5 25.5l5 20q-52 4 -72.5 22.5t-12.5 53.5q11 47 61 67t148 20h225q98 0 138.5 -20t29.5 -67q-16 -69 -119 -76l-5 -20q60 -5 83.5 -25.5t13.5 -61.5q-12 -52 -62.5 -74.5t-148.5 -22.5h-255q-98 0 -138.5 22.5t-27.5 74.5zM344 70l516 300
l492 330l34 -70l-516 -300l-492 -330zM240 595q-4 -17 12.5 -25t56.5 -8h245q77 0 84 33q4 17 -13 25.5t-56 8.5h-245q-77 0 -84 -34zM193 458q-4 -17 12.5 -25t56.5 -8h275q77 0 84 33q4 17 -12.5 25t-55.5 8h-276q-77 0 -84 -33zM1634 179q-23 -98 -96.5 -143.5
t-207.5 -45.5h-173q-108 0 -152.5 28.5t-30.5 88.5h102q-4 -17 24 -25t91 -8h194q121 0 145 98l-18 10q-68 -57 -212 -57h-148q-89 0 -125 26.5t-24 82.5q15 63 78 93t181 30h188q116 0 160.5 -43.5t23.5 -134.5zM1540 235q5 20 -13 29t-60 9h-271q-81 0 -90 -38
q-5 -20 12.5 -29t59.5 -9h271q82 0 91 38z" />
    <glyph glyph-name="seven_fraction_one_zero" horiz-adv-x="1874" 
d="M94 70l516 300l492 330l34 -70l-516 -300l-492 -330zM789 700l-35 -150q-207 -23 -314.5 -73.5t-126.5 -133.5h-102q27 115 156.5 182t377.5 94l4 20l-234 -20h-357l19 81h612zM757 250q150 0 194 107h188l-82 -357h-102l54 235l43 97h-21q-41 -84 -112 -124t-181 -40z
M1147 174q22 94 94 138.5t203 44.5h143q131 0 183 -44.5t30 -138.5t-94.5 -139t-203.5 -45h-143q-131 0 -182.5 44.5t-29.5 139.5zM1249 174q-10 -44 8 -68l282 147l5 20h-135q-137 0 -160 -99zM1401 74h136q138 0 161 100q9 45 -9 68l-284 -148z" />
    </font>
</defs>
</svg>
