<?xml version="1.0" standalone="no"?>
<!DOCTYPE svg PUBLIC "-//W3C//DTD SVG 1.1//EN" "http://www.w3.org/Graphics/SVG/1.1/DTD/svg11.dtd" >
<svg xmlns="http://www.w3.org/2000/svg" xmlns:xlink="http://www.w3.org/1999/xlink" version="1.1">
<metadata>
Created by FontForge 20170731 at Mon Feb 13 23:45:47 2023
 By Aleksey,,,
</metadata>
<defs>
<font id="COSMIC-LightItalic" horiz-adv-x="378" >
  <font-face 
    font-family="COSMIC Light"
    font-weight="500"
    font-style="italic"
    font-stretch="normal"
    units-per-em="1024"
    panose-1="0 0 0 0 0 0 0 0 0 0"
    ascent="819"
    descent="-205"
    x-height="658"
    cap-height="908"
    bbox="-259.714 -262 1201.82 1200"
    underline-thickness="0"
    underline-position="0"
    unicode-range="U+0020-F078"
  />
<missing-glyph horiz-adv-x="650" 
 />
    <glyph glyph-name=".notdef" horiz-adv-x="650" 
 />
    <glyph glyph-name=".null" horiz-adv-x="0" 
 />
    <glyph glyph-name="nonmarkingreturn" horiz-adv-x="341" 
 />
    <glyph glyph-name="space" unicode=" " horiz-adv-x="371" 
 />
    <glyph glyph-name="exclam" unicode="!" horiz-adv-x="161" 
d="M176 913q32 0 10 -82l-142 -555h-8l94 555q15 82 46 82zM-20 -5q-14 0 -21 9t-4 23q7 32 39 32q14 0 21 -9t4 -23q-7 -32 -39 -32z" />
    <glyph glyph-name="quotedbl" unicode="&#x22;" horiz-adv-x="247" 
d="M245 871q5 42 28 42h3q23 0 10 -42l-51 -160h-6zM140 871q5 42 28 42h3q23 0 10 -42l-51 -160h-6z" />
    <glyph glyph-name="numbersign" unicode="#" horiz-adv-x="607" 
d="M84 183h-166l13 34h166l135 383h-164l12 35h164l73 205h13l-73 -205h208l73 205h14l-73 -205h174l-11 -35h-175l-135 -383h167l-13 -34h-167l-65 -183h-14l65 183h-208l-65 -183h-13zM245 600l-135 -383h208l135 383h-208z" />
    <glyph glyph-name="dollar" unicode="$" horiz-adv-x="565" 
d="M-57 180l15 7q16 -63 61.5 -109t107.5 -65l96 451q-174 113 -144 260q17 78 82.5 132t157.5 61l14 66h16l-13 -65q28 0 63 -5l14 70h16l-15 -73q61 -14 104 -49.5t55 -84.5l-15 -7q-12 47 -51.5 81.5t-94.5 48.5l-89 -417q208 -115 173 -279q-20 -90 -97 -150t-181 -63
l-13 -65h-16l13 65q-35 2 -62 7l-15 -72h-16l16 76q-69 19 -117.5 66t-64.5 113zM221 2q87 4 151 55.5t79 124.5q29 132 -142 234zM123 747q-25 -116 115 -214l79 374q-75 -7 -128 -52.5t-66 -107.5zM237 455l-95 -446q37 -7 63 -7l90 422q-12 6 -17 9q-1 0 -41 22zM334 908
l-82 -385q24 -17 55 -32q1 0 1 -0.5t1 -0.5l87 413q-25 5 -62 5z" />
    <glyph glyph-name="ampersand" unicode="&#x26;" horiz-adv-x="779" 
d="M-53 192q19 87 87 154t163 95l8 -3q-76 -22 -132.5 -83t-73.5 -140q-17 -81 16.5 -132t95.5 -51q106 0 261 158l-138 215q-19 30 -29.5 46.5t-24 41.5t-19 43t-10.5 41.5t-4 47.5t7 50q20 93 81 168t129 75q67 0 94.5 -74t6.5 -170q-34 -161 -193 -208l-4 5
q124 37 159 200q21 89 3 162.5t-69 73.5q-50 0 -98 -66t-65 -145q-15 -71 5 -125.5t76 -141.5l129 -201q149 166 300 430h11q-151 -263 -305 -439l61 -95q64 -97 117 -97q32 0 66.5 34.5t52.5 89.5l7 -3q-23 -70 -66 -114t-85 -44q-65 0 -137 110l-51 80
q-179 -190 -304 -190q-71 0 -108.5 57.5t-19.5 144.5z" />
    <glyph glyph-name="quotesingle" unicode="'" horiz-adv-x="142" 
d="M168 913h3q23 0 10 -42l-51 -160h-6l16 160q5 42 28 42z" />
    <glyph glyph-name="parenleft" unicode="(" horiz-adv-x="244" 
d="M403 918l3 -5q-138 -91 -243 -243.5t-139 -311.5q-34 -158 6.5 -310.5t139.5 -243.5l-5 -5q-110 100 -157.5 254t-15.5 305t145 305t266 255z" />
    <glyph glyph-name="parenright" unicode=")" horiz-adv-x="252" 
d="M22 913l5 5q106 -103 152 -257t14 -303q-33 -152 -144.5 -307.5t-260.5 -256.5l-3 5q135 91 238 245t138 314q33 157 -5.5 309.5t-133.5 245.5z" />
    <glyph glyph-name="asterisk" unicode="*" horiz-adv-x="108" 
d="M-12 719q-3 13 14 21l118 48l-98 48q-14 6 -5 20q7 7 14 7q6 0 9 -3l82 -69l13 117q2 17 16 17q16 0 11 -17l-39 -118l112 70q8 4 11 4q8 0 10 -8q5 -13 -13 -20l-118 -48l98 -48q14 -8 4 -21q-6 -7 -13 -7q-6 0 -9 4l-82 70l-13 -118q-2 -18 -17 -18t-10 18l37 117
l-110 -69q-5 -4 -11 -4q-8 0 -11 7z" />
    <glyph glyph-name="plus" unicode="+" horiz-adv-x="411" 
d="M-106 335h241l51 243h35l-51 -243h241l-7 -31h-241l-52 -243h-35l52 243h-241z" />
    <glyph glyph-name="comma" unicode="," horiz-adv-x="177" 
d="M-64 -81q52 15 73 83q-10 -7 -23 -7q-14 0 -20.5 9t-3.5 23t13.5 23t24.5 9q19 0 28.5 -11.5t5.5 -30.5q-8 -39 -35 -68t-62 -39z" />
    <glyph glyph-name="hyphenminus" unicode="-" horiz-adv-x="247" 
d="M-105 357l8 35h367l-8 -35h-367z" />
    <glyph glyph-name="period" unicode="." horiz-adv-x="163" 
d="M-17 -5q-14 0 -20.5 9t-3.5 23t13.5 23t24.5 9t21 -9t4 -23q-7 -32 -39 -32z" />
    <glyph glyph-name="slash" unicode="/" horiz-adv-x="269" 
d="M364 928h27l-497 -1008h-27z" />
    <glyph glyph-name="zero" unicode="0" horiz-adv-x="620" 
d="M18 338q34 157 130.5 252.5t221.5 95.5q128 0 186 -95.5t24 -252.5q-33 -156 -133.5 -252t-231.5 -96q-121 0 -175.5 96t-21.5 252zM218 -2q109 0 195.5 93.5t118.5 246.5q33 153 -12 246.5t-153 93.5q-103 0 -186 -93.5t-116 -246.5q-32 -153 10 -246.5t143 -93.5z" />
    <glyph glyph-name="one" unicode="1" horiz-adv-x="156" 
d="M-32 0l5 20h1q2 0 5 15l125 588q1 6 1.5 9.5t0.5 4.5t-1 1h-1l4 20h50l-4 -20q-2 0 -5 -15l-125 -588q-1 -6 -1.5 -9.5t-0.5 -4.5t1 -1l-5 -20h-50z" />
    <glyph glyph-name="two" unicode="2" horiz-adv-x="540" 
d="M409 0h-491l2 8q481 153 540 430q18 88 -22.5 141.5t-125.5 53.5q-83 0 -161.5 -68t-125.5 -180l-8 2q51 126 140.5 203.5t184.5 77.5t140.5 -60.5t24.5 -159.5q-52 -246 -475 -408h281q110 0 111 1h20q-2 -3 -6.5 -8.5t-6.5 -7.5l-7 -7q-6 -9 -15 -18z" />
    <glyph glyph-name="three" unicode="3" horiz-adv-x="451" 
d="M-148 -209q182 19 304.5 82t140.5 146q13 66 -64.5 118.5t-217.5 72.5l2 9q358 140 385 270q14 66 -24.5 106.5t-115.5 40.5q-84 0 -151 -35.5t-93 -94.5l-10 2q32 72 108.5 116t169.5 44q91 0 137.5 -45t30.5 -118q-27 -123 -374 -269q136 -20 209.5 -75.5t57.5 -128.5
q-20 -92 -156 -160.5t-340 -89.5z" />
    <glyph glyph-name="four" unicode="4" horiz-adv-x="679" 
d="M354 0h-452l2 8l638 686h5l-140 -660h142q111 0 111 2h20q-4 -10 -7 -19q-2 -2 -4 -12l-2 -5h-268l-43 -206h-45zM-49 34h411l123 578z" />
    <glyph glyph-name="five" unicode="5" horiz-adv-x="414" 
d="M-147 -232l1 8q183 23 306.5 93t142.5 163q24 110 -62.5 178t-250.5 68h-1l-7 7l161 373h162q100 0 101 1h21q-2 -3 -5 -10.5t-4 -9.5q-6 -15 -8 -18v-2l-267 -2l-127 -292q175 -2 265 -78.5t64 -199.5q-21 -102 -156 -178.5t-336 -100.5z" />
    <glyph glyph-name="six" unicode="6" horiz-adv-x="620" 
d="M25 345q54 253 248.5 408t459.5 155l-1 -7q-210 0 -378 -120t-249 -325q41 71 104 111.5t136 40.5q130 0 191 -87.5t30 -230.5q-28 -135 -119.5 -217.5t-212.5 -82.5q-128 0 -185.5 97.5t-23.5 257.5zM338 597q-97 0 -172 -76t-101 -200q-31 -145 15.5 -233t153.5 -88
q101 0 180 80.5t108 211.5q29 137 -21.5 221t-162.5 84z" />
    <glyph glyph-name="seven" unicode="7" horiz-adv-x="437" 
d="M8 620q3 3 7 10t6 9q2 3 6.5 10t6.5 10h20l-1 -1h442l-4 -20l-556 -844h-34l573 833l-8 -5h-386q-50 0 -52 -2h-20z" />
    <glyph glyph-name="eight" unicode="8" horiz-adv-x="595" 
d="M-17 211q20 95 96.5 167.5t184.5 98.5q-84 43 -125 102.5t-26 126.5q20 95 101 153.5t193 58.5q113 0 170.5 -54t38.5 -143q-17 -81 -89 -143.5t-175 -87.5q72 -33 114.5 -67.5t63 -86t6.5 -117.5q-22 -103 -111.5 -166t-213.5 -63t-186.5 60.5t-41.5 160.5zM275 471
q-93 -21 -162.5 -92t-90.5 -168q-20 -96 32.5 -154.5t158.5 -58.5q109 0 187 55.5t98 145.5q5 23 5 44.5t-4.5 40t-12 35t-19.5 31t-24.5 27t-29.5 24t-32.5 20.5t-35 18.5t-35 16.5t-35.5 15zM405 910q-96 0 -165.5 -51.5t-87.5 -135.5q-14 -64 32 -121.5t137 -97.5l21 -9
q89 20 153.5 80.5t81.5 141.5q19 87 -28.5 140t-143.5 53z" />
    <glyph glyph-name="nine" unicode="9" horiz-adv-x="618" 
d="M-145 -250v7q210 0 377.5 119t248.5 323q-41 -70 -103 -109.5t-135 -39.5q-130 0 -191 87.5t-30 230.5q29 135 119.5 217.5t210.5 82.5q129 0 186.5 -97.5t23.5 -257.5q-53 -253 -247.5 -408t-459.5 -155zM352 658q-101 0 -179.5 -80.5t-106.5 -212.5q-29 -137 21 -220.5
t162 -84.5q107 1 178 83t95 194q31 144 -16 232.5t-154 88.5z" />
    <glyph glyph-name="colon" unicode=":" horiz-adv-x="86" 
d="M-56 -5q-14 0 -20.5 9t-3.5 23t13.5 23t24.5 9t21 -9t4 -23q-7 -32 -39 -32zM73 599q-14 0 -20.5 9t-3.5 23q7 32 37 32q14 0 21.5 -9t4.5 -23q-7 -32 -39 -32z" />
    <glyph glyph-name="semicolon" unicode=";" horiz-adv-x="97" 
d="M-111 -81q52 15 73 83q-10 -7 -23 -7q-14 0 -20.5 9t-3.5 23t13.5 23t24.5 9q19 0 28.5 -11.5t5.5 -30.5q-8 -39 -35 -68t-62 -39zM83 543q-14 0 -21 8.5t-4 22.5q7 32 38 32q14 0 21.5 -9t4.5 -23t-14 -22.5t-25 -8.5z" />
    <glyph glyph-name="equal" unicode="=" horiz-adv-x="389" 
d="M-86 389h477l-4 -20h-477zM-107 289h477l-4 -20h-477z" />
    <glyph glyph-name="question" unicode="?" horiz-adv-x="261" 
d="M131 886q3 16 16.5 25t32.5 9q74 0 104.5 -69.5t5.5 -182.5q-14 -66 -53 -117q-46 -60 -84.5 -87.5t-95.5 -27.5l-53 -230h-8l55 275q69 0 107 22t73 70q36 48 44 90q20 94 -4 151.5t-85 57.5q-6 0 -18 -4t-18 -4q-11 0 -16 6t-3 16zM-62 27q7 32 39 32q14 0 21 -9t4 -23
q-7 -32 -39 -32q-14 0 -21 9t-4 23z" />
    <glyph glyph-name="at" unicode="@" horiz-adv-x="1234" 
d="M-5 338q56 265 252 427t460 162q263 0 396 -131t87 -345q-44 -209 -140.5 -336t-210.5 -127q-98 0 -143 55t-27 149q-46 -82 -113.5 -130t-139.5 -48q-95 0 -138 67.5t-19 177.5q37 174 145.5 280t249.5 106q66 0 102.5 -38.5t31.5 -103.5l52 128h42l-149 -368
q-47 -116 -15 -187.5t132 -71.5q94 0 178 123t127 324q44 209 -80 336.5t-371 127.5q-248 0 -433 -158.5t-241 -418.5q-55 -260 65 -418.5t370 -158.5q194 0 357 66t235 173h15q-76 -113 -244 -182t-366 -69q-266 0 -394.5 162t-72.5 427zM650 632q-118 0 -212 -100
t-129 -264q-22 -103 15.5 -166t120.5 -63q70 0 137.5 61.5t108.5 162.5l83 204h-1q16 74 -18 119.5t-105 45.5z" />
    <glyph glyph-name="A" unicode="A" horiz-adv-x="584" 
d="M79 363h320l-47 504zM-115 0h-16l5 10l4 10h2l4 6l467 852l-1 10q11 4 41 40h6l75 -788q12 -120 13 -120h1v-10l-1 -10h-56q0 4 2 10q-2 6 0 10l-1 18q-1 7 -2.5 19.5t-4 37t-4.5 45.5l-19 213h-326l-181 -331v-2q-2 -4 -4 -10z" />
    <glyph glyph-name="B" unicode="B" horiz-adv-x="687" 
d="M-17 20q2 0 16 65l156 738q6 26 9 41t3.5 19.5t-0.5 4.5l5 20h179q110 0 181.5 -16t103.5 -44.5t42 -69t-3 -90.5q-19 -87 -114 -146.5t-239 -73.5q143 -10 217 -73t53 -160q-15 -69 -52 -116.5t-96.5 -72.5t-129 -35.5t-163.5 -10.5h-173zM250 463h-120l-81 -383
q-7 -32 5 -52t39 -20h50q83 0 144.5 10t115 34.5t87 70t47.5 112.5q22 103 -57 165.5t-230 62.5zM333 900h-110l-92 -431h98q157 0 265.5 59t129.5 155q13 49 4.5 89t-37.5 68.5t-93.5 44t-164.5 15.5z" />
    <glyph glyph-name="C" unicode="C" horiz-adv-x="700" 
d="M754 759l-18 -12q-50 81 -106.5 121t-148.5 40q-163 0 -283 -124.5t-165 -333.5q-44 -207 24.5 -329t246.5 -122q200 0 305 158l15 -8q-104 -159 -326 -159q-201 0 -282.5 125t-36.5 337t179.5 339t322.5 127q103 0 163 -39t110 -120z" />
    <glyph glyph-name="D" unicode="D" horiz-adv-x="836" 
d="M161 888l5 20h231q233 0 331.5 -122.5t53.5 -331.5q-47 -220 -218 -337t-420 -117h-172l5 20q3 0 17 65l156 738q6 27 8.5 41.5t3 19t-0.5 4.5zM217 900l-174 -820q-9 -37 8 -54.5t83 -17.5q151 0 272.5 49.5t206 151t114.5 245.5q44 206 -48.5 326t-314.5 120h-147z" />
    <glyph glyph-name="E" unicode="E" horiz-adv-x="594" 
d="M167 888l5 20h512q-1 -2 -1 -6l-1 -6h-20v1q0 1 -3 1t-26 0.5t-70 0.5h-340l-91 -424h273q101 0 101 3v1h20l-2 -13h-393l-82 -386q-9 -37 2.5 -54.5t61.5 -17.5h283q98 0 101 3h20q-1 -1 -3 -6l-2 -5h-534l5 20q2 0 16 65l156 738q6 26 9 41t3.5 19.5t-0.5 4.5z" />
    <glyph glyph-name="F" unicode="F" horiz-adv-x="534" 
d="M33 0h-55l5 20q2 0 16 65l156 738q6 26 9 41t3.5 19.5t-0.5 4.5l5 20h512l-2 -7h-459l-92 -435h393l-2 -9h-393l-79 -372q-6 -26 -9 -41t-3.5 -19.5t0.5 -4.5z" />
    <glyph glyph-name="G" unicode="G" horiz-adv-x="749" 
d="M320 -10q-216 0 -301.5 124t-40.5 337t180 340t323 127q103 0 163 -39t110 -120l-18 -12q-50 81 -106.5 121t-148.5 40q-163 0 -283 -124.5t-165 -332.5q-44 -207 25.5 -328t249.5 -121q82 0 153 22.5t78 56.5l49 232h50l-58 -274q47 13 81 28l2 -5q-169 -72 -343 -72z
" />
    <glyph glyph-name="H" unicode="H" horiz-adv-x="790" 
d="M161 888l5 20h55l-5 -20q-2 0 -15 -60l-76 -359h519l76 359q5 23 8 37.5t3 18v4.5h-1l5 20h56l-5 -20h-1q-2 0 -15 -60l-158 -748q-5 -23 -8 -37.5t-3 -18v-4.5h1l-5 -20h-56l5 20h1q2 0 15 60l80 378h-519l-80 -378q-5 -23 -8 -37.5t-3 -18v-4.5l-5 -20h-55l5 20
q3 0 16 60l158 748q5 24 8 37.5t3 18t-1 4.5z" />
    <glyph glyph-name="I" unicode="I" horiz-adv-x="233" 
d="M168 888h-1l5 20h56l-5 -20h-1q-2 0 -15 -60l-158 -748q-5 -23 -8 -37.5t-3 -18v-4.5h1l-5 -20h-56l5 20h1q2 0 15 60l158 748q5 23 8 37.5t3 18v4.5z" />
    <glyph glyph-name="J" unicode="J" horiz-adv-x="233" 
d="M-259 -188q5 24 29 24q12 0 15 -21t16 -21q24 0 47.5 7.5t49 25.5t46.5 55.5t32 91.5l181 854q5 23 8 37.5t3 18v4.5h-1l5 20h56l-5 -20h-1q-2 0 -15 -60l-161 -758q-18 -87 -49 -147.5t-68.5 -89.5t-71 -41t-69.5 -12q-24 0 -37 9t-10 23z" />
    <glyph glyph-name="K" unicode="K" horiz-adv-x="625" 
d="M172 908h55l-5 -20q-2 0 -10 -40l-84 -394l369 315l-1 -1l140 120l10 10l11 10h26q-4 -4 -11 -10l-11 -10h-1q-1 0 -7 -5l-101 -85h-1l-374 -316l323 -397q53 -65 54 -65h1q3 -4 7 -10l6 -10h-72q-5 6 -69 85h1l-300 369l-84 -394q-3 -16 -5 -25.5t-1.5 -11.5t0.5 -3
l-5 -20h-55l5 20q2 0 10 40l168 788q3 16 5 25.5t1.5 11.5t-0.5 3z" />
    <glyph glyph-name="L" unicode="L" horiz-adv-x="553" 
d="M167 888l5 20h56l-5 -20h-1q-2 0 -16 -65l-157 -743q-9 -38 2.5 -55.5t61.5 -17.5h217q164 0 167 3v1q4 0 10 -1h10l-2 -1l-2 -9h-535l5 20h1q2 0 16 65l156 738q6 26 9 41t3.5 19.5t-0.5 4.5h-1z" />
    <glyph glyph-name="M" unicode="M" horiz-adv-x="887" 
d="M-30 20h2q5 21 31 130l167 706q-6 32 -7 32h-1q0 4 -1 10l1 10h60l135 -847v-2l478 849h50l-5 -20h-1l-29 -150v3l-123 -656l-12 -65h1l-5 -20h-55l5 20q4 0 16 65l149 778l-491 -863h-12l-147 823v4l-159 -687h1q-11 -47 -17.5 -75.5t-8 -36.5t-0.5 -8h1l-5 -20h-23z
" />
    <glyph glyph-name="N" unicode="N" horiz-adv-x="773" 
d="M135 908h62l388 -800l144 680q9 40 13.5 63t5 29.5t-0.5 7.5l5 20h18l-8 -36l-190 -872h-10l-393 835l-146 -695q-10 -48 -15.5 -76t-7 -36t-0.5 -8h1l-5 -20h-21l5 20h2q1 0 28 130l151 703l-1 1v-1l-17 35h-1q-1 4 -4 10z" />
    <glyph glyph-name="O" unicode="O" horiz-adv-x="867" 
d="M-22 454q44 208 185 336t326 128q190 0 278.5 -127.5t44.5 -336.5q-44 -208 -190.5 -336t-340.5 -128q-181 0 -264 127.5t-39 336.5zM285 0q167 0 296 125t173 329q43 204 -31 328.5t-239 124.5q-159 0 -282 -124.5t-167 -328.5t25 -329t225 -125z" />
    <glyph glyph-name="P" unicode="P" horiz-adv-x="644" 
d="M167 888l5 20h283q115 0 170 -69.5t31 -183.5q-24 -113 -107.5 -168.5t-208.5 -55.5h-218l-73 -346q-6 -26 -9 -41t-3.5 -19.5t0.5 -4.5h1l-5 -20h-55l5 20q2 0 16 65l156 738q6 26 9 41t3.5 19.5t-0.5 4.5zM124 442h218q103 0 174 55t94 166q23 106 -23.5 171t-146.5 65
h-218z" />
    <glyph glyph-name="Q" unicode="Q" horiz-adv-x="1085" 
d="M220 0q-50 17 -99 55t-91 97.5t-58 135t0 166.5q44 208 185 336t326 128q190 0 278.5 -127.5t44.5 -336.5q-44 -208 -189.5 -335.5t-339.5 -128.5q74 -37 213 -58.5t303 -21.5q141 0 244.5 12t131.5 31l2 -3q-50 -36 -158 -58t-235 -22q-163 0 -316 35.5t-242 94.5z
M478 907q-158 0 -281 -124.5t-167 -328.5q-18 -95 -3 -173.5t54.5 -137.5t85 -94.5t88.5 -45.5q13 -3 24 -3q168 0 297 125t173 329q43 204 -31.5 328.5t-239.5 124.5z" />
    <glyph glyph-name="R" unicode="R" horiz-adv-x="653" 
d="M167 888l5 20h285q115 0 170 -69.5t31 -183.5q-23 -105 -105.5 -156.5t-208.5 -51.5h-32q5 -17 18 -61.5t40 -133t47 -155.5q18 -62 36 -74t92 -12l-2 -10q-36 0 -56 0.5t-40.5 2t-30.5 6.5t-19.5 10t-15.5 18t-11 24.5t-12 34.5q-97 325 -98 350h-133l-77 -362
q-6 -26 -9 -41t-3.5 -19.5t0.5 -4.5l-5 -20h-55l5 20q2 0 16 65l156 738q6 26 9 41t3.5 19.5t-0.5 4.5zM439 898h-217l-93 -438h217q101 0 169 51t90 154q22 105 -23.5 169t-142.5 64z" />
    <glyph glyph-name="S" unicode="S" horiz-adv-x="572" 
d="M566 776l-15 -7q-16 62 -76.5 100.5t-137.5 38.5q-85 0 -145.5 -46.5t-75.5 -114.5q-15 -72 33 -137t151 -119q225 -117 189 -288q-20 -92 -100 -152.5t-187 -60.5q-99 0 -171.5 52t-94.5 138l15 7q22 -83 90.5 -134t158.5 -51q92 0 160 51.5t84 128.5q30 144 -173 251
q-114 59 -165 133.5t-34 157.5q18 83 90.5 138.5t173.5 55.5q85 0 150 -39.5t80 -102.5z" />
    <glyph glyph-name="T" unicode="T" horiz-adv-x="626" 
d="M69 893h-20l4 15h5l1 1h19q0 -1 100 -1h513q99 0 99 1h20v-1h5l-3 -12v-3h-20q0 2 -100 2h-235l-173 -815q-5 -23 -8 -37.5t-3 -18v-4.5l-5 -20h-55l5 20q2 0 15 60l173 815h-236q-99 0 -101 -2z" />
    <glyph glyph-name="U" unicode="U" horiz-adv-x="798" 
d="M154 908h53l-140 -656q-22 -104 25.5 -167t147.5 -63q107 0 206.5 50.5t154.5 132.5l131 618q6 26 9 41t3.5 19.5t-0.5 4.5l5 20h52l-170 -798q-9 -45 -7 -45l-2 -10l-57 -55h-8l39 182q-58 -86 -164 -139t-219 -53t-167 72t-29 190l121 571q6 27 8.5 41.5t3 19t-0.5 4.5
z" />
    <glyph glyph-name="V" unicode="V" horiz-adv-x="654" 
d="M98 898l1 10h61q0 -4 -1 -10l-1 -10v-1l101 -833l417 715l69 119q2 4 4 10l5 10h24q-2 -4 -6 -10l-5 -10h-1q-1 -1 -3 -4l-532 -894h-10l-9 64l-106 794l-6 40h-1q0 4 -1 10z" />
    <glyph glyph-name="W" unicode="W" horiz-adv-x="1047" 
d="M96 908h59q0 -4 -2 -10v-10q2 -19 13 -120h-1l74 -704l-2 -4l371 545l-26 273q-1 10 -2 10h-1v10l1 10h62q-1 -4 -2 -10l-1 -10v-1l69 -813l413 814q2 4 3 10l4 10h25l-5 -10l-4 -10h-1q-77 -148 -232 -449t-232 -449h-14l-55 593l-408 -593h-13l-79 778l-13 120h-1v10
v10z" />
    <glyph glyph-name="X" unicode="X" horiz-adv-x="662" 
d="M739 888l-380 -413l145 -335h1q52 -120 53 -120h1q1 -4 4 -10l2 -10h-63l-5 20q-2 3 -5 11l-175 404l-255 -285h1q-2 -2 -6.5 -7t-6.5 -7l-102 -116l-15 -20h-24q3 4 9 10l7 10h2q15 16 91 100l295 325l-140 323q-52 120 -53 120h-1l-3 10l-3 10h62l5 -20q8 -19 53 -120
l123 -286l244 275l1 1q37 41 123 140l8 10h26l-7 -8q-1 0 -1 -1q-1 -1 -2 -1l-8 -10h-1z" />
    <glyph glyph-name="Y" unicode="Y" horiz-adv-x="570" 
d="M86 898l-2 10h62l5 -20l183 -471l278 361h-1q17 22 22 27l64 84l2 3l3 6l7 10h22q-3 -4 -7 -10l-7 -10h-1q-1 0 -95 -120l-285 -363l-69 -325q-5 -23 -8 -37.5t-3 -18v-4.5l-5 -20h-55l5 20q3 0 16 60l68 322l-186 467l-8 19h-1q-1 4 -4 10z" />
    <glyph glyph-name="Z" unicode="Z" horiz-adv-x="635" 
d="M-125 11l813 886l-411 -3h-10l-95 -1q-33 0 -39 -2l-2 -1h-26q0 1 0.5 2.5t1.5 3.5t1 3t0.5 2.5t1.5 3.5t1 3h637l-3 -11l-807 -886l460 4h23l76 1q31 0 36 1l6 1h20q-3 -6 -4 -9q-3 -6 -5 -9h-678z" />
    <glyph glyph-name="bracketleft" unicode="[" horiz-adv-x="200" 
d="M-72 -195l235 1103h226l-3 -14h-210l-229 -1076h210l-3 -13h-226z" />
    <glyph glyph-name="backslash" unicode="\" horiz-adv-x="293" 
d="M140 928h26l45 -1008h-26z" />
    <glyph glyph-name="bracketright" unicode="]" horiz-adv-x="245" 
d="M255 894h-210l3 14h226l-235 -1103h-226l3 13h210z" />
    <glyph glyph-name="asciicircum" unicode="^" 
d="M97 721l176 204q15 15 19 15q7 0 13 -16l90 -203l-7 -5l-107 173l-179 -173z" />
    <glyph glyph-name="underscore" unicode="_" horiz-adv-x="631" 
d="M-144 -50h705l-5 -25h-705z" />
    <glyph glyph-name="grave" unicode="`" 
d="M81 913q1 10 9 16.5t17 6.5t54 -71l95 -138l-6 -6l-113 124q-58 59 -56 68z" />
    <glyph glyph-name="a" unicode="a" horiz-adv-x="568" 
d="M73 -10q-67 0 -101 32.5t-23 85.5q9 41 21.5 70t37 53t53.5 40t81.5 31.5t109.5 27.5t148 27l29 133q17 84 -12.5 125.5t-97.5 41.5q-82 0 -148 -38t-73 -72q-1 -6 6.5 -18.5t5.5 -19.5q-2 -8 -13 -15.5t-24 -7.5q-23 0 -16 32q10 47 92.5 98.5t183.5 51.5
q83 0 120 -48.5t16 -146.5l-84 -395q-5 -23 8 -37t39 -14q20 0 39 14.5t27 37.5l9 -5q-13 -35 -41 -57t-60 -22q-38 0 -56 23t-10 60l3 12q-156 -100 -270 -100zM399 349q-97 -16 -153.5 -29t-105 -30.5t-74 -41t-42.5 -55.5t-27 -80q-10 -45 19 -72t86 -27q113 0 242 83z
" />
    <glyph glyph-name="b" unicode="b" horiz-adv-x="666" 
d="M162 882l41 11h8l-67 -318q47 40 107.5 64t114.5 24q141 0 208 -91.5t36 -241.5q-33 -153 -132 -246.5t-228 -93.5q-88 0 -155 20.5t-89 54.5l1 1l-29 -66h-2l167 782q16 80 15 80zM141 564l-105 -494q19 -32 79.5 -51.5t138.5 -19.5q105 0 189 89.5t115 236.5
q30 144 -28 232t-185 88q-47 0 -103 -22t-101 -59z" />
    <glyph glyph-name="c" unicode="c" horiz-adv-x="557" 
d="M481 156q-35 -75 -114 -120.5t-173 -45.5q-127 0 -185.5 88.5t-27.5 234.5q34 160 140.5 257.5t246.5 97.5q83 0 139 -29t63 -76q3 -23 -28 -23q-14 0 -17 23q-8 44 -51.5 70.5t-108.5 26.5q-119 0 -211 -89t-123 -234q-31 -147 18.5 -236.5t161.5 -89.5q87 0 159.5 40.5
t104.5 105.5z" />
    <glyph glyph-name="d" unicode="d" horiz-adv-x="645" 
d="M-11 335q32 154 135 243.5t261 89.5q56 0 99.5 -25.5t64.5 -67.5l47 222q6 26 9 41t3.5 19.5t-0.5 4.5l4 20l41 11h8l-164 -774q-22 -102 -19 -99l-5 -20l-41 -10h-8l18 82q-34 -35 -98 -56t-136 -21q-131 0 -191.5 93.5t-27.5 246.5zM37 347q-32 -150 21.5 -241.5
t171.5 -91.5q64 0 123 20t92 54l91 427q-8 59 -49 99.5t-98 40.5q-139 0 -230 -83t-122 -225z" />
    <glyph glyph-name="e" unicode="e" horiz-adv-x="607" 
d="M75 455l470 2q-17 203 -171 203q-93 0 -172 -54.5t-127 -150.5zM584 457h1h-1zM595 447h-524q-25 -52 -40 -118q-30 -142 23 -229t171 -87q104 0 184.5 42t109.5 110l4 -1q-31 -78 -116.5 -126t-194.5 -48q-136 0 -199.5 88t-32.5 233q34 161 143 259t254 98
q203 0 218 -221z" />
    <glyph glyph-name="f" unicode="f" horiz-adv-x="424" 
d="M149 634h-115l1 5l119 19q25 118 103 186.5t197 68.5q91 0 141.5 -20.5t43.5 -54.5q-4 -20 -19.5 -32.5t-35.5 -12.5q-24 0 -41.5 16.5t-27.5 36.5t-30.5 36.5t-49.5 16.5q-89 0 -150.5 -65t-85.5 -176h231l-5 -24h-231l-127 -599q-1 -6 -1.5 -9.5t-0.5 -4.5t1 -1l-5 -20
h-49l5 20q2 0 5 15z" />
    <glyph glyph-name="g" unicode="g" horiz-adv-x="638" 
d="M143 -216q-118 0 -183.5 35.5t-53.5 93.5q8 34 50.5 63t106.5 45q-60 5 -89.5 37.5t-18.5 82.5q10 44 66 74t141 38q-71 17 -103.5 72t-15.5 135q20 94 93.5 151t174.5 57q83 0 132.5 -40t53.5 -109q25 61 61 97.5t72 36.5q23 0 34.5 -15t6.5 -40q-5 -21 -24 -21
q-10 0 -15 4t-3 11q4 19 -1.5 30.5t-19.5 11.5q-28 0 -58 -34.5t-53 -92.5q-2 -31 -6 -47q-20 -96 -94 -154.5t-175 -58.5q-98 0 -163 -25.5t-74 -67.5q-8 -40 23.5 -64.5t91.5 -25.5h141q224 0 196 -137q-14 -65 -94.5 -104t-199.5 -39zM88 460q-19 -91 18.5 -146.5
t117.5 -55.5t141.5 55.5t80.5 146.5q19 88 -19 142.5t-118 54.5t-141 -54.5t-80 -142.5zM89 20h-16q-52 -13 -86.5 -39.5t-41.5 -56.5q-12 -59 44 -94.5t159 -35.5q100 0 169 33.5t81 88.5q10 50 -30.5 77t-140.5 27h-138z" />
    <glyph glyph-name="h" unicode="h" horiz-adv-x="655" 
d="M156 862l4 20l41 11h8l-78 -368q67 64 146.5 103.5t143.5 39.5q104 0 149 -47t27 -128l-97 -458q-1 -6 -1.5 -9.5t-0.5 -4.5t1 -1l-5 -20h-49l5 20q2 0 5 15l97 458q15 67 -26.5 106.5t-134.5 39.5q-60 0 -132 -34.5t-130 -91.5l-102 -478l-2 -15h1l-5 -20h-49l5 20
q2 0 5 15l159 747q16 80 15 80z" />
    <glyph glyph-name="i" unicode="i" horiz-adv-x="185" 
d="M-38 0l5 20q2 0 5 15l109 512q16 80 15 80l4 19l41 12h8l-132 -623q-3 -15 -2 -15h1l-5 -20h-49zM151 773q-13 0 -19.5 8t-3.5 21q7 29 35 29q13 0 19.5 -8t3.5 -21q-7 -29 -35 -29z" />
    <glyph glyph-name="j" unicode="j" horiz-adv-x="191" 
d="M-208 -185q-26 0 -41 10.5t-9 34.5q4 18 18.5 29t34.5 11q17 0 52.5 -12t53.5 -12q22 11 43 52.5t33 97.5l111 521q16 80 15 80l4 19l41 12h8l-134 -632q-10 -49 -41 -92t-72 -64q-105 -53 -117 -55zM135 802q7 29 35 29q13 0 19.5 -8t3.5 -21q-7 -29 -35 -29
q-13 0 -19.5 8t-3.5 21z" />
    <glyph glyph-name="k" unicode="k" horiz-adv-x="485" 
d="M-28 20q2 0 5 15l159 747q16 80 15 80l4 20l41 11h8l-111 -525l174 121l-2 -1l216 150l24 20h5l-29 -20h28l25 17l-9 -7l-14 -10h-1q-2 -2 -16 -11l-346 -240l238 -352l11 -15h1q2 -4 6 -10l5 -10l-13 20h-63q-1 1 -2 2.5t-3.5 5t-5.5 7.5l-229 333l-71 -333
q-3 -15 -2 -15h1l-5 -20h-49zM339 10q-2 2 -5 8l12 -18h-2z" />
    <glyph glyph-name="l" unicode="l" horiz-adv-x="196" 
d="M156 862l4 20l41 11h8l-182 -858l-2 -15h1l-5 -20h-49l5 20q2 0 5 15l159 747q16 80 15 80z" />
    <glyph glyph-name="m" unicode="m" horiz-adv-x="1090" 
d="M104 624l4 19l42 15h8l-28 -132q65 64 141.5 103t137.5 39q89 0 133 -38.5t39 -106.5q65 65 141.5 105t138.5 40q99 0 142.5 -47t25.5 -128l-93 -438q-3 -14 -4.5 -22t-1 -10t0.5 -3l-5 -20h-49l5 20h1q0 3 4 15l97 458q15 67 -24 106.5t-128 39.5q-57 0 -126.5 -34.5
t-125.5 -91.5q-2 -12 -4 -20l-105 -493h-45l105 493q15 67 -24 106.5t-128 39.5q-57 0 -126 -34.5t-125 -90.5l-102 -479q-4 -15 -2 -15l-5 -20h-48l5 20q2 0 9 35l104 489q7 31 10.5 50.5t4.5 24.5t0 5z" />
    <glyph glyph-name="n" unicode="n" horiz-adv-x="652" 
d="M104 624l4 19l42 15h8l-28 -133q67 64 146.5 103.5t143.5 39.5q104 0 149 -47t27 -128l-97 -458q-1 -6 -1.5 -9.5t-0.5 -4.5t1 -1l-5 -20h-49l5 20q2 0 5 15l97 458q15 67 -26.5 106.5t-134.5 39.5q-60 0 -132 -34.5t-130 -91.5l-102 -478l-2 -15h1l-5 -20h-49l5 20
q2 0 5 15l108 509q7 31 10.5 50.5t4.5 24.5t0 5z" />
    <glyph glyph-name="o" unicode="o" horiz-adv-x="629" 
d="M-14 329q33 153 133 246t232 93t193 -93.5t28 -245.5q-32 -152 -132.5 -245.5t-232.5 -93.5t-192.5 93.5t-28.5 245.5zM210 1q110 0 196 90t117 238q32 148 -16 238t-158 90q-109 0 -195 -90t-118 -238q-31 -148 17 -238t157 -90z" />
    <glyph glyph-name="p" unicode="p" horiz-adv-x="644" 
d="M107 623l4 20l42 15h8l-18 -85q29 43 97 69t154 26q120 0 174 -92.5t22 -243.5q-30 -140 -135 -238.5t-238 -98.5q-58 0 -104.5 28t-69.5 76l-50 -235q-4 -20 -6.5 -31.5t-2.5 -14.5v-4l-4 -20h-49l4 20h1q3 8 12 50l144 680l16 80zM139 555l-89 -420q18 -59 63 -95.5
t102 -36.5q113 0 204 92t119 223q31 149 -15.5 240t-153.5 91q-78 0 -139.5 -25.5t-90.5 -68.5z" />
    <glyph glyph-name="q" unicode="q" horiz-adv-x="629" 
d="M206 -5q-130 0 -189.5 93.5t-26.5 246.5q32 154 131.5 243.5t250.5 89.5q64 0 117.5 -19.5t77.5 -50.5l26 60h3l-176 -829q-1 -6 -1.5 -9.5t-0.5 -4.5t1 -1l-4 -20h-49l4 20q2 0 5 15l51 238q-30 -33 -89.5 -52.5t-130.5 -19.5zM38 347q-32 -150 20.5 -241.5t170.5 -91.5
q63 0 117.5 19t82.5 50l104 488q-13 39 -58 62.5t-107 23.5q-128 0 -213.5 -83.5t-116.5 -226.5z" />
    <glyph glyph-name="r" unicode="r" horiz-adv-x="422" 
d="M-27 20q2 0 5 15l108 509q7 31 10.5 50.5t4.5 24.5t0 5l4 19l42 15h8l-29 -140q60 68 127 109t119 41q48 0 74 -15.5t21 -40.5q-7 -27 -33 -27q-11 0 -17 7.5t-3 19.5q3 16 -15.5 25.5t-51.5 9.5q-43 0 -104.5 -40.5t-120.5 -106.5l-99 -465l-2 -15h1l-5 -20h-49z" />
    <glyph glyph-name="s" unicode="s" horiz-adv-x="448" 
d="M-49 125l13 6q12 -31 40.5 -66t55.5 -48q43 -19 88 -19q67 0 117 40.5t63 106.5q11 51 -20.5 95t-102.5 72q-94 37 -137.5 90t-31.5 110q15 70 70 113t130 43q79 0 134 -37q1 -1 4 -3q35 -26 49 -67v-3l-13 -6l-1 2q-17 62 -137 103q22 -3 38 -10l15 -4q-39 17 -90 17
q-61 0 -105.5 -36.5t-57.5 -95.5q-11 -51 30 -99t130 -83q78 -31 112 -80.5t22 -107.5q-16 -76 -76.5 -122t-143.5 -46q-73 0 -126 37t-69 98z" />
    <glyph glyph-name="t" unicode="t" horiz-adv-x="348" 
d="M120 639h-65l2 10l142 167h4l-34 -158h202l-5 -24h-202l-104 -480q-31 -143 79 -143q34 0 71.5 21t64.5 56l5 -3q-34 -43 -77.5 -69t-82.5 -26q-137 0 -101 174z" />
    <glyph glyph-name="u" unicode="u" horiz-adv-x="610" 
d="M101 658h47l-99 -469q-16 -76 17.5 -122t104.5 -46q49 0 119.5 35.5t137.5 94.5l100 472q3 15 2 15h-1l4 20h47l-118 -559q-3 -14 -5.5 -25.5t-4 -19.5t-3 -14.5t-2 -10t-0.5 -6v-3.5l-5 -20l-41 -10h-8l32 150q-77 -68 -154 -109t-128 -41q-82 0 -120 54.5t-19 144.5
l92 434l2 15h-1z" />
    <glyph glyph-name="v" unicode="v" horiz-adv-x="471" 
d="M53 648v10h51q1 -4 0 -10v-15l46 -575l334 582q0 1 1 3.5t2 4.5l5 10h23q-1 -4 -5 -10l-5 -10h-1l-381 -648h-13l-53 621q-2 27 -3 27h-1v10z" />
    <glyph glyph-name="w" unicode="w" horiz-adv-x="741" 
d="M54 638q2 14 2 20h50q1 -4 0 -10v-4v-6q0 -3 1 -20h1l29 -561l-39 -67l272 470l-6 158q-1 20 -2 20h-1q0 4 1 10v10h52q1 -4 -1 -10v-10q0 -3 1 -20l15 -560l309 552v1l16 27q2 4 4 10l4 10h24q-1 -4 -5 -10l-4 -10h-2l-372 -648h-13l-19 442l-260 -442h-13l-42 647l-1 1
h-1z" />
    <glyph glyph-name="x" unicode="x" horiz-adv-x="496" 
d="M52 648l-5 10h57q2 -11 9 -20q7 -19 21 -44h-1l117 -243l227 280l5 7l14 20h23q-2 -4 -8 -10l-7 -10h-1l-246 -301l149 -311l4 -6h1q1 -4 4 -10l3 -10h-57q-1 4 -3 10l-4 10q-2 4 -10 21l-126 262l-261 -281l-1 -2q-4 -4 -8 -10l-9 -10h-23q3 4 9 10l8 10h1l42 44
l236 252l-138 287q-9 18 -11 23l-6 12h-1q-2 4 -4 10z" />
    <glyph glyph-name="y" unicode="y" horiz-adv-x="483" 
d="M49 658l2 -20l49 4v-4l62 -581l337 581q0 1 2 3q0 1 2 7l5 10h2l-11 -20h20l12 20q-1 -4 -5 -10l-5 -10h-1l-462 -782q-27 -47 -73 -47q-12 0 -18 7.5t-3 20.5q5 23 31 23q5 0 11 -8t11 -8q19 0 36 25l69 121l-68 621l-4 27h-1v10v10z" />
    <glyph glyph-name="z" unicode="z" horiz-adv-x="480" 
d="M359 16h32q-1 -1 -2 -4l-1 -4l-4 -8h-487l3 11l573 635l-345 -4q-19 0 -28 -1h-20q2 7 4 9q3 6 5 9h20l-1 -1h421l-2 -11l-571 -635z" />
    <glyph glyph-name="bar" unicode="|" horiz-adv-x="71" 
d="M122 943h35l-251 -1181h-35z" />
    <glyph glyph-name="asciitilde" unicode="~" 
d="M-35 389h-6q10 45 39 72t68 27q43 0 127.5 -32.5t126.5 -32.5q32 0 56 16.5t29 43.5h6q-9 -42 -38.5 -67t-69.5 -25q-42 0 -126.5 32.5t-127.5 32.5q-31 0 -54 -18.5t-30 -48.5z" />
    <glyph glyph-name="exclamdown" unicode="&#xa1;" horiz-adv-x="111" 
d="M-95 -255q-31 0 -10 81l141 555h8l-93 -555q-15 -81 -46 -81zM100 663q14 0 21.5 -9t4.5 -23q-7 -32 -39 -32q-14 0 -21 9t-4 23q7 32 38 32z" />
    <glyph glyph-name="cent" unicode="&#xa2;" horiz-adv-x="523" 
d="M-28 313q32 153 132 249.5t232 104.5l14 66h16l-14 -65q33 0 64.5 -5t63.5 -16t54 -32.5t27 -51.5q3 -23 -28 -23q-14 0 -17 23q-6 34 -33 57t-60.5 31.5t-71.5 8.5l-138 -649q85 3 154 43t99 103l6 -1q-32 -70 -104 -115t-159 -50l-14 -66h-16l13 65q-138 0 -194 91
t-26 232zM335 659q-113 -8 -198.5 -96t-114.5 -226q-31 -145 17 -234.5t158 -91.5z" />
    <glyph glyph-name="acute" unicode="&#xb4;" 
d="M248 727l153 138q79 71 84 71q9 0 14 -6.5t4 -16.5q-2 -5 -86 -68l-165 -124z" />
    <glyph glyph-name="questiondown" unicode="&#xbf;" horiz-adv-x="263" 
d="M-144 -11q15 68 53 117q45 60 84.5 88t96.5 28l53 230h8l-56 -275q-68 0 -106 -22t-74 -70q-33 -47 -45 -90q-19 -95 5.5 -152t84.5 -58q4 0 17.5 4.5t19.5 3.5q23 0 19 -22q-7 -33 -49 -33q-74 0 -104.5 69t-6.5 182zM170 599q-14 0 -21 9t-4 23q7 32 38 32
q14 0 21.5 -9t4.5 -23q-7 -32 -39 -32z" />
    <glyph glyph-name="Agrave" unicode="&#xc0;" horiz-adv-x="571" 
d="M79 363h320l-47 504zM-115 0h-16l5 10l4 10h2l4 6l467 852l-1 10q11 4 41 40h6l75 -788q12 -120 13 -120h1v-10l-1 -10h-56q0 4 2 10q-2 6 0 10l-1 18q-1 7 -2.5 19.5t-4 37t-4.5 45.5l-19 213h-326l-181 -331v-2q-2 -4 -4 -10zM396 971l-112 124q-58 59 -56 68
q1 10 9.5 16.5t17.5 6.5q8 0 53 -71l95 -138z" />
    <glyph glyph-name="Aacute" unicode="&#xc1;" horiz-adv-x="571" 
d="M79 363h320l-47 504zM-115 0h-16l5 10l4 10h2l4 6l467 852l-1 10q11 4 41 40h6l75 -788q12 -120 13 -120h1v-10l-1 -10h-56q0 4 2 10q-2 6 0 10l-1 18q-1 7 -2.5 19.5t-4 37t-4.5 45.5l-19 213h-326l-181 -331v-2q-2 -4 -4 -10zM399 971l-4 6l152 138q81 71 85 71
q10 0 15 -6.5t3 -16.5q-2 -5 -86 -68z" />
    <glyph glyph-name="Acircumflex" unicode="&#xc2;" horiz-adv-x="574" 
d="M79 363h320l-47 504zM-115 0h-16l5 10l4 10h2l4 6l467 852l-1 10q11 4 41 40h6l75 -788q12 -120 13 -120h1v-10l-1 -10h-56q0 4 2 10q-2 6 0 10l-1 18q-1 7 -2.5 19.5t-4 37t-4.5 45.5l-19 213h-326l-181 -331v-2q-2 -4 -4 -10zM432 1139l-180 -173l-5 5l176 204
q15 15 19 15q3 0 13 -16l89 -203l-7 -5z" />
    <glyph glyph-name="Atilde" unicode="&#xc3;" horiz-adv-x="574" 
d="M79 363h320l-47 504zM-115 0h-16l5 10l4 10h2l4 6l467 852l-1 10q11 4 41 40h6l75 -788q12 -120 13 -120h1v-10l-1 -10h-56q0 4 2 10q-2 6 0 10l-1 18q-1 7 -2.5 19.5t-4 37t-4.5 45.5l-19 213h-326l-181 -331v-2q-2 -4 -4 -10zM194 1028h-6q10 44 39.5 71t68.5 27
q43 0 127 -32.5t126 -32.5q33 0 56.5 16.5t29.5 43.5h6q-9 -41 -39 -66t-70 -25q-43 0 -127 32.5t-126 32.5q-32 0 -55 -18.5t-30 -48.5z" />
    <glyph glyph-name="Adieresis" unicode="&#xc4;" horiz-adv-x="571" 
d="M79 363h320l-47 504zM-115 0h-16l5 10l4 10h2l4 6l467 852l-1 10q11 4 41 40h6l75 -788q12 -120 13 -120h1v-10l-1 -10h-56q0 4 2 10q-2 6 0 10l-1 18q-1 7 -2.5 19.5t-4 37t-4.5 45.5l-19 213h-326l-181 -331v-2q-2 -4 -4 -10zM309 1052q7 29 35 29q13 0 19.5 -8
t3.5 -21q-7 -29 -35 -29q-13 0 -19.5 8t-3.5 21zM476 1023q-14 0 -20.5 8t-3.5 21q7 29 36 29q13 0 19.5 -8t3.5 -21q-7 -29 -35 -29z" />
    <glyph glyph-name="Aring" unicode="&#xc5;" horiz-adv-x="571" 
d="M79 363h320l-47 504zM430 1147q-37 0 -65 -23t-36 -61q-7 -35 12 -60t53 -25t64 25.5t37 59.5q8 38 -10 61t-55 23zM-115 0h-16l5 10l4 10h2l4 6l467 852l-1 10q11 4 41 40h6l75 -788q12 -120 13 -120h1v-10l-1 -10h-56q0 4 2 10q-2 6 0 10l-1 18q-1 7 -2.5 19.5t-4 37
t-4.5 45.5l-19 213h-326l-181 -331v-2q-2 -4 -4 -10zM392 968q-39 0 -62 28t-15 67q10 43 42.5 69t75.5 26t64 -26t11 -69q-7 -38 -42 -66.5t-74 -28.5z" />
    <glyph glyph-name="Ccedilla" unicode="&#xc7;" horiz-adv-x="689" 
d="M238 -10q-159 2 -230 129.5t-27 334.5q44 209 174.5 336.5t299.5 127.5q121 0 185 -38t114 -118l1 -1q1 -1 1 -2q-7 -5 -18 -12v1q0 2 -1 2q-21 32 -55.5 69.5t-59.5 51.5h1q-65 37 -166 37q-146 0 -262 -125t-159 -329q-44 -205 15 -330t198 -125q258 0 362 158
q6 -3 15 -8q-35 -53 -83 -87q-6 -4 -7 -5h-1q-100 -66 -287 -67l-85 -83q43 15 105 15q54 0 83.5 -16.5t23.5 -43.5q-8 -37 -47.5 -59.5t-97.5 -22.5q-86 0 -122 24l4 4q25 -20 116 -20q47 0 80.5 19.5t40.5 51.5q5 25 -20 40t-71 15q-61 0 -104 -15l-4 2z" />
    <glyph glyph-name="Egrave" unicode="&#xc8;" horiz-adv-x="581" 
d="M512 0h-534l5 20q2 0 16 65l156 738q6 26 9 41t3.5 19.5t-0.5 4.5l5 20h512q-1 -2 -1 -6l-1 -6h-20v1q0 1 -3 1t-26 0.5t-70 0.5h-340l-91 -424h273q101 0 101 3v1h20l-2 -13h-393l-82 -386q-9 -37 2.5 -54.5t61.5 -17.5h283q98 0 101 3h20q-1 -1 -3 -6zM333 1095
q-58 59 -56 68q1 10 9.5 16.5t18.5 6.5q8 0 53 -71l95 -138l-7 -6z" />
    <glyph glyph-name="Eacute" unicode="&#xc9;" horiz-adv-x="581" 
d="M167 888l5 20h512q-1 -2 -1 -6l-1 -6h-20v1q0 1 -3 1t-26 0.5t-70 0.5h-340l-91 -424h273q101 0 101 3v1h20l-2 -13h-393l-82 -386q-9 -37 2.5 -54.5t61.5 -17.5h283q98 0 101 3h20q-1 -1 -3 -6l-2 -5h-534l5 20q2 0 16 65l156 738q6 26 9 41t3.5 19.5t-0.5 4.5zM449 971
l-5 6l153 138q81 71 85 71q9 0 14 -6.5t4 -16.5q-1 -4 -86 -68z" />
    <glyph glyph-name="Ecircumflex" unicode="&#xca;" horiz-adv-x="581" 
d="M-17 20q2 0 16 65l156 738q6 26 9 41t3.5 19.5t-0.5 4.5l5 20h512q-1 -2 -1 -6l-1 -6h-20v1q0 1 -3 1t-26 0.5t-70 0.5h-340l-91 -424h273q101 0 101 3v1h20l-2 -13h-393l-82 -386q-9 -37 2.5 -54.5t61.5 -17.5h283q98 0 101 3h20q-1 -1 -3 -6l-2 -5h-534zM299 966l-5 5
l176 204q15 15 18 15q7 0 13 -16l90 -203l-7 -5l-106 173z" />
    <glyph glyph-name="Edieresis" unicode="&#xcb;" horiz-adv-x="581" 
d="M167 888l5 20h512q-1 -2 -1 -6l-1 -6h-20v1q0 1 -3 1t-26 0.5t-70 0.5h-340l-91 -424h273q101 0 101 3v1h20l-2 -13h-393l-82 -386q-9 -37 2.5 -54.5t61.5 -17.5h283q98 0 101 3h20q-1 -1 -3 -6l-2 -5h-534l5 20q2 0 16 65l156 738q6 26 9 41t3.5 19.5t-0.5 4.5z
M382 1023q-14 0 -20.5 8t-3.5 21q7 29 36 29q13 0 19.5 -8t3.5 -21q-7 -29 -35 -29zM502 1052q7 29 35 29q13 0 19.5 -8t3.5 -21q-7 -29 -35 -29q-13 0 -19.5 8t-3.5 21z" />
    <glyph glyph-name="Igrave" unicode="&#xcc;" horiz-adv-x="219" 
d="M166 888h-1l5 20h56l-5 -20h-1q-2 0 -15 -60l-158 -748q-5 -23 -8 -37.5t-3 -18v-4.5h1l-5 -20h-56l5 20h1q2 0 15 60l158 748q5 23 8 37.5t3 18v4.5zM46 1163q1 10 9.5 16.5t17.5 6.5q8 0 53 -71l95 -138l-6 -6l-113 124q-58 59 -56 68z" />
    <glyph glyph-name="Iacute" unicode="&#xcd;" horiz-adv-x="217" 
d="M167 888l5 20h56l-5 -20h-1q-2 0 -15 -60l-158 -748q-5 -23 -8 -37.5t-3 -18v-4.5h1l-5 -20h-56l5 20h1q2 0 15 60l158 748q5 23 8 37.5t3 18v4.5h-1zM215 977l153 138q79 71 85 71q9 0 14 -6.5t3 -16.5q-2 -5 -86 -68l-165 -124z" />
    <glyph glyph-name="Icircumflex" unicode="&#xce;" horiz-adv-x="225" 
d="M175 888l5 20h56l-5 -20h-1q-2 0 -15 -60l-158 -748q-5 -23 -8 -37.5t-3 -18v-4.5h1l-5 -20h-56l5 20h1q2 0 15 60l158 748q5 23 8 37.5t3 18v4.5h-1zM77 966l-5 5l176 204q15 15 19 15q7 0 13 -16l90 -203l-7 -5l-106 173z" />
    <glyph glyph-name="Idieresis" unicode="&#xcf;" horiz-adv-x="216" 
d="M-17 20h1q2 0 15 60l158 748q5 23 8 37.5t3 18v4.5h-1l5 20h56l-5 -20h-1q-2 0 -15 -60l-158 -748q-5 -23 -8 -37.5t-3 -18v-4.5h1l-5 -20h-56zM296 1023q-13 0 -19.5 8t-3.5 21q7 29 35 29q13 0 19.5 -8t3.5 -21q-7 -29 -35 -29zM129 1052q7 29 35 29q13 0 19.5 -8
t3.5 -21q-7 -29 -35 -29q-13 0 -19.5 8t-3.5 21z" />
    <glyph glyph-name="Ntilde" unicode="&#xd1;" horiz-adv-x="763" 
d="M135 908h62l388 -800l144 680q9 40 13.5 63t5 29.5t-0.5 7.5l5 20h18l-8 -36l-190 -872h-10l-393 835l-146 -695q-10 -48 -15.5 -76t-7 -36t-0.5 -8h1l-5 -20h-21l5 20h2q1 0 28 130l151 703l-1 1v-1l-17 35h-1q-1 4 -4 10zM286 1028h-6q10 44 39 71t68 27
q43 0 127 -32.5t127 -32.5q32 0 55.5 16.5t29.5 43.5h6q-9 -41 -39 -66t-70 -25q-42 0 -126 32.5t-127 32.5q-31 0 -54 -18.5t-30 -48.5z" />
    <glyph glyph-name="Ograve" unicode="&#xd2;" horiz-adv-x="857" 
d="M-19 454q44 208 185 336t326 128q190 0 278.5 -127.5t44.5 -336.5q-44 -208 -190.5 -336t-340.5 -128q-181 0 -264 127.5t-39 336.5zM38 454q-44 -204 25 -329t225 -125q167 0 296 125t173 329q43 204 -31 328.5t-239 124.5q-159 0 -282 -124.5t-167 -328.5zM338 1163
q1 10 9.5 16.5t17.5 6.5q8 0 53 -71l95 -138l-7 -6l-112 124q-58 59 -56 68z" />
    <glyph glyph-name="Oacute" unicode="&#xd3;" horiz-adv-x="857" 
d="M-19 454q44 208 185 336t326 128q190 0 278.5 -127.5t44.5 -336.5q-44 -208 -190.5 -336t-340.5 -128q-181 0 -264 127.5t-39 336.5zM38 454q-44 -204 25 -329t225 -125q167 0 296 125t173 329q43 204 -31 328.5t-239 124.5q-159 0 -282 -124.5t-167 -328.5zM509 971
l-4 6l152 138q81 71 86 71q9 0 14 -6.5t3 -16.5q-2 -5 -86 -68z" />
    <glyph glyph-name="Ocircumflex" unicode="&#xd4;" horiz-adv-x="857" 
d="M284 -10q-181 0 -264 127.5t-39 336.5q44 208 185 336t326 128q190 0 278.5 -127.5t44.5 -336.5q-44 -208 -190.5 -336t-340.5 -128zM38 454q-44 -204 25 -329t225 -125q167 0 296 125t173 329q43 204 -31 328.5t-239 124.5q-159 0 -282 -124.5t-167 -328.5zM354 971
l176 204q15 15 19 15q7 0 13 -16l90 -203l-8 -5l-105 173l-180 -173z" />
    <glyph glyph-name="Otilde" unicode="&#xd5;" horiz-adv-x="857" 
d="M-19 454q44 208 185 336t326 128q190 0 278.5 -127.5t44.5 -336.5q-44 -208 -190.5 -336t-340.5 -128q-181 0 -264 127.5t-39 336.5zM288 0q167 0 296 125t173 329q43 204 -31 328.5t-239 124.5q-159 0 -282 -124.5t-167 -328.5t25 -329t225 -125zM305 1028h-7
q10 44 39.5 71t68.5 27q43 0 127 -32.5t126 -32.5q33 0 56.5 16.5t29.5 43.5h6q-9 -41 -39 -66t-70 -25q-43 0 -127 32.5t-126 32.5q-31 0 -54 -18.5t-30 -48.5z" />
    <glyph glyph-name="Odieresis" unicode="&#xd6;" horiz-adv-x="857" 
d="M-19 454q44 208 185 336t326 128q190 0 278.5 -127.5t44.5 -336.5q-44 -208 -190.5 -336t-340.5 -128q-181 0 -264 127.5t-39 336.5zM288 0q167 0 296 125t173 329q43 204 -31 328.5t-239 124.5q-159 0 -282 -124.5t-167 -328.5t25 -329t225 -125zM442 1023
q-13 0 -19.5 8t-3.5 21q7 29 35 29q13 0 19.5 -8t3.5 -21q-7 -29 -35 -29zM586 1023q-13 0 -19.5 8t-3.5 21q7 29 35 29q13 0 19.5 -8t3.5 -21q-7 -29 -35 -29z" />
    <glyph glyph-name="Oslash" unicode="&#xd8;" horiz-adv-x="914" 
d="M-58 -16l-10 12l140 126q-79 129 -36 332q44 208 185 336t326 128q184 0 275 -122l142 128l10 -12l-143 -129q82 -128 39 -329q-44 -208 -190.5 -336t-340.5 -128q-173 0 -258 119zM106 152l684 615q-72 140 -248 140q-159 0 -282 -124.5t-167 -328.5q-39 -180 13 -302z
M796 752l-683 -615q66 -137 230 -137q167 0 296 125t173 329q39 179 -16 298z" />
    <glyph glyph-name="Ugrave" unicode="&#xd9;" horiz-adv-x="797" 
d="M154 908h53l-140 -656q-22 -104 25.5 -167t147.5 -63q107 0 206.5 50.5t154.5 132.5l131 618q6 26 9 41t3.5 19.5t-0.5 4.5l5 20h52l-170 -798q-9 -45 -7 -45l-2 -10l-57 -55h-8l39 182q-58 -86 -164 -139t-219 -53t-167 72t-29 190l121 571q6 27 8.5 41.5t3 19t-0.5 4.5
zM383 1095q-58 59 -56 68q1 10 9.5 16.5t17.5 6.5q8 0 53 -71l95 -138l-6 -6z" />
    <glyph glyph-name="Uacute" unicode="&#xda;" horiz-adv-x="797" 
d="M154 908h53l-140 -656q-22 -104 25.5 -167t147.5 -63q107 0 206.5 50.5t154.5 132.5l131 618q6 26 9 41t3.5 19.5t-0.5 4.5l5 20h52l-170 -798q-9 -45 -7 -45l-2 -10l-57 -55h-8l39 182q-58 -86 -164 -139t-219 -53t-167 72t-29 190l121 571q6 27 8.5 41.5t3 19t-0.5 4.5
zM498 971l-4 6l153 138q79 71 85 71q9 0 14 -6.5t3 -16.5q-2 -5 -86 -68z" />
    <glyph glyph-name="Ucircumflex" unicode="&#xdb;" horiz-adv-x="797" 
d="M138 823q6 27 8.5 41.5t3 19t-0.5 4.5l5 20h53l-140 -656q-22 -104 25.5 -167t147.5 -63q107 0 206.5 50.5t154.5 132.5l131 618q6 26 9 41t3.5 19.5t-0.5 4.5l5 20h52l-170 -798q-9 -45 -7 -45l-2 -10l-57 -55h-8l39 182q-58 -86 -164 -139t-219 -53t-167 72t-29 190z
M348 966l-5 5l176 204q15 15 19 15q7 0 13 -16l90 -203l-7 -5l-106 173z" />
    <glyph glyph-name="Udieresis" unicode="&#xdc;" horiz-adv-x="797" 
d="M154 908h53l-140 -656q-22 -104 25.5 -167t147.5 -63q107 0 206.5 50.5t154.5 132.5l131 618q6 26 9 41t3.5 19.5t-0.5 4.5l5 20h52l-170 -798q-9 -45 -7 -45l-2 -10l-57 -55h-8l39 182q-58 -86 -164 -139t-219 -53t-167 72t-29 190l121 571q6 27 8.5 41.5t3 19t-0.5 4.5
zM575 1023q-13 0 -19.5 8t-3.5 21q7 29 35 29q13 0 19.5 -8t3.5 -21q-7 -29 -35 -29zM408 1052q7 29 35 29q13 0 19.5 -8t3.5 -21q-7 -29 -35 -29q-13 0 -19.5 8t-3.5 21z" />
    <glyph glyph-name="Yacute" unicode="&#xdd;" horiz-adv-x="557" 
d="M84 908h62l5 -20l183 -471l278 361h-1q17 22 22 27l64 84l2 3l3 6l7 10h22q-3 -4 -7 -10l-7 -10h-1q-1 0 -95 -120l-285 -363l-69 -325q-5 -23 -8 -37.5t-3 -18v-4.5l-5 -20h-55l5 20q3 0 16 60l68 322l-186 467l-8 19h-1q-1 4 -4 10zM433 977l152 138q81 71 86 71
q9 0 14 -6.5t3 -16.5q-2 -5 -86 -68l-165 -124z" />
    <glyph glyph-name="agrave" unicode="&#xe0;" horiz-adv-x="565" 
d="M-54 108q9 41 21.5 70t37 53t53.5 40t81.5 31.5t109.5 27.5t148 27l29 133q17 84 -12.5 125.5t-97.5 41.5q-82 0 -148 -38t-73 -72q-1 -6 6.5 -18.5t5.5 -19.5q-2 -8 -13 -15.5t-24 -7.5q-23 0 -16 32q10 47 92.5 98.5t183.5 51.5q83 0 120 -48.5t16 -146.5l-84 -395
q-5 -23 8 -37t39 -14q20 0 39 14.5t27 37.5l9 -5q-13 -35 -41 -57t-60 -22q-38 0 -56 23t-10 60l3 12q-156 -100 -270 -100q-67 0 -101 32.5t-23 85.5zM-6 113q-10 -45 19 -72t86 -27q113 0 242 83l55 252q-97 -16 -153.5 -29t-105 -30.5t-74 -41t-42.5 -55.5t-27 -80z
M233 845q-58 59 -56 68q1 10 9 16.5t17 6.5t55 -71l94 -138l-6 -6z" />
    <glyph glyph-name="aacute" unicode="&#xe1;" horiz-adv-x="566" 
d="M-53 108q9 41 21.5 70t37 53t53.5 40t81.5 31.5t109.5 27.5t148 27l29 133q17 84 -12.5 125.5t-97.5 41.5q-82 0 -148 -38t-73 -72q-1 -6 6.5 -18.5t5.5 -19.5q-2 -8 -13 -15.5t-24 -7.5q-23 0 -16 32q10 47 92.5 98.5t183.5 51.5q83 0 120 -48.5t16 -146.5l-84 -395
q-5 -23 8 -37t39 -14q20 0 39 14.5t27 37.5l9 -5q-13 -35 -41 -57t-60 -22q-38 0 -56 23t-10 60l3 12q-156 -100 -270 -100q-67 0 -101 32.5t-23 85.5zM-5 113q-10 -45 19 -72t86 -27q113 0 242 83l55 252q-97 -16 -153.5 -29t-105 -30.5t-74 -41t-42.5 -55.5t-27 -80z
M350 721l-5 6l153 138q79 71 84 71q9 0 14 -6.5t4 -16.5q-2 -5 -86 -68z" />
    <glyph glyph-name="acircumflex" unicode="&#xe2;" horiz-adv-x="564" 
d="M69 -10q-67 0 -101 32.5t-23 85.5q9 41 21.5 70t37 53t53.5 40t81.5 31.5t109.5 27.5t148 27l29 133q17 84 -12.5 125.5t-97.5 41.5q-82 0 -148 -38t-73 -72q-1 -6 6.5 -18.5t5.5 -19.5q-2 -8 -13 -15.5t-24 -7.5q-23 0 -16 32q10 47 92.5 98.5t183.5 51.5
q83 0 120 -48.5t16 -146.5l-84 -395q-5 -23 8 -37t39 -14q20 0 39 14.5t27 37.5l9 -5q-13 -35 -41 -57t-60 -22q-38 0 -56 23t-10 60l3 12q-156 -100 -270 -100zM-7 113q-10 -45 19 -72t86 -27q113 0 242 83l55 252q-97 -16 -153.5 -29t-105 -30.5t-74 -41t-42.5 -55.5
t-27 -80zM198 716l-6 5l176 204l19 15q7 0 13 -16l90 -203l-7 -5l-107 173z" />
    <glyph glyph-name="atilde" unicode="&#xe3;" horiz-adv-x="566" 
d="M-53 108q9 41 21.5 70t37 53t53.5 40t81.5 31.5t109.5 27.5t148 27l29 133q17 84 -12.5 125.5t-97.5 41.5q-82 0 -148 -38t-73 -72q-1 -6 6.5 -18.5t5.5 -19.5q-2 -8 -13 -15.5t-24 -7.5q-23 0 -16 32q10 47 92.5 98.5t183.5 51.5q83 0 120 -48.5t16 -146.5l-84 -395
q-5 -23 8 -37t39 -14q20 0 39 14.5t27 37.5l9 -5q-13 -35 -41 -57t-60 -22q-38 0 -56 23t-10 60l3 12q-156 -100 -270 -100q-67 0 -101 32.5t-23 85.5zM-5 113q-10 -45 19 -72t86 -27q113 0 242 83l55 252q-97 -16 -153.5 -29t-105 -30.5t-74 -41t-42.5 -55.5t-27 -80z
M139 778q9 44 38.5 71t68.5 27q43 0 127.5 -32.5t126.5 -32.5q32 0 55.5 16.5t29.5 43.5h7q-9 -41 -39.5 -66t-70.5 -25q-42 0 -126 32.5t-127 32.5q-32 0 -55 -18.5t-29 -48.5h-6z" />
    <glyph glyph-name="adieresis" unicode="&#xe4;" horiz-adv-x="564" 
d="M-55 108q9 41 21.5 70t37 53t53.5 40t81.5 31.5t109.5 27.5t148 27l29 133q17 84 -12.5 125.5t-97.5 41.5q-82 0 -148 -38t-73 -72q-1 -6 6.5 -18.5t5.5 -19.5q-2 -8 -13 -15.5t-24 -7.5q-23 0 -16 32q10 47 92.5 98.5t183.5 51.5q83 0 120 -48.5t16 -146.5l-84 -395
q-5 -23 8 -37t39 -14q20 0 39 14.5t27 37.5l9 -5q-13 -35 -41 -57t-60 -22q-38 0 -56 23t-10 60l3 12q-156 -100 -270 -100q-67 0 -101 32.5t-23 85.5zM395 349q-97 -16 -153.5 -29t-105 -30.5t-74 -41t-42.5 -55.5t-27 -80q-10 -45 19 -72t86 -27q113 0 242 83zM280 773
q-13 0 -19.5 8t-3.5 21q7 29 35 29q13 0 19.5 -8t3.5 -21q-7 -29 -35 -29zM424 773q-13 0 -19.5 8t-3.5 21q7 29 35 29q13 0 19.5 -8t3.5 -21q-7 -29 -35 -29z" />
    <glyph glyph-name="aring" unicode="&#xe5;" horiz-adv-x="564" 
d="M-55 108q9 41 21.5 70t37 53t53.5 40t81.5 31.5t109.5 27.5t148 27l29 133q17 84 -12.5 125.5t-97.5 41.5q-82 0 -148 -38t-73 -72q-1 -6 6.5 -18.5t5.5 -19.5q-2 -8 -13 -15.5t-24 -7.5q-23 0 -16 32q10 47 92.5 98.5t183.5 51.5q83 0 120 -48.5t16 -146.5l-84 -395
q-5 -23 8 -37t39 -14q20 0 39 14.5t27 37.5l9 -5q-13 -35 -41 -57t-60 -22q-38 0 -56 23t-10 60l3 12q-156 -100 -270 -100q-67 0 -101 32.5t-23 85.5zM395 349q-97 -16 -153.5 -29t-105 -30.5t-74 -41t-42.5 -55.5t-27 -80q-10 -45 19 -72t86 -27q113 0 242 83zM264 813
q9 43 41 69t76 26q43 0 63.5 -26t11.5 -69q-8 -38 -42.5 -66.5t-73.5 -28.5t-61.5 28.5t-14.5 66.5zM277 813q-7 -35 12 -60t53 -25t64 25.5t37 59.5q8 38 -10 61t-55 23t-65 -23t-36 -61z" />
    <glyph glyph-name="ccedilla" unicode="&#xe7;" horiz-adv-x="548" 
d="M179 -10q-124 2 -181 90.5t-26 232.5q34 160 140.5 257.5t246.5 97.5q83 0 139 -29t63 -76q3 -23 -28 -23q-14 0 -17 23q-8 44 -51.5 70.5t-108.5 26.5q-119 0 -211 -89t-123 -234q-31 -147 18.5 -236.5t161.5 -89.5q87 0 159.5 40.5t104.5 105.5l6 -1
q-34 -74 -112 -119.5t-171 -46.5l-85 -83q43 15 106 15q53 0 82.5 -16.5t23.5 -43.5q-8 -37 -47.5 -59.5t-97.5 -22.5q-86 0 -122 24l4 4q27 -20 116 -20q47 0 80.5 19.5t40.5 51.5q5 25 -20 40t-71 15q-61 0 -104 -15l-3 2z" />
    <glyph glyph-name="egrave" unicode="&#xe8;" horiz-adv-x="593" 
d="M199 -10q-136 0 -199.5 88t-32.5 233q34 161 143 259t254 98q203 0 218 -221h-524q-25 -52 -40 -118q-30 -142 23 -229t171 -87q104 0 184.5 42t109.5 110l4 -1q-31 -78 -116.5 -126t-194.5 -48zM62 455l470 2q-17 203 -171 203q-93 0 -172 -54.5t-127 -150.5zM267 845
q-58 59 -56 68q1 10 9 16.5t17 6.5t54 -71l95 -138l-7 -6z" />
    <glyph glyph-name="eacute" unicode="&#xe9;" horiz-adv-x="598" 
d="M-28 311q34 161 143 259t254 98q203 0 218 -221h-524q-25 -52 -40 -118q-30 -142 23 -229t171 -87q104 0 184.5 42t109.5 110l4 -1q-31 -78 -116.5 -126t-194.5 -48q-136 0 -199.5 88t-32.5 233zM67 455l470 2q-17 203 -171 203q-93 0 -172 -54.5t-127 -150.5zM387 721
l-4 6l152 138q81 71 84 71q10 0 15.5 -6.5t3.5 -16.5q-2 -5 -86 -68z" />
    <glyph glyph-name="ecircumflex" unicode="&#xea;" horiz-adv-x="598" 
d="M67 455l470 2q-17 203 -171 203q-93 0 -172 -54.5t-127 -150.5zM576 457h1h-1zM587 447h-524q-25 -52 -40 -118q-30 -142 23 -229t171 -87q104 0 184.5 42t109.5 110l4 -1q-31 -78 -116.5 -126t-194.5 -48q-136 0 -199.5 88t-32.5 233q34 161 143 259t254 98
q203 0 218 -221zM529 721l-7 -5l-106 173l-179 -173l-5 5l176 204q15 15 19 15q3 0 13 -16z" />
    <glyph glyph-name="edieresis" unicode="&#xeb;" horiz-adv-x="598" 
d="M67 455l470 2q-17 203 -171 203q-93 0 -172 -54.5t-127 -150.5zM576 457h1h-1zM587 447h-524q-25 -52 -40 -118q-30 -142 23 -229t171 -87q104 0 184.5 42t109.5 110l4 -1q-31 -78 -116.5 -126t-194.5 -48q-136 0 -199.5 88t-32.5 233q34 161 143 259t254 98
q203 0 218 -221zM320 773q-13 0 -19.5 8t-3.5 21q7 29 35 29q13 0 19.5 -8t3.5 -21q-7 -29 -35 -29zM464 773q-14 0 -20.5 8t-3.5 21q7 29 36 29q13 0 19.5 -8t3.5 -21q-7 -29 -35 -29z" />
    <glyph glyph-name="igrave" unicode="&#xec;" horiz-adv-x="237" 
d="M142 603l50 55h8l-132 -623l-2 -15h1l-5 -20h-49l5 20q2 0 5 15l109 513q9 45 8 45zM26 913q4 23 27 23q9 0 54 -71l94 -138l-6 -6l-113 124q-58 59 -56 68z" />
    <glyph glyph-name="iacute" unicode="&#xed;" horiz-adv-x="237" 
d="M142 603l50 55h8l-132 -623l-2 -15h1l-5 -20h-49l5 20q2 0 5 15l109 513q9 45 8 45zM26 913q4 23 27 23q9 0 54 -71l94 -138l-6 -6l-113 124q-58 59 -56 68z" />
    <glyph glyph-name="icircumflex" unicode="&#xee;" horiz-adv-x="218" 
d="M-9 0l5 20q2 0 5 15l109 513q9 45 8 45l2 10l50 55h8l-132 -623l-2 -15h1l-5 -20h-49zM26 716l-5 5l175 204l19 15q7 0 13 -16l90 -203l-7 -5l-107 173z" />
    <glyph glyph-name="idieresis" unicode="&#xef;" horiz-adv-x="215" 
d="M35 0h-49l5 20q2 0 5 15l109 513q9 45 8 45l2 10l50 55h8l-132 -623l-2 -15h1zM103 773q-13 0 -19.5 8t-3.5 21q7 29 35 29q14 0 20.5 -8t3.5 -21q-7 -29 -36 -29zM224 802q7 29 35 29q13 0 19.5 -8t3.5 -21q-7 -29 -35 -29q-13 0 -19.5 8t-3.5 21z" />
    <glyph glyph-name="ntilde" unicode="&#xf1;" horiz-adv-x="644" 
d="M12 0h-49l5 20q2 0 5 15l108 509q7 31 10.5 50.5t4.5 24.5t0 5l4 19l42 15h8l-28 -133q67 64 146.5 103.5t143.5 39.5q104 0 149 -47t27 -128l-97 -458q-1 -6 -1.5 -9.5t-0.5 -4.5t1 -1l-5 -20h-49l5 20q2 0 5 15l97 458q15 67 -26.5 106.5t-134.5 39.5q-60 0 -132 -34.5
t-130 -91.5l-102 -478l-2 -15h1zM180 778h-7q9 44 39 71t69 27q43 0 127 -32.5t126 -32.5q33 0 56.5 16.5t29.5 43.5h6q-9 -41 -39 -66t-70 -25q-43 0 -127 32.5t-126 32.5q-32 0 -55 -18.5t-29 -48.5z" />
    <glyph glyph-name="ograve" unicode="&#xf2;" horiz-adv-x="617" 
d="M-25 329q33 153 133 246t232 93t193 -93.5t28 -245.5q-32 -152 -132.5 -245.5t-232.5 -93.5t-192.5 93.5t-28.5 245.5zM25 329q-31 -148 17 -238t157 -90q110 0 196 90t117 238q32 148 -16 238t-158 90q-109 0 -195 -90t-118 -238zM187 913q4 23 27 23q9 0 54 -71
l94 -138l-6 -6l-113 124q-58 59 -56 68z" />
    <glyph glyph-name="oacute" unicode="&#xf3;" horiz-adv-x="617" 
d="M196 -10q-132 0 -192.5 93.5t-28.5 245.5q33 153 133 246t232 93t193 -93.5t28 -245.5q-32 -152 -132.5 -245.5t-232.5 -93.5zM338 657q-109 0 -195 -90t-118 -238q-31 -148 17 -238t157 -90q110 0 196 90t117 238q32 148 -16 238t-158 90zM354 727l153 138q79 71 84 71
q9 0 14 -6.5t4 -16.5q-2 -5 -86 -68l-164 -124z" />
    <glyph glyph-name="ocircumflex" unicode="&#xf4;" horiz-adv-x="612" 
d="M191 -10q-132 0 -192.5 93.5t-28.5 245.5q33 153 133 246t232 93t193 -93.5t28 -245.5q-32 -152 -132.5 -245.5t-232.5 -93.5zM20 329q-31 -148 17 -238t157 -90q110 0 196 90t117 238q32 148 -16 238t-158 90q-109 0 -195 -90t-118 -238zM199 721l175 204l19 15
q7 0 13 -16l90 -203l-7 -5l-107 173l-178 -173z" />
    <glyph glyph-name="otilde" unicode="&#xf5;" horiz-adv-x="618" 
d="M-24 329q33 153 133 246t232 93t193 -93.5t28 -245.5q-32 -152 -132.5 -245.5t-232.5 -93.5t-192.5 93.5t-28.5 245.5zM200 1q110 0 196 90t117 238q32 148 -16 238t-158 90q-109 0 -195 -90t-118 -238q-31 -148 17 -238t157 -90zM155 778h-6q9 44 38.5 71t68.5 27
q42 0 127 -32.5t127 -32.5q33 0 56.5 16.5t29.5 43.5h6q-9 -41 -39 -66t-70 -25q-43 0 -127 32.5t-127 32.5q-32 0 -55 -18.5t-29 -48.5z" />
    <glyph glyph-name="odieresis" unicode="&#xf6;" horiz-adv-x="612" 
d="M-30 329q33 153 133 246t232 93t193 -93.5t28 -245.5q-32 -152 -132.5 -245.5t-232.5 -93.5t-192.5 93.5t-28.5 245.5zM194 1q110 0 196 90t117 238q32 148 -16 238t-158 90q-109 0 -195 -90t-118 -238q-31 -148 17 -238t157 -90zM286 773q-13 0 -19.5 8t-3.5 21
q7 29 35 29q14 0 20.5 -8t3.5 -21q-7 -29 -36 -29zM430 773q-13 0 -19.5 8t-3.5 21q7 29 35 29q13 0 19.5 -8t3.5 -21q-7 -29 -35 -29z" />
    <glyph glyph-name="oslash" unicode="&#xf8;" horiz-adv-x="659" 
d="M-67 -14l-9 8l101 94q-56 95 -25 241q33 153 133 246t232 93q130 0 191 -89l99 93l8 -8l-101 -94q55 -93 24 -241q-32 -152 -132.5 -245.5t-232.5 -93.5q-128 0 -189 88zM532 543l-472 -438q46 -104 164 -104q110 0 196 90t117 238q27 128 -5 214zM55 116l472 438
q-44 103 -164 103q-109 0 -195 -90t-118 -238q-27 -126 5 -213z" />
    <glyph glyph-name="ugrave" unicode="&#xf9;" horiz-adv-x="606" 
d="M90 658h47l-99 -469q-16 -76 17.5 -122t104.5 -46q49 0 119.5 35.5t137.5 94.5l100 472q3 15 2 15h-1l4 20h47l-118 -559q-3 -14 -5.5 -25.5t-4 -19.5t-3 -14.5t-2 -10t-0.5 -6v-3.5l-5 -20l-41 -10h-8l32 150q-77 -68 -154 -109t-128 -41q-82 0 -120 54.5t-19 144.5
l92 434l2 15h-1zM179 913q4 23 27 23q9 0 54 -71l95 -138l-7 -6l-113 124q-57 61 -56 68z" />
    <glyph glyph-name="uacute" unicode="&#xfa;" horiz-adv-x="604" 
d="M88 658h47l-99 -469q-16 -76 17.5 -122t104.5 -46q49 0 119.5 35.5t137.5 94.5l100 472q3 15 2 15h-1l4 20h47l-118 -559q-3 -14 -5.5 -25.5t-4 -19.5t-3 -14.5t-2 -10t-0.5 -6v-3.5l-5 -20l-41 -10h-8l32 150q-77 -68 -154 -109t-128 -41q-82 0 -120 54.5t-19 144.5
l92 434l2 15h-1zM349 721l-5 6l153 138q81 71 84 71q10 0 15.5 -6.5t3.5 -16.5q-1 -4 -86 -68z" />
    <glyph glyph-name="ucircumflex" unicode="&#xfb;" horiz-adv-x="603" 
d="M87 658h47l-99 -469q-16 -76 17.5 -122t104.5 -46q49 0 119.5 35.5t137.5 94.5l100 472q3 15 2 15h-1l4 20h47l-118 -559q-3 -14 -5.5 -25.5t-4 -19.5t-3 -14.5t-2 -10t-0.5 -6v-3.5l-5 -20l-41 -10h-8l32 150q-77 -68 -154 -109t-128 -41q-82 0 -120 54.5t-19 144.5
l92 434l2 15h-1zM193 721l176 204q15 15 18 15q7 0 13 -16l90 -203l-7 -5l-105 174l-180 -174z" />
    <glyph glyph-name="udieresis" unicode="&#xfc;" horiz-adv-x="604" 
d="M88 658h47l-99 -469q-16 -76 17.5 -122t104.5 -46q49 0 119.5 35.5t137.5 94.5l100 472q3 15 2 15h-1l4 20h47l-118 -559q-3 -14 -5.5 -25.5t-4 -19.5t-3 -14.5t-2 -10t-0.5 -6v-3.5l-5 -20l-41 -10h-8l32 150q-77 -68 -154 -109t-128 -41q-82 0 -120 54.5t-19 144.5
l92 434l2 15h-1zM259 802q7 29 35 29q13 0 19.5 -8t3.5 -21q-7 -29 -35 -29q-13 0 -19.5 8t-3.5 21zM425 773q-13 0 -19.5 8t-3.5 21q7 29 35 29q13 0 19.5 -8t3.5 -21q-7 -29 -35 -29z" />
    <glyph glyph-name="ydieresis" unicode="&#xff;" horiz-adv-x="461" 
d="M28 658l2 -20l49 4v-4l62 -581l337 581q0 1 2 3q0 1 2 7l5 10h2l-11 -20h20l12 20q-1 -4 -5 -10l-5 -10h-1l-462 -782q-27 -47 -73 -47q-12 0 -18 7.5t-3 20.5q5 23 31 23q6 0 11 -8t11 -8q19 0 36 25l69 121l-68 621l-4 27h-1v10v10zM357 802q7 29 35 29q13 0 19.5 -8
t3.5 -21q-7 -29 -35 -29q-13 0 -19.5 8t-3.5 21zM213 802q7 29 35 29q13 0 19.5 -8t3.5 -21q-7 -29 -35 -29q-13 0 -19.5 8t-3.5 21z" />
    <glyph glyph-name="Amacron" unicode="&#x100;" horiz-adv-x="571" 
d="M-119 20l-12 -20l5 10l4 10h2l4 6l467 852l-1 10q11 4 41 40h6l75 -788q12 -120 13 -120h1v-10l-1 -10l-1 20h-53l-1 18q-1 7 -2.5 19.5t-4 37t-4.5 45.5l-19 213h-326l-181 -331v-2q-2 -4 -4 -10l-4 -10h-4l12 20h-12zM352 867l-273 -504h320zM195 1091h445l-6 -31h-445
zM431 17l1 -17h-3q0 4 2 10q-1 2 0 5v2z" />
    <glyph glyph-name="amacron" unicode="&#x101;" horiz-adv-x="569" 
d="M345 97l55 252q-97 -16 -153.5 -29t-105 -30.5t-74 -41t-42.5 -55.5t-27 -80q-10 -45 19 -72t86 -27q113 0 242 83zM401 357l29 133q17 84 -12.5 125.5t-97.5 41.5q-82 0 -148 -38t-73 -72q-1 -6 6.5 -18.5t5.5 -19.5q-2 -8 -13 -15.5t-24 -7.5q-23 0 -16 32
q10 47 92.5 98.5t183.5 51.5q83 0 120 -48.5t16 -146.5l-84 -395q-5 -23 8 -37t39 -14q20 0 39 14.5t27 37.5l9 -5q-13 -35 -41 -57t-60 -22q-38 0 -56 23t-10 60l3 12q-156 -100 -270 -100q-67 0 -101 32.5t-23 85.5q9 41 21.5 70t37 53t53.5 40t81.5 31.5t109.5 27.5
t148 27zM588 810h-446l6 31h446z" />
    <glyph glyph-name="Abreve" unicode="&#x102;" horiz-adv-x="571" 
d="M-131 0l5 10l4 10h2l4 6l467 852l-1 10q11 4 41 40h6l75 -788q12 -120 13 -120h1v-10l-1 -10l-1 20h-53l-1 18q-1 7 -2.5 19.5t-4 37t-4.5 45.5l-19 213h-326l-181 -331v-2q-2 -4 -4 -10l-4 -10h-4l12 20h-12zM79 363h320l-47 504zM409 1049q-77 0 -119.5 28.5
t-35.5 74.5l11 2q-6 -33 35.5 -53t115.5 -20q73 0 123 20t60 52l8 -2q-12 -46 -66.5 -74t-131.5 -28zM431 17l1 -17h-3q0 4 2 10q-1 2 0 5v2z" />
    <glyph glyph-name="abreve" unicode="&#x103;" horiz-adv-x="561" 
d="M66 -10q-67 0 -101 32.5t-23 85.5q9 41 21.5 70t37 53t53.5 40t81.5 31.5t109.5 27.5t148 27l29 133q17 84 -12.5 125.5t-97.5 41.5q-82 0 -148 -38t-73 -72q-1 -6 6.5 -18.5t5.5 -19.5q-2 -8 -13 -15.5t-24 -7.5q-23 0 -16 32q10 47 92.5 98.5t183.5 51.5
q83 0 120 -48.5t16 -146.5l-84 -395q-5 -23 8 -37t39 -14q20 0 39 14.5t27 37.5l9 -5q-13 -35 -41 -57t-60 -22q-38 0 -56 23t-10 60l3 12q-156 -100 -270 -100zM-10 113q-10 -45 19 -72t86 -27q113 0 242 83l55 252q-97 -16 -153.5 -29t-105 -30.5t-74 -41t-42.5 -55.5
t-27 -80zM200 902l10 2q-5 -33 36 -53t115 -20q73 0 123.5 20t58.5 52l9 -2q-11 -46 -66 -74t-132 -28t-119.5 28t-34.5 75z" />
    <glyph glyph-name="Cacute" unicode="&#x106;" horiz-adv-x="689" 
d="M300 -10q-201 0 -282.5 125t-36.5 337t179.5 339t322.5 127q103 0 163 -39t110 -120l-18 -12q-50 81 -106.5 121t-148.5 40q-163 0 -283 -124.5t-165 -333.5q-44 -207 24.5 -329t246.5 -122q200 0 305 158l15 -8q-104 -159 -326 -159zM468 977l153 138q79 71 85 71
q9 0 14 -6.5t3 -16.5q-2 -5 -86 -68l-165 -124z" />
    <glyph glyph-name="Ccircumflex" unicode="&#x108;" horiz-adv-x="689" 
d="M300 -10q-201 0 -282.5 125t-36.5 337t179.5 339t322.5 127q103 0 163 -39t110 -120l-18 -12q-50 81 -106.5 121t-148.5 40q-163 0 -283 -124.5t-165 -333.5q-44 -207 24.5 -329t246.5 -122q200 0 305 158l15 -8q-104 -159 -326 -159zM323 966l-6 5l176 204q15 15 19 15
q7 0 13 -16l90 -203l-7 -5l-106 173z" />
    <glyph glyph-name="Cdotaccent" unicode="&#x10a;" horiz-adv-x="689" 
d="M477 1023q-13 0 -19.5 8t-3.5 21q7 29 35 29q13 0 19.5 -8t3.5 -21q-7 -29 -35 -29zM756 759l-18 -12q-50 81 -106.5 121t-148.5 40q-163 0 -283 -124.5t-165 -333.5q-44 -207 24.5 -329t246.5 -122q200 0 305 158l15 -8q-104 -159 -326 -159q-201 0 -282.5 125
t-36.5 337t179.5 339t322.5 127q103 0 163 -39t110 -120z" />
    <glyph glyph-name="cdotaccent" unicode="&#x10b;" horiz-adv-x="548" 
d="M472 156q-35 -75 -114 -120.5t-173 -45.5q-127 0 -185.5 88.5t-27.5 234.5q34 160 140.5 257.5t246.5 97.5q83 0 139 -29t63 -76q3 -23 -28 -23q-14 0 -17 23q-8 44 -51.5 70.5t-108.5 26.5q-119 0 -211 -89t-123 -234q-31 -147 18.5 -236.5t161.5 -89.5q87 0 159.5 40.5
t104.5 105.5zM382 773q-13 0 -19.5 8t-3.5 21q7 29 35 29q13 0 19.5 -8t3.5 -21q-7 -29 -35 -29z" />
    <glyph glyph-name="Ccaron" unicode="&#x10c;" horiz-adv-x="689" 
d="M300 -10q-201 0 -282.5 125t-36.5 337t179.5 339t322.5 127q103 0 163 -39t110 -120l-18 -12q-50 81 -106.5 121t-148.5 40q-163 0 -283 -124.5t-165 -333.5q-44 -207 24.5 -329t246.5 -122q200 0 305 158l15 -8q-104 -159 -326 -159zM373 1200l105 -174l180 174l5 -5
l-177 -204q-13 -16 -19 -16q-7 0 -13 16l-89 204z" />
    <glyph glyph-name="ccaron" unicode="&#x10d;" horiz-adv-x="543" 
d="M-33 313q34 160 140.5 257.5t246.5 97.5q83 0 139 -29t63 -76q3 -23 -28 -23q-14 0 -17 23q-8 44 -51.5 70.5t-108.5 26.5q-119 0 -211 -89t-123 -234q-31 -147 18.5 -236.5t161.5 -89.5q87 0 159.5 40.5t104.5 105.5l6 -1q-35 -75 -114 -120.5t-173 -45.5
q-127 0 -185.5 88.5t-27.5 234.5zM271 950l106 -174l179 174l5 -5l-175 -204q-13 -16 -19 -16q-7 0 -13 16l-90 204z" />
    <glyph glyph-name="Dcaron" unicode="&#x10e;" horiz-adv-x="830" 
d="M167 888l5 20h231q233 0 331.5 -122.5t53.5 -331.5q-47 -220 -218 -337t-420 -117h-172l5 20q3 0 17 65l156 738q6 27 8.5 41.5t3 19t-0.5 4.5zM370 900h-147l-174 -820q-9 -37 8 -54.5t83 -17.5q151 0 272.5 49.5t206 151t114.5 245.5q44 206 -48.5 326t-314.5 120z
M414 1195l8 5l105 -174l180 174l5 -5l-177 -204q-13 -16 -19 -16q-3 0 -13 16z" />
    <glyph glyph-name="dcaron" unicode="&#x10f;" horiz-adv-x="634" 
d="M196 -5q-131 0 -191.5 93.5t-27.5 246.5q32 154 135 243.5t261 89.5q56 0 99.5 -25.5t64.5 -67.5l47 222q6 26 9 41t3.5 19.5t-0.5 4.5l4 20l41 11h8l-164 -774q-22 -102 -19 -99l-5 -20l-41 -10h-8l18 82q-34 -35 -98 -56t-136 -21zM377 655q-139 0 -230 -83t-122 -225
q-32 -150 21.5 -241.5t171.5 -91.5q64 0 123 20t92 54l91 427q-8 59 -49 99.5t-98 40.5zM661 683l-8 2l41 110q40 107 52 107q10 0 15 -1.5t4 -5.5q-6 -28 -49 -105z" />
    <glyph glyph-name="Emacron" unicode="&#x112;" horiz-adv-x="581" 
d="M172 908h512q-1 -2 -1 -6l-1 -6h-20v1q0 1 -3 1t-26 0.5t-70 0.5h-340l-91 -424h273q101 0 101 3v1h20l-2 -13h-393l-82 -386q-9 -37 2.5 -54.5t61.5 -17.5h283q98 0 101 3h20q-1 -1 -3 -6l-2 -5h-534l5 20q2 0 16 65l156 738q6 26 9 41t3.5 19.5t-0.5 4.5zM245 1091h445
l-6 -31h-445z" />
    <glyph glyph-name="emacron" unicode="&#x113;" horiz-adv-x="596" 
d="M65 455l470 2q-17 203 -171 203q-93 0 -172 -54.5t-127 -150.5zM574 457h1h-1zM585 447h-524q-25 -52 -40 -118q-30 -142 23 -229t171 -87q104 0 184.5 42t109.5 110l4 -1q-31 -78 -116.5 -126t-194.5 -48q-136 0 -199.5 88t-32.5 233q34 161 143 259t254 98
q203 0 218 -221zM620 810h-445l6 31h445z" />
    <glyph glyph-name="Ebreve" unicode="&#x114;" horiz-adv-x="581" 
d="M167 888l5 20h512q-1 -2 -1 -6l-1 -6h-20v1q0 1 -3 1t-26 0.5t-70 0.5h-340l-91 -424h273q101 0 101 3v1h20l-2 -13h-393l-82 -386q-9 -37 2.5 -54.5t61.5 -17.5h283q98 0 101 3h20q-1 -1 -3 -6l-2 -5h-534l5 20q2 0 16 65l156 738q6 26 9 41t3.5 19.5t-0.5 4.5z
M304 1152l11 2q-6 -33 35 -53t115 -20t124 20t59 52l9 -2q-12 -46 -67 -74t-132 -28t-119 28.5t-35 74.5z" />
    <glyph glyph-name="ebreve" unicode="&#x115;" horiz-adv-x="591" 
d="M60 455l470 2q-17 203 -171 203q-93 0 -172 -54.5t-127 -150.5zM569 457h1h-1zM580 447h-524q-25 -52 -40 -118q-30 -142 23 -229t171 -87q104 0 184.5 42t109.5 110l4 -1q-31 -78 -116.5 -126t-194.5 -48q-136 0 -199.5 88t-32.5 233q34 161 143 259t254 98
q203 0 218 -221zM235 902l11 2q-6 -33 35.5 -53t115.5 -20q73 0 123 20t59 52l9 -2q-12 -46 -66.5 -74t-131.5 -28t-119.5 28.5t-35.5 74.5z" />
    <glyph glyph-name="Edotaccent" unicode="&#x116;" horiz-adv-x="581" 
d="M167 888l5 20h512q-1 -2 -1 -6l-1 -6h-20v1q0 1 -3 1t-26 0.5t-70 0.5h-340l-91 -424h273q101 0 101 3v1h20l-2 -13h-393l-82 -386q-9 -37 2.5 -54.5t61.5 -17.5h283q98 0 101 3h20q-1 -1 -3 -6l-2 -5h-534l5 20q2 0 16 65l156 738q6 26 9 41t3.5 19.5t-0.5 4.5z
M430 1052q7 29 35 29q14 0 20.5 -8t3.5 -21q-7 -29 -36 -29q-13 0 -19.5 8t-3.5 21z" />
    <glyph glyph-name="edotaccent" unicode="&#x117;" horiz-adv-x="598" 
d="M67 455l470 2q-17 203 -171 203q-93 0 -172 -54.5t-127 -150.5zM576 457h1h-1zM587 447h-524q-25 -52 -40 -118q-30 -142 23 -229t171 -87q104 0 184.5 42t109.5 110l4 -1q-31 -78 -116.5 -126t-194.5 -48q-136 0 -199.5 88t-32.5 233q34 161 143 259t254 98
q203 0 218 -221zM392 773q-13 0 -19.5 8t-3.5 21q7 29 35 29q13 0 19.5 -8t3.5 -21q-7 -29 -35 -29z" />
    <glyph glyph-name="Ecaron" unicode="&#x11a;" horiz-adv-x="581" 
d="M-17 20q2 0 16 65l156 738q6 26 9 41t3.5 19.5t-0.5 4.5l5 20h512q-1 -2 -1 -6l-1 -6h-20v1q0 1 -3 1t-26 0.5t-70 0.5h-340l-91 -424h273q101 0 101 3v1h20l-2 -13h-393l-82 -386q-9 -37 2.5 -54.5t61.5 -17.5h283q98 0 101 3h20q-1 -1 -3 -6l-2 -5h-534zM431 991
l-89 204l7 5l105 -174l180 174l5 -5l-177 -204q-13 -16 -19 -16t-12 16z" />
    <glyph glyph-name="ecaron" unicode="&#x11b;" horiz-adv-x="593" 
d="M62 455l470 2q-17 203 -171 203q-93 0 -172 -54.5t-127 -150.5zM571 457h1h-1zM582 447h-524q-25 -52 -40 -118q-30 -142 23 -229t171 -87q104 0 184.5 42t109.5 110l4 -1q-31 -78 -116.5 -126t-194.5 -48q-136 0 -199.5 88t-32.5 233q34 161 143 259t254 98
q203 0 218 -221zM387 776l179 174l5 -5l-175 -204q-16 -16 -19 -16q-7 0 -13 16l-90 204l7 5z" />
    <glyph glyph-name="Gcircumflex" unicode="&#x11c;" horiz-adv-x="738" 
d="M322 -10q-216 0 -301.5 124t-40.5 337t180 340t323 127q103 0 163 -39t110 -120l-18 -12q-50 81 -106.5 121t-148.5 40q-163 0 -283 -124.5t-165 -332.5q-44 -207 25.5 -328t249.5 -121q82 0 153 22.5t78 56.5l49 232h50l-58 -274q47 13 81 28l2 -5q-169 -72 -343 -72z
M317 971l176 204q15 15 19 15q7 0 13 -16l90 -203l-7 -5l-106 173l-179 -173z" />
    <glyph glyph-name="Gbreve" unicode="&#x11e;" horiz-adv-x="738" 
d="M328 1152l10 2q-5 -33 36 -53t115 -20q73 0 123.5 20t59.5 52l8 -2q-11 -46 -66 -74t-132 -28t-119.5 28t-34.5 75zM322 -10q-216 0 -301.5 124t-40.5 337t180 340t323 127q103 0 163 -39t110 -120l-18 -12q-50 81 -106.5 121t-148.5 40q-163 0 -283 -124.5t-165 -332.5
q-44 -207 25.5 -328t249.5 -121q82 0 153 22.5t78 56.5l49 232h50l-58 -274q47 13 81 28l2 -5q-169 -72 -343 -72z" />
    <glyph glyph-name="gbreve" unicode="&#x11f;" horiz-adv-x="631" 
d="M139 -216q-118 0 -183.5 35.5t-53.5 93.5q8 34 50.5 63t106.5 45q-60 5 -89.5 37.5t-18.5 82.5q10 44 66 74t141 38q-71 17 -103.5 72t-15.5 135q20 94 93.5 151t174.5 57q83 0 132.5 -40t53.5 -109q25 61 61 97.5t72 36.5q23 0 34.5 -15t6.5 -40q-5 -21 -24 -21
q-10 0 -15 4t-3 11q4 19 -1.5 30.5t-19.5 11.5q-28 0 -58 -34.5t-53 -92.5q-2 -31 -6 -47q-20 -96 -94 -154.5t-175 -58.5q-98 0 -163 -25.5t-74 -67.5q-8 -40 23.5 -64.5t91.5 -25.5h141q224 0 196 -137q-14 -65 -94.5 -104t-199.5 -39zM305 657q-80 0 -141 -54.5
t-80 -142.5q-19 -91 18.5 -146.5t117.5 -55.5t141.5 55.5t80.5 146.5q19 88 -19 142.5t-118 54.5zM85 20h-16q-52 -13 -86.5 -39.5t-41.5 -56.5q-12 -59 44 -94.5t159 -35.5q100 0 169 33.5t81 88.5q10 50 -30.5 77t-140.5 27h-138zM335 799q-77 0 -119.5 28.5t-34.5 74.5
l10 2q-6 -33 35.5 -53t115.5 -20q73 0 123 20t59 52l9 -2q-12 -46 -66.5 -74t-131.5 -28z" />
    <glyph glyph-name="Gdotaccent" unicode="&#x120;" horiz-adv-x="738" 
d="M477 1023q-13 0 -19.5 8t-3.5 21q7 29 35 29q13 0 19.5 -8t3.5 -21q-7 -29 -35 -29zM322 -10q-216 0 -301.5 124t-40.5 337t180 340t323 127q103 0 163 -39t110 -120l-18 -12q-50 81 -106.5 121t-148.5 40q-163 0 -283 -124.5t-165 -332.5q-44 -207 25.5 -328t249.5 -121
q82 0 153 22.5t78 56.5l49 232h50l-58 -274q47 13 81 28l2 -5q-169 -72 -343 -72z" />
    <glyph glyph-name="gdotaccent" unicode="&#x121;" horiz-adv-x="630" 
d="M-99 -87q8 34 50.5 63t106.5 45q-60 5 -89.5 37.5t-18.5 82.5q10 44 66 74t141 38q-71 17 -103.5 72t-15.5 135q20 94 93.5 151t174.5 57q83 0 132.5 -40t53.5 -109q25 61 61 97.5t72 36.5q23 0 34.5 -15t6.5 -40q-5 -21 -24 -21q-10 0 -15 4t-3 11q4 19 -1.5 30.5
t-19.5 11.5q-28 0 -58 -34.5t-53 -92.5q-2 -31 -6 -47q-20 -96 -94 -154.5t-175 -58.5q-98 0 -163 -25.5t-74 -67.5q-8 -40 23.5 -64.5t91.5 -25.5h141q224 0 196 -137q-14 -65 -94.5 -104t-199.5 -39q-118 0 -183.5 35.5t-53.5 93.5zM83 460q-19 -91 18.5 -146.5
t117.5 -55.5t141.5 55.5t80.5 146.5q19 88 -19 142.5t-118 54.5t-141 -54.5t-80 -142.5zM84 20h-16q-52 -13 -86.5 -39.5t-41.5 -56.5q-12 -59 44 -94.5t159 -35.5q100 0 169 33.5t81 88.5q10 50 -30.5 77t-140.5 27h-138zM329 773q-13 0 -19.5 8t-3.5 21q7 29 35 29
q13 0 19.5 -8t3.5 -21q-7 -29 -35 -29z" />
    <glyph glyph-name="Hcircumflex" unicode="&#x124;" horiz-adv-x="790" 
d="M172 908h55l-5 -20q-2 0 -15 -60l-76 -359h519l76 359q5 23 8 37.5t3 18v4.5h-1l5 20h56l-5 -20h-1q-2 0 -15 -60l-158 -748q-5 -23 -8 -37.5t-3 -18v-4.5h1l-5 -20h-56l5 20h1q2 0 15 60l80 378h-519l-80 -378q-5 -23 -8 -37.5t-3 -18v-4.5l-5 -20h-55l5 20q3 0 16 60
l158 748q5 24 8 37.5t3 18t-1 4.5zM354 966l-5 5l176 204q15 15 18 15q7 0 13 -16l90 -203l-7 -5l-106 173z" />
    <glyph glyph-name="Itilde" unicode="&#x128;" horiz-adv-x="206" 
d="M160 888h-1l5 20h56l-5 -20h-1q-2 0 -15 -60l-158 -748q-5 -23 -8 -37.5t-3 -18v-4.5h1l-5 -20h-56l5 20h1q2 0 15 60l158 748q5 23 8 37.5t3 18v4.5zM1 1028q10 44 39 71t68 27q42 0 127 -32.5t127 -32.5q32 0 55.5 16.5t29.5 43.5h6q-9 -41 -39 -66t-70 -25
q-42 0 -126 32.5t-127 32.5q-31 0 -54 -18.5t-30 -48.5h-6z" />
    <glyph glyph-name="itilde" unicode="&#x129;" horiz-adv-x="264" 
d="M155 603l50 55h8l-132 -623l-2 -15h1l-5 -20h-49l5 20q2 0 5 15l109 513q9 45 8 45zM6 778h-6q9 44 38.5 71t68.5 27q43 0 127 -32.5t127 -32.5q33 0 56.5 16.5t29.5 43.5h6q-9 -41 -39 -66t-70 -25q-42 0 -127 32.5t-127 32.5q-32 0 -55 -18.5t-29 -48.5z" />
    <glyph glyph-name="Imacron" unicode="&#x12a;" horiz-adv-x="223" 
d="M166 888l5 20h56l-5 -20h-1q-2 0 -15 -60l-158 -748q-5 -23 -8 -37.5t-3 -18v-4.5h1l-5 -20h-56l5 20h1q2 0 15 60l158 748q5 23 8 37.5t3 18v4.5h-1zM14 1091h446l-6 -31h-446z" />
    <glyph glyph-name="imacron" unicode="&#x12b;" horiz-adv-x="281" 
d="M161 603l50 55h8l-132 -623l-2 -15h1l-5 -20h-49l5 20q2 0 5 15l109 513q9 45 8 45zM452 810h-445l6 31h445z" />
    <glyph glyph-name="Ibreve" unicode="&#x12c;" horiz-adv-x="222" 
d="M-15 20h1q2 0 15 60l158 748q5 23 8 37.5t3 18v4.5h-1l5 20h56l-5 -20h-1q-2 0 -15 -60l-158 -748q-5 -23 -8 -37.5t-3 -18v-4.5h1l-5 -20h-56zM231 1049q-77 0 -119.5 28t-34.5 75l10 2q-6 -33 35.5 -53t115.5 -20q73 0 123.5 20t59.5 52l8 -2q-11 -46 -66 -74t-132 -28
z" />
    <glyph glyph-name="ibreve" unicode="&#x12d;" horiz-adv-x="242" 
d="M127 548q9 45 8 45l2 10l50 55h8l-132 -623l-2 -15h1l-5 -20h-49l5 20q2 0 5 15zM202 799q-77 0 -119 28.5t-35 74.5l10 2q-5 -33 36 -53t115 -20t124 20t58 52l10 -2q-12 -46 -67 -74t-132 -28z" />
    <glyph glyph-name="Idotaccent" unicode="&#x130;" horiz-adv-x="223" 
d="M-16 20h1q2 0 15 60l158 748q5 23 8 37.5t3 18v4.5h-1l5 20h56l-5 -20h-1q-2 0 -15 -60l-158 -748q-5 -23 -8 -37.5t-3 -18v-4.5h1l-5 -20h-56zM202 1052q7 29 35 29q13 0 19.5 -8t3.5 -21q-7 -29 -35 -29q-13 0 -19.5 8t-3.5 21z" />
    <glyph glyph-name="idotless" unicode="&#x131;" horiz-adv-x="188" 
d="M91 593l2 10l50 55h8l-132 -623l-2 -15h1l-5 -20h-49l5 20q2 0 5 15l109 513q9 45 8 45z" />
    <glyph glyph-name="Jcircumflex" unicode="&#x134;" horiz-adv-x="220" 
d="M-256 -188q5 24 29 24q12 0 15 -21t16 -21q24 0 47.5 7.5t49 25.5t46.5 55.5t32 91.5l181 854q5 23 8 37.5t3 18v4.5h-1l5 20h56l-5 -20h-1q-2 0 -15 -60l-161 -758q-18 -87 -49 -147.5t-68.5 -89.5t-71 -41t-69.5 -12q-24 0 -37 9t-10 23zM67 971l176 204q15 15 19 15
q7 0 13 -16l90 -203l-7 -5l-106 173l-180 -173z" />
    <glyph glyph-name="Lacute" unicode="&#x139;" horiz-adv-x="540" 
d="M-17 20h1q2 0 16 65l156 738q6 26 9 41t3.5 19.5t-0.5 4.5h-1l5 20h56l-5 -20h-1q-2 0 -16 -65l-157 -743q-9 -38 2.5 -55.5t61.5 -17.5h217q164 0 167 3v1q4 0 10 -1h10l-2 -1l-2 -9h-535zM219 971l-4 6l153 138q79 71 85 71q9 0 14 -6.5t3 -16.5q-2 -5 -86 -68z" />
    <glyph glyph-name="Lcaron" unicode="&#x13d;" horiz-adv-x="540" 
d="M167 888l5 20h56l-5 -20h-1q-2 0 -16 -65l-157 -743q-9 -38 2.5 -55.5t61.5 -17.5h217q164 0 167 3v1q4 0 10 -1h10l-2 -1l-2 -9h-535l5 20h1q2 0 16 65l156 738q6 26 9 41t3.5 19.5t-0.5 4.5h-1zM276 749l41 111q40 106 51 107q5 0 8 -0.5t6 -1.5t4 -2t1 -3
q-7 -26 -48 -105l-56 -107z" />
    <glyph glyph-name="lcaron" unicode="&#x13e;" horiz-adv-x="195" 
d="M157 862l4 20l41 11h8l-182 -858l-2 -15h1l-5 -20h-49l5 20q2 0 5 15l159 747q16 80 15 80zM214 685l41 110q40 107 51 107q10 0 15.5 -1.5t4.5 -5.5q-6 -28 -49 -105l-55 -107z" />
    <glyph glyph-name="Nacute" unicode="&#x143;" horiz-adv-x="763" 
d="M138 898l-3 10l25 -54l1 1l12 53h24l388 -800l144 680q9 40 13.5 63t5 29.5t-0.5 7.5l5 20h18l-8 -36l-190 -872h-10l-393 835l-146 -695q-10 -48 -15.5 -76t-7 -36t-0.5 -8h1l-5 -20h-21l5 20h2q1 0 28 130l151 703l-1 1v-1l-17 35h-1q-1 4 -4 10zM386 977l153 138
q79 71 85 71q9 0 14 -6.5t3 -16.5q-2 -5 -86 -68l-165 -124z" />
    <glyph glyph-name="Ncaron" unicode="&#x147;" horiz-adv-x="763" 
d="M135 908l25 -54l1 1l12 53h24l388 -800l144 680q9 40 13.5 63t5 29.5t-0.5 7.5l5 20h18l-8 -36l-190 -872h-10l-393 835l-146 -695q-10 -48 -15.5 -76t-7 -36t-0.5 -8h1l-5 -20h-21l5 20h2q1 0 28 130l151 703l-1 1v-1l-17 35h-1q-1 4 -4 10zM472 991l-89 204l7 5
l106 -174l180 174l5 -5l-177 -204q-13 -16 -19 -16q-7 0 -13 16z" />
    <glyph glyph-name="ncaron" unicode="&#x148;" horiz-adv-x="644" 
d="M96 624l4 19l42 15h8l-28 -133q67 64 146.5 103.5t143.5 39.5q104 0 149 -47t27 -128l-97 -458q-1 -6 -1.5 -9.5t-0.5 -4.5t1 -1l-5 -20h-49l5 20q2 0 5 15l97 458q15 67 -26.5 106.5t-134.5 39.5q-60 0 -132 -34.5t-130 -91.5l-102 -478l-2 -15h1l-5 -20h-49l5 20
q2 0 5 15l108 509q7 31 10.5 50.5t4.5 24.5t0 5zM276 945l7 5l106 -174l179 174l5 -5l-175 -204q-13 -16 -19 -16q-7 0 -13 16z" />
    <glyph glyph-name="Omacron" unicode="&#x14c;" horiz-adv-x="857" 
d="M-19 454q44 208 185 336t326 128q190 0 278.5 -127.5t44.5 -336.5q-44 -208 -190.5 -336t-340.5 -128q-181 0 -264 127.5t-39 336.5zM288 0q167 0 296 125t173 329q43 204 -31 328.5t-239 124.5q-159 0 -282 -124.5t-167 -328.5t25 -329t225 -125zM299 1060l6 31h446
l-6 -31h-446z" />
    <glyph glyph-name="omacron" unicode="&#x14d;" horiz-adv-x="621" 
d="M-21 329q33 153 133 246t232 93t193 -93.5t28 -245.5q-32 -152 -132.5 -245.5t-232.5 -93.5t-192.5 93.5t-28.5 245.5zM203 1q110 0 196 90t117 238q32 148 -16 238t-158 90q-109 0 -195 -90t-118 -238q-31 -148 17 -238t157 -90zM153 810l6 31h445l-6 -31h-445z" />
    <glyph glyph-name="Obreve" unicode="&#x14e;" horiz-adv-x="857" 
d="M-19 454q44 208 185 336t326 128q190 0 278.5 -127.5t44.5 -336.5q-44 -208 -190.5 -336t-340.5 -128q-181 0 -264 127.5t-39 336.5zM288 0q167 0 296 125t173 329q43 204 -31 328.5t-239 124.5q-159 0 -282 -124.5t-167 -328.5t25 -329t225 -125zM365 1152l10 2
q-6 -33 35.5 -53t115.5 -20q73 0 123 20t60 52l8 -2q-12 -46 -66.5 -74t-131.5 -28t-119.5 28.5t-34.5 74.5z" />
    <glyph glyph-name="obreve" unicode="&#x14f;" horiz-adv-x="612" 
d="M-30 329q33 153 133 246t232 93t193 -93.5t28 -245.5q-32 -152 -132.5 -245.5t-232.5 -93.5t-192.5 93.5t-28.5 245.5zM194 1q110 0 196 90t117 238q32 148 -16 238t-158 90q-109 0 -195 -90t-118 -238q-31 -148 17 -238t157 -90zM209 902l10 2q-5 -33 36 -53t115 -20
t124 20t58 52l10 -2q-12 -46 -67 -74t-132 -28t-119 28.5t-35 74.5z" />
    <glyph glyph-name="Racute" unicode="&#x154;" horiz-adv-x="669" 
d="M167 888l5 20h285q115 0 170 -69.5t31 -183.5q-20 -94 -90 -145.5t-176 -60.5q5 -17 17 -65l32.5 -130t39.5 -157q16 -63 32 -75t80 -12l-3 -10q-103 0 -126.5 13.5t-40.5 83.5q-76 300 -82 350h-214l-77 -362q-6 -26 -9 -41t-3.5 -19.5t0.5 -4.5l-5 -20h-55l5 20
q2 0 16 65l156 738q6 26 9 41t3.5 19.5t-0.5 4.5zM222 898l-93 -438h217q12 0 36 2l7 1q83 9 139.5 59.5t76.5 142.5q22 105 -23.5 169t-142.5 64h-217zM435 971l-5 6l153 138q81 71 85 71q10 0 15 -6.5t3 -16.5q-1 -4 -86 -68z" />
    <glyph glyph-name="Rcaron" unicode="&#x158;" horiz-adv-x="669" 
d="M167 888l5 20h285q115 0 170 -69.5t31 -183.5q-20 -94 -90 -145.5t-176 -60.5q5 -17 17 -65l32.5 -130t39.5 -157q16 -63 32 -75t80 -12l-3 -10q-103 0 -126.5 13.5t-40.5 83.5q-76 300 -82 350h-214l-77 -362q-6 -26 -9 -41t-3.5 -19.5t0.5 -4.5l-5 -20h-55l5 20
q2 0 16 65l156 738q6 26 9 41t3.5 19.5t-0.5 4.5zM129 460h217q12 0 36 2l7 1q83 9 139.5 59.5t76.5 142.5q22 105 -23.5 169t-142.5 64h-217zM328 1195l7 5l106 -174l179 174l5 -5l-176 -204q-16 -16 -19 -16q-7 0 -13 16z" />
    <glyph glyph-name="rcaron" unicode="&#x159;" horiz-adv-x="415" 
d="M94 624l4 19l42 15h8l-29 -140q60 68 127.5 109t118.5 41q48 0 74 -15.5t21 -40.5q-7 -27 -33 -27q-11 0 -17 7.5t-3 19.5q3 16 -15.5 25.5t-51.5 9.5q-43 0 -104.5 -40.5t-120.5 -106.5l-99 -465l-2 -15h1l-5 -20h-49l5 20q2 0 5 15l108 509q7 31 10.5 50.5t4.5 24.5
t0 5zM194 945l7 5l106 -174l179 174l5 -5l-175 -204q-13 -16 -19 -16q-7 0 -13 16z" />
    <glyph glyph-name="Sacute" unicode="&#x15a;" horiz-adv-x="559" 
d="M202 -10q-99 0 -171.5 52t-94.5 138l15 7q22 -83 90.5 -134t158.5 -51q92 0 160 51.5t84 128.5q30 144 -173 251q-114 59 -165 133.5t-34 157.5q18 83 90.5 138.5t173.5 55.5q85 0 150 -39.5t80 -102.5l-15 -7q-16 62 -76.5 100.5t-137.5 38.5q-85 0 -145.5 -46.5
t-75.5 -114.5q-15 -72 33 -137t151 -119q225 -117 189 -288q-20 -92 -100 -152.5t-187 -60.5zM379 971l-5 6l153 138q81 71 85 71q10 0 15 -6.5t3 -16.5q-1 -4 -86 -68z" />
    <glyph glyph-name="Scircumflex" unicode="&#x15c;" horiz-adv-x="559" 
d="M202 -10q-99 0 -171.5 52t-94.5 138l15 7q22 -83 90.5 -134t158.5 -51q92 0 160 51.5t84 128.5q30 144 -173 251q-114 59 -165 133.5t-34 157.5q18 83 90.5 138.5t173.5 55.5q85 0 150 -39.5t80 -102.5l-15 -7q-16 62 -76.5 100.5t-137.5 38.5q-85 0 -145.5 -46.5
t-75.5 -114.5q-15 -72 33 -137t151 -119q225 -117 189 -288q-20 -92 -100 -152.5t-187 -60.5zM229 966l-5 5l176 204q15 15 18 15q7 0 13 -16l90 -203l-7 -5l-106 173z" />
    <glyph glyph-name="Scaron" unicode="&#x160;" horiz-adv-x="559" 
d="M202 -10q-99 0 -171.5 52t-94.5 138l15 7q22 -83 90.5 -134t158.5 -51q92 0 160 51.5t84 128.5q30 144 -173 251q-114 59 -165 133.5t-34 157.5q18 83 90.5 138.5t173.5 55.5q85 0 150 -39.5t80 -102.5l-15 -7q-16 62 -76.5 100.5t-137.5 38.5q-85 0 -145.5 -46.5
t-75.5 -114.5q-15 -72 33 -137t151 -119q225 -117 189 -288q-20 -92 -100 -152.5t-187 -60.5zM279 1200l105 -174l180 174l5 -5l-177 -204q-13 -16 -19 -16t-12 16l-89 204z" />
    <glyph glyph-name="scaron" unicode="&#x161;" horiz-adv-x="437" 
d="M-60 125l13 6q15 -60 65 -96.5t116 -36.5q68 0 118.5 39t62.5 99q25 119 -133 180q-87 34 -127.5 88.5t-26.5 119.5q13 63 69 103.5t134 40.5q67 0 117.5 -30.5t63.5 -79.5l-13 -6q-12 48 -59 78t-108 30q-65 0 -111 -34.5t-58 -86.5q-12 -58 26.5 -107t120.5 -81
q172 -69 143 -201q-14 -70 -75 -115t-142 -45q-73 0 -126.5 37t-69.5 98zM197 950l105 -174l180 174l5 -5l-176 -204q-13 -16 -19 -16q-3 0 -13 16l-89 204z" />
    <glyph glyph-name="Tcaron" unicode="&#x164;" horiz-adv-x="613" 
d="M49 893l4 15h5l1 1h19q0 -1 100 -1h513q99 0 99 1h20v-1h5l-3 -12v-3h-20q0 2 -100 2h-235l-173 -815q-5 -23 -8 -37.5t-3 -18v-4.5l-5 -20h-55l5 20q2 0 15 60l173 815h-236q-99 0 -101 -2h-20zM347 1195l7 5l105 -174l180 174l5 -5l-177 -204q-13 -16 -19 -16t-12 16z
" />
    <glyph glyph-name="tcaron" unicode="&#x165;" horiz-adv-x="358" 
d="M46 649l142 167h4l-34 -158h202l-5 -24h-202l-104 -480q-31 -143 79 -143q34 0 71.5 21t64.5 56l5 -3q-34 -43 -77.5 -69t-82.5 -26q-137 0 -101 174l101 475h-65zM414 685l41 110q40 107 52 107q9 0 14.5 -1.5t4.5 -5.5q-6 -28 -49 -105l-55 -107z" />
    <glyph glyph-name="Utilde" unicode="&#x168;" horiz-adv-x="797" 
d="M154 908h53l-140 -656q-22 -104 25.5 -167t147.5 -63q107 0 206.5 50.5t154.5 132.5l131 618q6 26 9 41t3.5 19.5t-0.5 4.5l5 20h52l-170 -798q-9 -45 -7 -45l-2 -10l-57 -55h-8l39 182q-58 -86 -164 -139t-219 -53t-167 72t-29 190l121 571q6 27 8.5 41.5t3 19t-0.5 4.5
zM294 1028h-6q10 44 39 71t68 27q43 0 127 -32.5t127 -32.5q32 0 55.5 16.5t29.5 43.5h6q-9 -41 -39 -66t-70 -25q-42 0 -126 32.5t-127 32.5q-31 0 -54 -18.5t-30 -48.5z" />
    <glyph glyph-name="utilde" unicode="&#x169;" horiz-adv-x="608" 
d="M92 658h47l-99 -469q-16 -76 17.5 -122t104.5 -46q49 0 119.5 35.5t137.5 94.5l100 472q3 15 2 15h-1l4 20h47l-118 -559q-3 -14 -5.5 -25.5t-4 -19.5t-3 -14.5t-2 -10t-0.5 -6v-3.5l-5 -20l-41 -10h-8l32 150q-77 -68 -154 -109t-128 -41q-82 0 -120 54.5t-19 144.5
l92 434l2 15h-1zM148 778h-6q9 44 39 71t69 27q42 0 126 -32.5t127 -32.5q33 0 56.5 16.5t29.5 43.5h6q-9 -41 -39 -66t-70 -25q-42 0 -126.5 32.5t-127.5 32.5q-32 0 -55 -18.5t-29 -48.5z" />
    <glyph glyph-name="Umacron" unicode="&#x16a;" horiz-adv-x="797" 
d="M138 823q6 27 8.5 41.5t3 19t-0.5 4.5l5 20h53l-140 -656q-22 -104 25.5 -167t147.5 -63q107 0 206.5 50.5t154.5 132.5l131 618q6 26 9 41t3.5 19.5t-0.5 4.5l5 20h52l-170 -798q-9 -45 -7 -45l-2 -10l-57 -55h-8l39 182q-58 -86 -164 -139t-219 -53t-167 72t-29 190z
M294 1091h446l-6 -31h-446z" />
    <glyph glyph-name="umacron" unicode="&#x16b;" horiz-adv-x="608" 
d="M92 658h47l-99 -469q-16 -76 17.5 -122t104.5 -46q49 0 119.5 35.5t137.5 94.5l100 472q3 15 2 15h-1l4 20h47l-118 -559q-3 -14 -5.5 -25.5t-4 -19.5t-3 -14.5t-2 -10t-0.5 -6v-3.5l-5 -20l-41 -10h-8l32 150q-77 -68 -154 -109t-128 -41q-82 0 -120 54.5t-19 144.5
l92 434l2 15h-1zM149 841h445l-6 -31h-445z" />
    <glyph glyph-name="Ubreve" unicode="&#x16c;" horiz-adv-x="797" 
d="M149 888l5 20h53l-140 -656q-22 -104 25.5 -167t147.5 -63q107 0 206.5 50.5t154.5 132.5l131 618q6 26 9 41t3.5 19.5t-0.5 4.5l5 20h52l-170 -798q-9 -45 -7 -45l-2 -10l-57 -55h-8l39 182q-58 -86 -164 -139t-219 -53t-167 72t-29 190l121 571q6 27 8.5 41.5t3 19
t-0.5 4.5zM508 1049q-77 0 -119.5 28t-34.5 75l10 2q-6 -33 35.5 -53t115.5 -20q73 0 123.5 20t59.5 52l8 -2q-11 -46 -66 -74t-132 -28z" />
    <glyph glyph-name="ubreve" unicode="&#x16d;" horiz-adv-x="604" 
d="M88 658h47l-99 -469q-16 -76 17.5 -122t104.5 -46q49 0 119.5 35.5t137.5 94.5l100 472q3 15 2 15h-1l4 20h47l-118 -559q-3 -14 -5.5 -25.5t-4 -19.5t-3 -14.5t-2 -10t-0.5 -6v-3.5l-5 -20l-41 -10h-8l32 150q-77 -68 -154 -109t-128 -41q-82 0 -120 54.5t-19 144.5
l92 434l2 15h-1zM204 902l11 2q-6 -33 35 -53t115 -20t124 20t58 52l10 -2q-12 -46 -67 -74t-132 -28t-119 28.5t-35 74.5z" />
    <glyph glyph-name="Uring" unicode="&#x16e;" horiz-adv-x="797" 
d="M154 908h53l-140 -656q-22 -104 25.5 -167t147.5 -63q107 0 206.5 50.5t154.5 132.5l131 618q6 26 9 41t3.5 19.5t-0.5 4.5l5 20h52l-170 -798q-9 -45 -7 -45l-2 -10l-57 -55h-8l39 182q-58 -86 -164 -139t-219 -53t-167 72t-29 190l121 571q6 27 8.5 41.5t3 19t-0.5 4.5
zM415 1063q10 43 42 69t75 26q44 0 64.5 -26t10.5 -69q-7 -38 -42 -66.5t-74 -28.5t-61.5 28.5t-14.5 66.5zM428 1063q-7 -35 12 -60t53 -25t64 25.5t37 59.5q8 38 -10 61t-55 23t-65 -23t-36 -61z" />
    <glyph glyph-name="uring" unicode="&#x16f;" horiz-adv-x="603" 
d="M87 658h47l-99 -469q-16 -76 17.5 -122t104.5 -46q49 0 119.5 35.5t137.5 94.5l100 472q3 15 2 15h-1l4 20h47l-118 -559q-3 -14 -5.5 -25.5t-4 -19.5t-3 -14.5t-2 -10t-0.5 -6v-3.5l-5 -20l-41 -10h-8l32 150q-77 -68 -154 -109t-128 -41q-82 0 -120 54.5t-19 144.5
l92 434l2 15h-1zM340 718q-39 0 -61.5 28.5t-14.5 66.5q9 43 41.5 69t75.5 26t64 -26t12 -69q-8 -38 -42.5 -66.5t-74.5 -28.5zM378 897q-37 0 -65 -23t-36 -61q-7 -35 12 -60t53 -25q35 0 65 25.5t37 59.5q8 38 -10 61t-56 23z" />
    <glyph glyph-name="Wcircumflex" unicode="&#x174;" horiz-adv-x="1028" 
d="M92 888h55l-1 20h4q0 -4 -2 -10v-10q2 -19 13 -120h-1l74 -704l-2 -4l371 545l-26 273q-1 10 -2 10h-1v10l1 10l1 -20h58l-1 20h4q-1 -4 -2 -10l-1 -10v-1l69 -813l413 814q2 4 3 10l4 10h4l-11 -20h21l11 20l-5 -10l-4 -10h-2l-463 -898h-14l-55 593l-408 -593h-13
l-79 778l-13 120h-1v10v10zM484 971l176 204q15 15 18 15q7 0 13 -16l90 -203l-7 -5l-105 174l-180 -174z" />
    <glyph glyph-name="Ycircumflex" unicode="&#x176;" horiz-adv-x="557" 
d="M86 898l-2 10h62l5 -20l183 -471l278 361h-1q17 22 22 27l64 84l2 3l3 6l7 10h22q-3 -4 -7 -10l-7 -10h-1q-1 0 -95 -120l-285 -363l-69 -325q-5 -23 -8 -37.5t-3 -18v-4.5l-5 -20h-55l5 20q3 0 16 60l68 322l-186 467l-8 19h-1q-1 4 -4 10zM287 966l-5 5l176 204
q15 15 19 15q3 0 13 -16l89 -203l-7 -5l-105 173z" />
    <glyph glyph-name="Ydieresis" unicode="&#x178;" horiz-adv-x="557" 
d="M86 898l-2 10h62l5 -20l183 -471l278 361h-1q17 22 22 27l64 84l2 3l3 6l7 10h22q-3 -4 -7 -10l-7 -10h-1q-1 0 -95 -120l-285 -363l-69 -325q-5 -23 -8 -37.5t-3 -18v-4.5l-5 -20h-55l5 20q3 0 16 60l68 322l-186 467l-8 19h-1q-1 4 -4 10zM514 1023q-14 0 -20.5 8
t-3.5 21q7 29 36 29q13 0 19.5 -8t3.5 -21q-7 -29 -35 -29zM347 1052q7 29 35 29q13 0 19.5 -8t3.5 -21q-7 -29 -35 -29q-13 0 -19.5 8t-3.5 21z" />
    <glyph glyph-name="Zacute" unicode="&#x179;" horiz-adv-x="622" 
d="M421 15l76 1q31 0 36 1l6 1h20q-3 -6 -4 -9q-3 -6 -5 -9h-678l3 11l813 886l-411 -3h-10l-95 -1q-33 0 -39 -2l-2 -1h-26q0 1 0.5 2.5t1.5 3.5t1 3t0.5 2.5t1.5 3.5t1 3h637l-3 -11l-807 -886l460 4h23zM445 977l152 138q81 71 86 71q9 0 14 -6.5t3 -16.5q-2 -5 -86 -68
l-165 -124z" />
    <glyph glyph-name="Zdotaccent" unicode="&#x17b;" horiz-adv-x="622" 
d="M-128 0l3 11l813 886l-411 -3h-10l-95 -1q-33 0 -39 -2l-2 -1h-26q0 1 0.5 2.5t1.5 3.5t1 3t0.5 2.5t1.5 3.5t1 3h637l-3 -11l-807 -886l460 4h23l76 1q31 0 36 1l6 1h20q-3 -6 -4 -9q-3 -6 -5 -9h-678zM431 1052q7 29 35 29q13 0 19.5 -8t3.5 -21q-7 -29 -35 -29
q-13 0 -19.5 8t-3.5 21z" />
    <glyph glyph-name="zdotaccent" unicode="&#x17c;" horiz-adv-x="481" 
d="M360 16h32q-1 -1 -2 -4l-1 -4l-4 -8h-487l3 11l573 635l-345 -4q-19 0 -28 -1h-20q3 7 4 9q3 6 5 9h20l-1 -1h421l-2 -11l-571 -635zM337 773q-13 0 -19.5 8t-3.5 21q7 29 35 29q13 0 19.5 -8t3.5 -21q-7 -29 -35 -29z" />
    <glyph glyph-name="Zcaron" unicode="&#x17d;" horiz-adv-x="622" 
d="M421 15l76 1q31 0 36 1l6 1h20q-3 -6 -4 -9q-3 -6 -5 -9h-678l3 11l813 886l-411 -3h-10l-95 -1q-33 0 -39 -2l-2 -1h-26q0 1 0.5 2.5t1.5 3.5t1 3t0.5 2.5t1.5 3.5t1 3h637l-3 -11l-807 -886l460 4h23zM349 1200l106 -174l179 174l6 -5l-177 -204q-13 -16 -19 -16
q-7 0 -13 16l-89 204z" />
    <glyph glyph-name="zcaron" unicode="&#x17e;" horiz-adv-x="474" 
d="M102 658h421l-2 -11l-571 -635l403 4h32q-1 -1 -2 -4l-1 -4l-4 -8h-487l3 11l573 635l-345 -4q-19 0 -28 -1h-20q2 7 4 9q3 6 5 9h20zM330 776l179 174l6 -5l-176 -204q-13 -16 -19 -16q-7 0 -13 16l-90 204l7 5z" />
    <glyph glyph-name="oogonek" unicode="&#x1eb;" horiz-adv-x="899" 
d="M204 -1q-44 14 -88 46t-81.5 78.5t-53.5 112t-1 135.5q37 171 160 275.5t287 104.5q170 0 251.5 -104.5t44.5 -275.5q-36 -172 -164 -276t-302 -105q68 -37 182 -59t240 -22q114 0 200 12t113 31l2 -3q-48 -34 -138 -54.5t-190 -20.5q-122 0 -249.5 34.5t-212.5 90.5z
M424 742q-141 0 -249 -102t-144 -269q-15 -73 0 -140.5t50 -113.5t76 -76.5t79 -38.5h1q12 -3 22 -3q150 0 264 102.5t149 269.5q36 166 -32.5 268.5t-215.5 102.5z" />
    <glyph glyph-name="Adotaccent" unicode="&#x226;" horiz-adv-x="571" 
d="M-119 20l-12 -20l5 10l4 10h2l4 6l467 852l-1 10q11 4 41 40h6l75 -788q12 -120 13 -120h1v-10l-1 -10l-1 20h-53l-1 18q-1 7 -2.5 19.5t-4 37t-4.5 45.5l-19 213h-326l-181 -331v-2q-2 -4 -4 -10l-4 -10h-4l12 20h-12zM79 363h320l-47 504zM381 1052q7 29 35 29
q13 0 19.5 -8t3.5 -21q-7 -29 -35 -29q-13 0 -19.5 8t-3.5 21zM431 17l1 -17h-3q0 4 2 10q-1 2 0 5v2z" />
    <glyph glyph-name="gsmallcapital" unicode="&#x262;" horiz-adv-x="657" 
d="M-13 371q37 171 145.5 275.5t250.5 104.5q102 0 155.5 -32t94.5 -99l-15 -11q-1 1 -1 3q-20 30 -53.5 62.5t-61.5 46.5q-46 21 -118 21q-121 0 -216 -102t-131 -269q-35 -167 15 -268.5t168 -101.5l132 12q86 17 99 54l36 174q5 24 7.5 38t2.5 17.5v4.5l5 20h49l-5 -20
q-2 0 -14 -60l-44 -204q39 12 83 30l1 -5q-32 -14 -85 -32l-3 -1q-127 -39 -271 -39q-138 0 -200 104.5t-26 276.5z" />
    <glyph glyph-name="ismallcapital" unicode="&#x26a;" horiz-adv-x="191" 
d="M120 721l4 20h50l-4 -20q-2 0 -15 -60l-123 -581q-5 -23 -8 -37.5t-3 -18v-4.5l-5 -20h-50l5 20q2 0 15 60l123 581q5 23 8 37.5t3 18v4.5z" />
    <glyph glyph-name="nsmallcapital" unicode="&#x274;" horiz-adv-x="627" 
d="M94 731l-4 10h56l308 -662l114 542q7 33 11 51t6 30.5t2 15v3.5l4 20h19l-4 -20h-1q-2 0 -6 -20l-18 -80l-135 -621h-9l-316 675l-112 -535l-24 -120h2l-5 -20h-19l5 20h1q2 0 29 130l115 541q-2 3 -3.5 8t-2.5 6l-8 16h-1q-1 4 -4 10z" />
    <glyph glyph-name="rsmallcapital" unicode="&#x280;" horiz-adv-x="561" 
d="M-34 0l5 20h1q2 0 16 65l121 571q6 26 9 41t3.5 19.5t-0.5 4.5h-1l4 20h195q115 0 173 -57t38 -150q-17 -77 -85 -119t-175 -50q6 -15 19 -53.5t36.5 -106t44.5 -126.5q17 -50 33.5 -60t81.5 -10l-2 -9q-100 0 -123.5 11t-42.5 68q-83 237 -94 285h-131l-59 -279
q-6 -26 -9 -41t-3.5 -19.5t0.5 -4.5l-5 -20h-50zM170 732l-76 -357h134q17 0 25 1l13 2q87 6 143.5 47.5t72.5 117.5q18 85 -31 137t-147 52h-134z" />
    <glyph glyph-name="ysmallcapital" unicode="&#x28f;" horiz-adv-x="419" 
d="M5 721l-6 20h56q1 -4 2 -10l3 -10l146 -379l293 386l1 1q1 1 1 2l6 10h20l-7 -10l-6 -10h-1q-1 0 -95 -120l-210 -271l-53 -250q-5 -23 -8 -37.5t-3 -18v-4.5l-5 -20h-50l5 20q2 0 15 60l52 247l-107 274h-1q-45 120 -47 120h-1z" />
    <glyph glyph-name="bsmallcapital" unicode="&#x299;" horiz-adv-x="529" 
d="M-34 0l5 20h1q2 0 16 65l121 571q6 26 9 41t3.5 19.5t-0.5 4.5h-1l4 20h136q83 0 137 -13t78.5 -36.5t31.5 -56.5t-4 -73q-15 -70 -78 -118t-157 -62q94 -7 140 -58.5t29 -131.5q-12 -57 -38.5 -95.5t-67.5 -59t-87.5 -29t-109.5 -8.5h-168zM95 377l-63 -297
q-7 -33 5 -53t40 -20h50q109 0 173 39.5t87 145.5q18 83 -28.5 134t-141.5 51h-122zM171 734l-75 -351h98q102 0 174 48t89 126q18 88 -25.5 132.5t-186.5 44.5h-74z" />
    <glyph glyph-name="hsmallcapital" unicode="&#x29c;" horiz-adv-x="675" 
d="M120 721l4 20h50l-4 -20q-2 0 -15 -60l-59 -278h438l59 278q5 23 8 37.5t3 18v4.5l4 20h50l-4 -20q-2 0 -15 -60l-123 -581q-5 -23 -8 -37.5t-3 -18v-4.5l-5 -20h-50l5 20q2 0 15 60l62 294h-438l-62 -294q-5 -23 -8 -37.5t-3 -18v-4.5l-5 -20h-50l5 20q3 0 16 60
l123 581q5 24 8 37.5t3 18t-1 4.5z" />
    <glyph glyph-name="lsmallcapital" unicode="&#x29f;" horiz-adv-x="438" 
d="M120 721l4 20h48l-140 -661q-9 -38 2.5 -56t61.5 -18h132q164 0 167 4h20l-1 -2q-1 -1 -1 -2l-2 -6h-445l5 20q2 0 16 65l121 571q6 26 9 41t3.5 19.5t-0.5 4.5z" />
    <glyph glyph-name="circumflexmod" unicode="&#x2c6;" 
d="M97 721l176 204q15 15 19 15q7 0 13 -16l90 -203l-7 -5l-107 173l-179 -173z" />
    <glyph glyph-name="caronmod" unicode="&#x2c7;" 
d="M234 741l-90 204l7 5l106 -174l180 174l5 -5l-176 -204q-13 -16 -19 -16q-7 0 -13 16z" />
    <glyph glyph-name="macronmod" unicode="&#x2c9;" 
d="M42 810l6 31h446l-6 -31h-446z" />
    <glyph glyph-name="brevemod" unicode="&#x2d8;" 
d="M108 902l10 2q-6 -33 35.5 -53t115.5 -20q73 0 123.5 20t58.5 52l9 -2q-11 -46 -66 -74t-132 -28t-119.5 28t-34.5 75z" />
    <glyph glyph-name="dotaccentmod" unicode="&#x2d9;" 
d="M257 773q-13 0 -19.5 8t-3.5 21q7 29 35 29q13 0 19.5 -8t3.5 -21q-7 -29 -35 -29z" />
    <glyph glyph-name="ringmod" unicode="&#x2da;" 
d="M169 813q9 43 41 69t76 26q43 0 63.5 -26t11.5 -69q-8 -38 -42.5 -66.5t-73.5 -28.5t-61.5 28.5t-14.5 66.5zM247 728q34 0 64 25.5t37 59.5q8 38 -10 61t-55 23t-65 -23t-36 -61q-7 -35 12 -60t53 -25z" />
    <glyph glyph-name="asmallcapital" unicode="&#x1d00;" horiz-adv-x="479" 
d="M-105 0q2 4 4 10l4 10h2q1 0 38 67l345 630l-1 10q8 2 37 34h5l60 -621q4 -71 10 -103l3 -17h1v-10l-1 -10l-1 20h-48l-25 268h-266l-86 -157l-59 -111q-2 -4 -4 -10l-4 -10h-4l12 20h-10zM289 706l-222 -409h260zM353 10q-1 2 0 5v2l1 -17h-3q0 4 2 10z" />
    <glyph glyph-name="csmallcapital" unicode="&#x1d04;" horiz-adv-x="608" 
d="M633 620l-15 -11q-42 67 -89 100t-123 33q-136 0 -234.5 -101.5t-134.5 -272.5q-36 -170 21 -270t204 -100q166 0 252 131l14 -7q-87 -132 -273 -132q-167 0 -236 102.5t-32 275.5q37 175 149 279t269 104q87 0 137 -32.5t91 -98.5z" />
    <glyph glyph-name="dsmallcapital" unicode="&#x1d05;" horiz-adv-x="687" 
d="M120 721l4 20h173q204 0 292 -100t51 -270q-38 -180 -183.5 -275.5t-359.5 -95.5h-131l5 20q3 0 17 65l121 571q6 27 8.5 41.5t3 19t-0.5 4.5zM171 734l-139 -654q-9 -38 1 -55.5t56 -17.5q195 0 329.5 94t171.5 270q36 167 -46 265t-276 98h-97z" />
    <glyph glyph-name="esmallcapital" unicode="&#x1d07;" horiz-adv-x="465" 
d="M-34 0l5 20h1q2 0 16 65l121 571q6 26 9 41t3.5 19.5t-0.5 4.5h-1l4 20h424l-1 -7h-376l-74 -345h190q99 0 101 3h20l-3 -12h-310l-63 -300q-9 -38 2.5 -55.5t61.5 -17.5h199q99 0 101 3h20q-1 -1 -1 -2q-1 -2 -1 -3l-2 -5h-446z" />
    <glyph glyph-name="jsmallcapital" unicode="&#x1d0a;" horiz-adv-x="187" 
d="M155 661l-127 -596q-18 -85 -46.5 -144.5t-62 -88.5t-63 -40.5t-60.5 -11.5q-22 0 -34 8t-9 21q5 21 26 21q11 0 13 -19t14 -19q48 0 92 41t66 146l145 682q5 23 8 37.5t3 18v4.5l4 20h50l-4 -20q-2 0 -15 -60z" />
    <glyph glyph-name="ksmallcapital" unicode="&#x1d0b;" horiz-adv-x="484" 
d="M120 721l4 20h50l-4 -20q-3 0 -11 -40l-66 -310l253 230h-1l132 120q4 4 9 10l9 10h22l-10 -10l-10 -10h-1q-1 -1 -4 -2l-87 -79q-4 -3 -10 -9l-260 -232l235 -314h1l49 -65h1q3 -4 7 -10l5 -10h-59l-15 20q-5 6 -20.5 27t-28.5 38h1l-218 286l-66 -311q-3 -16 -5 -25.5
t-1.5 -11.5t0.5 -3l-5 -20h-50l5 20h1q2 0 10 40l132 621q3 13 4.5 20.5t2 12t0.5 6.5v1h-1z" />
    <glyph glyph-name="msmallcapital" unicode="&#x1d0d;" horiz-adv-x="735" 
d="M-25 0h-21l5 20h1l9 33q10 39 16 67q3 10 7 30l132 542q-6 29 -7 29h-1q0 4 -1 10l-1 10h54l120 -683l388 683h45l-4 -20h-1q-4 -24 -28 -150v1l-89 -487q-2 -10 -4.5 -23t-3.5 -16l-5 -23l1 -3h-1l-4 -20h-50l5 20h1q2 0 12 47l119 635l-403 -702h-12l-124 656q0 3 -2 9
l-146 -625l-4 -20h2z" />
    <glyph glyph-name="osmallcapital" unicode="&#x1d0f;" horiz-adv-x="778" 
d="M-13 371q37 171 160 275.5t288 104.5q170 0 251.5 -104.5t44.5 -275.5q-36 -172 -165 -276.5t-303 -104.5q-160 0 -236 104.5t-40 276.5zM267 -1q150 0 263.5 102.5t148.5 269.5q36 166 -32.5 268.5t-215.5 102.5q-141 0 -248.5 -102t-143.5 -269q-35 -167 27.5 -269.5
t200.5 -102.5z" />
    <glyph glyph-name="psmallcapital" unicode="&#x1d18;" horiz-adv-x="519" 
d="M120 721l4 20h192q115 0 173 -57t38 -149t-100.5 -138t-204.5 -46h-134l-56 -266q-6 -26 -9 -41t-3.5 -19.5t0.5 -4.5h1l-5 -20h-50l5 20q2 0 16 65l121 571q6 26 9 41t3.5 19.5t-0.5 4.5zM90 361h134q104 0 173.5 45t89.5 136q18 86 -32.5 138.5t-151.5 52.5h-134z" />
    <glyph glyph-name="tsmallcapital" unicode="&#x1d1b;" horiz-adv-x="349" 
d="M-72 727l3 14h4q1 1 1 2h20v-1l88 -1h12h424l100 1v1h20v-2h4l-2 -11v-3h-20v1q-2 2 -100 2h-193l-138 -650q-5 -23 -8 -37.5t-3 -18v-4.5l-5 -20h-50l5 20q2 0 15 60l138 650h-194q-101 0 -101 -2v-1h-20z" />
    <glyph glyph-name="usmallcapital" unicode="&#x1d1c;" horiz-adv-x="685" 
d="M111 741h48l-111 -520q-19 -91 7.5 -146.5t88.5 -55.5q113 0 211 42t144 111l103 484q6 26 9 41t3.5 19.5t-0.5 4.5l4 20h47l-134 -631q-9 -45 -7 -45l-2 -10l-53 -55h-7l33 152q-49 -73 -153 -117.5t-223 -44.5q-74 0 -106 63.5t-10 167.5l93 435q6 27 8.5 41.5t3 19
t-0.5 4.5z" />
    <glyph glyph-name="vsmallcapital" unicode="&#x1d20;" horiz-adv-x="508" 
d="M32 741h56q0 -4 -1 -10v-10q3 -19 16 -120l74 -541l386 661q0 1 1 3q1 4 6 17h4l-11 -20h17l12 20q-2 -4 -4 -10l-5 -10h-1q-1 0 -9 -11l-43 -74l-21 -35h-1l-363 -611h-9l-96 691l-6 40h-1v10z" />
    <glyph glyph-name="wsmallcapital" unicode="&#x1d21;" horiz-adv-x="828" 
d="M41 741h53q0 -4 -1 -10v-10q2 -18 12 -114l60 -550l295 437l-18 187h-1l-4 40h-1v10v10h56q-1 -4 -1 -10l-1 -10l7 -76q0 -9 1 -14l48 -565l337 655v1l1 2q0 1 1 3t1 4l3 10h23q-2 -4 -4 -10l-4 -10h-1q-3 -4 -10 -17l-375 -714h-12l-45 484l-330 -484h-12l-64 611
q-12 120 -13 120h-1v10v10z" />
    <glyph glyph-name="zsmallcapital" unicode="&#x1d22;" horiz-adv-x="527" 
d="M-132 10l694 721l-435 -3q-30 0 -36 -2l-2 -1h-26q0 1 1 4t1 4q3 6 3 8h548l-2 -10l-688 -721l375 3h9l83 1q33 0 43 2l6 1h20q-2 -6 -4 -9q0 -4 -4 -8h-589z" />
    <glyph glyph-name="Wgrave" unicode="&#x1e80;" horiz-adv-x="1028" 
d="M91 908h59q0 -4 -2 -10v-10q2 -19 13 -120h-1l74 -704l-2 -4l371 545l-26 273q-1 10 -2 10h-1v10l1 10h62q-1 -4 -2 -10l-1 -10v-1l69 -813l413 814q2 4 3 10l4 10h25l-5 -10l-4 -10h-1q-77 -148 -232.5 -449t-231.5 -449h-14l-55 593l-408 -593h-13l-79 778l-13 120h-1
v10v10zM467 1163q1 10 9.5 16.5t18.5 6.5q8 0 53 -71l95 -138l-7 -6l-113 124q-57 61 -56 68z" />
    <glyph glyph-name="Wacute" unicode="&#x1e82;" horiz-adv-x="1028" 
d="M91 908h59q0 -4 -2 -10v-10q2 -19 13 -120h-1l74 -704l-2 -4l371 545l-26 273q-1 10 -2 10h-1v10l1 10h62q-1 -4 -2 -10l-1 -10v-1l69 -813l413 814q2 4 3 10l4 10h25l-5 -10l-4 -10h-1q-77 -148 -232.5 -449t-231.5 -449h-14l-55 593l-408 -593h-13l-79 778l-13 120h-1
v10v10zM634 977l153 138q81 71 85 71q10 0 15 -6.5t3 -16.5q-1 -4 -86 -68l-165 -124z" />
    <glyph glyph-name="Wdieresis" unicode="&#x1e84;" horiz-adv-x="1028" 
d="M91 898v10h59q0 -4 -2 -10v-10q2 -19 13 -120h-1l74 -704l-2 -4l371 545l-26 273q-1 10 -2 10h-1v10l1 10h62q-1 -4 -2 -10l-1 -10v-1l69 -813l413 814q2 4 3 10l4 10h25l-5 -10l-4 -10h-1q-77 -148 -232.5 -449t-231.5 -449h-14l-55 593l-408 -593h-13l-79 778l-13 120
h-1v10zM715 1023q-13 0 -19.5 8t-3.5 21q7 29 35 29q13 0 19.5 -8t3.5 -21q-7 -29 -35 -29zM549 1052q7 29 35 29q13 0 19.5 -8t3.5 -21q-7 -29 -35 -29q-13 0 -19.5 8t-3.5 21z" />
    <glyph glyph-name="Etilde" unicode="&#x1ebc;" horiz-adv-x="581" 
d="M-17 20q2 0 16 65l156 738q6 26 9 41t3.5 19.5t-0.5 4.5l5 20h512q-1 -2 -1 -6l-1 -6h-20v1q0 1 -3 1t-26 0.5t-70 0.5h-340l-91 -424h273q101 0 101 3v1h20l-2 -13h-393l-82 -386q-9 -37 2.5 -54.5t61.5 -17.5h283q98 0 101 3h20q-1 -1 -3 -6l-2 -5h-534zM244 1028h-6
q10 44 39.5 71t68.5 27q42 0 126 -32.5t127 -32.5q33 0 56.5 16.5t29.5 43.5h6q-9 -41 -39 -66t-70 -25q-42 0 -127 32.5t-127 32.5q-31 0 -54 -18.5t-30 -48.5z" />
    <glyph glyph-name="Ygrave" unicode="&#x1ef2;" horiz-adv-x="557" 
d="M84 908h62l5 -20l183 -471l278 361h-1q17 22 22 27l64 84l2 3l3 6l7 10h22q-3 -4 -7 -10l-7 -10h-1q-1 0 -95 -120l-285 -363l-69 -325q-5 -23 -8 -37.5t-3 -18v-4.5l-5 -20h-55l5 20q3 0 16 60l68 322l-186 467l-8 19h-1q-1 4 -4 10zM266 1163q1 10 9.5 16.5t17.5 6.5
q8 0 53 -71l95 -138l-7 -6l-112 124q-58 59 -56 68z" />
    <glyph glyph-name="quoteleft" unicode="&#x2018;" horiz-adv-x="138" 
d="M136 834q-19 0 -28.5 11.5t-5.5 30.5q9 39 35.5 68t61.5 39l2 -9q-24 -7 -43.5 -29t-29.5 -53q10 6 21 6q14 0 21.5 -9t4.5 -23q-7 -32 -39 -32z" />
    <glyph glyph-name="quoteright" unicode="&#x2019;" horiz-adv-x="138" 
d="M118 778q52 15 73 83q-11 -7 -23 -7q-14 0 -20.5 9t-3.5 23t13.5 23t24.5 9q19 0 28.5 -11.5t5.5 -30.5q-8 -38 -35 -67.5t-62 -39.5z" />
    <glyph glyph-name="quotedblleft" unicode="&#x201c;" horiz-adv-x="262" 
d="M102 876q8 38 35 67.5t62 39.5l2 -9q-53 -15 -73 -82q10 6 21 6q14 0 21.5 -9t4.5 -23q-7 -32 -39 -32q-20 0 -29 11.5t-5 30.5zM260 834q-20 0 -29 11.5t-5 30.5q8 38 35 67.5t62 39.5l1 -9q-52 -15 -73 -83q10 7 22 7q14 0 21 -9t5 -23q-8 -32 -39 -32z" />
    <glyph glyph-name="quotedblright" unicode="&#x201d;" horiz-adv-x="262" 
d="M242 778q52 15 73 83q-11 -7 -23 -7q-14 0 -21 9t-4 23q7 32 39 32q19 0 28.5 -11.5t5.5 -30.5q-8 -38 -35 -67.5t-63 -39.5v9zM118 778q52 15 73 83q-11 -7 -23 -7q-14 0 -20.5 9t-3.5 23t13.5 23t24.5 9q19 0 28.5 -11.5t5.5 -30.5q-8 -38 -35 -67.5t-62 -39.5z" />
    <glyph glyph-name="euro" unicode="&#x20ac;" horiz-adv-x="750" 
d="M36 397h-65l11 32h59l10 50h-59l12 32h56q55 188 184.5 297.5t303.5 109.5q103 0 163 -39t110 -120l-18 -12q-50 81 -106.5 121t-148.5 40q-151 0 -265.5 -106.5t-167.5 -290.5h390l-12 -32h-387l-10 -50h387l-12 -32h-380q-28 -185 43 -291.5t237 -106.5q200 0 305 158
l15 -8q-104 -159 -326 -159q-187 0 -271 109.5t-58 297.5z" />
    <glyph glyph-name="fsmallcapital" unicode="&#xa730;" horiz-adv-x="379" 
d="M-29 20h1q2 0 16 65l121 571q6 26 9 41t3.5 19.5t-0.5 4.5h-1l4 20h424l-1 -6h-376l-76 -355h310l-1 -8h-310l-61 -287q-6 -26 -9 -41t-3.5 -19.5t0.5 -4.5l-5 -20h-50z" />
    <glyph glyph-name="ssmallcapital" unicode="&#xa731;" horiz-adv-x="477" 
d="M452 634l-14 -6q-13 50 -62 82t-110 32q-68 0 -116 -37.5t-59 -92.5q-25 -120 150 -210q185 -95 156 -237q-17 -76 -83.5 -125.5t-155.5 -49.5q-83 0 -144 43t-79 114l14 6q18 -68 75.5 -110t131.5 -42q76 0 132 42t69 103q24 118 -144 205q-191 99 -162 240
q15 69 74 114.5t140 45.5q69 0 121.5 -32.5t65.5 -84.5z" />
    <glyph glyph-name="uniF078" unicode="&#xf078;" horiz-adv-x="534" 
d="M-63 0h-23q3 4 9 10l8 10h1l92 100l221 242l-102 239q-50 120 -51 120h-1l-3 10l-4 10h56l6 -20q8 -19 51 -120l88 -205l171 194v1q16 18 59 66l58 66l13 18h23q-3 -4 -8 -10l-8 -10h-1q-1 0 -2 -1l-303 -331l151 -353l8 -16h1l3 -10l3 -10h-57l-5 20q-4 8 -19 44
l-122 289l-301 -336l-1 -3q-2 -2 -3 -4z" />
    </font>
</defs>
</svg>
