<?xml version="1.0" standalone="no"?>
<!DOCTYPE svg PUBLIC "-//W3C//DTD SVG 1.1//EN" "http://www.w3.org/Graphics/SVG/1.1/DTD/svg11.dtd" >
<svg xmlns="http://www.w3.org/2000/svg" xmlns:xlink="http://www.w3.org/1999/xlink" version="1.1">
<metadata>
Created by FontForge 20170731 at Thu Jan  5 03:00:00 2023
 By Aleksey,,,
Copyright missing
</metadata>
<defs>
<font id="Gilway-BoldOutline" horiz-adv-x="0" >
  <font-face 
    font-family="Gilway Bold Outline"
    font-weight="710"
    font-stretch="condensed"
    units-per-em="700"
    panose-1="0 0 0 0 0 0 0 0 0 0"
    ascent="560"
    descent="-140"
    x-height="523"
    cap-height="606"
    bbox="-76 -239.364 670 808.237"
    underline-thickness="35"
    underline-position="-137"
    unicode-range="U+0020-2260"
  />
<missing-glyph horiz-adv-x="400" 
d="M328 600v-800h-254v800h254zM134 -145h132v27h-81l56 37h25v27h-132v-27h56l-56 -37v-27zM134 -36h132v90h-132v-90zM134 102h132v91h-80v-45h28v18h26v-37h-80v64h-26v-91zM134 210h132v80h-26v-52h-106v-28zM134 256h80v56h52v26h-132v-26h52v-30h-52v-26zM134 360h132
v27h-52v56h-80v-83zM134 464h132v26h-52v30h52v26h-132v-26h52v-30h-52v-26zM160 -10v38h80v-38h-80zM160 387v29h26v-29h-26z" />
    <glyph glyph-name="T_T.liga" unicode="TT" horiz-adv-x="445" 
d="M129 -23q-41 0 -62 26.5t-21 63.5v362q-34 3 -58 25t-24 62q0 44 28.5 65.5t65.5 21.5h331q37 0 64.5 -21.5t27.5 -65.5q0 -40 -23 -62.5t-56 -25.5v-361q0 -37 -21 -63.5t-62 -26.5t-62 26.5t-21 63.5v361h-24v-361q0 -37 -21 -63.5t-62 -26.5zM-9 516q0 -31 19.5 -46
t47.5 -15h1q14 0 14 -14v-374q0 -28 14 -45.5t42 -17.5t42 17.5t14 45.5v374q0 14 14 14h50q14 0 14 -14v-374q0 -28 14 -45.5t42 -17.5t42 17.5t14 45.5v373q0 14 14 14q28 0 46.5 15.5t18.5 46.5t-18.5 45.5t-46.5 14.5h-331q-28 0 -47.5 -14.5t-19.5 -45.5z" />
    <glyph glyph-name="f_f.liga" unicode="ff" horiz-adv-x="408" 
d="M287 -24q-76 0 -83 74v250h-23v-250q0 -30 -22.5 -51t-57.5 -21q-77 0 -84 74v250q-22 4 -37.5 22.5t-15.5 51.5t15 52t36 22v17q0 70 35.5 104.5t88.5 34.5q67 0 93 -48q39 45 104 45q108 0 108 -84q0 -54 -45 -72q41 -20 41 -70q0 -34 -21.5 -54.5t-52.5 -21.5v-253
q0 -30 -22 -51t-57 -21zM-9 376q0 -25 11 -37t28 -12q14 0 14 -16v-258q5 -48 57 -48q22 0 37.5 12.5t15.5 32.5v263q0 14 13 14h50q14 0 14 -16v-260q5 -48 56 -48q22 0 37 12.5t15 32.5v266q0 10 5.5 12t20.5 2q18 0 33 12.5t15 36.5q0 23 -13.5 36.5t-31.5 13.5h-4
q-10 0 -15.5 7t-5.5 14q0 21 25 21q49 0 49 50q0 57 -81 57q-46 0 -76.5 -28t-30.5 -81v-20q0 -20 -18 -20h-32q-21 0 -21 22q0 7 6 14t11 7q13 0 26.5 12t13.5 39q0 25 -22 41.5t-54 16.5q-43 0 -70 -27t-27 -85v-20q0 -23 -18 -23q-33 0 -33 -48z" />
    <glyph glyph-name="f_f_i.liga" unicode="ffi" horiz-adv-x="559" 
d="M291 -23q-75 0 -82 74v249h-23v-250q0 -30 -22.5 -51t-57.5 -21q-77 0 -84 74v250q-22 4 -37.5 22.5t-15.5 51.5t15 52t36 22v17q0 70 35.5 104.5t88.5 34.5q65 0 92 -45q34 44 97 44q51 0 78 -30q25 32 72 32t69.5 -28.5t22.5 -67.5q0 -58 -40 -81q27 -26 27 -70v-289
q0 -37 -21 -65.5t-63 -28.5q-43 0 -64 28.5t-21 65.5v227h-24v-249q0 -30 -21.5 -51t-56.5 -21zM-4 376q0 -25 11 -37t28 -12q14 0 14 -16v-258q5 -48 57 -48q22 0 37.5 12.5t15.5 32.5v263q0 14 13 14h50q14 0 14 -16v-259q5 -48 55 -48q22 0 36.5 12t14.5 33v262
q0 10 5 12t21 2h38q14 0 14 -14v-240q0 -28 14.5 -47.5t43.5 -19.5t43 19.5t14 47.5v288q0 27 -14 46t-43 19h-114q-23 0 -23 23q0 10 9 17t17 7q13 0 25 13.5t12 36.5q0 24 -18 40.5t-53 16.5q-42 0 -70.5 -27.5t-28.5 -84.5v-21q0 -20 -18 -20h-32q-21 0 -21 23
q0 7 6 14.5t11 7.5q13 0 26.5 12t13.5 39q0 25 -22 41.5t-54 16.5q-43 0 -70 -27t-27 -85v-20q0 -23 -18 -23q-33 0 -33 -48zM417 511q0 -30 16 -49t50 -19t49.5 19t15.5 49t-15.5 49.5t-49.5 19.5t-50 -19.5t-16 -49.5z" />
    <glyph glyph-name="f_i.liga" unicode="fi" horiz-adv-x="372" 
d="M104 -23q-75 0 -82 74v247q-22 4 -37.5 22.5t-15.5 51.5t15 52t36 22v20q0 70 37 104.5t89 34.5q51 0 78 -30q24 32 72 32q46 0 69 -28.5t23 -67.5q0 -57 -40 -81q27 -26 27 -71v-288q0 -40 -22.5 -67t-61.5 -27q-42 0 -63.5 28.5t-21.5 65.5v227h-24v-249
q0 -30 -21.5 -51t-56.5 -21zM-4 372q0 -25 11 -37t28 -12q14 0 14 -16v-255q5 -48 55 -48q22 0 36.5 12t14.5 33v262q0 10 5.5 12t20.5 2h38q14 0 14 -14v-240q0 -28 14.5 -47.5t43.5 -19.5t43 19.5t14 47.5v288q0 27 -14 46t-43 19h-114q-23 0 -23 23q0 10 9 17t17 7
q13 0 25 13.5t12 36.5q0 24 -18 40.5t-53 16.5q-42 0 -70.5 -27.5t-28.5 -84.5v-23q0 -23 -18 -23q-33 0 -33 -48zM230 511q0 -30 16 -49t50 -19t49.5 19t15.5 49t-15.5 49.5t-49.5 19.5t-50 -19.5t-16 -49.5z" />
    <glyph glyph-name="f_j.liga" unicode="fj" horiz-adv-x="372" 
d="M205 -138q-33 0 -55.5 23t-22.5 56q0 23 12 43q-18 -7 -35 -7q-75 0 -82 74v247q-22 4 -37.5 22.5t-15.5 51.5t15 52t36 22v20q0 70 37 104.5t89 34.5q51 0 78 -30q24 32 72 32q46 0 69 -28.5t23 -67.5q0 -54 -36 -79q23 -22 23 -74v-337q0 -79 -44 -119t-105 -40h-21z
M-4 372q0 -25 11 -37t28 -12q14 0 14 -16v-255q5 -48 55 -48q22 0 36.5 12t14.5 33v262q0 10 5.5 12t20.5 2h43q14 0 14 -14v-293q0 -26 -18 -26h-15q-24 0 -37.5 -15t-13.5 -36t14 -36.5t37 -15.5h21q50 0 86 33t36 99v337q0 14 -1 22t-5.5 20t-16.5 18t-31 6h-117
q-23 0 -23 23q0 10 9 17t17 7q13 0 25 13.5t12 36.5q0 24 -18 40.5t-53 16.5q-42 0 -70.5 -27.5t-28.5 -84.5v-23q0 -23 -18 -23q-33 0 -33 -48zM172 13q15 6 33 6h6v279h-29v-249q0 -20 -10 -36zM230 511q0 -30 16 -49t50 -19t49.5 19t15.5 49t-15.5 49.5t-49.5 19.5
t-50 -19.5t-16 -49.5z" />
    <glyph glyph-name="t_t.liga" unicode="tt" horiz-adv-x="414" 
d="M149 -24q-52 0 -90.5 35t-38.5 104v245q-21 3 -36 22t-15 52q0 63 53 74v13q0 39 25 60.5t56 21.5q36 0 58.5 -23t22.5 -56v-15h26v14q0 37 23 58t56 21q35 0 57.5 -21.5t22.5 -54.5v-17h4q30 0 51 -21.5t21 -54.5q0 -40 -20 -61t-52 -21v-218q24 -1 44.5 -18t20.5 -53
q0 -37 -21.5 -60t-82.5 -23t-95 41q-20 -44 -90 -44zM-4 434q0 -48 33 -48q18 0 18 -19v-252q0 -57 30 -84.5t72 -27.5q71 0 71 57q0 27 -15.5 38t-29.5 11t-14 37v218q0 18 16 18h44q14 0 14 -19v-246q0 -57 28.5 -84t70.5 -27q46 0 61.5 14t15.5 42q0 44 -49 44
q-16 0 -16 33v221q0 18 16 18h12q44 0 44 55q0 23 -13.5 36t-31.5 13h-13q-18 0 -18 14v30q0 21 -14.5 35t-38.5 14q-20 0 -36 -12.5t-16 -39.5v-25q-4 -15 -11 -16h-39q-17 0 -23.5 2t-6.5 12v28q0 22 -15 37t-39 15q-21 0 -37.5 -14.5t-16.5 -40.5v-23q0 -16 -14 -16
q-17 0 -28 -11.5t-11 -36.5z" />
    <glyph glyph-name=".notdef" horiz-adv-x="400" 
d="M328 600v-800h-254v800h254zM134 -145h132v27h-81l56 37h25v27h-132v-27h56l-56 -37v-27zM134 -36h132v90h-132v-90zM134 102h132v91h-80v-45h28v18h26v-37h-80v64h-26v-91zM134 210h132v80h-26v-52h-106v-28zM134 256h80v56h52v26h-132v-26h52v-30h-52v-26zM134 360h132
v27h-52v56h-80v-83zM134 464h132v26h-52v30h52v26h-132v-26h52v-30h-52v-26zM160 -10v38h80v-38h-80zM160 387v29h26v-29h-26z" />
    <glyph glyph-name=".null" 
 />
    <glyph glyph-name="nonmarkingreturn" horiz-adv-x="233" 
 />
    <glyph glyph-name="space" unicode=" " horiz-adv-x="95" 
 />
    <glyph glyph-name="space" unicode="&#xa0;" horiz-adv-x="95" 
 />
    <glyph glyph-name="exclam" unicode="!" horiz-adv-x="167" 
d="M86 -23q-48 0 -72.5 28.5t-24.5 68.5q0 59 43 83q-31 27 -31 76v279q0 36 21 64t64 28q42 0 63 -28t21 -64v-279q0 -48 -30 -75q43 -25 43 -84q0 -40 -24 -68.5t-73 -28.5zM16 74q0 -30 17.5 -50t52.5 -20q36 0 53 19.5t17 50.5q0 30 -17 50t-53 20q-35 0 -52.5 -20
t-17.5 -50zM28 233q0 -28 14.5 -47.5t43.5 -19.5t43 19.5t14 47.5v279q0 27 -14 46t-43 19t-43.5 -18.5t-14.5 -46.5v-279z" />
    <glyph glyph-name="quotedbl" unicode="&#x22;" horiz-adv-x="263" 
d="M46 373q-23 2 -40 21.5t-17 48.5v69q0 40 24 67.5t64 25.5q43 -3 65 -38q24 41 73 38q38 -2 58 -27.5t20 -60.5q0 -50 -36 -96q-23 -30 -37 -39.5t-36 -8.5q-21 2 -37 18t-19 42l-9 -12q-23 -30 -37 -39.5t-36 -8.5zM16 443q0 -17 9.5 -29.5t22.5 -13.5q14 -1 22.5 6
t27.5 32q30 38 30 79q0 25 -13.5 42.5t-39.5 18.5q-27 1 -43 -18t-16 -48v-69zM154 443q0 -17 9.5 -29.5t22.5 -13.5q14 -1 22.5 6t27.5 32q30 38 30 79q0 25 -13.5 42.5t-39.5 18.5q-27 1 -43 -18t-16 -48v-69z" />
    <glyph glyph-name="numbersign" unicode="#" horiz-adv-x="447" 
d="M95 25q-33 6 -48.5 32t-8.5 60l4 22q-30 1 -49 20t-19 46t19 46.5t51 19.5h20l1 4h-1q-31 0 -50.5 20t-19.5 47t19 46t51 19h24l10 49q6 34 28.5 52.5t57.5 11.5q33 -6 48 -31t10 -58l-4 -24h3l10 49q6 34 29 52.5t57 11.5q33 -6 48 -31t10 -58l-5 -24h3q32 0 51 -19
t19 -46t-19.5 -47t-50.5 -20h-26l-1 -4h7q32 0 51 -19.5t19 -46.5t-19 -46.5t-51 -19.5h-30l-9 -48q-6 -35 -29 -54t-57 -12q-33 6 -48.5 32t-8.5 60l3 22h-4l-8 -48q-7 -35 -30 -54t-57 -12zM1 205q0 -17 12 -28t31 -11h15q15 0 12 -15l-7 -39q-4 -22 4.5 -39.5t31.5 -21.5
q45 -8 55 45l10 57q2 13 15 13h32q15 0 12 -15l-7 -39q-4 -22 4.5 -39.5t31.5 -21.5q45 -8 55 45l10 57q2 13 15 13h40q19 0 31 11t12 28t-12 28t-31 11h-24q-15 0 -12 15l5 30q2 13 15 13h36q19 0 31 11t12 29q0 17 -12 27.5t-31 10.5h-20q-15 0 -12 15l7 40q8 51 -36 59
q-45 8 -55 -43l-11 -58q-2 -13 -15 -13h-31q-15 0 -12 15l7 40q8 51 -36 59q-45 8 -55 -43l-11 -58q-2 -13 -15 -13h-34q-19 0 -31 -10.5t-12 -27.5q0 -18 12 -29t31 -11h18q16 0 13 -15l-6 -30q-3 -13 -15 -13h-30q-19 0 -31 -11t-12 -28zM184 259l5 30q2 13 15 13h31
q16 0 13 -15l-6 -30q-3 -13 -15 -13h-31q-15 0 -12 15z" />
    <glyph glyph-name="dollar" unicode="$" horiz-adv-x="299" 
d="M153 -87q-39 0 -58.5 23t-22.5 57q-72 36 -72 132v27q0 49 38 70q-49 35 -49 105v101q0 54 22 91.5t59 53.5q2 34 22 56.5t59 22.5t59.5 -22.5t22.5 -56.5v-1q35 -19 56 -55t21 -83v-21q0 -70 -48 -91q43 -32 43 -109v-79q0 -111 -70 -143q-2 -34 -22.5 -56t-59.5 -22z
M16 327q0 -49 28 -76t77 -27h28q20 0 20 -24v-49q0 -29 -17 -29q-19 0 -19 20v14q0 20 -12.5 34t-35.5 14q-58 0 -58 -52v-27q0 -82 61 -110q11 -5 11 -16v-1q2 -58 54 -58q55 0 55 58q0 11 11 16q59 23 59 120v79q0 58 -25.5 82t-73.5 24h-31q-20 0 -20 28v62q0 28 17 28
q18 0 18 -30v-9q0 -56 62 -56q58 0 58 71v21q0 40 -18 70.5t-48 45.5q-11 5 -11 16v1q0 58 -55 58q-52 0 -54 -58v-1q0 -11 -11 -16q-70 -27 -70 -122v-101z" />
    <glyph glyph-name="percent" unicode="%" horiz-adv-x="470" 
d="M351 -23q-43 0 -74.5 29.5t-31.5 81.5v78l-88 -148q-18 -31 -45.5 -41t-57.5 7t-36 47.5t13 58.5l119 202q-12 -3 -25 -3h-20q-43 0 -74.5 29.5t-31.5 81.5v92q0 52 28 83t75 31h19q49 0 76.5 -32.5t27.5 -81.5v-73l85 144q17 30 44.5 39t59.5 -8q29 -17 34.5 -47
t-12.5 -57l-118 -200q13 4 30 4h19q49 0 76.5 -32.5t27.5 -81.5v-92q0 -47 -28.5 -79t-71.5 -32h-20zM26 400q0 -40 23 -62t56 -22h20q31 0 52 24t21 60v92q0 39 -20.5 63t-56.5 24h-19q-35 0 -55.5 -23t-20.5 -64v-92zM54 76q-12 -16 -10 -36.5t23 -32.5q39 -24 67 24
l279 473q11 15 9 35t-22 32q-41 24 -67 -22zM96 411v72q0 15 14 15q15 0 15 -16v-71q0 -17 -15 -17q-14 0 -14 17zM272 88q0 -40 23 -62t56 -22h20q31 0 52 24t21 60v92q0 39 -20.5 63t-56.5 24h-19q-35 0 -55.5 -23t-20.5 -64v-92zM344 99v72q0 15 14 15q15 0 15 -16v-71
q0 -17 -15 -17q-14 0 -14 17z" />
    <glyph glyph-name="ampersand" unicode="&#x26;" horiz-adv-x="384" 
d="M166 -22q-75 0 -121 54.5t-46 149.5v42q0 63 44 107q-27 31 -27 79v36q0 76 41.5 117t101.5 41h39q57 0 99 -43t42 -109q0 -37 -22 -63q45 -17 51 -67q47 -12 47 -67q0 -62 -49 -74v-8q-1 -55 -18 -95t-44.5 -60.5t-54.5 -30t-55 -9.5h-28zM26 182q0 -84 38 -130.5
t102 -46.5h28q24 0 47 8t46 25.5t37 52.5t15 82v19q0 14 8 14q41 0 41 49q0 37 -33 42q-14 2 -14 13q1 28 -17 43.5t-43 15.5q-24 0 -38.5 -15t-14.5 -39v-118q0 -36 -14 -54.5t-32 -18.5h-6q-39 0 -39 66v42q0 18 8.5 33.5t23.5 15.5q43 0 43 49q0 24 -14.5 33.5t-30.5 9.5
t-16 30v22q0 13 6.5 20.5t14.5 7.5q9 0 15.5 -6t6.5 -15q0 -20 15.5 -33.5t40.5 -13.5q29 0 45.5 20t16.5 47q0 54 -34 89.5t-80 35.5h-39q-50 0 -83 -33.5t-33 -97.5v-36q0 -37 17 -58t34 -21q-19 -2 -43.5 -32.5t-24.5 -74.5v-42zM164 190q0 -26 2.5 -32.5t9.5 -6.5h6
q19 0 19 46v64q-14 -7 -32 -7q-5 0 -5 -22v-42z" />
    <glyph glyph-name="quotesingle" unicode="'" horiz-adv-x="124" 
d="M46 406q-23 1 -40 21t-17 49v69q0 40 24 67.5t64 25.5q38 -2 58 -27.5t20 -60.5q0 -51 -36 -95q-23 -30 -37 -40t-36 -9zM16 476q0 -17 9.5 -29.5t22.5 -13.5q14 -1 22.5 6t27.5 32q30 38 30 79q0 25 -13.5 42.5t-39.5 18.5q-27 1 -43 -18t-16 -48v-69z" />
    <glyph glyph-name="parenleft" unicode="(" horiz-adv-x="252" 
d="M202 -117q-37 0 -60 29q-143 159 -143 370q0 210 143 371q23 28 60 28q34 0 57.5 -24t23.5 -57q0 -31 -21 -54q-101 -110 -101 -264q0 -152 101 -264q21 -23 21 -54q0 -33 -23.5 -57t-57.5 -24zM26 282q0 -199 136 -353q16 -19 40 -19q23 0 38.5 15.5t15.5 38.5
q0 20 -14 36q-108 119 -108 282t108 282q14 16 14 36q0 23 -15.5 38.5t-38.5 15.5q-24 0 -40 -19q-136 -154 -136 -353z" />
    <glyph glyph-name="parenright" unicode=")" horiz-adv-x="252" 
d="M51 -117q-34 0 -57.5 23.5t-23.5 57.5q0 31 21 54q101 112 101 264q0 154 -101 264q-21 23 -21 54q0 34 23.5 57.5t57.5 23.5q37 0 60 -28q143 -161 143 -371q0 -211 -143 -370q-23 -29 -60 -29zM-3 -36q0 -23 15.5 -38.5t38.5 -15.5q24 0 40 19q136 154 136 353
t-136 353q-16 19 -40 19q-23 0 -38.5 -15.5t-15.5 -38.5q0 -20 14 -36q108 -119 108 -282t-108 -282q-14 -16 -14 -36z" />
    <glyph glyph-name="asterisk" unicode="*" horiz-adv-x="286" 
d="M44 293q-28 19 -31 48.5t18 53.5l1 1q-34 7 -49 33t-5 58q11 31 39 42t58 -3q-5 33 14.5 56.5t52.5 24.5h1q33 0 52.5 -23.5t15.5 -56.5v-1q41 19 71 -4t30 -60q0 -25 -16 -43t-42 -23q22 -24 19 -54t-30 -49q-28 -19 -55.5 -11.5t-44.5 34.5q-16 -28 -43.5 -35t-55.5 12
zM4 478q-8 -24 4.5 -39.5t37.5 -17.5l40 4q10 1 12 -5t-6 -12l-33 -23q-18 -16 -19 -35.5t19 -34.5q20 -14 37.5 -7t27.5 29l10 40q1 7 5 9.5t8 0t5 -9.5l10 -40q10 -21 27.5 -28.5t37.5 6.5q20 15 19 34.5t-20 35.5l-34 24q-5 4 -6.5 8t2 6.5t10.5 1.5l42 -4
q25 2 37.5 17.5t4.5 39.5q-8 22 -28 27.5t-38 -7.5l-33 -23q-8 -6 -13 -2t-1 13l14 36q6 23 -5 40.5t-35 17.5t-35 -17.5t-5 -40.5l14 -37q4 -9 -1 -13t-13 2l-33 24q-18 12 -38 7t-28 -27z" />
    <glyph glyph-name="plus" unicode="+" horiz-adv-x="355" 
d="M180 66q-38 0 -59.5 24.5t-21.5 63.5v22h-25q-36 0 -60.5 20.5t-24.5 60.5q0 41 24.5 61.5t60.5 20.5h25v24q0 36 20.5 60.5t60.5 24.5q41 0 61.5 -24t20.5 -61v-24h21q36 0 62 -20t26 -62q0 -38 -24.5 -59.5t-63.5 -21.5h-21v-22q0 -36 -20.5 -62t-61.5 -26zM16 257
q0 -54 58 -54h38q14 0 14 -14v-35q0 -61 54 -61q28 0 41.5 17.5t13.5 43.5v35q0 14 14 14h34q61 0 61 54q0 28 -17.5 41.5t-43.5 13.5h-34q-14 0 -14 14v37q0 58 -55 58q-54 0 -54 -58v-37q0 -14 -14 -14h-38q-58 0 -58 -55z" />
    <glyph glyph-name="comma" unicode="," horiz-adv-x="145" 
d="M46 -77q-25 2 -43.5 23t-18.5 52v78q0 44 26 73.5t69 27.5t65 -30t22 -66q0 -55 -40 -105q-26 -33 -41.5 -43.5t-38.5 -9.5zM11 -2q0 -19 10.5 -33t26.5 -15q15 -1 25 7t32 36q34 42 34 88q0 28 -15.5 48t-45.5 21q-31 1 -49 -20t-18 -54v-78z" />
    <glyph glyph-name="hyphen" unicode="-" horiz-adv-x="259" 
d="M87 172q-38 0 -63 21.5t-25 62.5q0 43 24.5 64t63.5 21h92q39 0 65 -21.5t26 -63.5t-26 -63t-65 -21h-92zM26 256q0 -57 61 -57h92q64 0 64 57q0 58 -64 58h-92q-61 0 -61 -58z" />
    <glyph glyph-name="period" unicode="." horiz-adv-x="155" 
d="M78 -23q-49 0 -74 28.5t-25 69.5t25.5 70t73.5 29q50 0 74 -29t24 -70q0 -40 -24 -69t-74 -29zM6 75q0 -31 17.5 -51t54.5 -20t54 20t17 51t-17 51.5t-54 20.5q-36 0 -54 -20.5t-18 -51.5z" />
    <glyph glyph-name="slash" unicode="/" horiz-adv-x="182" 
d="M28 -76q-33 6 -48.5 32t-8.5 60l96 550q5 34 28.5 52.5t58.5 11.5q33 -6 48.5 -31.5t9.5 -58.5l-97 -549q-5 -35 -29 -54.5t-58 -12.5zM-3 11q-4 -22 4.5 -39.5t31.5 -21.5q24 -4 38 9.5t17 35.5l97 550q4 21 -4.5 38t-31.5 21q-47 8 -55 -43z" />
    <glyph glyph-name="zero" unicode="0" horiz-adv-x="326" 
d="M153 -23q-72 0 -113 47.5t-41 121.5l5 294q0 68 42 115t104 47h27q62 0 106 -42.5t44 -119.5v-295q0 -77 -40 -122.5t-105 -45.5h-29zM26 145q0 -63 33.5 -102t93.5 -39h29q53 0 85.5 37.5t32.5 103.5v295q0 65 -36 100t-87 35h-27q-51 0 -85 -39t-34 -96zM142 152v266
q0 27 22 27q8 0 14 -7t6 -20v-268q0 -11 -6 -17t-14 -6q-22 0 -22 25z" />
    <glyph glyph-name="one" unicode="1" horiz-adv-x="215" 
d="M132 -24q-43 0 -64 28.5t-21 65.5v310h-12q-23 0 -44.5 19t-21.5 56q0 34 23 54.5t50 20.5q5 0 5 4q0 27 22 48.5t63 21.5q42 0 63 -28t21 -66v-440q0 -37 -20.5 -65.5t-63.5 -28.5zM-4 455q0 -24 13 -36t26 -12h25q14 0 14 -14v-323q0 -28 14.5 -47.5t43.5 -19.5t43 19
t14 48v440q0 29 -14 48t-43 19q-27 0 -42.5 -13t-15.5 -30v-1q-1 -11 -11 -20t-20 -10h-1q-15 0 -30.5 -12.5t-15.5 -35.5z" />
    <glyph glyph-name="two" unicode="2" horiz-adv-x="299" 
d="M93 -22q-49 0 -73 32t-24 76v13q0 28 9 54t17 38t28 40l66 89q-19 -7 -39 -7q-43 0 -65.5 29.5t-22.5 69.5v41q0 66 41.5 109t98.5 43h43q60 0 101.5 -44.5t41.5 -120.5v-45q0 -78 -53 -153l-65 -89h22q40 0 66 -23t26 -65q0 -41 -25.5 -64t-63.5 -23h-129zM16 412
q0 -31 15.5 -51.5t45.5 -20.5q57 0 57 60v24q0 30 20 30q23 0 23 -28v-35q0 -31 -28 -71l-77 -105q-19 -25 -26.5 -37t-15 -33.5t-7.5 -45.5v-13q0 -35 17 -58t53 -23h129q27 0 44.5 15.5t17.5 44.5q0 30 -18 45.5t-47 15.5h-54q-8 0 -11 5t2 12l84 115q48 68 48 137v45
q0 64 -33.5 101t-82.5 37h-43q-46 0 -79.5 -35.5t-33.5 -89.5v-41z" />
    <glyph glyph-name="three" unicode="3" horiz-adv-x="313" 
d="M148 -22q-56 0 -99.5 33.5t-43.5 113.5v42q0 70 69 81q-13 18 -13 45q0 19 7 35v1q-39 4 -59 31.5t-20 65.5v27q0 66 42 109t99 43h39q60 0 101.5 -41t41.5 -117v-72q0 -49 -28 -81q30 -34 30 -85l-1 -67q-2 -164 -136 -164h-29zM16 426q0 -31 15.5 -50.5t46.5 -19.5
q56 0 56 55v17q0 26 22 26q8 0 14.5 -7.5t6.5 -20.5v-58q0 -28 -21 -28h-14q-54 0 -54 -47t56 -47h12q10 0 15 -10t5 -21v-65q0 -26 -21 -26q-17 0 -17 20v28q0 20 -12 35t-35 15q-59 0 -59 -55v-42q0 -66 34 -93t82 -27h29q58 0 83 35t26 102l1 67q0 36 -18.5 60.5
t-34.5 24.5q17 2 34 23.5t17 57.5v72q0 64 -33 97.5t-83 33.5h-39q-46 0 -80 -35.5t-34 -89.5v-27z" />
    <glyph glyph-name="four" unicode="4" horiz-adv-x="309" 
d="M208 -23q-35 0 -56 23t-21 62v20h-78q-37 0 -60.5 20t-23.5 55v5q0 19 11 50l112 327q9 27 33 47t60 20q39 0 69 -26t30 -66v-273q56 -19 56 -84q0 -57 -56 -72v-23q0 -40 -20 -62.5t-56 -22.5zM-4 157q0 -48 57 -48h91q14 0 14 -14v-33q0 -58 50 -58q49 0 49 58v34
q0 12 14 14q42 8 42 47q0 50 -43 60q-13 3 -13 15v282q0 28 -21.5 46.5t-50.5 18.5q-27 0 -44 -14.5t-23 -33.5l-112 -328q-10 -30 -10 -42v-4zM118 233l27 77q4 10 9.5 8.5t5.5 -11.5l-1 -76q0 -14 -14 -14h-15q-17 0 -12 16z" />
    <glyph glyph-name="five" unicode="5" horiz-adv-x="293" 
d="M129 -22q-55 0 -97.5 34t-42.5 113v46q0 61 47 83q-38 20 -36 74l7 184q1 37 24 65.5t66 28.5h122q36 0 63 -24t27 -67q0 -45 -26.5 -69.5t-63.5 -24.5l-51 1l-1 -22h13q58 -2 91.5 -31t33.5 -100v-135q0 -72 -33 -114t-103 -42h-40zM16 125q0 -66 33 -93t80 -27h40
q109 0 109 129v135q0 58 -25 80t-74 24l-26 1q-14 0 -14 14l2 47q0 14 15 14l63 -1q26 0 44.5 17.5t18.5 49.5q0 30 -18.5 47t-44.5 17h-122q-30 0 -46 -20t-17 -48l-7 -184q-2 -55 51 -55h75q20 0 20 -24v-95q0 -29 -17 -29q-19 0 -19 20v37q0 20 -16.5 38t-39.5 18
q-29 0 -47 -16.5t-18 -49.5v-46z" />
    <glyph glyph-name="six" unicode="6" horiz-adv-x="308" 
d="M146 -22q-71 0 -109 44.5t-38 118.5v305q0 76 40.5 117t100.5 41h43q58 0 99.5 -43t41.5 -109v-25q0 -29 -14 -54t-40 -36q45 -38 45 -115v-76q0 -77 -39 -122.5t-104 -45.5h-26zM26 141q0 -63 30.5 -99.5t89.5 -36.5h26q53 0 84.5 37.5t31.5 103.5v76q0 64 -33.5 92.5
t-86.5 28.5h-30q-5 0 -5 14v68q0 28 20 28t20 -26v-15q0 -26 15.5 -40.5t44.5 -14.5q31 0 47.5 21t16.5 49v25q0 54 -34 89.5t-80 35.5h-43q-49 0 -81.5 -33.5t-32.5 -97.5v-305zM135 147v79q0 27 22 27q8 0 14 -7t6 -20v-81q0 -11 -6 -17t-14 -6q-22 0 -22 25z" />
    <glyph glyph-name="seven" unicode="7" horiz-adv-x="271" 
d="M42 -20q-37 14 -49 46.5t1 69.5l109 334l-43 -1q-37 0 -64 22.5t-27 66.5t27.5 65.5t63.5 21.5h168q41 0 62 -37t7 -82l-145 -442q-12 -37 -40 -57.5t-70 -6.5zM-4 518q0 -32 18.5 -47t45.5 -15l63 1q17 0 12 -16l-115 -353q-21 -63 31 -82q54 -18 75 46l145 442
q10 31 -3 57.5t-40 26.5h-168q-28 0 -46 -14.5t-18 -45.5z" />
    <glyph glyph-name="eight" unicode="8" horiz-adv-x="320" 
d="M145 -23q-72 0 -114 47.5t-42 120.5v49q0 66 42 104q-34 34 -34 95v44q0 73 39.5 120.5t107.5 47.5h23q72 0 113 -47.5t41 -120.5v-50q0 -59 -36 -93q32 -34 32 -88v-61q0 -73 -39.5 -120.5t-108.5 -47.5h-24zM16 145q0 -62 34.5 -101.5t94.5 -39.5h24q57 0 89 39t32 102
v61q0 61 -45 85q-10 5 0 9q49 20 49 87v50q0 63 -33.5 102t-93.5 39h-23q-56 0 -88 -39.5t-32 -101.5v-44q0 -71 46 -91q10 -5 0 -10q-54 -27 -54 -98v-49zM133 150v69q0 31 21 31t21 -31v-69q0 -29 -21 -29q-8 0 -14.5 8t-6.5 21zM139 369v57q0 13 6.5 21t14.5 8
q21 0 21 -29v-57q0 -31 -21 -31t-21 31z" />
    <glyph glyph-name="nine" unicode="9" horiz-adv-x="316" 
d="M135 -22q-57 0 -98 43t-41 109v10q0 59 44 82q-51 39 -51 118v96q0 77 40 122.5t105 45.5h30q71 0 112 -48t41 -120v-293q0 -81 -41.5 -123t-103.5 -42h-37zM16 340q0 -63 35 -92t88 -29h28q11 0 11 -14v-53q0 -14 -6 -22t-14 -8q-21 0 -21 28q0 55 -54 55
q-31 0 -45.5 -18.5t-14.5 -46.5v-10q0 -54 33 -89.5t79 -35.5h37q52 0 85 34.5t33 103.5v293q0 61 -33.5 101t-92.5 40h-30q-53 0 -85.5 -37.5t-32.5 -103.5v-96zM130 345v89q0 11 6.5 17.5t14.5 6.5q24 0 24 -26v-87q0 -27 -24 -27q-8 0 -14.5 7t-6.5 20z" />
    <glyph glyph-name="colon" unicode=":" horiz-adv-x="170" 
d="M88 58q-49 0 -74 29t-25 69q0 67 54 90q-54 24 -54 91q0 40 24 69t74 29q49 0 74 -28.5t25 -69.5q0 -67 -54 -90q54 -24 54 -91q0 -40 -24 -69t-74 -29zM16 156q0 -31 17.5 -51t54.5 -20t54 20t17 51t-17 51.5t-54 20.5q-36 0 -54 -20.5t-18 -51.5zM16 337
q0 -31 17 -51.5t54 -20.5q36 0 54 20.5t18 51.5t-17.5 51t-54.5 20t-54 -20t-17 -51z" />
    <glyph glyph-name="semicolon" unicode=";" horiz-adv-x="165" 
d="M53 -77q-25 2 -43.5 23t-18.5 52v78q0 44 26 73.5t69 27.5t65 -30t22 -66q0 -55 -40 -105q-27 -34 -42.5 -44t-37.5 -9zM-11 288q0 41 25 70t74 29q50 0 74 -29t24 -70q0 -40 -24 -69t-74 -29q-49 0 -74 29t-25 69zM16 288q0 -31 17.5 -51t54.5 -20t54 20t17 51t-17 51.5
t-54 20.5q-36 0 -54 -20.5t-18 -51.5zM18 -2q0 -19 10.5 -33t26.5 -15q15 -1 25 7t32 36q34 42 34 88q0 28 -15.5 48t-45.5 21q-31 1 -49 -20t-18 -54v-78z" />
    <glyph glyph-name="less" unicode="&#x3c;" horiz-adv-x="249" 
d="M224 85q-27 -22 -55.5 -16t-52.5 34l-93 113q-24 27 -24 56q0 28 24 55l93 113q24 28 52.5 34t55.5 -16q26 -22 26 -52t-24 -56l-66 -78l66 -78q24 -27 24 -57t-26 -52zM26 272q0 -19 17 -38l94 -114q36 -44 69 -15q36 30 -1 71l-72 86q-8 11 0 20l72 85q37 41 1 71
q-33 29 -69 -15l-94 -114q-17 -19 -17 -37z" />
    <glyph glyph-name="equal" unicode="=" horiz-adv-x="323" 
d="M83 93q-37 0 -60.5 21t-23.5 62q0 65 54 81q-54 16 -54 79q0 42 23.5 63t60.5 21h155q37 0 61.5 -21t24.5 -63q0 -63 -56 -79q56 -16 56 -80v-1q0 -42 -24.5 -62.5t-61.5 -20.5h-155zM26 176q0 -56 57 -56h155q59 0 59 56q0 58 -59 58h-155q-57 0 -57 -58zM26 336
q0 -56 57 -56h155q59 0 59 56q0 57 -59 57h-155q-57 0 -57 -57z" />
    <glyph glyph-name="greater" unicode="&#x3e;" horiz-adv-x="249" 
d="M26 85q-26 22 -26 52t24 57l65 78l-65 78q-24 26 -24 56t26 52t55 16t52 -34l93 -113q24 -27 24 -55q0 -29 -24 -56l-93 -113q-23 -28 -52 -34t-55 16zM43 105q33 -29 69 15l94 114q17 19 17 38q0 18 -17 37l-94 114q-36 44 -69 15q-36 -30 1 -71l72 -85q8 -9 0 -20
l-72 -86q-37 -41 -1 -71z" />
    <glyph glyph-name="question" unicode="?" horiz-adv-x="298" 
d="M126 -31q-49 0 -74 28.5t-25 69.5q0 59 44 85q-33 25 -33 76v35q0 43 29 75q-37 4 -57.5 30t-20.5 62v33q0 61 42 102t96 41h48q56 0 95 -38.5t39 -109.5v-104q0 -51 -31.5 -85.5t-73.5 -37.5q0 -54 -26 -77q46 -25 46 -87q0 -40 -24 -69t-74 -29zM16 430
q0 -28 15.5 -46.5t44.5 -18.5q61 0 61 51v21q0 27 19 27q20 0 20 -26v-59q0 -31 -40 -34q-29 -2 -50 -25.5t-21 -56.5v-35q0 -65 58 -65q32 0 43 18t11 50v4q0 23 21 23q33 0 58.5 27t25.5 69v104q0 59 -30.5 90t-76.5 31h-48q-43 0 -77 -33t-34 -83v-33zM54 67
q0 -31 17.5 -51t54.5 -20t54 20t17 51t-17 51.5t-54 20.5q-36 0 -54 -20.5t-18 -51.5z" />
    <glyph glyph-name="at" unicode="@" horiz-adv-x="450" 
d="M189 -32q-78 0 -134.5 60.5t-55.5 149.5l2 153q1 91 58.5 153t136.5 62h59q79 0 137.5 -63t58.5 -155v-143q0 -95 -60 -156t-143 -61h-59zM26 177q-1 -77 47.5 -129.5t115.5 -52.5h59q72 0 124 53t52 137v143q0 81 -50.5 136t-118.5 55h-59q-68 0 -117.5 -54.5
t-50.5 -133.5zM94 176l2 155q1 50 31.5 85t68.5 35h59q40 0 70.5 -36t30.5 -87v-143q0 -55 -32.5 -88.5t-75.5 -33.5h-59q-37 0 -66.5 32.5t-28.5 80.5zM131 197q0 -43 17.5 -65.5t48.5 -22.5q29 0 47 18q8 8 10 -3q8 -18 27 -18q17 0 27 9.5t10 24.5v228q0 19 -11.5 31
t-28.5 12q-12 0 -22.5 -7t-12.5 -17q-2 -4 -5 -1q-14 19 -37 19q-33 0 -51.5 -22t-18.5 -66v-120zM209 210v99q0 17 16 17q15 0 15 -17l1 -99q0 -17 -16 -17t-16 17z" />
    <glyph glyph-name="A" unicode="A" horiz-adv-x="317" 
d="M82 -23q-38 0 -60.5 26t-22.5 61v380q0 75 45.5 117.5t104.5 42.5h28q62 0 101.5 -42t39.5 -116v-384q0 -37 -23 -61t-57 -24q-29 0 -49 16t-28 41q-20 -57 -79 -57zM26 64q0 -25 15 -42.5t41 -17.5q25 0 41 18t16 42v113q0 14 14 14h16q14 0 14 -14v-113
q0 -25 14.5 -42.5t41.5 -17.5q24 0 38 17t14 41v384q0 62 -32 96.5t-82 34.5h-28q-49 0 -86 -35.5t-37 -97.5v-380zM139 304v120q0 12 6 19.5t15 7.5t16 -8t7 -20v-119q0 -14 -14 -14h-16q-14 0 -14 14z" />
    <glyph glyph-name="B" unicode="B" horiz-adv-x="319" 
d="M84 -22q-43 0 -64 28t-21 66v438q0 38 21 66t64 28h87q71 0 110 -47t39 -121v-48q0 -65 -33 -96q32 -32 32 -88v-58q0 -73 -41 -120.5t-113 -47.5h-81zM26 72q0 -29 14 -48t44 -19h81q60 0 93.5 39t33.5 102v58q0 61 -46 85q-8 4 1 9q46 17 46 90v48q0 63 -31.5 102
t-90.5 39h-87q-58 0 -58 -67v-438zM136 129v105q0 14 14 14h4q9 0 16.5 -9t7.5 -22v-73q0 -13 -7 -21t-17 -8h-4q-14 0 -14 14zM136 355v97q0 14 14 14h4q10 0 17 -8t7 -21v-65q0 -13 -7.5 -22t-16.5 -9h-4q-14 0 -14 14z" />
    <glyph glyph-name="C" unicode="C" horiz-adv-x="304" 
d="M135 -21q-136 0 -136 156v312q0 76 41.5 117t101.5 41h43q56 0 95.5 -43t39.5 -109v-62q0 -40 -20 -69t-65 -29q-44 0 -68 26l-1 1l1 -56q22 27 61 27q37 0 60.5 -20t23.5 -62v-78q0 -79 -43.5 -115.5t-98.5 -36.5h-35zM26 135q0 -129 109 -129h35q46 0 80.5 29.5
t34.5 95.5v78q0 55 -57 55q-24 0 -38.5 -15t-14.5 -35v-74q0 -20 -17 -20q-18 0 -18 23l-1 272q0 41 17 41q11 0 14 -8.5t3 -31.5v-39q0 -26 16 -41.5t46 -15.5q58 0 58 71v62q0 55 -31.5 90t-76.5 35h-43q-50 0 -83 -33.5t-33 -97.5v-312z" />
    <glyph glyph-name="D" unicode="D" horiz-adv-x="315" 
d="M73 -21q-36 0 -55 21t-19 58v473q0 73 74 73h91q72 -1 112 -48.5t40 -119.5v-295q0 -68 -41.5 -115t-107.5 -47h-94zM26 58q0 -52 47 -52h94q54 0 88 38.5t34 96.5v295q0 62 -33 101t-92 40h-91q-26 0 -36.5 -11t-10.5 -35v-473zM135 133v311q0 14 14 14h4q10 0 17 -8
t7 -21v-279q0 -13 -7.5 -22t-16.5 -9h-4q-14 0 -14 14z" />
    <glyph glyph-name="E" unicode="E" horiz-adv-x="254" 
d="M84 -23q-43 0 -64 28t-21 66v439q0 38 21 66t64 28h95q37 0 64 -21.5t27 -65.5q0 -45 -27 -66.5t-64 -21.5h-14v-59h20q35 0 56.5 -20t21.5 -54q0 -35 -22 -55t-56 -20h-20v-69h14q37 0 64 -21.5t27 -66.5q0 -44 -27 -65.5t-64 -21.5h-95zM26 71q0 -29 14 -48t44 -19h95
q27 0 45.5 14.5t18.5 45.5t-18 46t-46 15h-27q-14 0 -14 14v95q0 14 14 14h33q51 0 51 48q0 47 -51 47h-33q-14 0 -14 14v85q0 14 14 14h27q28 0 46 15t18 46t-18.5 45.5t-45.5 14.5h-95q-30 0 -44 -19t-14 -48v-439z" />
    <glyph glyph-name="F" unicode="F" horiz-adv-x="248" 
d="M85 -23q-43 0 -64.5 28.5t-21.5 65.5v439q0 38 21 66t65 28h98q37 0 64 -21.5t27 -65.5q0 -45 -27 -66.5t-64 -21.5h-14v-79h18q35 0 56.5 -20t21.5 -54q0 -35 -22 -55t-56 -20h-18v-130q0 -41 -22 -67.5t-62 -26.5zM26 71q0 -28 14.5 -47.5t44.5 -19.5q57 0 57 67v143
q0 14 14 14h31q51 0 51 48q0 47 -51 47h-31q-14 0 -14 14v105q0 14 14 14h27q28 0 46 15t18 46t-18.5 45.5t-45.5 14.5h-98q-30 0 -44.5 -19t-14.5 -48v-439z" />
    <glyph glyph-name="G" unicode="G" horiz-adv-x="318" 
d="M249 -26q-32 0 -53 21q-29 -21 -71 -21q-55 0 -90.5 40.5t-35.5 99.5v333q0 75 43 116.5t104 41.5h46q58 0 97.5 -43t39.5 -109v-56q0 -67 -43 -91q40 -27 40 -82v-173q0 -34 -20.5 -55.5t-56.5 -21.5zM26 114q0 -49 27.5 -81t71.5 -32q49 0 68 30q4 5 7.5 3t4.5 -6
q12 -27 44 -27q50 0 50 50v173q0 30 -17 49.5t-42 19.5h-27q-36 0 -50.5 -20.5t-8 -43t24.5 -29.5q13 -3 13 -14v-35q0 -11 -3 -17q-8 -13 -22 -13q-10 0 -18 6t-8 18v270q0 22 4 31.5t15 9.5q20 0 20 -40v-35q0 -26 17 -42.5t47 -16.5q58 0 58 75v56q0 55 -32 90t-78 35
h-46q-50 0 -85 -34t-35 -97v-333z" />
    <glyph glyph-name="H" unicode="H" horiz-adv-x="328" 
d="M83 -24q-42 0 -63 28.5t-21 65.5v443q0 38 21 66t63 28q62 0 81 -62q16 62 80 62q44 0 64.5 -26.5t20.5 -64.5v-446q0 -37 -20.5 -64t-64.5 -27q-63 0 -80 59q-17 -62 -81 -62zM26 70q0 -28 14 -47.5t43 -19.5t44 19.5t15 47.5v160q0 14 14 14h17q14 0 14 -14v-160
q0 -64 57 -64q58 0 58 64v446q0 64 -58 64q-28 0 -42.5 -18t-14.5 -46v-163q0 -14 -14 -14h-18q-14 0 -14 14v160q0 29 -14.5 48t-43.5 19t-43 -19t-14 -48v-443z" />
    <glyph glyph-name="I" unicode="I" horiz-adv-x="166" 
d="M82 -25q-39 0 -61 26.5t-22 67.5v443q0 38 21 66t63 28q41 0 62.5 -28t21.5 -66v-443q0 -37 -21.5 -65.5t-63.5 -28.5zM26 69q0 -28 13.5 -47.5t42.5 -19.5t43.5 19.5t14.5 47.5v443q0 29 -14.5 48t-42.5 19q-29 0 -43 -19t-14 -48v-443z" />
    <glyph glyph-name="J" unicode="J" horiz-adv-x="274" 
d="M110 -20q-59 0 -100 43.5t-41 116.5v18q0 33 21 56.5t58 23.5q42 0 63 -30v312q0 35 22.5 61t59.5 26q38 0 60 -26t22 -61v-380q0 -75 -45 -117.5t-104 -42.5h-16zM-4 140q0 -61 33 -97t81 -36h16q48 0 85 35.5t37 97.5v380q0 25 -14.5 42.5t-40.5 17.5q-25 0 -40 -18
t-15 -42v-359q0 -26 -21 -26q-7 0 -13.5 7.5t-6.5 18.5q0 50 -49 50q-25 0 -38.5 -15.5t-13.5 -37.5v-18z" />
    <glyph glyph-name="K" unicode="K" horiz-adv-x="305" 
d="M81 -25q-40 0 -61 25.5t-21 68.5v446q0 39 19.5 65.5t62.5 26.5q41 0 60.5 -24t21.5 -60l8 21q13 34 42 51.5t71 0.5q34 -15 44.5 -49.5t-7.5 -73.5l-62 -163v-2l70 -206q27 -85 -48 -120q-34 -14 -67 4.5t-46 61.5l-5 18q-1 -42 -22 -66.5t-60 -24.5zM26 69
q0 -67 55 -67t55 67v125q0 9 7 9.5t9 -7.5l42 -140q9 -30 30.5 -44.5t45.5 -4.5q54 24 33 86l-70 207q-3 8 0 18l63 165q13 26 7.5 51.5t-29.5 36.5q-54 22 -78 -37l-44 -115q-4 -9 -10 -8t-6 11v93q0 65 -55 65t-55 -65v-446z" />
    <glyph glyph-name="L" unicode="L" horiz-adv-x="238" 
d="M81 -22q-37 0 -59.5 26.5t-22.5 67.5v440q0 42 21.5 68t60.5 26q42 0 63 -28t21 -66v-359h18q37 0 64 -21.5t27 -66.5q0 -44 -27 -65.5t-64 -21.5h-102zM26 72q0 -28 14 -47.5t41 -19.5h102q27 0 45.5 14.5t18.5 45.5t-18 46t-46 15h-31q-14 0 -14 14v372q0 29 -14 48
t-43 19q-55 0 -55 -67v-440z" />
    <glyph glyph-name="M" unicode="M" horiz-adv-x="417" 
d="M77 -26q-35 0 -56.5 24t-21.5 63v450q0 41 21.5 67.5t57.5 26.5t54.5 -18.5t32.5 -60.5l45 -136l42 136q13 42 31.5 60.5t55.5 18.5q36 0 57.5 -26.5t21.5 -67.5v-449q0 -40 -21.5 -64t-56.5 -24q-39 0 -60 24t-21 61v47q-19 -29 -51 -29q-30 0 -50 27v-43
q0 -37 -20.5 -62t-60.5 -25zM26 61q0 -27 13 -43.5t38 -16.5q54 0 54 60v157q0 9 6.5 10t8.5 -7l25 -82q10 -35 36 -35h2q25 0 36 35l25 79q3 10 9.5 8.5t6.5 -10.5v-157q0 -58 54 -58q25 0 38 17t13 44v449q0 28 -13 47.5t-39 19.5t-38 -13t-23 -48l-59 -188q-3 -9 -9 -9
t-9 9l-62 188q-12 36 -24 48.5t-37 12.5q-26 0 -39 -19.5t-13 -47.5v-450z" />
    <glyph glyph-name="N" unicode="N" horiz-adv-x="334" 
d="M80 -23q-38 0 -59.5 26t-21.5 63v445q0 41 22.5 67.5t58.5 26.5h2q61 0 83 -73l6 -20v9q0 37 21.5 61.5t61.5 24.5q39 0 60 -24t21 -62v-448q0 -41 -18.5 -67.5t-55.5 -26.5q-53 0 -73 60l-26 75v-48q0 -37 -21 -63t-61 -26zM26 66q0 -27 14 -44.5t40 -17.5q27 0 41 17.5
t14 44.5l-1 164q0 7 3 10t7 0.5t6 -8.5l63 -184q15 -42 48 -42q47 0 47 67v448q0 59 -54 59q-56 0 -56 -59v-130q0 -9 -6.5 -10.5t-9.5 8.5l-43 134q-4 12 -6 16.5t-9 16t-18 17t-25 5.5h-1q-26 0 -40 -19.5t-14 -47.5v-445z" />
    <glyph glyph-name="O" unicode="O" horiz-adv-x="323" 
d="M149 -20q-61 0 -105.5 42.5t-44.5 119.5v295q0 77 40 122.5t105 45.5h26q72 0 113 -47.5t41 -120.5v-295q0 -68 -42.5 -115t-105.5 -47h-27zM26 142q0 -65 36 -100t87 -35h27q51 0 86 39t35 96v295q0 63 -33.5 102t-93.5 39h-26q-53 0 -85.5 -37.5t-32.5 -103.5v-295z
M140 158v271q0 11 6 17t14 6q22 0 22 -25v-269q0 -27 -22 -27q-8 0 -14 7t-6 20z" />
    <glyph glyph-name="P" unicode="P" horiz-adv-x="313" 
d="M87 -24q-43 0 -65.5 26t-22.5 63v448q0 38 22.5 65t65.5 27h87q73 0 114 -47.5t41 -120.5v-97q0 -69 -41.5 -115.5t-107.5 -46.5h-9v-111q0 -37 -20 -64t-64 -27zM26 65q0 -27 15 -44.5t46 -17.5q57 0 57 64v124q0 14 14 14h22q54 0 88 38.5t34 96.5v97q0 63 -33.5 102
t-94.5 39h-87q-31 0 -46 -18.5t-15 -46.5v-448zM144 328v120q0 14 14 14h5q10 0 17.5 -8t7.5 -21v-88q0 -13 -8 -22t-17 -9h-5q-14 0 -14 14z" />
    <glyph glyph-name="Q" unicode="Q" horiz-adv-x="316" 
d="M275 -64q-34 -18 -63 -8t-48 43l-4 7h-14q-61 0 -104 42.5t-43 119.5v297q0 77 38.5 122.5t103.5 45.5h22q72 0 113 -47.5t41 -120.5v-297q0 -48 -21 -84l4 -6q20 -30 13.5 -63t-38.5 -51zM26 140q0 -65 34.5 -100t85.5 -35h23q5 0 12 -10l6 -11q29 -50 74 -25
q23 13 26 36t-10 41l-6 10q-6 9 0 20q19 33 19 74v297q0 63 -33.5 102t-93.5 39h-22q-53 0 -84 -37.5t-31 -103.5v-297zM137 156v273q0 11 6 17t14 6q22 0 22 -25v-271q0 -27 -22 -27q-8 0 -14 7t-6 20z" />
    <glyph glyph-name="R" unicode="R" horiz-adv-x="322" 
d="M85 -24q-44 0 -65 26t-21 63v446q0 38 21 66t65 28h89q72 0 113 -47.5t41 -120.5v-71q0 -50 -35 -90q33 -35 33 -87v-124q0 -37 -22.5 -63t-63.5 -26q-59 0 -78 49q-21 -49 -77 -49zM26 65q0 -62 59 -62q57 0 57 62v146q0 14 14 14h5q20 0 20 -31v-129q0 -27 14.5 -44.5
t44.5 -17.5q29 0 44 17.5t15 44.5v124q0 50 -36 77q-11 8 0 17q38 35 38 83v71q0 63 -33.5 102t-93.5 39h-89q-59 0 -59 -67v-446zM142 332v118q0 14 14 14h3q10 0 17 -8t7 -21v-86q0 -13 -7.5 -22t-16.5 -9h-3q-14 0 -14 14z" />
    <glyph glyph-name="S" unicode="S" horiz-adv-x="299" 
d="M142 -26q-55 0 -98.5 33.5t-43.5 113.5v31q0 49 38 70q-49 35 -49 105v119q0 76 41.5 117t101.5 41h41q57 0 97 -43t40 -109v-40q0 -69 -48 -89q43 -33 43 -110v-83q0 -72 -33 -114t-103 -42h-27zM16 327q0 -49 28 -76t77 -27h28q20 0 20 -24v-53q0 -29 -17 -29
q-19 0 -19 20v18q0 20 -12.5 34t-35.5 14q-58 0 -58 -52v-31q0 -66 34 -93t81 -27h27q109 0 109 129v83q0 58 -25.5 82t-73.5 24h-31q-20 0 -20 26v82q0 28 17 28q18 0 18 -30v-26q0 -56 62 -56q58 0 58 69v40q0 54 -32 89.5t-78 35.5h-41q-50 0 -83 -33.5t-33 -97.5v-119z
" />
    <glyph glyph-name="T" unicode="T" horiz-adv-x="255" 
d="M129 -26q-41 0 -62 26.5t-21 63.5v365q-34 3 -58 25t-24 62q0 44 28.5 65.5t65.5 21.5h141q37 0 64.5 -21.5t27.5 -65.5q0 -40 -23 -62.5t-56 -25.5v-364q0 -37 -21 -63.5t-62 -26.5zM-9 516q0 -31 19.5 -46t47.5 -15h1q14 0 14 -14v-377q0 -28 14 -45.5t42 -17.5
t42 17.5t14 45.5v376q0 14 14 14q28 0 46.5 15.5t18.5 46.5t-18.5 45.5t-46.5 14.5h-141q-28 0 -47.5 -14.5t-19.5 -45.5z" />
    <glyph glyph-name="U" unicode="U" horiz-adv-x="328" 
d="M147 -25q-62 0 -105 43.5t-43 116.5v385q0 35 22.5 60t60.5 25q64 0 82 -57q18 56 78 56q39 0 63 -25t24 -60v-384q0 -74 -45.5 -117t-105.5 -43h-31zM26 135q0 -61 35 -97t86 -36h31q50 0 87 35.5t37 97.5v384q0 24 -16.5 41t-43.5 17q-25 0 -40.5 -17t-15.5 -41v-358
q0 -12 -7 -19t-16 -7q-22 0 -22 27v358q0 25 -15.5 41.5t-43.5 16.5q-26 0 -41 -17t-15 -41v-385z" />
    <glyph glyph-name="V" unicode="V" horiz-adv-x="288" 
d="M144 -23q-37 0 -59 25t-29 62l-84 434q-8 41 7.5 69t53.5 35q80 13 95 -75l16 -89l18 89q8 40 31.5 60.5t60.5 14.5q79 -14 62 -105l-84 -432q-7 -37 -30.5 -62.5t-57.5 -25.5zM-2 503l84 -434q12 -65 62 -65q24 0 40 19.5t21 46.5l85 432q10 65 -40 73q-51 9 -62 -53
l-36 -190q-1 -6 -4.5 -9t-7 -0.5t-4.5 9.5l-34 190q-5 29 -19.5 43.5t-44.5 9.5q-53 -10 -40 -72z" />
    <glyph glyph-name="W" unicode="W" horiz-adv-x="400" 
d="M108 -25q-34 0 -56 24t-28 70l-53 432q-5 40 11.5 68.5t58.5 32.5q79 7 89 -76l1 8q4 33 24 50.5t46 17.5q33 0 50.5 -17t23.5 -53l4 -24l1 15q3 41 25.5 62t61.5 17q37 -4 53 -31.5t9 -69.5l-53 -435q-5 -45 -26.5 -68t-55.5 -23q-63 0 -80 89l-10 56l-9 -52
q-16 -93 -87 -93zM-2 505l53 -433q8 -70 57 -70t60 70l27 161q1 7 4.5 9.5t7 0t4.5 -9.5l29 -164q11 -67 54 -67q47 0 55 67l53 436q11 65 -38 70q-50 5 -57 -55l-17 -147q0 -6 -3.5 -8t-7 0t-4.5 7l-27 155q-4 26 -13.5 37t-33.5 11q-37 0 -43 -45l-24 -164q-1 -7 -7.5 -7
t-7.5 7l-15 150q-3 30 -16 46t-44 13q-53 -6 -46 -70z" />
    <glyph glyph-name="X" unicode="X" horiz-adv-x="289" 
d="M20 -17q-71 28 -45 112l63 204l-62 184q-12 31 -1 64t46 49q41 18 73 -2t43 -57l8 -29l9 30q12 39 43 56.5t66 2.5q71 -31 45 -110l-58 -178l62 -203q27 -94 -42 -123q-35 -14 -67 4.5t-44 56.5l-15 54l-14 -55q-10 -38 -42 -56.5t-68 -3.5zM1 87q-18 -60 29 -79
q26 -11 46.5 3t27.5 39l31 119q1 6 5 8.5t7.5 0.5t5.5 -9l32 -118q7 -25 28.5 -39t46.5 -4q47 19 26 90l-62 201q-3 9 0 18l58 178q18 55 -30 77q-25 11 -44.5 -2.5t-27.5 -39.5l-27 -88q-2 -7 -5.5 -9.5t-7 0t-5.5 9.5l-24 87q-8 26 -29.5 40.5t-49.5 1.5q-49 -22 -30 -80
l61 -184q3 -9 0 -18z" />
    <glyph glyph-name="Y" unicode="Y" horiz-adv-x="297" 
d="M152 -27q-38 0 -60 26.5t-22 67.5v127q0 4 -2 9l-94 280q-12 32 0 65.5t46 47.5q39 16 71.5 -3.5t43.5 -55.5l15 -51l16 52q12 37 43 56t67 3q68 -32 46 -110l-86 -285q-2 -6 -2 -10v-125q0 -41 -22 -67.5t-60 -26.5zM0 491l94 -280q3 -9 3 -17v-127q0 -28 13.5 -47.5
t41.5 -19.5t41.5 19.5t13.5 47.5v125q0 6 3 17l86 286q17 55 -31 77q-25 11 -45 -2.5t-28 -39.5l-35 -108q-2 -6 -5.5 -8.5t-7 0t-5.5 9.5l-30 106q-7 25 -29.5 39t-49.5 3q-23 -9 -31 -32.5t1 -47.5z" />
    <glyph glyph-name="Z" unicode="Z" horiz-adv-x="262" 
d="M78 -23q-45 0 -74.5 22.5t-29.5 72.5q0 34 17 79l99 268h-12q-40 0 -68.5 21.5t-28.5 69.5q0 49 28.5 72t68.5 23h92q57 0 87.5 -21t30.5 -74q0 -12 -2 -24t-4 -19t-4 -13.5t-2 -7.5l-107 -286h21q39 0 66.5 -22t27.5 -71q0 -45 -28 -67.5t-66 -22.5h-112zM1 72
q0 -68 77 -68h112q29 0 48 15.5t19 47.5q0 66 -67 66h-43q-16 0 -11 16l114 306q11 33 11 55q0 39 -21.5 53.5t-69.5 14.5h-92q-70 0 -70 -68q0 -64 70 -64h34q16 0 11 -16l-107 -289q-15 -34 -15 -69z" />
    <glyph glyph-name="bracketleft" unicode="[" horiz-adv-x="212" 
d="M111 -118q-47 0 -79.5 33t-32.5 79v575q0 47 32.5 79.5t79.5 32.5h51q34 0 57.5 -23.5t23.5 -57.5t-23.5 -57.5t-57.5 -23.5h-1v-475h1q34 0 57.5 -23.5t23.5 -57.5t-23.5 -57.5t-57.5 -23.5h-51zM26 -6q0 -35 25 -60t60 -25h51q22 0 38 15.5t16 38.5t-16 38.5t-38 15.5
h-14q-14 0 -14 14v501q0 14 14 14h14q22 0 38 16t16 38t-16 38t-38 16h-51q-35 0 -60 -25t-25 -60v-575z" />
    <glyph glyph-name="backslash" unicode="\" horiz-adv-x="182" 
d="M154 -76q-34 -7 -58 12.5t-29 54.5l-96 549q-7 33 8.5 58.5t48.5 31.5q35 7 58.5 -11.5t28.5 -52.5l97 -550q6 -34 -9.5 -60t-48.5 -32zM-3 545l97 -550q3 -22 17 -35.5t38 -9.5q23 4 31.5 21.5t4.5 39.5l-97 550q-8 51 -55 43q-23 -4 -31.5 -21t-4.5 -38z" />
    <glyph glyph-name="bracketright" unicode="]" horiz-adv-x="212" 
d="M51 -118q-34 0 -57.5 23.5t-23.5 57.5t23.5 57.5t57.5 23.5h1v475h-1q-34 0 -57.5 23.5t-23.5 57.5t23.5 57.5t57.5 23.5h51q46 0 79 -32.5t33 -79.5v-575q0 -46 -33 -79t-79 -33h-51zM-3 -37q0 -23 15.5 -38.5t38.5 -15.5h51q35 0 60 25t25 60v575q0 35 -25 60t-60 25
h-51q-23 0 -38.5 -16t-15.5 -38t15.5 -38t38.5 -16h14q14 0 14 -14v-501q0 -14 -14 -14h-14q-23 0 -38.5 -15.5t-15.5 -38.5z" />
    <glyph glyph-name="asciicircum" unicode="^" horiz-adv-x="229" 
d="M177 503q-21 0 -62 21q-42 -21 -62 -21q-21 0 -37.5 15t-16.5 40q0 4 0.5 7.5t1 6.5t2.5 7l3 6t4.5 7t5 7.5t6 9t6.5 9.5q40 54 87 54q46 0 86 -54q2 -3 6.5 -9.5t6 -9t5 -7.5t4.5 -7l3 -6t2.5 -7t1 -6.5t0.5 -7.5q0 -23 -14.5 -39t-38.5 -16zM26 558q0 -13 8 -20.5
t19 -7.5q15 0 52 19q10 4 20 0q37 -19 52 -19q11 0 18.5 7.5t7.5 20.5q0 10 -24 44q-31 43 -64 43q-34 0 -65 -43q-24 -34 -24 -44z" />
    <glyph glyph-name="underscore" unicode="_" horiz-adv-x="276" 
d="M84 -25q-36 0 -60.5 20.5t-24.5 60.5q0 41 24.5 61.5t60.5 20.5h105q36 0 62 -20.5t26 -61.5q0 -38 -24.5 -59.5t-63.5 -21.5h-105zM26 56q0 -54 58 -54h105q61 0 61 54q0 28 -17.5 41.5t-43.5 13.5h-105q-58 0 -58 -55z" />
    <glyph glyph-name="grave" unicode="`" horiz-adv-x="207" 
d="M87 507q-37 0 -62.5 23.5t-25.5 62.5q0 38 23 59t55 21q40 0 85 -36q28 -23 37 -37t9 -34q0 -27 -19 -43t-44 -16h-58zM26 593q0 -27 17.5 -43t43.5 -16h58q15 0 25.5 9t10.5 23t-6.5 22.5t-29.5 27.5q-38 30 -68 30q-22 0 -36.5 -13.5t-14.5 -39.5z" />
    <glyph glyph-name="a" unicode="a" horiz-adv-x="292" 
d="M220 -26q-33 0 -51 20q-27 -17 -66 -17q-52 0 -83 37.5t-31 102.5v51q0 73 41 106q-37 23 -37 71v45q0 58 41 98.5t91 40.5h31q59 0 98 -34.5t39 -104.5v-345q0 -29 -19.5 -50t-53.5 -21zM16 117q0 -54 23.5 -83.5t63.5 -29.5q42 0 66 23q9 6 12 -3q9 -23 39 -23
q21 0 33.5 12t12.5 32v345q0 58 -31 85t-79 27h-31q-39 0 -72 -33t-33 -79v-45q0 -24 15 -40.5t41 -16.5q49 0 49 45v21q0 26 21 26q19 0 19 -26v-56q0 -26 -19 -26h-38q-92 0 -92 -104v-51zM124 135v39q0 22 22 22q19 0 19 -22v-39q0 -22 -20 -22q-21 0 -21 22z" />
    <glyph glyph-name="b" unicode="b" horiz-adv-x="318" 
d="M81 -26q-39 0 -60.5 27.5t-21.5 70.5v481q0 37 23 63.5t65 26.5q38 0 60 -25.5t22 -59.5v-32h26q60 0 92 -36t32 -102v-263q0 -148 -115 -148q-38 0 -66 19q-20 -22 -57 -22zM26 72q0 -31 14.5 -51t40.5 -20q39 0 49 33q2 10 8 1q19 -31 66 -31q88 0 88 121v263
q0 111 -97 111h-37q-16 0 -16 16v43q0 24 -14.5 41t-40.5 17q-30 0 -45.5 -18.5t-15.5 -44.5v-481zM139 140v227q0 11 7.5 17.5t14.5 6.5q21 0 21 -24v-225q0 -12 -6.5 -17.5t-14.5 -5.5q-7 0 -14.5 5.5t-7.5 15.5z" />
    <glyph glyph-name="c" unicode="c" horiz-adv-x="282" 
d="M131 -22q-66 0 -99 43.5t-33 110.5v248q0 71 39 109.5t95 38.5h38q53 0 90 -40.5t37 -102.5v-50q0 -66 -46 -85q41 -20 41 -70v-59q0 -75 -41 -109t-93 -34h-28zM26 132q0 -58 26 -92.5t79 -34.5h28q43 0 75 27.5t32 88.5v59q0 26 -15 38.5t-38 12.5t-37 -13t-14 -33v-51
q0 -19 -15 -19q-17 0 -17 21v212q0 38 14 38q10 0 13 -8t3 -29v-28q0 -51 58 -51q53 0 53 65v50q0 51 -29 83.5t-71 32.5h-38q-46 0 -76.5 -31t-30.5 -90v-248zM157 238h1q9 9 19 13q-10 4 -20 12v-25z" />
    <glyph glyph-name="d" unicode="d" horiz-adv-x="318" 
d="M238 -24q-36 0 -58 25q-32 -21 -69 -21q-54 0 -83 36.5t-29 102.5v264q0 70 32 107.5t91 37.5h27v31q0 34 23.5 58.5t60.5 24.5q41 0 63.5 -26.5t22.5 -62.5v-494q0 -39 -23 -61t-58 -22zM26 119q0 -112 85 -112q48 0 72 34q3 3 3.5 2t3.5 -8q12 -32 48 -32q54 0 54 61
v489q0 26 -15 44t-44 18q-25 0 -41 -16.5t-16 -39.5v-38q0 -20 -16 -20h-38q-96 0 -96 -118v-264zM134 148v227q0 22 23 22q8 0 15 -5.5t7 -16.5v-229q0 -9 -7 -14t-15 -5q-23 0 -23 21z" />
    <glyph glyph-name="e" unicode="e" horiz-adv-x="290" 
d="M133 -22q-57 0 -95.5 34.5t-38.5 104.5v242q0 84 35.5 127t98.5 43h28q69 0 104.5 -45t35.5 -125v-76q0 -49 -33 -79q27 -19 29 -59v-28q0 -62 -39 -100.5t-93 -38.5h-32zM26 117q0 -58 30 -85t77 -27h32q43 0 74 31t31 81v24q0 50 -52 50q-23 0 -36 -14t-13 -34
t-3.5 -26t-16.5 -6q-19 0 -19 27v43q0 12 5.5 19t13.5 7h52q33 0 53 21.5t20 54.5v76q0 143 -113 143h-28q-107 0 -107 -143v-242zM130 303v59q0 19 19 19q21 0 21 -21v-57q0 -22 -21 -22q-19 0 -19 22z" />
    <glyph glyph-name="f" unicode="f" horiz-adv-x="229" 
d="M104 -24q-75 0 -82 74v250q-22 4 -37.5 22.5t-15.5 51.5t15 52t36 22v17q0 70 37.5 104.5t94.5 34.5q108 0 108 -84q0 -57 -47 -73q43 -18 43 -74q0 -34 -21.5 -54.5t-52.5 -20.5v-250q0 -30 -21.5 -51t-56.5 -21zM-4 374q0 -25 11 -37t28 -12q14 0 14 -16v-258
q5 -48 55 -48q22 0 36.5 12t14.5 33v263q0 10 5.5 12t20.5 2q19 0 33.5 12t14.5 36q0 26 -13 39.5t-32 13.5h-4q-21 0 -21 24q0 8 7.5 14t17.5 6q49 0 49 50q0 57 -81 57q-47 0 -76 -27t-29 -85v-20q0 -23 -18 -23q-33 0 -33 -48z" />
    <glyph glyph-name="g" unicode="g" horiz-adv-x="303" 
d="M138 -136q-70 0 -109.5 39t-39.5 100v33q0 54 38 92q-11 19 -11 44q0 23 11 42q-30 36 -30 86v80q0 63 39.5 106t97.5 43h29q18 0 36 -5q50 50 101 9q28 -23 28.5 -56t-23.5 -57l-3 -4q3 -17 3 -36v-67q0 -103 -65 -140q86 -26 86 -132v-38q0 -57 -39 -98t-110 -41h-39z
M16 3q0 -50 32 -81t90 -31h39q58 0 90 33t32 79v38q0 52 -26 81.5t-77 29.5h-47q-18 1 -18 16q0 14 19 15h20q108 0 108 130v67q0 18 -3 33q-3 11 4 18l6 7q15 16 16.5 35.5t-18.5 38.5q-35 28 -70 -12q-6 -6 -17 -3q-18 5 -33 5h-29q-47 0 -78.5 -35t-31.5 -87v-80
q0 -44 29 -76q8 -8 0 -19q-10 -15 -10 -33q0 -22 12 -39q7 -10 -2 -18q-37 -30 -37 -79v-33zM120 24q0 23 22 23h34q23 0 23 -23q0 -7 -5.5 -13.5t-17.5 -6.5h-36q-10 0 -15 6.5t-5 13.5zM132 304v64q0 23 23 23q19 0 19 -23v-66q0 -10 -6 -15t-13 -5q-23 0 -23 22z" />
    <glyph glyph-name="h" unicode="h" horiz-adv-x="324" 
d="M84 -23q-42 0 -63.5 26t-21.5 63v495q0 32 24 56.5t63 24.5q37 0 59 -26t22 -67v-29q21 8 44 8q57 0 85.5 -37.5t28.5 -99.5v-322q0 -37 -19.5 -62.5t-63.5 -25.5q-61 0 -80 51q-18 -55 -78 -55zM26 66q0 -62 58 -62q56 0 56 63v291q0 11 7 16.5t14 5.5q8 0 14.5 -5.5
t6.5 -16.5v-287q0 -63 60 -63q56 0 56 61v322q0 110 -87 110q-38 0 -59 -25q-12 -14 -12 4v69q0 29 -14 47.5t-40 18.5t-43 -18t-17 -39v-492z" />
    <glyph glyph-name="i" unicode="i" horiz-adv-x="169" 
d="M85 -24q-42 0 -63.5 28.5t-21.5 65.5v287q0 47 30 73q-41 26 -41 81q0 40 24 68t72 28t71.5 -28.5t23.5 -67.5q0 -56 -40 -81q28 -27 28 -70l1 -290q0 -37 -21 -65.5t-63 -28.5zM16 511q0 -30 17 -49t52 -19q68 0 68 68q0 69 -68 69q-35 0 -52 -19.5t-17 -49.5zM27 70
q0 -28 14.5 -47.5t43.5 -19.5t43 19.5t14 47.5v287q0 27 -14 46t-43 19t-43.5 -18.5t-14.5 -46.5v-287z" />
    <glyph glyph-name="j" unicode="j" horiz-adv-x="169" 
d="M2 -138q-33 0 -55.5 23t-22.5 56q0 31 21 54.5t57 23.5h8v337q0 51 25 75q-41 26 -41 81q0 40 24 68t72 28q49 0 72 -28t23 -68q0 -55 -38 -80q25 -22 25 -75v-336q0 -79 -44 -119t-105 -40h-21zM-49 -59q0 -21 14 -36.5t37 -15.5h21q50 0 86 33t36 99v336q0 13 -1 21.5
t-5.5 20.5t-16.5 18t-31 6q-30 0 -42 -16.5t-12 -50.5v-338q0 -26 -18 -26h-17q-24 0 -37.5 -15t-13.5 -36zM21 512q0 -30 17 -49t52 -19q68 0 68 68q0 69 -68 69q-35 0 -52 -19.5t-17 -49.5z" />
    <glyph glyph-name="k" unicode="k" horiz-adv-x="300" 
d="M80 -24q-38 0 -59.5 24.5t-21.5 65.5v488q0 40 21.5 64t59.5 24t59.5 -24t21.5 -64v-75q10 18 24.5 30.5t36 17t47.5 -7.5q34 -16 43.5 -50t-8.5 -71l-49 -116l69 -190q5 -19 6.5 -39t-12 -39.5t-40.5 -30.5q-33 -14 -64.5 3.5t-43.5 55.5l-9 25q0 -41 -21.5 -66
t-59.5 -25zM26 66q0 -63 54 -63t54 63v116q0 10 6.5 11t9.5 -9l45 -134q9 -26 29.5 -38.5t43.5 -3.5q50 21 31 75l-70 191q-3 10 1 18l49 117q13 24 8.5 49t-29.5 36q-52 23 -76 -34l-32 -77q-4 -10 -10 -8.5t-6 11.5v168q0 61 -54 61t-54 -61v-488z" />
    <glyph glyph-name="l" unicode="l" horiz-adv-x="181" 
d="M124 -27q-49 0 -87 34t-38 102v416q0 36 24.5 58.5t56.5 22.5q37 0 60 -22.5t23 -58.5v-395q22 0 38 -19t16 -57q0 -35 -24 -58t-69 -23zM26 109q0 -56 29 -82.5t69 -26.5q33 0 49.5 15t16.5 39q0 27 -12.5 38t-24.5 11q-17 0 -17 35v387q0 25 -15 39.5t-41 14.5
q-20 0 -37 -14t-17 -40v-416z" />
    <glyph glyph-name="m" unicode="m" horiz-adv-x="478" 
d="M237 -25q-59 0 -75 57q-18 -57 -78 -57q-43 0 -64 28.5t-21 65.5v386q0 34 20.5 55.5t56.5 21.5q35 0 55 -22q30 21 71 21q46 0 77 -28q33 26 78 26q58 0 90 -36.5t32 -96.5v-329q0 -38 -22.5 -65t-64.5 -27q-59 0 -78 54q-19 -54 -77 -54zM26 69q0 -28 14.5 -47.5
t43.5 -19.5t43 19.5t14 47.5v291q0 10 3 16q6 10 20 10q8 0 14.5 -5.5t6.5 -17.5v-297q0 -64 52 -64q56 0 56 64v295q0 12 4 17q7 6 18 6q8 0 14.5 -5.5t6.5 -17.5v-296q0 -63 56 -63q30 0 45 18.5t15 46.5v329q0 49 -24.5 77.5t-70.5 28.5t-71 -30q-8 -9 -16 1
q-24 31 -68 31q-46 0 -70 -31q-6 -10 -10 1q-11 31 -46 31q-50 0 -50 -50v-386z" />
    <glyph glyph-name="n" unicode="n" horiz-adv-x="330" 
d="M85 -24q-41 0 -63.5 26t-22.5 63v388q0 33 20.5 55.5t57.5 22.5q39 0 61 -27q30 22 73 22q59 0 89.5 -39t30.5 -99v-319q0 -37 -21 -64.5t-64 -27.5q-62 0 -80 57q-18 -58 -81 -58zM26 65q0 -27 15 -44.5t44 -17.5q58 0 58 63v284q0 11 3 17q8 11 20 11q8 0 15 -5.5
t7 -18.5v-287q0 -28 14 -45.5t44 -17.5t44 18.5t14 46.5v319q0 50 -23.5 80.5t-69.5 30.5q-49 0 -76 -33q-6 -10 -9 2q-9 36 -49 36q-25 0 -38 -14t-13 -37v-388z" />
    <glyph glyph-name="o" unicode="o" horiz-adv-x="303" 
d="M142 -23q-59 0 -101 39t-42 110v248q0 70 38 112t100 42h27q66 0 103 -43.5t37 -110.5v-248q0 -63 -38.5 -106t-95.5 -43h-28zM26 126q0 -58 34 -90t82 -32h28q45 0 76 35t31 87v248q0 57 -29.5 92t-83.5 35h-27q-51 0 -81 -34t-30 -93v-248zM133 145v216q0 19 18 19
q20 0 20 -21v-214q0 -22 -20 -22q-18 0 -18 22z" />
    <glyph glyph-name="p" unicode="p" horiz-adv-x="326" 
d="M86 -156q-40 0 -63.5 26t-23.5 58v524q0 35 20.5 56.5t56.5 21.5q38 0 58 -23q28 20 71 20q57 0 89.5 -40.5t32.5 -107.5v-255q0 -68 -34 -106.5t-95 -38.5h-28v-56q0 -30 -22.5 -54.5t-61.5 -24.5zM26 -72q0 -22 15.5 -39.5t44.5 -17.5q27 0 42 16t15 36v57
q0 11 6.5 18.5t14.5 7.5h34q49 0 75.5 30.5t26.5 87.5v255q0 56 -25 88.5t-70 32.5q-50 0 -72 -31q-6 -9 -9 2q-11 32 -48 32q-26 0 -38 -14.5t-12 -36.5v-524zM142 131v221q0 12 4 17q7 7 17 7q22 0 22 -22v-224q0 -22 -23 -22q-8 0 -16 6q-4 5 -4 17z" />
    <glyph glyph-name="q" unicode="q" horiz-adv-x="319" 
d="M233 -156q-37 0 -60.5 25t-23.5 55v58h-23q-60 0 -93.5 38t-33.5 107v258q0 64 32 103t84 39q45 0 73 -20q20 22 56 23q36 0 56 -22t20 -56v-523q0 -32 -22.5 -58.5t-64.5 -26.5zM26 127q0 -118 100 -118h30q8 0 14 -7t6 -19v-59q0 -20 16 -36.5t41 -16.5q30 0 45 17.5
t15 40.5v523q0 51 -48 51q-33 0 -48 -29q-4 -11 -11 -1q-24 27 -71 27q-41 0 -65 -31.5t-24 -83.5v-258zM136 137v219q0 22 21 22q9 0 16 -7q4 -5 4 -17v-216q0 -12 -4 -17q-5 -6 -15 -6q-22 0 -22 22z" />
    <glyph glyph-name="r" unicode="r" horiz-adv-x="299" 
d="M86 -24q-42 0 -64.5 28t-22.5 66v378q0 34 21 57t57 23q39 0 62 -30q27 17 62 17h1q56 0 84.5 -35.5t28.5 -85.5v-82q0 -34 -22 -59.5t-59 -25.5q-41 0 -62 26v-183q0 -37 -22 -65.5t-64 -28.5zM26 70q0 -28 15 -47.5t45 -19.5q29 0 44 19.5t15 47.5v275q0 10 3 16
q5 8 16 8q18 0 18 -21v-42q0 -52 52 -52q25 0 39.5 17t14.5 41v82q0 40 -21 67t-65 27t-67 -30q-6 -10 -9 2q-10 41 -49 41q-26 0 -38.5 -15.5t-12.5 -37.5v-378z" />
    <glyph glyph-name="s" unicode="s" horiz-adv-x="295" 
d="M136 -23q-23 0 -45 6.5t-44.5 20.5t-36 43t-13.5 68v9q0 50 40 72q-48 37 -48 113v74q0 70 39.5 108t95.5 38h48q54 0 94 -39.5t40 -101.5v-21q0 -56 -42 -80q37 -32 37 -104v-60q0 -67 -34.5 -106.5t-100.5 -39.5h-30zM16 309q0 -53 27.5 -82.5t76.5 -29.5h25
q10 0 14.5 -3.5t4.5 -15.5v-43q0 -21 -18 -21q-17 0 -17 19q0 18 -13 32t-35 14q-24 0 -40.5 -13t-16.5 -42v-9q0 -61 33.5 -86t78.5 -25h30q54 0 81 31.5t27 87.5v60q0 56 -23 79t-73 23h-34q-18 0 -18 26v52q0 26 18 26t18 -28v-8q0 -51 57 -51q29 0 44.5 18.5t15.5 46.5
v21q0 50 -31.5 82t-75.5 32h-48q-46 0 -77 -30.5t-31 -88.5v-74z" />
    <glyph glyph-name="t" unicode="t" horiz-adv-x="224" 
d="M145 -23q-52 0 -88.5 34.5t-36.5 104.5v259q-21 3 -36 22t-15 52t15.5 51.5t37.5 22.5v3q0 38 22.5 58.5t55.5 20.5q35 0 57 -21.5t22 -54.5v-5h3q31 0 52 -20t21 -54q0 -39 -19.5 -59.5t-50.5 -20.5h-2v-235q20 0 42.5 -17.5t22.5 -56.5q0 -38 -21.5 -61t-81.5 -23z
M-4 449q0 -48 33 -48q18 0 18 -19v-266q0 -57 28 -84.5t70 -27.5q46 0 61 14t15 43q0 49 -49 49q-16 0 -16 37v232q0 18 16 18h13q43 0 43 53q0 24 -13.5 35.5t-32.5 11.5q-11 0 -16 0.5t-9.5 3.5t-4.5 10v18q0 21 -14 35t-38 14q-21 0 -36 -12t-15 -40v-13q0 -16 -14 -16
q-17 0 -28 -11.5t-11 -36.5z" />
    <glyph glyph-name="u" unicode="u" horiz-adv-x="323" 
d="M119 -23q-58 0 -89 36.5t-31 96.5v326q0 37 21.5 64t63.5 27q62 0 78 -55q18 55 77 55q43 0 64 -29t21 -66v-379q0 -31 -20 -52.5t-58 -21.5q-35 0 -54 22q-31 -24 -73 -24zM26 110q0 -49 23.5 -77.5t69.5 -28.5q49 0 73 37q5 7 9 -5q12 -30 45 -30q51 0 51 47v379
q0 28 -14.5 48t-43.5 20t-43 -19.5t-14 -47.5v-291q0 -12 -7.5 -18t-15.5 -6q-7 0 -13.5 6.5t-6.5 17.5v295q0 63 -55 63q-30 0 -44 -18t-14 -46v-326z" />
    <glyph glyph-name="v" unicode="v" horiz-adv-x="282" 
d="M142 -26q-71 0 -84 68l-85 384q-9 37 6 64.5t54 35.5q39 6 63.5 -13.5t31.5 -55.5l13 -62l13 61q7 36 33 56.5t62 13.5q38 -7 54 -35.5t7 -65.5l-84 -383q-15 -68 -84 -68zM-1 432l85 -384q5 -24 17.5 -35.5t40.5 -11.5q27 0 39.5 11.5t17.5 35.5l85 383q6 25 -3.5 44
t-36.5 24q-26 5 -42.5 -10t-21.5 -39l-31 -148q-1 -6 -5 -8.5t-7.5 0t-4.5 8.5l-30 149q-12 57 -64 48q-52 -10 -39 -67z" />
    <glyph glyph-name="w" unicode="w" horiz-adv-x="439" 
d="M118 -23q-74 0 -86 74l-62 380q-6 38 12 65t58 32q78 7 91 -77l6 -45l15 65q5 24 24.5 40.5t43.5 16.5q33 0 48.5 -18.5t23.5 -51.5l14 -55l7 49q16 83 89 76q38 -4 55.5 -32.5t10.5 -67.5l-59 -377q-14 -74 -84 -74q-66 0 -82 72l-23 91l-18 -90q-15 -73 -84 -73z
M-3 435l62 -380q4 -25 16.5 -38t42.5 -13q29 0 40.5 12.5t16.5 38.5l35 169q1 6 5 8.5t7.5 0t4.5 -8.5l42 -169q12 -51 56 -51q48 0 57 51l59 378q5 25 -5 45t-37 23q-49 5 -59 -54l-22 -139q-1 -6 -4.5 -8.5t-7.5 0t-5 8.5l-35 143q-3 13 -5 19t-7 15t-13.5 12.5t-20.5 3.5
q-16 0 -27.5 -11t-14.5 -25l-36 -164q-1 -7 -5 -9t-7.5 1t-4.5 9l-21 145q-8 59 -61 54q-56 -7 -46 -66z" />
    <glyph glyph-name="x" unicode="x" horiz-adv-x="275" 
d="M16 -16q-66 28 -40 108l60 170l-57 154q-29 78 39 106q37 15 65 0t41 -50l11 -28l7 22q14 37 43 54.5t67 2.5q35 -14 44.5 -46t-5.5 -65l-54 -143l63 -179q13 -32 2.5 -62t-42.5 -44q-36 -15 -65.5 0.5t-40.5 50.5l-16 48l-16 -48q-12 -36 -41 -51t-65 0zM2 83
q-19 -56 24 -74q26 -11 44 0t26 34l33 99q3 9 9 9t9 -9l32 -99q8 -22 26 -33t44 -1q44 20 25 72l-63 178q-3 8 0 18l55 144q22 59 -24 77q-27 11 -46 -2.5t-28 -38.5l-24 -70q-3 -9 -9 -9t-9 9l-27 76q-20 54 -71 34q-44 -18 -24 -72l58 -154q3 -10 0 -18z" />
    <glyph glyph-name="y" unicode="y" horiz-adv-x="315" 
d="M153 -135q-57 0 -108 38.5t-51 103.5v23q0 55 47 75q-52 42 -52 125v209q0 36 20 63.5t64 27.5q60 0 77 -49q20 49 83 49q45 0 64 -27t19 -60v-435q0 -67 -40.5 -105t-97.5 -38h-25zM16 230q0 -63 32.5 -95.5t87.5 -32.5h31q17 0 17 -21v-54q0 -26 -20 -26q-24 0 -24 29
q0 23 -17 39.5t-43 16.5q-28 0 -43.5 -16t-15.5 -40v-23q0 -52 42 -83.5t90 -31.5h25q47 0 79 30.5t32 85.5v435q0 13 -3.5 25t-17 23.5t-35.5 11.5q-62 0 -62 -61v-216q0 -22 -19 -22q-22 0 -22 22v216q0 61 -57 61t-57 -64v-209z" />
    <glyph glyph-name="z" unicode="z" horiz-adv-x="232" 
d="M70 -22q-42 0 -69 21t-27 70q0 28 15 67l77 212h-1q-37 0 -62 21t-25 67t25 68.5t62 22.5h85q108 0 108 -91q0 -13 -2.5 -25t-5.5 -21l-3 -9l-83 -226h6q35 0 60.5 -21.5t25.5 -68.5q0 -43 -25 -65t-61 -22h-100zM1 69q0 -64 69 -64h100q26 0 42.5 14.5t16.5 45.5
q0 63 -59 63h-28q-16 0 -11 16l90 246q10 30 10 46q0 34 -19.5 49t-61.5 15h-85q-60 0 -60 -64q0 -61 60 -61h23q16 0 11 -16l-85 -232q-13 -35 -13 -58z" />
    <glyph glyph-name="braceleft" unicode="{" horiz-adv-x="243" 
d="M142 -118q-46 0 -79 33t-33 79v192q0 2 -15 14q-46 38 -46 83q0 20 9 38t16 25t20 19q16 15 16 19v185q0 47 33 79.5t79 32.5h51q34 0 57.5 -23t23.5 -57t-23.5 -56.5t-57.5 -22.5h-4v-145q0 -53 -41 -92q41 -37 41 -92v-152h4q34 0 57.5 -22.5t23.5 -56.5t-23.5 -57
t-57.5 -23h-51zM-4 283q0 -25 15 -41.5t30.5 -29t15.5 -26.5v-192q0 -35 25 -60t60 -25h51q23 0 38.5 15.5t15.5 37.5t-15.5 37t-38.5 15h-17q-14 0 -14 14v165q0 60 -52 85q-11 6 0 11q52 31 52 88v158q0 14 14 14h17q23 0 38.5 15t15.5 37t-15.5 37.5t-38.5 15.5h-51
q-35 0 -60 -25t-25 -60v-185q0 -15 -15 -28.5t-30.5 -31t-15.5 -41.5z" />
    <glyph glyph-name="bar" unicode="|" horiz-adv-x="167" 
d="M84 -22q-43 0 -64 28.5t-21 65.5v440q0 36 21 64t64 28q42 0 63 -28t21 -64v-440q0 -37 -21 -65.5t-63 -28.5zM26 72q0 -28 14.5 -47.5t43.5 -19.5t43 19.5t14 47.5v440q0 27 -14 46t-43 19t-43.5 -18.5t-14.5 -46.5v-440z" />
    <glyph glyph-name="braceright" unicode="}" horiz-adv-x="243" 
d="M50 -118q-33 0 -57 23.5t-24 56.5q0 34 23.5 56.5t57.5 22.5h4v152q0 57 40 91q-40 40 -40 93v145h-4q-33 0 -57 23t-24 56t24 56.5t57 23.5h51q47 0 79.5 -32.5t32.5 -79.5v-185q0 -4 17 -19q14 -13 20 -19t15 -24.5t9 -38.5q0 -45 -46 -83q-15 -12 -15 -14v-192
q0 -46 -32.5 -79t-79.5 -33h-51zM-4 -38q0 -22 15.5 -37.5t38.5 -15.5h51q35 0 60 25t25 60v192q0 14 15 26.5t30.5 29t15.5 41.5q0 19 -9.5 34t-21 23.5t-21 20t-9.5 23.5v185q0 35 -25 60t-60 25h-51q-23 0 -38.5 -15.5t-15.5 -37.5t15.5 -37t38.5 -15h17q14 0 14 -14
v-158q0 -30 15.5 -53t36.5 -35q10 -6 0 -11q-52 -25 -52 -85v-165q0 -14 -14 -14h-17q-23 0 -38.5 -15t-15.5 -37z" />
    <glyph glyph-name="asciitilde" unicode="~" horiz-adv-x="290" 
d="M190 484q-39 0 -73 34q-19 -29 -54 -29q-27 0 -45.5 18.5t-18.5 45.5q0 57 27.5 88t72.5 31q43 0 74 -29q17 29 52 29h1q27 0 46 -19t19 -46q0 -57 -28.5 -90t-72.5 -33zM26 553q0 -16 10.5 -26.5t26.5 -10.5q15 0 25.5 10.5t12.5 26.5q2 15 14 5q3 -3 12.5 -13
t13.5 -13.5t12.5 -9.5t17.5 -8.5t19 -2.5q32 0 53 25t21 71q0 16 -11 27t-27 11t-26.5 -11t-10.5 -27v-7q0 -3 -1.5 -4.5t-4 -1t-4.5 2.5l-12 13q-13 14 -19.5 19.5t-19 10.5t-29.5 5q-34 0 -53.5 -23t-19.5 -69z" />
    <glyph glyph-name="exclamdown" unicode="&#xa1;" horiz-adv-x="167" 
d="M86 -100q-41 0 -62.5 28t-21.5 64v279q0 49 30 75q-43 25 -43 85q0 40 24 68t73 28q48 0 72.5 -28.5t24.5 -67.5q0 -59 -43 -85q29 -24 31 -71v-283q0 -36 -21 -64t-64 -28zM16 431q0 -31 17 -51t53 -20t53 20t17 51q0 30 -17 49.5t-53 19.5t-53 -19.5t-17 -49.5zM29 -8
q0 -27 14 -46t43 -19t43.5 18.5t14.5 46.5v279q0 28 -14.5 47.5t-43.5 19.5t-43 -19.5t-14 -47.5v-279z" />
    <glyph glyph-name="cent" unicode="&#xa2;" horiz-adv-x="282" 
d="M148 -98q-40 0 -60 24.5t-21 60.5v6q-68 35 -68 139v248q0 93 66 130v6q1 35 21 59.5t60 24.5q41 0 61.5 -24t20.5 -61v-2q32 -17 51 -51t19 -77v-50q0 -66 -46 -85q41 -20 41 -70v-59q0 -88 -63 -125v-9q0 -37 -20.5 -61t-61.5 -24zM26 132q0 -90 57 -117q11 -5 11 -16
v-12q2 -58 54 -58q55 0 55 58v14q0 11 10 17q53 26 53 103v59q0 26 -15 38.5t-38 12.5t-37 -13t-14 -33v-51q0 -19 -15 -19q-17 0 -17 21v212q0 38 14 38q10 0 13 -8t3 -29v-28q0 -51 58 -51q53 0 53 65v50q0 37 -16.5 65t-42.5 41q-11 6 -11 17v7q0 58 -55 58
q-52 0 -54 -58v-10q0 -11 -10 -17q-56 -29 -56 -108v-248z" />
    <glyph glyph-name="sterling" unicode="&#xa3;" horiz-adv-x="329" 
d="M67 -22q-22 0 -50 22.5t-28 64.5q0 78 66 93q5 1 5 11v70q-31 4 -47.5 23.5t-16.5 47.5q0 33 17.5 52t46.5 23v40q0 99 46.5 139.5t141.5 40.5q43 0 68 -22.5t25 -58.5q0 -35 -24.5 -59t-59.5 -24q-22 0 -26 -4t-4 -28v-23h19q39 0 61.5 -20.5t22.5 -54.5
q0 -33 -22 -53.5t-61 -20.5h-20v-48q0 -17 -3 -35h30q38 0 64.5 -22.5t26.5 -66.5t-27 -65.5t-64 -21.5h-187zM16 65q0 -29 18.5 -44.5t32.5 -15.5h187q28 0 46 14.5t18 45.5q0 32 -18.5 47t-45.5 15h-51q-16 0 -10 16q7 18 7 46v61q0 14 14 14h33q56 0 56 47q0 48 -57 48
h-32q-14 0 -14 14v36q0 36 14 47.5t43 11.5q24 0 40.5 16t16.5 40q0 25 -17 39.5t-49 14.5q-85 0 -123 -33t-38 -120v-52q0 -14 -10 -14q-54 0 -54 -49q0 -45 54 -45q10 0 10 -14v-82q0 -31 -26 -38q-45 -10 -45 -66z" />
    <glyph glyph-name="currency" unicode="&#xa4;" horiz-adv-x="353" 
d="M288 85q-26 0 -46 21q-30 -8 -65 -8q-36 0 -65 8q-20 -20 -44 -21.5t-44 16.5q-23 18 -24.5 45.5t15.5 48.5q-11 36 -11 83v49q0 43 11 74q-17 21 -15.5 48.5t24.5 45.5q17 16 41 16q27 0 48 -22q30 7 62 7h1q32 0 64 -7q20 21 44.5 22.5t45.5 -16.5q22 -18 23.5 -45.5
t-15.5 -48.5q11 -33 11 -74v-49q0 -47 -11 -83q17 -21 15.5 -48.5t-24.5 -45.5q-17 -16 -41 -16zM31 278q0 -45 11 -78q5 -11 -3 -19l-1 -1q-12 -12 -12.5 -27.5t15.5 -30.5q29 -27 57 9q5 5 16 2q27 -8 63 -8q38 0 65 9q8 3 13 -3q28 -36 57 -9q16 15 15.5 30.5t-12.5 27.5
l-1 1q-8 8 -3 19q11 35 11 78v49q0 38 -11 69q-4 12 3 19l1 1q12 12 12.5 27.5t-15.5 30.5q-29 27 -57 -9q-5 -7 -17 -4q-29 8 -62 8q-31 0 -61 -7q-10 -4 -17 3q-28 36 -57 9q-16 -15 -15 -30t12 -28q7 -8 4 -20q-11 -30 -11 -69v-49zM99 278v49q0 46 15.5 60t61.5 14
t62 -14t16 -60v-49q0 -53 -16 -69t-61 -16q-47 0 -62.5 16t-15.5 69zM124 283q0 -39 10.5 -51t42.5 -12q30 0 41 12t11 51v37q0 33 -11 43.5t-42 10.5t-41.5 -10t-10.5 -44v-37z" />
    <glyph glyph-name="yen" unicode="&#xa5;" horiz-adv-x="300" 
d="M155 -24q-38 0 -60 27t-22 67v13h-12q-38 0 -58 19.5t-20 50.5q0 45 33 65q-33 16 -33 60q0 57 47 70l-52 137q-32 83 45 115q38 16 71.5 -4t43.5 -56l14 -50l18 52q11 38 42 56.5t67 2.5q72 -32 46 -111l-51 -144q43 -16 43 -67q0 -45 -35 -62q35 -18 35 -63
q0 -33 -20.5 -52t-59.5 -19v-13q0 -41 -21.5 -67.5t-60.5 -26.5zM3 495l59 -154q7 -16 -1 -16q-51 0 -51 -47q0 -43 51 -43h25q14 0 14 -14v-7q0 -14 -14 -14h-25q-51 0 -51 -47q0 -43 51 -43h25q14 0 14 -14v-26q0 -28 13.5 -47.5t41.5 -19.5t41.5 19.5t13.5 47.5v26
q0 14 14 14h13q53 0 53 44q0 46 -54 46h-12q-14 0 -14 14v7q0 14 14 14h13q53 0 53 44q0 39 -36 45q-15 2 -11 16l56 159q18 54 -31 77q-25 11 -45 -2.5t-28 -39.5l-35 -107q-2 -6 -5.5 -8.5t-7 -0.5t-5.5 9l-30 106q-7 25 -30 39t-49 3q-53 -21 -30 -80z" />
    <glyph glyph-name="brokenbar" unicode="&#xa6;" horiz-adv-x="167" 
d="M84 298q-43 0 -64 28.5t-21 65.5v120q0 36 21 64t64 28q42 0 63 -28t21 -64v-120q0 -37 -21 -65.5t-63 -28.5zM-1 72v120q0 36 21 64t64 28q42 0 63 -28t21 -64v-120q0 -37 -21 -65.5t-63 -28.5q-43 0 -64 28.5t-21 65.5zM26 72q0 -28 14.5 -47.5t43.5 -19.5t43 19.5
t14 47.5v120q0 27 -14 46t-43 19t-43.5 -18.5t-14.5 -46.5v-120zM26 392q0 -28 14.5 -47.5t43.5 -19.5t43 19.5t14 47.5v120q0 27 -14 46t-43 19t-43.5 -18.5t-14.5 -46.5v-120z" />
    <glyph glyph-name="section" unicode="&#xa7;" horiz-adv-x="309" 
d="M142 -23q-55 0 -98.5 33.5t-43.5 109.5v9q0 47 41 69q-50 30 -51 100l-1 93v55q0 76 41.5 117t101.5 41h41q57 0 97 -43t40 -109v-12q0 -60 -45 -82q40 -32 40 -86v-139q0 -156 -136 -156h-27zM16 391l1 -93q1 -93 105 -93h28q20 0 20 -20l-1 -35q0 -29 -17 -29
q-19 0 -19 19q0 41 -48 41q-24 0 -41 -13t-17 -39v-9q0 -62 34 -89t81 -27h27q109 0 109 129v139q0 39 -27 62.5t-72 23.5h-31q-20 0 -20 28v44q0 25 17 25q18 0 18 -27q0 -23 16 -37t46 -14q58 0 58 63v12q0 54 -32 89.5t-78 35.5h-41q-50 0 -83 -33.5t-33 -97.5v-55z
M122 278v2q0 22 19 23h18q17 0 17 -21q0 -20 -15 -22h-23q-16 0 -16 18z" />
    <glyph glyph-name="dieresis" unicode="&#xa8;" horiz-adv-x="283" 
d="M81 503q-40 0 -61 24.5t-21 57.5t20.5 56.5t61.5 23.5q39 0 61 -25q22 24 58 25h3q41 0 61 -24.5t20 -56.5q0 -33 -20 -57t-61 -24q-39 0 -61 25q-22 -25 -61 -25zM26 585q0 -23 13.5 -39t41.5 -16q27 0 40 16t13 39t-13 38t-40 15q-28 0 -41.5 -15t-13.5 -38zM149 584
q0 -23 13.5 -38.5t40.5 -15.5q54 0 54 54q0 23 -13 38.5t-41 15.5q-27 0 -40.5 -15.5t-13.5 -38.5z" />
    <glyph glyph-name="copyright" unicode="&#xa9;" horiz-adv-x="450" 
d="M189 -32q-78 0 -134.5 60.5t-55.5 149.5l2 153q1 91 58.5 153t136.5 62h59q79 0 137.5 -63t58.5 -155v-143q0 -97 -60.5 -157t-142.5 -60h-59zM25 177q-1 -77 48 -129.5t116 -52.5h59q71 0 123.5 52.5t52.5 137.5v143q0 81 -50.5 136t-118.5 55h-59q-68 0 -117.5 -54.5
t-50.5 -133.5zM94 176l2 155q1 50 31.5 85t68.5 35h59q40 0 70.5 -36t30.5 -87v-143q0 -56 -33 -89t-75 -33h-59q-37 0 -66.5 32.5t-28.5 80.5zM131 315l1 -111q2 -101 83 -101h21q34 0 59.5 22t25.5 71v12q0 19 -11.5 29.5t-29.5 10.5t-28.5 -11.5t-10.5 -27.5v-9
q0 -8 -5 -12.5t-10 -4.5q-16 0 -16 18v108q0 22 13 22q16 0 16 -21q0 -17 12 -28.5t33 -11.5q40 0 40 51q0 38 -22 64t-55 26h-30q-37 0 -62 -25t-24 -71z" />
    <glyph glyph-name="ordfeminine" unicode="&#xaa;" horiz-adv-x="239" 
d="M176 246q-22 0 -38 14q-21 -11 -46 -11q-43 0 -68 30.5t-25 84.5v120q0 55 26.5 85t70.5 30q17 0 35 -9q20 15 42 15q30 0 48.5 -20.5t18.5 -49.5v-228q0 -28 -18.5 -44.5t-45.5 -16.5zM26 364q0 -43 17.5 -65.5t48.5 -22.5q27 0 47 17q7 7 11 -3q8 -17 26 -17
q17 0 27 9.5t10 24.5v228q0 19 -11.5 31t-28.5 12q-23 0 -33 -19q-5 -8 -10 -2q-15 15 -34 15q-33 0 -51.5 -22t-18.5 -66v-120zM104 379v94q0 20 16 20q5 0 10 -6t5 -14v-94q0 -19 -16 -19q-15 0 -15 19z" />
    <glyph glyph-name="guillemotleft" unicode="&#xab;" horiz-adv-x="429" 
d="M224 135q-27 -22 -55.5 -16t-52.5 34l-93 113q-24 27 -24 56q0 28 24 55l93 113q24 28 52.5 34t55.5 -16q41 -34 19 -83l53 65q24 28 52.5 34t55.5 -16q26 -22 26 -52t-24 -56l-66 -78l66 -78q24 -27 24 -57t-26 -52q-27 -22 -55.5 -16t-52.5 34l-54 65q23 -48 -18 -83z
M26 322q0 -19 17 -38l94 -114q36 -44 69 -15q36 30 -1 71l-72 86q-8 11 0 20l72 85q37 41 1 71q-33 29 -69 -15l-94 -114q-17 -19 -17 -37zM160 322l26 -32q-7 15 -7 32q0 14 8 32zM206 322q0 -19 17 -38l94 -114q36 -44 69 -15q36 30 -1 71l-72 86q-8 11 0 20l72 85
q37 41 1 71q-33 29 -69 -15l-94 -114q-17 -19 -17 -37z" />
    <glyph glyph-name="logicalnot" unicode="&#xac;" horiz-adv-x="340" 
d="M254 64q-44 0 -66 27t-22 64v18h-73q-38 0 -66 21t-28 63q0 39 26.5 60.5t67.5 21.5h154q41 0 67.5 -22.5t26.5 -59.5v-102q0 -37 -21.5 -64t-65.5 -27zM26 257q0 -29 19 -43t48 -14h86q14 0 14 -14v-31q0 -28 15 -46t46 -18t45.5 18.5t14.5 45.5v102q0 27 -19.5 41
t-47.5 14h-154q-67 0 -67 -55z" />
    <glyph glyph-name="registered" unicode="&#xae;" horiz-adv-x="450" 
d="M189 -32q-78 0 -134.5 60.5t-55.5 149.5l2 153q1 91 58.5 153t136.5 62h59q79 0 137.5 -63t58.5 -155v-143q0 -97 -60.5 -157t-142.5 -60h-59zM25 177q-1 -77 48 -129.5t116 -52.5h59q71 0 123.5 52.5t52.5 137.5v143q0 81 -50.5 136t-118.5 55h-59q-68 0 -117.5 -54.5
t-50.5 -133.5zM94 176l2 155q1 50 31.5 85t68.5 35h59q40 0 70.5 -36t30.5 -87v-143q0 -56 -33 -89t-75 -33h-59q-37 0 -66.5 32.5t-28.5 80.5zM139 158q0 -42 39 -42q36 0 36 42v58h12q14 0 14 -21v-40q0 -41 39 -41q20 0 30.5 11.5t10.5 29.5v36q0 31 -21 48q-9 10 0 18
q20 22 20 50q0 40 -23 67t-62 27h-57q-38 0 -38 -45v-198zM214 291v20q0 14 11 14q16 0 16 -19v-7q0 -22 -16 -22q-11 0 -11 14z" />
    <glyph glyph-name="macron" unicode="&#xaf;" horiz-adv-x="240" 
d="M79 506q-38 0 -59 19.5t-21 52.5t21 52t59 19h80q38 0 60 -18.5t22 -52.5q0 -35 -22 -53.5t-60 -18.5h-80zM26 578q0 -45 53 -45h80q55 0 55 45q0 44 -55 44h-80q-53 0 -53 -44z" />
    <glyph glyph-name="degree" unicode="&#xb0;" horiz-adv-x="224" 
d="M105 240q-43 0 -74.5 29.5t-31.5 81.5v142q0 52 28 83t75 31h19q49 0 76.5 -32.5t27.5 -81.5v-142q0 -47 -28.5 -79t-71.5 -32h-20zM26 351q0 -40 23 -62t56 -22h20q31 0 52 24t21 60v142q0 39 -20.5 63t-56.5 24h-19q-35 0 -55.5 -23t-20.5 -64v-142zM98 362v122
q0 15 14 15q15 0 15 -16v-121q0 -17 -15 -17q-14 0 -14 17z" />
    <glyph glyph-name="plusminus" unicode="&#xb1;" horiz-adv-x="380" 
d="M84 48q-36 0 -60.5 20.5t-24.5 60.5q0 41 24.5 61.5t60.5 20.5h36q-21 24 -21 63v22h-25q-36 0 -60.5 20.5t-24.5 60.5q0 41 24.5 61.5t60.5 20.5h25v24q0 36 20.5 60.5t60.5 24.5q41 0 61.5 -24t20.5 -61v-24h21q36 0 62 -20t26 -62q0 -38 -24.5 -59.5t-63.5 -21.5h-21
v-22q0 -40 -22 -63h53q36 0 62 -20t26 -62q0 -38 -24.5 -59.5t-63.5 -21.5h-209zM16 377q0 -54 58 -54h38q14 0 14 -14v-35q0 -61 54 -61q28 0 41.5 17.5t13.5 43.5v35q0 14 14 14h34q61 0 61 54q0 28 -17.5 41.5t-43.5 13.5h-34q-14 0 -14 14v37q0 58 -55 58q-54 0 -54 -58
v-37q0 -14 -14 -14h-38q-58 0 -58 -55zM26 129q0 -54 58 -54h209q61 0 61 54q0 28 -17.5 41.5t-43.5 13.5h-209q-58 0 -58 -55z" />
    <glyph glyph-name="uni00B2" unicode="&#xb2;" horiz-adv-x="203" 
d="M62 208q-31 0 -50 21t-19 55v7q0 39 35 86l25 34h-1q-28 0 -45.5 18.5t-17.5 49.5v25q0 44 28 73t66 29h24q41 0 69 -29.5t28 -79.5v-28q0 -54 -34 -99l-28 -38q28 -1 44.5 -18t16.5 -44t-17 -44.5t-46 -17.5h-78zM16 479q0 -41 36 -41q34 0 34 34v15q0 18 12 18
q15 0 15 -17v-21q0 -19 -17 -43l-46 -63q-12 -16 -16.5 -23t-9 -19.5t-4.5 -27.5v-7q0 -49 42 -49h78q36 0 36 35t-36 35h-29q-8 0 -11 4.5t2 12.5l46 64q29 36 29 83v28q0 38 -20 60t-50 22h-24q-27 0 -47 -21t-20 -54v-25z" />
    <glyph glyph-name="uni00B3" unicode="&#xb3;" horiz-adv-x="203" 
d="M95 206q-36 0 -66 23t-30 75v26q0 41 35 54l1 1q-3 9 -3 20q0 6 2 14q-45 13 -45 66v17q0 45 28 73.5t67 28.5h23q41 0 69 -27.5t28 -77.5v-45q0 -29 -15 -49q15 -22 15 -50l-1 -45q-2 -104 -92 -104h-16zM16 485q0 -42 37 -42q33 0 33 33v11q0 16 14 16q13 0 13 -17v-36
q0 -17 -13 -17h-9q-32 0 -32 -28t33 -28h9q12 0 12 -19v-41q0 -14 -13 -14q-12 0 -12 13v17q0 12 -7 20.5t-20 8.5q-35 0 -35 -32v-26q0 -39 20.5 -55t48.5 -16h16q34 0 49 19.5t16 57.5l1 45q0 31 -21 46q-6 4 0 9q21 13 21 44v45q0 38 -20 58t-50 20h-23q-28 0 -48 -21
t-20 -54v-17z" />
    <glyph glyph-name="acute" unicode="&#xb4;" horiz-adv-x="207" 
d="M62 507q-25 0 -44 16t-19 43q0 20 9 34t37 37q45 36 85 36q33 0 55.5 -21t22.5 -59q0 -39 -25.5 -62.5t-62.5 -23.5h-58zM26 566q0 -14 10.5 -23t25.5 -9h58q26 0 43.5 16t17.5 43q0 26 -14.5 39.5t-36.5 13.5q-30 0 -68 -30q-23 -19 -29.5 -27.5t-6.5 -22.5z" />
    <glyph glyph-name="uni00B5" unicode="&#xb5;" horiz-adv-x="345" 
d="M69 -118q-32 0 -51 22t-19 56v469q0 37 21.5 64t63.5 27q59 0 77 -52q18 58 78 58q43 0 64 -29t21 -66v-294q0 -21 13 -34q23 -21 24 -53t-24 -56q-25 -23 -53 -21t-52 26l-1 1q-23 -21 -56 -21q-16 0 -34 5v-23q0 -34 -19.5 -56.5t-52.5 -22.5zM26 -40q0 -22 10.5 -36.5
t32.5 -14.5q23 0 34 15t11 37v54q0 17 14 6q20 -15 47 -15q30 0 47 25q7 10 17 0q1 -2 4 -5q41 -45 76 -12q17 18 15 37.5t-16 32.5q-21 21 -21 53v294q0 28 -14.5 48t-43.5 20t-43 -19.5t-14 -47.5l-1 -290q0 -10 -7 -16t-15 -6q-7 0 -13.5 6.5t-6.5 17.5v286q0 63 -55 63
q-30 0 -44 -18t-14 -46v-469z" />
    <glyph glyph-name="paragraph" unicode="&#xb6;" horiz-adv-x="390" 
d="M192 -100q-32 0 -50 20.5t-18 52.5v138q-56 8 -90.5 53t-34.5 107q0 73 41 120.5t114 47.5h38q48 0 65 -42q15 42 63 42q32 0 51.5 -20.5t19.5 -53.5v-393q0 -33 -19.5 -52.5t-51.5 -19.5q-47 0 -62 42q-18 -42 -66 -42zM26 271q0 -58 34 -96.5t88 -38.5q3 0 3 -14v-149
q0 -46 41 -46q44 0 44 45v393q0 20 -11 33.5t-33 13.5h-38q-61 0 -94.5 -39t-33.5 -102zM279 -27q0 -46 41 -46q44 0 44 45v393q0 20 -11 33.5t-33 13.5q-41 0 -41 -48v-391z" />
    <glyph glyph-name="periodcentered" unicode="&#xb7;" horiz-adv-x="155" 
d="M78 197q-49 0 -74 28.5t-25 69.5t25.5 70t73.5 29q50 0 74 -29t24 -70q0 -40 -24 -69t-74 -29zM6 295q0 -31 17.5 -51t54.5 -20t54 20t17 51t-17 51.5t-54 20.5q-36 0 -54 -20.5t-18 -51.5z" />
    <glyph glyph-name="cedilla" unicode="&#xb8;" horiz-adv-x="205" 
d="M56 -218q-25 2 -41 19.5t-16 41.5q0 39 32 55q-26 27 -17 67l18 84q5 21 21.5 34.5t37.5 13.5q29 0 47.5 -22.5t11.5 -50.5l-6 -38q62 -27 62 -100q0 -52 -34.5 -78t-79.5 -26h-36zM26 -157q0 -13 8.5 -22.5t22.5 -11.5h35q36 0 61.5 19t25.5 58q0 34 -14 51.5t-41 27.5
q-12 5 -9 17l9 47q4 16 -6.5 28.5t-26.5 12.5q-12 0 -21.5 -7.5t-11.5 -19.5l-18 -84q-5 -22 7 -38t30 -16h14q20 0 20 -14t-24 -14h-27q-34 0 -34 -34z" />
    <glyph glyph-name="uni00B9" unicode="&#xb9;" horiz-adv-x="142" 
d="M82 210q-27 0 -44 18.5t-17 48.5v175q-17 2 -32 16t-15 39q0 24 15 38.5t33 16.5q3 18 20.5 31.5t39.5 13.5q27 0 44 -18.5t17 -48.5v-263q0 -30 -16.5 -48.5t-44.5 -18.5zM1 507q0 -14 7.5 -21t15.5 -7h10q14 0 14 -14v-188q0 -40 34 -40t34 40v263q0 40 -34 40
q-15 0 -24.5 -8.5t-9.5 -16.5v-1q-2 -16 -19 -18h-1q-9 0 -18 -7.5t-9 -21.5z" />
    <glyph glyph-name="ordmasculine" unicode="&#xba;" horiz-adv-x="224" 
d="M105 240q-43 0 -74.5 29.5t-31.5 81.5v142q0 52 28 83t75 31h19q49 0 76.5 -32.5t27.5 -81.5v-142q0 -47 -28.5 -79t-71.5 -32h-20zM26 351q0 -40 23 -62t56 -22h20q31 0 52 24t21 60v142q0 39 -20.5 63t-56.5 24h-19q-35 0 -55.5 -23t-20.5 -64v-142zM98 362v122
q0 15 14 15q15 0 15 -16v-121q0 -17 -15 -17q-14 0 -14 17z" />
    <glyph glyph-name="guillemotright" unicode="&#xbb;" horiz-adv-x="429" 
d="M26 135q-26 22 -26 52t24 57l65 78l-65 78q-24 26 -24 56t26 52t55 16t52 -34l53 -65q-21 51 20 83q26 22 55 16t52 -34l93 -113q24 -27 24 -55q0 -29 -24 -56l-93 -113q-23 -28 -52 -34t-55 16q-41 34 -19 83l-54 -65q-23 -28 -52 -34t-55 16zM43 155q33 -29 69 15
l94 114q17 19 17 38q0 18 -17 37l-94 114q-36 44 -69 15q-36 -30 1 -71l72 -85q8 -9 0 -20l-72 -86q-37 -41 -1 -71zM223 155q33 -29 69 15l94 114q17 19 17 38q0 18 -17 37l-94 114q-36 44 -69 15q-36 -30 1 -71l72 -85q8 -9 0 -20l-72 -86q-37 -41 -1 -71zM242 354
q8 -15 8 -32t-7 -32l26 32z" />
    <glyph glyph-name="onequarter" unicode="&#xbc;" horiz-adv-x="457" 
d="M369 -24q-25 0 -41 17t-16 46v3h-36q-27 0 -44 15.5t-17 39.5v3q0 8 6 28q0 1 1 3v2l63 172l-125 -219q-13 -23 -37 -30t-47 7q-23 15 -26.5 40.5t10.5 42.5l58 100q-4 -1 -11 -1q-27 0 -44 18.5t-17 48.5v143q-18 2 -32.5 16.5t-14.5 38.5t15 38.5t33 17.5q4 18 21 31
t39 13q27 0 44 -18.5t17 -48.5v-209l116 202q12 23 34 29.5t47 -6.5q23 -14 27.5 -37t-8.5 -45l-69 -119q18 13 41 13q26 0 46.5 -18t20.5 -49l1 -158q34 -11 34 -49t-33 -50v-8q0 -29 -15 -46t-41 -17zM26 510q0 -14 7.5 -21t15.5 -7h10q14 0 14 -14v-156q0 -40 34 -40
t34 40v231q0 40 -34 40q-15 0 -24.5 -8.5t-9.5 -16.5v-1q0 -7 -6.5 -12.5t-12.5 -5.5h-1q-9 0 -18 -7.5t-9 -21.5zM83 131q-20 -27 7 -45q16 -7 27.5 -2.5t18.5 16.5l224 390q16 31 -9 46q-27 16 -44 -14zM242 97q0 -28 34 -28h49q14 0 14 -14v-16q0 -36 30 -36q29 0 29 36
v17q0 12 13 15q20 5 20 26t-21 25q-13 3 -13 15l-2 167q0 19 -11.5 29.5t-27.5 10.5q-28 0 -38 -27l-70 -192q-6 -21 -6 -25v-3zM312 139l13 45q2 9 8.5 7.5t6.5 -9.5v-45q0 -14 -14 -14h-3q-16 0 -11 16z" />
    <glyph glyph-name="onehalf" unicode="&#xbd;" horiz-adv-x="473" 
d="M332 -22q-31 0 -50 21t-19 55v7q0 40 36 87l25 31q-29 -4 -47 15t-18 49v17l-99 -174q-14 -23 -37.5 -30t-46.5 7q-23 15 -26.5 40.5t10.5 42.5l58 100q-4 -1 -11 -1q-27 0 -44 18.5t-17 48.5v143q-18 2 -32.5 16.5t-14.5 38.5t15 38.5t33 17.5q3 19 20 31.5t40 12.5
q27 0 44 -18.5t17 -48.5v-209l116 202q12 23 34 29.5t47 -6.5q47 -29 19 -82l-66 -114q15 7 35 7h24q41 0 69 -29.5t28 -79.5v-28q0 -60 -35 -99l-23 -32q26 -1 41.5 -18.5t15.5 -43.5q0 -27 -17 -44.5t-46 -17.5h-78zM26 510q0 -14 7.5 -21t15.5 -7h10q14 0 14 -14v-156
q0 -40 34 -40t34 40v231q0 40 -34 40q-16 0 -25 -7.5t-9 -17.5v-1q-2 -16 -19 -18h-1q-9 0 -18 -7.5t-9 -21.5zM83 131q-20 -27 7 -45q16 -7 27.5 -2.5t18.5 16.5l224 390q16 31 -9 46q-27 16 -44 -14zM286 243q0 -19 9 -29.5t27 -7.5q20 3 27 9t7 21v15q0 18 12 18
q15 0 15 -17v-21q0 -19 -17 -43l-46 -57q-30 -38 -30 -70v-7q0 -49 42 -49h78q36 0 36 35t-36 35h-28q-8 0 -10.5 4.5t2.5 12.5l44 58q29 36 29 83v28q0 38 -20 60t-50 22h-24q-27 0 -47 -21t-20 -54v-25z" />
    <glyph glyph-name="threequarters" unicode="&#xbe;" horiz-adv-x="487" 
d="M399 -24q-25 0 -41 17t-16 46v3h-36q-27 0 -44 15.5t-17 39.5v3q0 8 6 28q0 1 1 3v2l45 124l-97 -171q-13 -23 -37 -30t-47 7q-23 15 -26.5 40.5t10.5 42.5l56 98q-15 -6 -35 -6h-16q-36 0 -66 23t-30 75v10q0 41 36 55q-3 9 -3 20q0 6 2 14q-45 13 -45 66v5
q0 45 28 73.5t67 28.5h23q41 0 69 -27.5t28 -77.5v-33q0 -29 -15 -49q16 -24 15 -51l-1 -28l111 194q12 23 34 29.5t47 -6.5q23 -14 27.5 -37t-8.5 -45l-64 -111q13 5 26 5q26 0 45.5 -18t20.5 -49l2 -158q34 -11 34 -49t-33 -50v-8q0 -29 -15 -46t-41 -17zM26 501
q0 -42 37 -42q33 0 33 30q0 18 14 18q13 0 13 -17v-24q0 -17 -13 -17h-9q-32 0 -32 -28t33 -28h9q12 0 12 -19v-25q0 -14 -13 -14q-12 0 -12 16q0 27 -27 27q-35 0 -35 -32v-10q0 -39 20.5 -55t48.5 -16h16q34 0 48.5 19.5t16.5 57.5l1 29q1 30 -21 46q-6 4 0 9q21 13 21 44
v33q0 38 -20 58t-50 20h-23q-28 0 -48 -21t-20 -54v-5zM123 131q-20 -27 7 -45q16 -7 27.5 -2.5t18.5 16.5l224 390q16 31 -9 46q-27 16 -44 -14zM272 97q0 -28 34 -28h49q14 0 14 -14v-16q0 -36 30 -36q29 0 29 36v17q0 12 13 15q20 5 20 26t-21 25q-13 3 -13 15l-2 167
q0 19 -11.5 29.5t-27.5 10.5q-28 0 -38 -27l-70 -192q-6 -21 -6 -25v-3zM342 139l13 45q2 9 8.5 7.5t6.5 -9.5v-45q0 -14 -14 -14h-3q-16 0 -11 16z" />
    <glyph glyph-name="questiondown" unicode="&#xbf;" horiz-adv-x="293" 
d="M123 -103q-56 0 -95 38.5t-39 109.5v104q0 51 31.5 86t73.5 37q0 53 26 77q-46 25 -46 87q0 40 24 69t74 29q49 0 74 -28.5t25 -69.5q0 -58 -44 -85q33 -25 33 -76v-35q0 -44 -29 -76q37 -3 57.5 -29t20.5 -62v-33q0 -62 -42 -102.5t-96 -40.5h-48zM16 45q0 -59 30.5 -90
t76.5 -31h48q43 0 77 33t34 83v33q0 28 -15.5 46.5t-44.5 18.5q-61 0 -61 -51v-21q0 -27 -19 -27q-20 0 -20 26v59q0 31 40 34q29 2 50 25.5t21 56.5v35q0 65 -58 65q-32 0 -43 -18t-11 -50v-4q0 -23 -21 -23q-33 0 -58.5 -27t-25.5 -69v-104zM101 436q0 -31 17 -51.5
t54 -20.5q36 0 54 20.5t18 51.5t-17.5 51t-54.5 20t-54 -20t-17 -51z" />
    <glyph glyph-name="Agrave" unicode="&#xc0;" horiz-adv-x="317" 
d="M82 -23q-38 0 -60.5 26t-22.5 61v380q0 53 24 90.5t62 55.5q-36 23 -36 70q0 38 22.5 59t55.5 21q40 0 85 -36q28 -22 37 -36.5t9 -34.5q0 -26 -18 -42q78 -38 78 -145v-384q0 -37 -23 -61t-57 -24q-29 0 -49 16t-28 41q-20 -57 -79 -57zM26 64q0 -25 15 -42.5t41 -17.5
q25 0 41 18t16 42v113q0 14 14 14h16q14 0 14 -14v-113q0 -25 14.5 -42.5t41.5 -17.5q24 0 38 17t14 41v384q0 62 -32 96.5t-82 34.5h-28q-49 0 -86 -35.5t-37 -97.5v-380zM76 660q0 -27 17.5 -43t43.5 -16h58q15 0 25.5 9t10.5 23t-6.5 22.5t-29.5 27.5q-38 30 -68 30
q-22 0 -36.5 -13.5t-14.5 -39.5zM139 304v120q0 12 6 19.5t15 7.5t16 -8t7 -20v-119q0 -14 -14 -14h-16q-14 0 -14 14z" />
    <glyph glyph-name="Aacute" unicode="&#xc1;" horiz-adv-x="317" 
d="M82 -23q-38 0 -60.5 26t-22.5 61v380q0 101 82 144q-22 17 -22 45q0 20 9 34.5t37 36.5q45 36 85 36q33 0 55.5 -21t22.5 -59q0 -44 -32 -68q82 -37 82 -146v-384q0 -37 -23 -61t-57 -24q-29 0 -49 16t-28 41q-20 -57 -79 -57zM26 64q0 -25 15 -42.5t41 -17.5q25 0 41 18
t16 42v113q0 14 14 14h16q14 0 14 -14v-113q0 -25 14.5 -42.5t41.5 -17.5q24 0 38 17t14 41v384q0 62 -32 96.5t-82 34.5h-28q-49 0 -86 -35.5t-37 -97.5v-380zM86 633q0 -14 10.5 -23t25.5 -9h58q26 0 43.5 16t17.5 43q0 26 -14.5 39.5t-36.5 13.5q-30 0 -68 -30
q-23 -19 -29.5 -27.5t-6.5 -22.5zM139 304v120q0 12 6 19.5t15 7.5t16 -8t7 -20v-119q0 -14 -14 -14h-16q-14 0 -14 14z" />
    <glyph glyph-name="Acircumflex" unicode="&#xc2;" horiz-adv-x="317" 
d="M82 -23q-38 0 -60.5 26t-22.5 61v380q0 88 64 133q-20 15 -20 43q0 4 0.5 7.5t1 6.5t2.5 7l3 6t4.5 7t5 7.5t6 9t6.5 9.5q40 54 87 54q46 0 86 -54q2 -3 6.5 -9.5t6 -9t5 -7.5t4.5 -7l3 -6t2.5 -7t1 -6.5t0.5 -7.5q0 -24 -16 -40q60 -42 60 -134v-384q0 -37 -23 -61
t-57 -24q-29 0 -49 16t-28 41q-20 -57 -79 -57zM26 64q0 -25 15 -42.5t41 -17.5q25 0 41 18t16 42v113q0 14 14 14h16q14 0 14 -14v-113q0 -25 14.5 -42.5t41.5 -17.5q24 0 38 17t14 41v384q0 62 -32 96.5t-82 34.5h-28q-49 0 -86 -35.5t-37 -97.5v-380zM70 620
q0 -13 8 -20.5t19 -7.5q15 0 52 19q10 4 20 0q37 -19 52 -19q11 0 18.5 7.5t7.5 20.5q0 10 -24 44q-31 43 -64 43q-34 0 -65 -43q-24 -34 -24 -44zM139 304v120q0 12 6 19.5t15 7.5t16 -8t7 -20v-119q0 -14 -14 -14h-16q-14 0 -14 14z" />
    <glyph glyph-name="Atilde" unicode="&#xc3;" horiz-adv-x="317" 
d="M82 -23q-38 0 -60.5 26t-22.5 61v380q0 84 60 130q-21 6 -33 23t-12 38q0 57 27.5 88t72.5 31q43 0 74 -29q17 29 51 29h2q27 0 46 -19t19 -46q0 -76 -49 -108q61 -43 61 -135v-384q0 -37 -23 -61t-57 -24q-29 0 -49 16t-28 41q-20 -57 -79 -57zM26 64q0 -25 15 -42.5
t41 -17.5q25 0 41 18t16 42v113q0 14 14 14h16q14 0 14 -14v-113q0 -25 14.5 -42.5t41.5 -17.5q24 0 38 17t14 41v384q0 62 -32 96.5t-82 34.5h-28q-49 0 -86 -35.5t-37 -97.5v-380zM41 635q0 -16 10.5 -26.5t26.5 -10.5t26 10.5t12 26.5q2 15 14 5q3 -3 12.5 -13
t13.5 -13.5t12.5 -9.5t17.5 -8.5t19 -2.5q32 0 53 25t21 71q0 16 -11 27t-27 11t-26.5 -11t-10.5 -27v-7q0 -3 -1.5 -4.5t-4 -1t-4.5 2.5l-12 13q-13 14 -19.5 19.5t-19 10.5t-29.5 5q-34 0 -53.5 -23t-19.5 -69zM139 304v120q0 12 6 19.5t15 7.5t16 -8t7 -20v-119
q0 -14 -14 -14h-16q-14 0 -14 14z" />
    <glyph glyph-name="Adieresis" unicode="&#xc4;" horiz-adv-x="317" 
d="M82 -23q-38 0 -60.5 26t-22.5 61v380q0 86 61 130q-43 20 -43 74q0 33 20.5 56.5t61.5 23.5q39 0 61 -25q21 25 57 25h4q41 0 61 -24.5t20 -56.5q0 -50 -38 -71q54 -43 54 -130v-384q0 -37 -23 -61t-57 -24q-29 0 -49 16t-28 41q-20 -57 -79 -57zM26 64q0 -25 15 -42.5
t41 -17.5q25 0 41 18t16 42v113q0 14 14 14h16q14 0 14 -14v-113q0 -25 14.5 -42.5t41.5 -17.5q24 0 38 17t14 41v384q0 62 -32 96.5t-82 34.5h-28q-49 0 -86 -35.5t-37 -97.5v-380zM44 648q0 -23 13.5 -39t41.5 -16q27 0 40 16t13 39t-13 38t-40 15q-28 0 -41.5 -15
t-13.5 -38zM139 304v120q0 12 6 19.5t15 7.5t16 -8t7 -20v-119q0 -14 -14 -14h-16q-14 0 -14 14zM167 647q0 -23 13.5 -38.5t40.5 -15.5q54 0 54 54q0 23 -13 38.5t-41 15.5q-27 0 -40.5 -15.5t-13.5 -38.5z" />
    <glyph glyph-name="Aring" unicode="&#xc5;" horiz-adv-x="317" 
d="M82 -23q-38 0 -60.5 26t-22.5 61v380q0 84 59 129q-20 28 -20 63q0 53 34 88t86 35t85.5 -35t33.5 -88q0 -31 -17 -58q58 -42 58 -132v-384q0 -37 -23 -61t-57 -24q-29 0 -49 16t-28 41q-20 -57 -79 -57zM26 64q0 -25 15 -42.5t41 -17.5q25 0 41 18t16 42v113q0 14 14 14
h16q14 0 14 -14v-113q0 -25 14.5 -42.5t41.5 -17.5q24 0 38 17t14 41v384q0 86 -60 119q-12 5 -3 16q22 22 22 55q0 42 -26 69t-66 27q-41 0 -67 -27t-26 -69q0 -36 24 -58q11 -10 -1 -17q-62 -35 -62 -117v-380zM132 640q0 10 7 17.5t19 7.5q11 0 18 -7.5t7 -17.5
q0 -11 -7 -18.5t-18 -7.5q-12 0 -19 7.5t-7 18.5zM139 304v120q0 12 6 19.5t15 7.5t16 -8t7 -20v-119q0 -14 -14 -14h-16q-14 0 -14 14z" />
    <glyph glyph-name="AE" unicode="&#xc6;" horiz-adv-x="406" 
d="M83 -24q-38 0 -61 26.5t-23 60.5v380q0 75 45.5 117.5t104.5 42.5h182q37 0 64 -23.5t27 -66.5q0 -44 -27 -66.5t-64 -22.5h-13v-55h19q35 0 56.5 -20t21.5 -54q0 -35 -22 -55t-56 -20h-19v-66h12q38 0 65 -22.5t27 -66.5t-27 -65.5t-64 -21.5h-92q-58 0 -78 56
q-9 -25 -29.5 -41.5t-48.5 -16.5zM26 63q0 -25 15.5 -42.5t41.5 -17.5q25 0 40.5 18t15.5 42v167q0 14 14 14h16q14 0 14 -14v-165q0 -25 14.5 -42.5t41.5 -17.5h92q27 0 45.5 14.5t18.5 45.5q0 32 -18.5 47t-45.5 15l-26 -1q-14 0 -14 14v93q0 14 14 14h32q51 0 51 48
q0 47 -51 47h-32q-14 0 -14 14v89q0 7 14 7l26 -1q27 0 45.5 15t18.5 47q0 31 -18.5 47t-45.5 16h-182q-49 0 -86 -35.5t-37 -97.5v-380zM139 357v68q0 12 6 19.5t15 7.5t16 -8t7 -20v-67q0 -14 -14 -14h-16q-14 0 -14 14z" />
    <glyph glyph-name="Ccedilla" unicode="&#xc7;" horiz-adv-x="304" 
d="M121 -218q-25 2 -41 19.5t-16 41.5q0 39 32 55q-27 29 -17 67l4 21q-84 29 -84 149v312q0 76 41.5 117t101.5 41h43q56 0 95.5 -43t39.5 -109v-62q0 -40 -20 -69t-65 -29q-44 0 -68 27q0 -37 1 -54q23 25 59 25h1q37 0 60.5 -20t23.5 -62v-78q0 -63 -28.5 -99t-71.5 -47
q59 -29 59 -99q0 -52 -34.5 -78t-79.5 -26h-36zM26 135q0 -108 75 -126q14 -3 11 -16l-7 -34q-5 -22 7 -38t30 -16h14q20 0 20 -14t-24 -14h-27q-34 0 -34 -34q0 -13 8.5 -22.5t22.5 -11.5h35q36 0 61.5 19t25.5 58q0 35 -14 51.5t-41 27.5q-11 4 -10 17l1 12q1 11 13 14
q92 16 92 123v78q0 55 -57 55q-24 0 -38.5 -15t-14.5 -35v-74q0 -20 -16 -20q-17 0 -17 23q0 39 -1.5 127t-1.5 145q0 41 17 41q11 0 14 -8.5t3 -31.5v-39q0 -26 16 -41.5t46 -15.5q58 0 58 71v62q0 55 -31.5 90t-76.5 35h-43q-50 0 -83 -33.5t-33 -97.5v-312z" />
    <glyph glyph-name="Egrave" unicode="&#xc8;" horiz-adv-x="254" 
d="M84 -23q-43 0 -64 28t-21 66v439q0 66 50 88q-27 22 -27 63q0 38 22.5 59t55.5 21q40 0 85 -36q28 -23 37 -36.5t9 -34.5t-13 -37q52 -20 52 -80q0 -45 -27 -66.5t-64 -21.5h-14v-59h20q35 0 56.5 -20t21.5 -54q0 -35 -22 -55t-56 -20h-20v-69h14q37 0 64 -21.5t27 -66.5
q0 -44 -27 -65.5t-64 -21.5h-95zM26 71q0 -29 14 -48t44 -19h95q27 0 45.5 14.5t18.5 45.5t-18 46t-46 15h-27q-14 0 -14 14v95q0 14 14 14h33q51 0 51 48q0 47 -51 47h-33q-14 0 -14 14v85q0 14 14 14h27q28 0 46 15t18 46t-18.5 45.5t-45.5 14.5h-95q-30 0 -44 -19
t-14 -48v-439zM49 661q0 -27 17.5 -43t43.5 -16h58q15 0 25.5 9t10.5 23t-6.5 22.5t-29.5 27.5q-38 30 -68 30q-22 0 -36.5 -13.5t-14.5 -39.5z" />
    <glyph glyph-name="Eacute" unicode="&#xc9;" horiz-adv-x="254" 
d="M84 -23q-43 0 -64 28t-21 66v439q0 65 47 86q-14 17 -14 38t9 34.5t37 36.5q46 36 85 36q33 0 55.5 -21t22.5 -59q0 -39 -26 -63q55 -18 55 -81q0 -45 -27 -66.5t-64 -21.5h-14v-59h20q35 0 56.5 -20t21.5 -54q0 -35 -22 -55t-56 -20h-20v-69h14q37 0 64 -21.5t27 -66.5
q0 -44 -27 -65.5t-64 -21.5h-95zM26 71q0 -29 14 -48t44 -19h95q27 0 45.5 14.5t18.5 45.5t-18 46t-46 15h-27q-14 0 -14 14v95q0 14 14 14h33q51 0 51 48q0 47 -51 47h-33q-14 0 -14 14v85q0 14 14 14h27q28 0 46 15t18 46t-18.5 45.5t-45.5 14.5h-95q-30 0 -44 -19
t-14 -48v-439zM59 634q0 -14 10.5 -23t25.5 -9h58q26 0 43.5 16t17.5 43q0 26 -14.5 39.5t-36.5 13.5q-30 0 -68 -30q-23 -19 -29.5 -27.5t-6.5 -22.5z" />
    <glyph glyph-name="Ecircumflex" unicode="&#xca;" horiz-adv-x="254" 
d="M84 -23q-43 0 -64 28t-21 66v439q0 51 31 76q-16 18 -16 40q0 4 0.5 7.5t1 6.5t2.5 7l3 6t4.5 7t5 7.5t6 9t6.5 9.5q39 54 87 54q47 0 86 -54q2 -3 6.5 -9.5t6 -9t5 -7.5t4.5 -7l3 -6t2.5 -7t1 -6.5t0.5 -7.5q0 -19 -12 -36q37 -23 37 -73q0 -45 -27 -66.5t-64 -21.5h-14
v-59h20q35 0 56.5 -20t21.5 -54q0 -35 -22 -55t-56 -20h-20v-69h14q37 0 64 -21.5t27 -66.5q0 -44 -27 -65.5t-64 -21.5h-95zM26 71q0 -29 14 -48t44 -19h95q27 0 45.5 14.5t18.5 45.5t-18 46t-46 15h-27q-14 0 -14 14v95q0 14 14 14h33q51 0 51 48q0 47 -51 47h-33
q-14 0 -14 14v85q0 14 14 14h27q28 0 46 15t18 46t-18.5 45.5t-45.5 14.5h-95q-30 0 -44 -19t-14 -48v-439zM41 626q0 -13 8 -20.5t19 -7.5q15 0 52 19q10 4 20 0q37 -19 52 -19q11 0 18.5 7.5t7.5 20.5q0 10 -24 44q-31 43 -64 43q-34 0 -65 -43q-24 -34 -24 -44z" />
    <glyph glyph-name="Edieresis" unicode="&#xcb;" horiz-adv-x="254" 
d="M84 -23q-43 0 -64 28t-21 66v439q0 48 28 73q-37 22 -37 71q0 32 21 56t61 24q39 0 61 -25q22 25 61 25q41 0 61 -24.5t20 -56.5q0 -46 -34 -69q29 -22 29 -67t-27 -66.5t-64 -21.5h-14v-59h20q35 0 56.5 -20t21.5 -54q0 -35 -22 -55t-56 -20h-20v-69h14q37 0 64 -21.5
t27 -66.5q0 -44 -27 -65.5t-64 -21.5h-95zM17 654q0 -23 13.5 -39t41.5 -16q27 0 40 16t13 39t-13 38t-40 15q-28 0 -41.5 -15t-13.5 -38zM26 71q0 -29 14 -48t44 -19h95q27 0 45.5 14.5t18.5 45.5t-18 46t-46 15h-27q-14 0 -14 14v95q0 14 14 14h33q51 0 51 48q0 47 -51 47
h-33q-14 0 -14 14v85q0 14 14 14h27q28 0 46 15t18 46t-18.5 45.5t-45.5 14.5h-95q-30 0 -44 -19t-14 -48v-439zM140 653q0 -23 13.5 -38.5t40.5 -15.5q54 0 54 54q0 23 -13 38.5t-41 15.5q-27 0 -40.5 -15.5t-13.5 -38.5z" />
    <glyph glyph-name="Igrave" unicode="&#xcc;" horiz-adv-x="166" 
d="M82 -25q-39 0 -61 26.5t-22 67.5v443q0 43 25 71q-47 23 -47 77q0 38 22.5 59t55.5 21q40 0 85 -36q28 -22 37 -36.5t9 -34.5q0 -40 -40 -55q21 -27 21 -64v-445q0 -37 -21.5 -65.5t-63.5 -28.5zM4 660q0 -27 17.5 -43t43.5 -16h58q15 0 25.5 9t10.5 23t-6.5 22.5
t-29.5 27.5q-38 30 -68 30q-22 0 -36.5 -13.5t-14.5 -39.5zM26 69q0 -28 13.5 -47.5t42.5 -19.5t43.5 19.5t14.5 47.5v443q0 29 -14.5 48t-42.5 19q-29 0 -43 -19t-14 -48v-443z" />
    <glyph glyph-name="Iacute" unicode="&#xcd;" horiz-adv-x="166" 
d="M82 -25q-39 0 -61 26.5t-22 67.5v443q0 39 21 66q-39 14 -39 55q0 20 9 34.5t37 36.5q45 36 85 36q33 0 55.5 -21t22.5 -59q0 -56 -48 -78q23 -25 25 -68v-445q0 -37 -21.5 -65.5t-63.5 -28.5zM8 633q0 -14 10.5 -23t25.5 -9h58q26 0 43.5 16t17.5 43q0 26 -14.5 39.5
t-36.5 13.5q-30 0 -68 -30q-23 -19 -29.5 -27.5t-6.5 -22.5zM26 69q0 -28 13.5 -47.5t42.5 -19.5t43.5 19.5t14.5 47.5v443q0 29 -14.5 48t-42.5 19q-29 0 -43 -19t-14 -48v-443z" />
    <glyph glyph-name="Icircumflex" unicode="&#xce;" horiz-adv-x="166" 
d="M82 -25q-39 0 -61 26.5t-22 67.5v443q0 30 13 55q-18 3 -31.5 17.5t-13.5 36.5q0 17 21 49q1 1 2.5 3t3 4.5t2.5 3.5q40 54 87 54q46 0 86 -54q1 -1 3.5 -5t4.5 -6q21 -29 21 -49t-12.5 -35.5t-32.5 -18.5q14 -24 14 -55v-443q0 -37 -21.5 -65.5t-63.5 -28.5zM-6 621
q0 -13 8 -20.5t19 -7.5q15 0 52 19q10 4 20 0q37 -19 52 -19q11 0 18.5 7.5t7.5 20.5q0 9 -24 44q-31 43 -64 43q-34 0 -65 -43q-24 -35 -24 -44zM26 69q0 -28 13.5 -47.5t42.5 -19.5t43.5 19.5t14.5 47.5v443q0 29 -14.5 48t-42.5 19q-29 0 -43 -19t-14 -48v-443z" />
    <glyph glyph-name="Idieresis" unicode="&#xcf;" horiz-adv-x="166" 
d="M82 -25q-39 0 -61 26.5t-22 67.5v443q0 31 13 54q-33 5 -50 28t-17 53q0 33 20.5 56.5t61.5 23.5q39 0 61 -25q22 24 58 25h3q41 0 61 -24.5t20 -56.5t-18.5 -55.5t-57.5 -25.5q13 -23 13 -53v-443q0 -37 -21.5 -65.5t-63.5 -28.5zM-28 647q0 -23 13.5 -39t41.5 -16
q27 0 40 16t13 39t-13 38t-40 15q-28 0 -41.5 -15t-13.5 -38zM26 69q0 -28 13.5 -47.5t42.5 -19.5t43.5 19.5t14.5 47.5v443q0 29 -14.5 48t-42.5 19q-29 0 -43 -19t-14 -48v-443zM95 646q0 -23 13.5 -38.5t40.5 -15.5q54 0 54 54q0 23 -13 38.5t-41 15.5q-27 0 -40.5 -15.5
t-13.5 -38.5z" />
    <glyph glyph-name="Eth" unicode="&#xd0;" horiz-adv-x="325" 
d="M76 -22q-36 0 -55 21t-19 58v173q-33 18 -33 62q0 45 33 63v176q0 73 74 73h98q72 -1 112 -48.5t40 -119.5v-296q0 -69 -41.5 -115.5t-107.5 -46.5h-101zM-4 292q0 -29 22 -40q11 -6 11 -16v-179q0 -52 47 -52h101q54 0 88 38.5t34 96.5v296q0 62 -33 101t-92 40h-98
q-26 0 -36.5 -11t-10.5 -35v-182q0 -10 -11 -16q-22 -11 -22 -41zM138 132v105q0 10 11 16q19 11 19 39t-19 39q-11 6 -11 17v96q0 14 14 14h11q10 0 17 -8t7 -21v-280q0 -13 -7.5 -22t-16.5 -9h-11q-14 0 -14 14z" />
    <glyph glyph-name="Ntilde" unicode="&#xd1;" horiz-adv-x="334" 
d="M80 -23q-38 0 -59.5 26t-21.5 63v445q0 57 39 83q-14 18 -14 40q0 57 27.5 88t72.5 31q43 0 74 -29q17 29 52 29h1q27 0 46 -19t19 -46q0 -54 -26 -88q45 -20 45 -79v-448q0 -41 -18.5 -67.5t-55.5 -26.5q-53 0 -73 60l-26 75v-48q0 -37 -21 -63t-61 -26zM26 66
q0 -27 14 -44.5t40 -17.5q27 0 41 17.5t14 44.5l-1 164q0 7 3 10t7 0.5t6 -8.5l63 -184q15 -42 48 -42q47 0 47 67v448q0 59 -54 59q-56 0 -56 -59v-130q0 -9 -6.5 -10.5t-9.5 8.5l-43 134q-4 12 -6 16.5t-9 16t-18 17t-25 5.5h-1q-26 0 -40 -19.5t-14 -47.5v-445zM51 634
q0 -16 10.5 -26.5t26.5 -10.5t26 10.5t12 26.5q2 15 14 5q3 -3 12.5 -13t13.5 -13.5t12.5 -9.5t17.5 -8.5t19 -2.5q32 0 53 25t21 71q0 16 -11 27t-27 11t-26.5 -11t-10.5 -27v-7q0 -3 -1.5 -4.5t-4 -1t-4.5 2.5l-12 13q-13 14 -19.5 19.5t-19 10.5t-29.5 5q-34 0 -53.5 -23
t-19.5 -69zM132 587q23 -19 33 -55l6 -20v9q0 28 12 49q-23 10 -41 29q-3 -5 -10 -12z" />
    <glyph glyph-name="Ograve" unicode="&#xd2;" horiz-adv-x="323" 
d="M149 -20q-61 0 -105.5 42.5t-44.5 119.5v295q0 55 22 96t60 59q-37 24 -37 71q0 38 22.5 59t55.5 21q40 0 85 -36q28 -23 37 -36.5t9 -34.5q0 -26 -19 -43q43 -18 66.5 -60t23.5 -96v-295q0 -68 -42.5 -115t-105.5 -47h-27zM26 142q0 -65 36 -100t87 -35h27q51 0 86 39
t35 96v295q0 63 -33.5 102t-93.5 39h-26q-53 0 -85.5 -37.5t-32.5 -103.5v-295zM71 663q0 -27 17.5 -43t43.5 -16h58q15 0 25.5 9t10.5 23t-6.5 22.5t-29.5 27.5q-38 30 -68 30q-22 0 -36.5 -13.5t-14.5 -39.5zM140 158v271q0 11 6 17t14 6q22 0 22 -25v-269q0 -27 -22 -27
q-8 0 -14 7t-6 20z" />
    <glyph glyph-name="Oacute" unicode="&#xd3;" horiz-adv-x="323" 
d="M149 -20q-61 0 -105.5 42.5t-44.5 119.5v295q0 115 82 154q-21 16 -21 44q0 20 9 34.5t37 36.5q46 36 85 36q33 0 55.5 -21t22.5 -59q0 -44 -33 -69l-1 -1q43 -18 66 -59.5t23 -95.5v-295q0 -68 -42.5 -115t-105.5 -47h-27zM26 142q0 -65 36 -100t87 -35h27q51 0 86 39
t35 96v295q0 63 -33.5 102t-93.5 39h-26q-53 0 -85.5 -37.5t-32.5 -103.5v-295zM87 635q0 -14 10.5 -23t25.5 -9h58q26 0 43.5 16t17.5 43q0 26 -14.5 39.5t-36.5 13.5q-30 0 -68 -30q-23 -19 -29.5 -27.5t-6.5 -22.5zM140 158v271q0 11 6 17t14 6q22 0 22 -25v-269
q0 -27 -22 -27q-8 0 -14 7t-6 20z" />
    <glyph glyph-name="Ocircumflex" unicode="&#xd4;" horiz-adv-x="323" 
d="M149 -20q-61 0 -105.5 42.5t-44.5 119.5v295q0 99 65 145q-20 16 -20 43q0 18 29 60q40 54 87 54t86 -54q29 -42 29 -60q0 -28 -20 -43q69 -44 69 -145v-295q0 -68 -42.5 -115t-105.5 -47h-27zM26 142q0 -65 36 -100t87 -35h27q51 0 86 39t35 96v295q0 63 -33.5 102
t-93.5 39h-26q-53 0 -85.5 -37.5t-32.5 -103.5v-295zM71 625q0 -13 8 -20.5t19 -7.5q15 0 52 19q10 4 20 0q37 -19 52 -19q11 0 18.5 7.5t7.5 20.5q0 9 -24 44q-31 43 -64 43q-34 0 -65 -43q-24 -35 -24 -44zM140 158v271q0 11 6 17t14 6q22 0 22 -25v-269q0 -27 -22 -27
q-8 0 -14 7t-6 20z" />
    <glyph glyph-name="Otilde" unicode="&#xd5;" horiz-adv-x="323" 
d="M149 -20q-61 0 -105.5 42.5t-44.5 119.5v295q0 95 59 140q-20 6 -32.5 22.5t-12.5 38.5q0 57 27.5 88t72.5 31q43 0 74 -29q17 28 51 29h2q27 0 46 -19t19 -46q0 -78 -51 -110q70 -43 70 -145v-295q0 -68 -42.5 -115t-105.5 -47h-27zM26 142q0 -65 36 -100t87 -35h27
q51 0 86 39t35 96v295q0 63 -33.5 102t-93.5 39h-26q-53 0 -85.5 -37.5t-32.5 -103.5v-295zM40 638q0 -16 10.5 -26.5t26.5 -10.5q15 0 25.5 10.5t12.5 26.5q2 15 14 5q3 -3 12.5 -13t13.5 -13.5t12.5 -9.5t17.5 -8.5t19 -2.5q32 0 53 25t21 71q0 16 -11 27t-27 11
t-26.5 -11t-10.5 -27v-7q0 -3 -1.5 -4.5t-4 -1t-4.5 2.5l-12 13q-13 14 -19.5 19.5t-19 10.5t-29.5 5q-34 0 -53.5 -23t-19.5 -69zM140 158v271q0 11 6 17t14 6q22 0 22 -25v-269q0 -27 -22 -27q-8 0 -14 7t-6 20z" />
    <glyph glyph-name="Odieresis" unicode="&#xd6;" horiz-adv-x="323" 
d="M149 -20q-61 0 -105.5 42.5t-44.5 119.5v295q0 97 61 142q-41 22 -41 73q0 33 20.5 56.5t61.5 23.5q39 0 61 -25q20 24 57 25h4q41 0 61 -24.5t20 -56.5q0 -54 -43 -73q63 -46 63 -141v-295q0 -68 -42.5 -115t-105.5 -47h-27zM26 142q0 -65 36 -100t87 -35h27q51 0 86 39
t35 96v295q0 63 -33.5 102t-93.5 39h-26q-53 0 -85.5 -37.5t-32.5 -103.5v-295zM46 652q0 -23 13.5 -39t41.5 -16q27 0 40 16t13 39t-13 38t-40 15q-28 0 -41.5 -15t-13.5 -38zM140 158v271q0 11 6 17t14 6q22 0 22 -25v-269q0 -27 -22 -27q-8 0 -14 7t-6 20zM169 651
q0 -23 13.5 -38.5t40.5 -15.5q54 0 54 54q0 23 -13 38.5t-41 15.5q-27 0 -40.5 -15.5t-13.5 -38.5z" />
    <glyph glyph-name="multiply" unicode="&#xd7;" horiz-adv-x="320" 
d="M25 130q-27 29 -24.5 60t29.5 59l16 16l-18 18q-27 28 -28.5 58.5t25.5 57.5q19 20 41.5 24.5t41 -3t35.5 -23.5l18 -18l17 17q25 27 55 29.5t62 -26.5q29 -33 26.5 -62t-28.5 -55l-18 -18l15 -15q28 -27 30.5 -58.5t-25.5 -60.5q-29 -28 -60 -25.5t-59 30.5l-15 15
l-16 -16q-28 -28 -60 -30t-60 26zM44 149q38 -40 82 4l25 25q10 10 20 0l24 -24q44 -44 81 -5q40 38 -5 81l-24 24q-10 10 0 20l27 27q41 41 2 79q-39 39 -79 -3l-26 -26q-10 -10 -20 0l-27 27q-43 41 -80 2q-38 -37 3 -78l27 -27q10 -10 0 -20l-25 -25q-43 -45 -5 -81z" />
    <glyph glyph-name="Oslash" unicode="&#xd8;" horiz-adv-x="340" 
d="M158 -20q-46 0 -81 24q-29 -25 -67 -2q-60 32 -22 96l19 34l1 3v303q0 77 40 122.5t105 45.5h26q50 0 87 -24q31 18 65 0h1q1 0 1 -1q54 -34 20 -98l-19 -32q-1 -2 -1 -4v-305q0 -68 -42.5 -115t-105.5 -47h-27zM11 84q-24 -39 12 -59q24 -15 42 4q9 9 20 2
q30 -24 73 -24h27q51 0 86 39t35 96v305q0 8 4 16l19 33q22 41 -10 62q-24 13 -43 -3q-10 -8 -19 0q-32 24 -78 24h-26q-53 0 -85.5 -37.5t-32.5 -103.5v-303q0 -7 -4 -15zM144 153v20q0 7 5 17l24 43q3 6 7 7.5t7 -1.5t3 -10v-76q0 -13 -7 -21t-17 -8q-8 0 -15 8t-7 21z
M144 342v94q0 11 7 17.5t15 6.5q24 0 24 -27v-37q0 -7 -5 -17l-24 -42q-5 -9 -11 -7.5t-6 12.5z" />
    <glyph glyph-name="Ugrave" unicode="&#xd9;" horiz-adv-x="328" 
d="M147 -25q-62 0 -105 43.5t-43 116.5v385q0 32 19.5 56.5t53.5 27.5q-18 25 -18 55q0 38 22.5 59t55.5 21q40 0 85 -36q28 -23 37 -36.5t9 -34.5q0 -13 -7 -29q33 -4 53 -28t20 -56v-384q0 -74 -45.5 -117t-105.5 -43h-31zM26 135q0 -61 35 -97t86 -36h31q50 0 87 35.5
t37 97.5v384q0 24 -16.5 41t-43.5 17q-25 0 -40.5 -17t-15.5 -41v-358q0 -12 -7 -19t-16 -7q-22 0 -22 27v358q0 25 -15.5 41.5t-43.5 16.5q-26 0 -41 -17t-15 -41v-385zM81 659q0 -27 17.5 -43t43.5 -16h58q15 0 25.5 9t10.5 23t-6.5 22.5t-29.5 27.5q-38 30 -68 30
q-22 0 -36.5 -13.5t-14.5 -39.5zM151 573q8 -9 13 -25q5 16 13 25h-26z" />
    <glyph glyph-name="Uacute" unicode="&#xda;" horiz-adv-x="328" 
d="M147 -25q-62 0 -105 43.5t-43 116.5v385q0 32 19 56t52 28q-7 14 -7 29q0 20 9 34.5t37 36.5q45 36 85 36q33 0 55.5 -21t22.5 -59q0 -34 -20 -56q35 -4 56 -28t21 -57v-384q0 -74 -45.5 -117t-105.5 -43h-31zM26 135q0 -61 35 -97t86 -36h31q50 0 87 35.5t37 97.5v384
q0 24 -16.5 41t-43.5 17q-25 0 -40.5 -17t-15.5 -41v-358q0 -12 -7 -19t-16 -7q-22 0 -22 27v358q0 25 -15.5 41.5t-43.5 16.5q-26 0 -41 -17t-15 -41v-385zM90 633q0 -14 10.5 -23t25.5 -9h58q26 0 43.5 16t17.5 43q0 26 -14.5 39.5t-36.5 13.5q-30 0 -68 -30
q-23 -19 -29.5 -27.5t-6.5 -22.5zM150 574q10 -14 14 -26q4 12 14 26h-28z" />
    <glyph glyph-name="Ucircumflex" unicode="&#xdb;" horiz-adv-x="328" 
d="M147 -25q-62 0 -105 43.5t-43 116.5v385q0 27 14.5 49.5t40.5 31.5q-7 12 -7 27q0 4 0.5 7.5t1 6.5t2.5 7l3 6t4.5 7t5 7.5t6 9t6.5 9.5q40 54 87 54q46 0 86 -54q2 -3 6.5 -9.5t6 -9t5 -7.5t4.5 -7l3 -6t2.5 -7t1 -6.5t0.5 -7.5q0 -17 -7 -28q27 -9 42.5 -31.5
t15.5 -49.5v-384q0 -74 -45.5 -117t-105.5 -43h-31zM26 135q0 -61 35 -97t86 -36h31q50 0 87 35.5t37 97.5v384q0 24 -16.5 41t-43.5 17q-25 0 -40.5 -17t-15.5 -41v-358q0 -12 -7 -19t-16 -7q-22 0 -22 27v358q0 25 -15.5 41.5t-43.5 16.5q-26 0 -41 -17t-15 -41v-385z
M74 628q0 -13 8 -20.5t19 -7.5q15 0 52 19q10 4 20 0q37 -19 52 -19q11 0 18.5 7.5t7.5 20.5q0 10 -24 44q-31 43 -64 43q-34 0 -65 -43q-24 -34 -24 -44zM142 584q16 -16 22 -36q6 20 22 35q-3 2 -11 5.5t-12 5.5q-18 -9 -21 -10z" />
    <glyph glyph-name="Udieresis" unicode="&#xdc;" horiz-adv-x="328" 
d="M147 -25q-62 0 -105 43.5t-43 116.5v385q0 55 45 77q-24 24 -24 61q0 32 21 56t61 24q39 0 61 -25q22 25 61 25q41 0 61 -24.5t20 -56.5q0 -38 -24 -61q48 -22 48 -77v-384q0 -74 -45.5 -117t-105.5 -43h-31zM26 135q0 -61 35 -97t86 -36h31q50 0 87 35.5t37 97.5v384
q0 24 -16.5 41t-43.5 17q-25 0 -40.5 -17t-15.5 -41v-358q0 -12 -7 -19t-16 -7q-22 0 -22 27v358q0 25 -15.5 41.5t-43.5 16.5q-26 0 -41 -17t-15 -41v-385zM47 658q0 -23 13.5 -39t41.5 -16q27 0 40 16t13 39t-13 38t-40 15q-28 0 -41.5 -15t-13.5 -38zM141 584
q14 -12 23 -36q6 20 23 36q-14 6 -24 17q-6 -7 -22 -17zM170 657q0 -23 13.5 -38.5t40.5 -15.5q54 0 54 54q0 23 -13 38.5t-41 15.5q-27 0 -40.5 -15.5t-13.5 -38.5z" />
    <glyph glyph-name="Yacute" unicode="&#xdd;" horiz-adv-x="297" 
d="M152 -27q-38 0 -60 26.5t-22 67.5v127q0 4 -2 9l-94 280q-12 32 0 65.5t46 47.5q13 6 32 6q0 2 -0.5 7t-0.5 7q0 20 9 34t37 37q45 36 85 36q33 0 55.5 -21t22.5 -59q0 -21 -8 -39q8 -1 24 -7q68 -32 46 -110l-86 -285q-2 -6 -2 -10v-125q0 -41 -22 -67.5t-60 -26.5z
M0 491l94 -280q3 -9 3 -17v-127q0 -28 13.5 -47.5t41.5 -19.5t41.5 19.5t13.5 47.5v125q0 6 3 17l86 286q17 55 -31 77q-25 11 -45 -2.5t-28 -39.5l-35 -108q-2 -6 -5.5 -8.5t-7 0t-5.5 9.5l-30 106q-7 25 -29.5 39t-49.5 3q-23 -9 -31 -32.5t1 -47.5zM78 616
q0 -14 10.5 -23t25.5 -9h58q26 0 43.5 16t17.5 43q0 26 -14.5 39.5t-36.5 13.5q-30 0 -68 -30q-23 -19 -29.5 -27.5t-6.5 -22.5zM126 557q7 -11 9 -20l15 -51l16 52q2 7 8 19h-48z" />
    <glyph glyph-name="Thorn" unicode="&#xde;" horiz-adv-x="330" 
d="M86 -26q-42 0 -64.5 26t-22.5 63v453q0 39 22 64t65 25q81 0 83 -86h22q73 0 114 -47.5t41 -120.5v-120q0 -68 -41.5 -115t-107.5 -47h-28v-4q0 -37 -20.5 -64t-62.5 -27zM26 63q0 -28 14.5 -45t45.5 -17q56 0 56 64v17q0 14 14 14h41q54 0 88 38.5t34 96.5v120
q0 63 -33.5 102t-94.5 39h-35q-14 0 -14 14v10q0 62 -56 62q-60 0 -60 -62v-453zM142 221v143q0 14 14 14h24q10 0 17.5 -8t7.5 -21v-111q0 -13 -8 -22t-17 -9h-24q-14 0 -14 14zM169 234h9v117h-9v-117z" />
    <glyph glyph-name="germandbls" unicode="&#xdf;" horiz-adv-x="321" 
d="M208 -50q-60 0 -80 39q-19 -12 -44 -12q-43 0 -64 28t-21 66v388q0 118 100 141q17 4 45 4h23q71 0 110 -47t39 -121v-48q0 -56 -28 -89q49 -40 49 -120v-54q0 -79 -35 -127t-94 -48zM26 71q0 -29 14 -48t44 -19q48 0 48 67v163q0 14 14 14h2q24 0 38.5 -20t14.5 -51v-58
q0 -16 -7 -29.5t-19 -16.5q-17 -4 -25 -19.5t-4 -35.5q5 -22 19 -31.5t43 -9.5q47 0 74.5 40t27.5 108v54q0 85 -60 112q-10 5 0 10q39 23 39 87v48q0 63 -31.5 102t-90.5 39h-23h-1q-117 0 -117 -118v-388zM132 355v81q0 30 21 30t21 -39v-46q0 -19 -7 -29.5t-17 -10.5h-4
q-14 0 -14 14zM159 96q2 1 5 2t5 2q5 0 5 19v58q0 35 -15 42v-123z" />
    <glyph glyph-name="agrave" unicode="&#xe0;" horiz-adv-x="292" 
d="M220 -26q-33 0 -51 20q-27 -17 -66 -17q-52 0 -83 37.5t-31 102.5v51q0 73 41 106q-37 23 -37 71v45q0 42 22.5 75.5t57.5 50.5q-38 25 -38 72q0 38 22.5 59t55.5 21q40 0 85 -36q28 -22 37 -36.5t9 -34.5q0 -28 -22 -45q71 -33 71 -126v-345q0 -29 -19.5 -50t-53.5 -21z
M16 117q0 -54 23.5 -83.5t63.5 -29.5q42 0 66 23q9 6 12 -3q9 -23 39 -23q21 0 33.5 12t12.5 32v345q0 58 -31 85t-79 27h-31q-39 0 -72 -33t-33 -79v-45q0 -24 15 -40.5t41 -16.5q49 0 49 45v21q0 26 21 26q19 0 19 -26v-56q0 -26 -19 -26h-38q-92 0 -92 -104v-51zM62 588
q0 -27 17.5 -43t43.5 -16h58q15 0 25.5 9t10.5 23t-6.5 22.5t-29.5 27.5q-38 30 -68 30q-22 0 -36.5 -13.5t-14.5 -39.5zM124 135v39q0 22 22 22q19 0 19 -22v-39q0 -22 -20 -22q-21 0 -21 22z" />
    <glyph glyph-name="aacute" unicode="&#xe1;" horiz-adv-x="292" 
d="M220 -26q-33 0 -51 20q-27 -17 -66 -17q-52 0 -83 37.5t-31 102.5v51q0 73 41 106q-37 23 -37 71v45q0 40 21 73t54 51q-27 17 -27 48q0 20 9 34t37 37q45 36 85 36q33 0 55.5 -21t22.5 -59q0 -47 -35 -70q78 -31 78 -129v-345q0 -29 -19.5 -50t-53.5 -21zM16 117
q0 -54 23.5 -83.5t63.5 -29.5q42 0 66 23q9 6 12 -3q9 -23 39 -23q21 0 33.5 12t12.5 32v345q0 58 -31 85t-79 27h-31q-39 0 -72 -33t-33 -79v-45q0 -24 15 -40.5t41 -16.5q49 0 49 45v21q0 26 21 26q19 0 19 -26v-56q0 -26 -19 -26h-38q-92 0 -92 -104v-51zM68 562
q0 -14 10.5 -23t25.5 -9h58q26 0 43.5 16t17.5 43q0 26 -14.5 39.5t-36.5 13.5q-30 0 -68 -30q-23 -19 -29.5 -27.5t-6.5 -22.5zM124 135v39q0 22 22 22q19 0 19 -22v-39q0 -22 -20 -22q-21 0 -21 22z" />
    <glyph glyph-name="acircumflex" unicode="&#xe2;" horiz-adv-x="292" 
d="M220 -26q-33 0 -51 20q-27 -17 -66 -17q-52 0 -83 37.5t-31 102.5v51q0 73 41 106q-37 23 -37 71v45q0 73 62 116q-26 16 -26 47q0 17 21 49l8 11q40 54 87 54q46 0 86 -54l8 -11q21 -29 21 -49q0 -31 -23 -46q56 -36 56 -117v-345q0 -29 -19.5 -50t-53.5 -21zM16 117
q0 -54 23.5 -83.5t63.5 -29.5q42 0 66 23q9 6 12 -3q9 -23 39 -23q21 0 33.5 12t12.5 32v345q0 58 -31 85t-79 27h-31q-39 0 -72 -33t-33 -79v-45q0 -24 15 -40.5t41 -16.5q49 0 49 45v21q0 26 21 26q19 0 19 -26v-56q0 -26 -19 -26h-38q-92 0 -92 -104v-51zM56 553
q0 -13 8 -20.5t19 -7.5q15 0 52 19q10 4 20 0q37 -19 52 -19q11 0 18.5 7.5t7.5 20.5q0 9 -24 44q-31 43 -64 43q-34 0 -65 -43q-24 -35 -24 -44zM124 135v39q0 22 22 22q19 0 19 -22v-39q0 -22 -20 -22q-21 0 -21 22z" />
    <glyph glyph-name="atilde" unicode="&#xe3;" horiz-adv-x="292" 
d="M220 -26q-33 0 -51 20q-27 -17 -66 -17q-52 0 -83 37.5t-31 102.5v51q0 73 41 106q-37 23 -37 71v45q0 64 49 106q-20 5 -33.5 22t-13.5 40q0 57 27.5 88t72.5 31q43 0 74 -29q17 28 51 29h2q27 0 46 -19t19 -46q0 -73 -47 -107q53 -35 53 -115v-345q0 -29 -19.5 -50
t-53.5 -21zM16 117q0 -54 23.5 -83.5t63.5 -29.5q42 0 66 23q9 6 12 -3q9 -23 39 -23q21 0 33.5 12t12.5 32v345q0 58 -31 85t-79 27h-31q-39 0 -72 -33t-33 -79v-45q0 -24 15 -40.5t41 -16.5q49 0 49 45v21q0 26 21 26q19 0 19 -26v-56q0 -26 -19 -26h-38q-92 0 -92 -104
v-51zM22 558q0 -16 10.5 -26.5t26.5 -10.5q15 0 25.5 10.5t12.5 26.5q2 15 14 5q3 -3 12.5 -13t13.5 -13.5t12.5 -9.5t17.5 -8.5t19 -2.5q32 0 53 25t21 71q0 16 -11 27t-27 11t-26.5 -11t-10.5 -27v-7q0 -3 -1.5 -4.5t-4 -1t-4.5 2.5l-12 13q-13 14 -19.5 19.5t-19 10.5
t-29.5 5q-34 0 -53.5 -23t-19.5 -69zM124 135v39q0 22 22 22q19 0 19 -22v-39q0 -22 -20 -22q-21 0 -21 22z" />
    <glyph glyph-name="adieresis" unicode="&#xe4;" horiz-adv-x="292" 
d="M220 -26q-33 0 -51 20q-27 -17 -66 -17q-52 0 -83 37.5t-31 102.5v51q0 73 41 106q-37 23 -37 71v45q0 68 56 112q-24 9 -36.5 30t-12.5 46q0 32 21 56t61 24q39 0 61 -25q22 25 61 25q41 0 61 -24.5t20 -56.5q0 -54 -43 -73q51 -36 51 -110v-349q0 -29 -19.5 -50
t-53.5 -21zM16 117q0 -54 23.5 -83.5t63.5 -29.5q42 0 66 23q9 6 12 -3q9 -23 39 -23q21 0 33.5 12t12.5 32v345q0 58 -31 85t-79 27h-31q-39 0 -72 -33t-33 -79v-45q0 -24 15 -40.5t41 -16.5q49 0 49 45v21q0 26 21 26q19 0 19 -26v-56q0 -26 -19 -26h-38q-92 0 -92 -104
v-51zM27 578q0 -23 13.5 -39t41.5 -16q27 0 40 16t13 39t-13 38t-40 15q-28 0 -41.5 -15t-13.5 -38zM124 135v39q0 22 22 22q19 0 19 -22v-39q0 -22 -20 -22q-21 0 -21 22zM150 577q0 -23 13.5 -38.5t40.5 -15.5q54 0 54 54q0 23 -13 38.5t-41 15.5q-27 0 -40.5 -15.5
t-13.5 -38.5z" />
    <glyph glyph-name="aring" unicode="&#xe5;" horiz-adv-x="292" 
d="M220 -26q-33 0 -51 20q-27 -17 -66 -17q-52 0 -83 37.5t-31 102.5v51q0 73 41 106q-37 23 -37 71v45q0 66 53 110q-24 27 -24 68q0 53 34 88t86 35t85.5 -35t33.5 -88q0 -36 -19 -63q51 -37 51 -115v-345q0 -29 -19.5 -50t-53.5 -21zM16 117q0 -54 23.5 -83.5t63.5 -29.5
q42 0 66 23q9 6 12 -3q9 -23 39 -23q21 0 33.5 12t12.5 32v345q0 79 -59 103q-11 5 -2 13q29 23 29 62q0 42 -26 69t-66 27q-41 0 -67 -27t-26 -69t31 -63q9 -9 -1 -16q-26 -14 -42.5 -40.5t-16.5 -58.5v-45q0 -24 15 -40.5t41 -16.5q49 0 49 45v21q0 26 21 26q19 0 19 -26
v-56q0 -26 -19 -26h-38q-92 0 -92 -104v-51zM116 572q0 10 7 17.5t19 7.5q11 0 18 -7.5t7 -17.5q0 -11 -7 -18.5t-18 -7.5q-12 0 -19 7.5t-7 18.5zM124 135v39q0 22 22 22q19 0 19 -22v-39q0 -22 -20 -22q-21 0 -21 22z" />
    <glyph glyph-name="ae" unicode="&#xe6;" horiz-adv-x="436" 
d="M112 -26q-52 0 -87.5 35t-35.5 100v67q0 73 41 106q-37 23 -37 71v39q0 58 41 98.5t91 40.5h26q40 0 70 -28q29 29 70 29h16q69 0 104.5 -43.5t35.5 -123.5v-80q0 -49 -33 -79q29 -20 29 -59v-26q0 -62 -39 -103.5t-93 -41.5h-21q-48 0 -76 29q-32 -31 -102 -31zM16 109
q0 -52 27 -80t69 -28q94 0 101 63q0 3 1 4l1 -4q15 -61 75 -61h21q42 0 73.5 33.5t31.5 84.5v22q0 50 -52 50q-23 0 -36 -14t-13 -34q0 -17 -4 -23.5t-16 -6.5q-19 0 -19 28v40q0 12 5.5 19t13.5 7h52q33 0 53 21.5t20 54.5v80q0 140 -113 140h-16q-24 0 -43.5 -15
t-26.5 -34h-2q-17 48 -68 48h-26q-39 0 -72 -33t-33 -79v-39q0 -24 15 -40.5t41 -16.5q49 0 49 45v15q0 26 21 26q19 0 19 -26v-50q0 -26 -19 -26h-38q-92 0 -92 -104v-67zM124 127v56q0 23 22 23q7 0 13 -6t6 -17v-58q-1 -20 -20 -20q-21 0 -21 22zM270 297v71q0 19 19 19
q21 0 21 -21v-69q0 -22 -21 -22q-19 0 -19 22z" />
    <glyph glyph-name="ccedilla" unicode="&#xe7;" horiz-adv-x="282" 
d="M119 -222q-25 2 -41 19.5t-16 41.5q0 39 32 55q-26 27 -17 67l5 26l-18 7q-65 37 -65 138v248q0 71 39 109.5t95 38.5h38q53 0 90 -40.5t37 -102.5v-50q0 -66 -46 -85q41 -20 41 -70v-59q0 -55 -24.5 -89t-62.5 -46v-3q63 -29 63 -101q0 -52 -34.5 -78t-79.5 -26h-36z
M26 132q0 -104 74 -123q14 -5 11 -17l-8 -37q-5 -22 7 -38t30 -16h14q20 0 20 -14t-24 -14h-27q-34 0 -34 -34q0 -13 8.5 -22.5t22.5 -11.5h35q36 0 61.5 19t25.5 58q0 34 -14 51.5t-41 27.5q-13 5 -10 17l4 18q1 9 13 14q72 21 72 111v59q0 26 -15 38.5t-38 12.5t-37 -13
t-14 -33v-51q0 -19 -15 -19q-17 0 -17 21v212q0 38 14 38q10 0 13 -8t3 -29v-28q0 -51 58 -51q53 0 53 65v50q0 51 -29 83.5t-71 32.5h-38q-46 0 -76.5 -31t-30.5 -90v-248zM157 238h1q9 9 19 13q-10 4 -20 12v-25z" />
    <glyph glyph-name="egrave" unicode="&#xe8;" horiz-adv-x="290" 
d="M133 -22q-57 0 -95.5 34.5t-38.5 104.5v242q0 123 75 158q-37 24 -37 71q0 38 22.5 59t55.5 21q40 0 85 -36q28 -22 37 -36.5t9 -34.5q0 -29 -22 -45q77 -36 77 -157v-76q0 -49 -33 -79q27 -19 29 -59v-28q0 -62 -39 -100.5t-93 -38.5h-32zM26 117q0 -58 30 -85t77 -27
h32q43 0 74 31t31 81v24q0 50 -52 50q-23 0 -36 -14t-13 -34t-3.5 -26t-16.5 -6q-19 0 -19 27v43q0 12 5.5 19t13.5 7h52q33 0 53 21.5t20 54.5v76q0 143 -113 143h-28q-107 0 -107 -143v-242zM64 588q0 -27 17.5 -43t43.5 -16h58q15 0 25.5 9t10.5 23t-6.5 22.5t-29.5 27.5
q-38 30 -68 30q-22 0 -36.5 -13.5t-14.5 -39.5zM130 303v59q0 19 19 19q21 0 21 -21v-57q0 -22 -21 -22q-19 0 -19 22z" />
    <glyph glyph-name="eacute" unicode="&#xe9;" horiz-adv-x="290" 
d="M133 -22q-57 0 -95.5 34.5t-38.5 104.5v242q0 120 71 156q-23 16 -23 46q0 20 9 34.5t37 36.5q45 36 85 36q33 0 55.5 -21t22.5 -59q0 -47 -35 -70q80 -34 80 -159v-76q0 -49 -33 -79q27 -19 29 -59v-28q0 -62 -39 -100.5t-93 -38.5h-32zM26 117q0 -58 30 -85t77 -27h32
q43 0 74 31t31 81v24q0 50 -52 50q-23 0 -36 -14t-13 -34t-3.5 -26t-16.5 -6q-19 0 -19 27v43q0 12 5.5 19t13.5 7h52q33 0 53 21.5t20 54.5v76q0 143 -113 143h-28q-107 0 -107 -143v-242zM74 561q0 -14 10.5 -23t25.5 -9h58q26 0 43.5 16t17.5 43q0 26 -14.5 39.5
t-36.5 13.5q-30 0 -68 -30q-23 -19 -29.5 -27.5t-6.5 -22.5zM130 303v59q0 19 19 19q21 0 21 -21v-57q0 -22 -21 -22q-19 0 -19 22z" />
    <glyph glyph-name="ecircumflex" unicode="&#xea;" horiz-adv-x="290" 
d="M133 -22q-57 0 -95.5 34.5t-38.5 104.5v242q0 104 55 145q-24 17 -24 46q0 4 0.5 7.5t1 6.5t2.5 7l3 6t4.5 7t5 7.5t6 9t6.5 9.5q39 54 87 54q47 0 86 -54q2 -3 6.5 -9.5t6 -9t5 -7.5t4.5 -7l3 -6t2.5 -7t1 -6.5t0.5 -7.5q0 -28 -20 -43q60 -41 60 -148v-76
q0 -49 -33 -79q27 -19 29 -59v-28q0 -62 -39 -100.5t-93 -38.5h-32zM26 117q0 -58 30 -85t77 -27h32q43 0 74 31t31 81v24q0 50 -52 50q-23 0 -36 -14t-13 -34t-3.5 -26t-16.5 -6q-19 0 -19 27v43q0 12 5.5 19t13.5 7h52q33 0 53 21.5t20 54.5v76q0 143 -113 143h-28
q-107 0 -107 -143v-242zM57 550q0 -13 8 -20.5t19 -7.5q15 0 52 19q10 4 20 0q37 -19 52 -19q11 0 18.5 7.5t7.5 20.5q0 10 -24 44q-31 43 -64 43q-34 0 -65 -43q-24 -34 -24 -44zM130 303v59q0 19 19 19q21 0 21 -21v-57q0 -22 -21 -22q-19 0 -19 22z" />
    <glyph glyph-name="edieresis" unicode="&#xeb;" horiz-adv-x="290" 
d="M133 -22q-57 0 -95.5 34.5t-38.5 104.5v242q0 97 49 141q-44 21 -44 74q0 32 21 56t61 24q39 0 61 -25q22 25 61 25q41 0 61 -24.5t20 -56.5q0 -51 -40 -72q52 -43 52 -142v-76q0 -49 -33 -79q27 -19 29 -59v-28q0 -62 -39 -100.5t-93 -38.5h-32zM26 117q0 -58 30 -85
t77 -27h32q43 0 74 31t31 81v24q0 50 -52 50q-23 0 -36 -14t-13 -34t-3.5 -26t-16.5 -6q-19 0 -19 27v43q0 12 5.5 19t13.5 7h52q33 0 53 21.5t20 54.5v76q0 143 -113 143h-28q-107 0 -107 -143v-242zM31 574q0 -23 13.5 -39t41.5 -16q27 0 40 16t13 39t-13 38t-40 15
q-28 0 -41.5 -15t-13.5 -38zM130 303v59q0 19 19 19q21 0 21 -21v-57q0 -22 -21 -22q-19 0 -19 22zM154 573q0 -23 13.5 -38.5t40.5 -15.5q54 0 54 54q0 23 -13 38.5t-41 15.5q-27 0 -40.5 -15.5t-13.5 -38.5z" />
    <glyph glyph-name="igrave" unicode="&#xec;" horiz-adv-x="167" 
d="M84 -24q-43 0 -64 28.5t-21 65.5v319q0 46 28 71q-50 22 -50 79q0 38 23 59t55 21q40 0 85 -36q28 -23 37 -37t9 -34q0 -42 -42 -56q24 -25 24 -66v-320q0 -37 -21 -65.5t-63 -28.5zM4 539q0 -27 17.5 -43t43.5 -16h58q15 0 25.5 9t10.5 23t-6.5 22.5t-29.5 27.5
q-38 30 -68 30q-22 0 -36.5 -13.5t-14.5 -39.5zM26 70q0 -28 14.5 -47.5t43.5 -19.5t43 19.5t14 47.5v319q0 27 -14 46t-43 19t-43.5 -18.5t-14.5 -46.5v-319z" />
    <glyph glyph-name="iacute" unicode="&#xed;" horiz-adv-x="167" 
d="M84 -24q-43 0 -64 28.5t-21 65.5v319q0 42 24 67q-41 14 -41 56q0 21 9 34.5t37 36.5q46 36 85 36q33 0 55.5 -21t22.5 -59q0 -57 -51 -79q28 -25 28 -70v-320q0 -37 -21 -65.5t-63 -28.5zM9 512q0 -14 10.5 -23t25.5 -9h58q26 0 43.5 16t17.5 43q0 26 -14.5 39.5
t-36.5 13.5q-30 0 -68 -30q-23 -19 -29.5 -27.5t-6.5 -22.5zM26 70q0 -28 14.5 -47.5t43.5 -19.5t43 19.5t14 47.5v319q0 27 -14 46t-43 19t-43.5 -18.5t-14.5 -46.5v-319z" />
    <glyph glyph-name="icircumflex" unicode="&#xee;" horiz-adv-x="167" 
d="M84 -24q-43 0 -64 28.5t-21 65.5v319q0 32 16 57q-20 2 -35 16.5t-15 38.5q0 17 21 49l8 11q40 54 87 54q46 0 86 -54l8 -11q21 -29 21 -49t-12 -35.5t-32 -18.5q16 -25 16 -58v-319q0 -37 -21 -65.5t-63 -28.5zM-8 501q0 -13 8 -20.5t19 -7.5q15 0 52 19q10 4 20 0
q37 -19 52 -19q11 0 18.5 7.5t7.5 20.5q0 9 -24 44q-31 43 -64 43q-34 0 -65 -43q-24 -35 -24 -44zM26 70q0 -28 14.5 -47.5t43.5 -19.5t43 19.5t14 47.5v319q0 27 -14 46t-43 19t-43.5 -18.5t-14.5 -46.5v-319z" />
    <glyph glyph-name="idieresis" unicode="&#xef;" horiz-adv-x="167" 
d="M84 -24q-43 0 -64 28.5t-21 65.5v319q0 29 15 55q-35 4 -52.5 27.5t-17.5 53.5q0 32 21 56t61 24q39 0 61 -25q22 25 61 25q41 0 61 -24.5t20 -56.5q0 -31 -18.5 -55t-56.5 -26q14 -22 14 -54v-319q0 -37 -21 -65.5t-63 -28.5zM-29 525q0 -23 13.5 -39t41.5 -16
q27 0 40 16t13 39t-13 38t-40 15q-28 0 -41.5 -15t-13.5 -38zM26 70q0 -28 14.5 -47.5t43.5 -19.5t43 19.5t14 47.5v319q0 27 -14 46t-43 19t-43.5 -18.5t-14.5 -46.5v-319zM94 524q0 -23 13.5 -38.5t40.5 -15.5q54 0 54 54q0 23 -13 38.5t-41 15.5q-27 0 -40.5 -15.5
t-13.5 -38.5z" />
    <glyph glyph-name="eth" unicode="&#xf0;" horiz-adv-x="307" 
d="M115 -20q-54 0 -85 41.5t-31 108.5v166q0 67 29.5 104.5t84.5 40.5q-8 6 -14 17q-24 37 9 66l-4 10q-27 69 32 103q56 33 89 -7q13 -16 22 -30q32 6 51 -26q23 -35 -8 -65q18 -66 18 -140v-246q0 -70 -36.5 -106.5t-95.5 -36.5h-61zM26 130q0 -56 23.5 -89.5t65.5 -33.5
h61q48 0 76.5 29t28.5 87v246q0 75 -19 138q-3 12 -2 13q29 18 15 40q-10 18 -26 13q-12 -3 -18 7q-37 60 -82 34q-42 -25 -21 -69l9 -19q6 -12 -1 -16q-29 -17 -14 -38q12 -23 37 -9q5 3 8 -7q0 -1 1 -6t1 -16q0 -20 -16 -20h-31q-96 0 -96 -118v-166zM126 148v140
q0 22 23 22q8 0 15 -5.5t7 -16.5v-142q0 -9 -7 -14t-15 -5q-23 0 -23 21z" />
    <glyph glyph-name="ntilde" unicode="&#xf1;" horiz-adv-x="330" 
d="M85 -24q-41 0 -63.5 26t-22.5 63v388q0 47 35 67q-17 17 -17 43q0 57 27.5 88t72.5 31q43 0 74 -29q17 29 52 29h1q27 0 46 -19t19 -46q0 -69 -42 -103q64 -33 64 -126v-319q0 -37 -21 -64.5t-64 -27.5q-62 0 -80 57q-18 -58 -81 -58zM26 65q0 -27 15 -44.5t44 -17.5
q58 0 58 63v284q0 11 3 17q8 11 20 11q8 0 15 -5.5t7 -18.5v-287q0 -28 14 -45.5t44 -17.5t44 18.5t14 46.5v319q0 50 -23.5 80.5t-69.5 30.5q-49 0 -76 -33q-6 -10 -9 2q-9 36 -49 36q-25 0 -38 -14t-13 -37v-388zM44 563q0 -16 10.5 -26.5t26.5 -10.5q15 0 25.5 10.5
t12.5 26.5q2 15 14 5q3 -3 12.5 -13t13.5 -13.5t12.5 -9.5t17.5 -8.5t19 -2.5q32 0 53 25t21 71q0 16 -11 27t-27 11t-26.5 -11t-10.5 -27v-7q0 -3 -1.5 -4.5t-4 -1t-4.5 2.5l-12 13q-13 14 -19.5 19.5t-19 10.5t-29.5 5q-34 0 -53.5 -23t-19.5 -69zM125 516q7 -4 13 -12
q1 1 14 9q-15 12 -17 15q-6 -8 -10 -12z" />
    <glyph glyph-name="ograve" unicode="&#xf2;" horiz-adv-x="303" 
d="M142 -23q-59 0 -101 39t-42 110v248q0 106 78 142q-35 23 -35 70q0 38 22.5 59t55.5 21q40 0 85 -36q28 -22 37 -36.5t9 -34.5q0 -28 -22 -45q75 -37 75 -140v-248q0 -63 -38.5 -106t-95.5 -43h-28zM26 126q0 -58 34 -90t82 -32h28q45 0 76 35t31 87v248q0 57 -29.5 92
t-83.5 35h-27q-51 0 -81 -34t-30 -93v-248zM69 586q0 -27 17.5 -43t43.5 -16h58q15 0 25.5 9t10.5 23t-6.5 22.5t-29.5 27.5q-38 30 -68 30q-22 0 -36.5 -13.5t-14.5 -39.5zM133 145v216q0 19 18 19q20 0 20 -21v-214q0 -22 -20 -22q-18 0 -18 22z" />
    <glyph glyph-name="oacute" unicode="&#xf3;" horiz-adv-x="303" 
d="M142 -23q-59 0 -101 39t-42 110v248q0 101 74 140q-23 16 -23 45q0 20 9 34.5t37 36.5q46 36 85 36q33 0 55.5 -21t22.5 -59q0 -45 -35 -70q38 -17 59 -54.5t21 -87.5v-248q0 -63 -38.5 -106t-95.5 -43h-28zM26 126q0 -58 34 -90t82 -32h28q45 0 76 35t31 87v248
q0 57 -29.5 92t-83.5 35h-27q-51 0 -81 -34t-30 -93v-248zM77 559q0 -14 10.5 -23t25.5 -9h58q26 0 43.5 16t17.5 43q0 26 -14.5 39.5t-36.5 13.5q-30 0 -68 -30q-23 -19 -29.5 -27.5t-6.5 -22.5zM133 145v216q0 19 18 19q20 0 20 -21v-214q0 -22 -20 -22q-18 0 -18 22z" />
    <glyph glyph-name="ocircumflex" unicode="&#xf4;" horiz-adv-x="303" 
d="M142 -23q-59 0 -101 39t-42 110v248q0 88 57 129q-23 15 -23 45q0 4 0.5 7.5t1 6.5t2.5 7l3 6t4.5 7t5 7.5t6 9t6.5 9.5q40 54 87 54q46 0 86 -54q2 -3 6.5 -9.5t6 -9t5 -7.5t4.5 -7l3 -6t2.5 -7t1 -6.5t0.5 -7.5q0 -27 -19 -43q59 -41 59 -131v-248q0 -63 -38.5 -106
t-95.5 -43h-28zM26 126q0 -58 34 -90t82 -32h28q45 0 76 35t31 87v248q0 57 -29.5 92t-83.5 35h-27q-51 0 -81 -34t-30 -93v-248zM60 548q0 -13 8 -20.5t19 -7.5q15 0 52 19q10 4 20 0q37 -19 52 -19q11 0 18.5 7.5t7.5 20.5q0 10 -24 44q-31 43 -64 43q-34 0 -65 -43
q-24 -34 -24 -44zM133 145v216q0 19 18 19q20 0 20 -21v-214q0 -22 -20 -22q-18 0 -18 22z" />
    <glyph glyph-name="otilde" unicode="&#xf5;" horiz-adv-x="303" 
d="M142 -23q-59 0 -101 39t-42 110v248q0 79 46 120q-20 7 -31.5 24t-11.5 37q0 57 27.5 88t72.5 31q43 0 74 -29q17 29 51 29h2q27 0 46 -19t19 -46q0 -75 -46 -106q56 -42 56 -129v-248q0 -63 -38.5 -106t-95.5 -43h-28zM26 126q0 -58 34 -90t82 -32h28q45 0 76 35t31 87
v248q0 57 -29.5 92t-83.5 35h-27q-51 0 -81 -34t-30 -93v-248zM29 555q0 -16 10.5 -26.5t26.5 -10.5t26 10.5t12 26.5q2 15 14 5q3 -3 12.5 -13t13.5 -13.5t12.5 -9.5t17.5 -8.5t19 -2.5q32 0 53 25t21 71q0 16 -11 27t-27 11t-26.5 -11t-10.5 -27v-7q0 -3 -1.5 -4.5t-4 -1
t-4.5 2.5l-12 13q-13 14 -19.5 19.5t-19 10.5t-29.5 5q-34 0 -53.5 -23t-19.5 -69zM133 145v216q0 19 18 19q20 0 20 -21v-214q0 -22 -20 -22q-18 0 -18 22z" />
    <glyph glyph-name="odieresis" unicode="&#xf6;" horiz-adv-x="303" 
d="M142 -23q-59 0 -101 39t-42 110v248q0 84 51 125q-42 21 -42 74q0 32 21 56t61 24q39 0 61 -25q22 25 61 25q41 0 61 -24.5t20 -56.5q0 -52 -41 -72q52 -43 52 -126v-248q0 -63 -38.5 -106t-95.5 -43h-28zM26 126q0 -58 34 -90t82 -32h28q45 0 76 35t31 87v248
q0 57 -29.5 92t-83.5 35h-27q-51 0 -81 -34t-30 -93v-248zM35 573q0 -23 13.5 -39t41.5 -16q27 0 40 16t13 39t-13 38t-40 15q-28 0 -41.5 -15t-13.5 -38zM133 145v216q0 19 18 19q20 0 20 -21v-214q0 -22 -20 -22q-18 0 -18 22zM158 572q0 -23 13.5 -38.5t40.5 -15.5
q54 0 54 54q0 23 -13 38.5t-41 15.5q-27 0 -40.5 -15.5t-13.5 -38.5z" />
    <glyph glyph-name="divide" unicode="&#xf7;" horiz-adv-x="357" 
d="M179 23q-44 0 -66.5 25.5t-22.5 61.5q0 41 26 66h-36q-36 0 -58.5 20.5t-22.5 59.5q0 40 22.5 60.5t58.5 20.5h32q-22 25 -22 61q0 37 22.5 63t66.5 26q45 0 66 -26.5t21 -62.5q0 -37 -21 -61h30q35 0 59 -20.5t24 -60.5t-24 -60t-59 -20h-34q25 -25 25 -66
q0 -36 -21.5 -61.5t-65.5 -25.5zM26 256q0 -53 54 -53h195q56 0 56 53q0 54 -56 54h-195q-54 0 -54 -54zM117 110q0 -26 15 -43t47 -17q60 0 60 60q0 62 -60 62q-32 0 -47 -17.5t-15 -44.5zM117 398q0 -26 15 -43t47 -17q60 0 60 60q0 62 -60 62q-32 0 -47 -17.5t-15 -44.5z
" />
    <glyph glyph-name="oslash" unicode="&#xf8;" horiz-adv-x="306" 
d="M143 -21q-40 0 -74 19q-30 -21 -63 0q-55 29 -20 90l13 24q1 2 1 5v256q0 71 38 112.5t100 41.5h25q43 0 77 -21q27 15 62 0q50 -35 19 -93l-17 -29q-1 -1 -1 -3v-253q0 -63 -38.5 -106t-95.5 -43h-26zM10 75q-22 -37 10 -54q20 -13 37 2q10 8 20 2q28 -19 66 -19h26
q45 0 76 35t31 87v253q0 8 4 16l17 29q19 37 -9 56q-21 10 -38 -2q-10 -7 -19 -1q-29 21 -68 21h-25q-51 0 -81 -34t-30 -93v-256q0 -10 -4 -18zM130 139v25q0 9 5 17l20 31q5 9 11 7t6 -12v-68q0 -24 -22 -24q-7 0 -13.5 6t-6.5 18zM130 298v67q0 10 6.5 15.5t13.5 5.5
q22 0 22 -23v-22q0 -9 -5 -17l-20 -31q-5 -9 -11 -7t-6 12z" />
    <glyph glyph-name="ugrave" unicode="&#xf9;" horiz-adv-x="323" 
d="M119 -23q-58 0 -89 36.5t-31 96.5v326q0 32 16.5 58t50.5 32q-17 24 -17 53q0 38 23 59t55 21q40 0 85 -36q28 -23 37 -37t9 -34q0 -14 -6 -26q36 -5 54 -32.5t18 -61.5v-379q0 -31 -20 -52.5t-58 -21.5q-35 0 -54 22q-31 -24 -73 -24zM26 110q0 -49 23.5 -77.5
t69.5 -28.5q49 0 73 37q5 7 9 -5q12 -30 45 -30q51 0 51 47v379q0 28 -14.5 48t-43.5 20t-43 -19.5t-14 -47.5v-291q0 -12 -7.5 -18t-15.5 -6q-7 0 -13.5 6.5t-6.5 17.5v295q0 63 -55 63q-30 0 -44 -18t-14 -46v-326zM76 579q0 -27 17.5 -43t43.5 -16h58q15 0 25.5 9
t10.5 23t-6.5 22.5t-29.5 27.5q-38 30 -68 30q-22 0 -36.5 -13.5t-14.5 -39.5zM153 493q7 -15 9 -21q2 6 10 21h-19z" />
    <glyph glyph-name="uacute" unicode="&#xfa;" horiz-adv-x="323" 
d="M119 -23q-58 0 -89 36.5t-31 96.5v326q0 32 16.5 57.5t49.5 31.5q-5 12 -5 24q0 20 9 34.5t37 36.5q46 36 85 36q33 0 55.5 -21t22.5 -59q0 -30 -15 -50q35 -6 52.5 -33.5t17.5 -60.5v-379q0 -31 -20 -52.5t-58 -21.5q-35 0 -54 22q-31 -24 -73 -24zM26 110
q0 -49 23.5 -77.5t69.5 -28.5q49 0 73 37q5 7 9 -5q12 -30 45 -30q51 0 51 47v379q0 28 -14.5 48t-43.5 20t-43 -19.5t-14 -47.5v-291q0 -12 -7.5 -18t-15.5 -6q-7 0 -13.5 6.5t-6.5 17.5v295q0 63 -55 63q-30 0 -44 -18t-14 -46v-326zM87 549q0 -14 10.5 -23t25.5 -9h58
q26 0 43.5 16t17.5 43q0 26 -14.5 39.5t-36.5 13.5q-30 0 -68 -30q-23 -19 -29.5 -27.5t-6.5 -22.5zM154 490q5 -9 8 -18q2 6 8 18h-16z" />
    <glyph glyph-name="ucircumflex" unicode="&#xfb;" horiz-adv-x="323" 
d="M119 -23q-58 0 -89 36.5t-31 96.5v326q0 64 50 85q-6 11 -6 26q0 17 21 49q1 1 2.5 3t3 4.5t2.5 3.5q40 54 87 54q46 0 86 -54q1 -1 3.5 -5t4.5 -6q21 -29 21 -49q0 -12 -5 -25q28 -9 41.5 -34.5t13.5 -55.5v-379q0 -31 -20 -52.5t-58 -21.5q-35 0 -54 22
q-31 -24 -73 -24zM26 110q0 -49 23.5 -77.5t69.5 -28.5q49 0 73 37q5 7 9 -5q12 -30 45 -30q51 0 51 47v379q0 28 -14.5 48t-43.5 20t-43 -19.5t-14 -47.5v-291q0 -12 -7.5 -18t-15.5 -6q-7 0 -13.5 6.5t-6.5 17.5v295q0 63 -55 63q-30 0 -44 -18t-14 -46v-326zM70 547
q0 -13 8 -20.5t19 -7.5q15 0 52 19q10 4 20 0q37 -19 52 -19q11 0 18.5 7.5t7.5 20.5q0 9 -24 44q-31 43 -64 43q-34 0 -65 -43q-24 -35 -24 -44zM143 505q13 -13 19 -33q6 17 18 31l-21 10q-3 -1 -8 -3.5t-8 -4.5z" />
    <glyph glyph-name="udieresis" unicode="&#xfc;" horiz-adv-x="323" 
d="M119 -23q-58 0 -89 36.5t-31 96.5v326q0 57 41 80q-24 24 -24 61q0 32 21 56t61 24q39 0 61 -25q22 25 61 25q41 0 61 -24.5t20 -56.5q0 -36 -21 -58q44 -23 44 -86v-379q0 -31 -20 -52.5t-58 -21.5q-35 0 -54 22q-31 -24 -73 -24zM26 110q0 -49 23.5 -77.5t69.5 -28.5
q49 0 73 37q5 7 9 -5q12 -30 45 -30q51 0 51 47v379q0 28 -14.5 48t-43.5 20t-43 -19.5t-14 -47.5v-291q0 -12 -7.5 -18t-15.5 -6q-7 0 -13.5 6.5t-6.5 17.5v295q0 63 -55 63q-30 0 -44 -18t-14 -46v-326zM43 577q0 -23 13.5 -39t41.5 -16q27 0 40 16t13 39t-13 38t-40 15
q-28 0 -41.5 -15t-13.5 -38zM142 506q14 -14 20 -34q6 17 18 31v1q-13 7 -21 16q-8 -8 -17 -14zM166 576q0 -23 13.5 -38.5t40.5 -15.5q54 0 54 54q0 23 -13 38.5t-41 15.5q-27 0 -40.5 -15.5t-13.5 -38.5z" />
    <glyph glyph-name="yacute" unicode="&#xfd;" horiz-adv-x="315" 
d="M153 -135q-57 0 -108 38.5t-51 103.5v23q0 55 47 75q-52 42 -52 125v209q0 34 17.5 60.5t55.5 30.5q-7 14 -7 27q0 20 9 34.5t37 36.5q45 36 85 36q33 0 55.5 -21t22.5 -59q0 -31 -18 -54q38 -5 54 -31t16 -56v-435q0 -67 -40.5 -105t-97.5 -38h-25zM16 230
q0 -63 32.5 -95.5t87.5 -32.5h31q17 0 17 -21v-54q0 -26 -20 -26q-24 0 -24 29q0 23 -17 39.5t-43 16.5q-28 0 -43.5 -16t-15.5 -40v-23q0 -52 42 -83.5t90 -31.5h25q47 0 79 30.5t32 85.5v435q0 13 -3.5 25t-17 23.5t-35.5 11.5q-62 0 -62 -61v-216q0 -22 -19 -22
q-22 0 -22 22v216q0 61 -57 61t-57 -64v-209zM82 557q0 -14 10.5 -23t25.5 -9h58q26 0 43.5 16t17.5 43q0 26 -14.5 39.5t-36.5 13.5q-30 0 -68 -30q-23 -19 -29.5 -27.5t-6.5 -22.5z" />
    <glyph glyph-name="thorn" unicode="&#xfe;" horiz-adv-x="326" 
d="M86 -132q-43 0 -65 27t-22 65v552q0 38 22.5 64.5t64.5 26.5q41 0 62 -26t21 -68v-66h3q73 0 114 -47.5t41 -120.5v-130q0 -68 -41.5 -115t-107.5 -47h-9v-21q0 -41 -21.5 -67.5t-61.5 -26.5zM26 -40q0 -28 15 -46.5t45 -18.5q56 0 56 67v34q0 14 14 14h22q54 0 88 38.5
t34 96.5v130q0 63 -33.5 102t-94.5 39h-16q-14 0 -14 14v79q0 67 -56 67q-30 0 -45 -18t-15 -46v-552zM142 133v153q0 14 14 14h5q10 0 17.5 -8t7.5 -21v-121q0 -13 -8 -22t-17 -9h-5q-14 0 -14 14z" />
    <glyph glyph-name="ydieresis" unicode="&#xff;" horiz-adv-x="315" 
d="M153 -135q-57 0 -108 38.5t-51 103.5v23q0 55 47 75q-52 42 -52 125v209q0 62 44 83q-24 23 -24 60q0 33 20.5 56.5t61.5 23.5q39 0 61 -25q21 25 57 25h4q41 0 61 -24.5t20 -56.5q0 -37 -22 -59q43 -20 43 -76l1 -438q0 -67 -40.5 -105t-97.5 -38h-25zM16 230
q0 -63 32.5 -95.5t87.5 -32.5h31q17 0 17 -21v-54q0 -26 -20 -26q-24 0 -24 29q0 23 -17 39.5t-43 16.5q-28 0 -43.5 -16t-15.5 -40v-23q0 -52 42 -83.5t90 -31.5h25q47 0 79 30.5t32 85.5v435q0 13 -3.5 25t-17 23.5t-35.5 11.5q-62 0 -62 -61v-216q0 -22 -19 -22
q-22 0 -22 22v216q0 61 -57 61t-57 -64v-209zM36 582q0 -23 13.5 -39t41.5 -16q27 0 40 16t13 39t-13 38t-40 15q-28 0 -41.5 -15t-13.5 -38zM132 510q12 -12 18 -29q7 16 21 29q-11 6 -19 15q-10 -10 -20 -15zM159 581q0 -23 13.5 -38.5t40.5 -15.5q54 0 54 54
q0 23 -13 38.5t-41 15.5q-27 0 -40.5 -15.5t-13.5 -38.5z" />
    <glyph glyph-name="Amacron" unicode="&#x100;" horiz-adv-x="317" 
d="M82 -23q-38 0 -60.5 26t-22.5 61v380q0 96 75 140q-36 17 -36 62q0 33 21 52t59 19h80q37 0 59.5 -18.5t22.5 -52.5q0 -41 -32 -60q70 -40 70 -140v-384q0 -37 -23 -61t-57 -24q-29 0 -49 16t-28 41q-20 -57 -79 -57zM26 64q0 -25 15 -42.5t41 -17.5q25 0 41 18t16 42
v113q0 14 14 14h16q14 0 14 -14v-113q0 -25 14.5 -42.5t41.5 -17.5q24 0 38 17t14 41v384q0 62 -32 96.5t-82 34.5h-28q-49 0 -86 -35.5t-37 -97.5v-380zM65 646q0 -45 53 -45h80q55 0 55 45q0 44 -55 44h-80q-53 0 -53 -44zM139 304v120q0 12 6 19.5t15 7.5t16 -8t7 -20
v-119q0 -14 -14 -14h-16q-14 0 -14 14z" />
    <glyph glyph-name="amacron" unicode="&#x101;" horiz-adv-x="292" 
d="M220 -26q-33 0 -51 20q-27 -17 -66 -17q-52 0 -83 37.5t-31 102.5v51q0 73 41 106q-37 23 -37 71v45q0 78 68 120q-42 17 -42 65q0 33 21.5 52t58.5 19h80q38 0 60 -18.5t22 -52.5q0 -43 -35 -61q67 -34 67 -124v-345q0 -29 -19.5 -50t-53.5 -21zM16 117
q0 -54 23.5 -83.5t63.5 -29.5q42 0 66 23q9 6 12 -3q9 -23 39 -23q21 0 33.5 12t12.5 32v345q0 58 -31 85t-79 27h-31q-39 0 -72 -33t-33 -79v-45q0 -24 15 -40.5t41 -16.5q49 0 49 45v21q0 26 21 26q19 0 19 -26v-56q0 -26 -19 -26h-38q-92 0 -92 -104v-51zM46 575
q0 -45 53 -45h80q55 0 55 45q0 44 -55 44h-80q-53 0 -53 -44zM124 135v39q0 22 22 22q19 0 19 -22v-39q0 -22 -20 -22q-21 0 -21 22z" />
    <glyph glyph-name="Abreve" unicode="&#x102;" horiz-adv-x="317" 
d="M82 -23q-38 0 -60.5 26t-22.5 61v380q0 54 24.5 91t63.5 55q-38 24 -59 68q-6 10 -6 27q0 28 18.5 46.5t46.5 18.5q44 0 61 -41q3 -7 13 -7q11 0 15 10q20 36 58 36q26 0 46 -18.5t20 -46.5q0 -18 -8 -33q-22 -36 -57 -57q83 -37 83 -147v-384q0 -37 -23 -61t-57 -24
q-29 0 -49 16t-28 41q-20 -57 -79 -57zM26 64q0 -25 15 -42.5t41 -17.5q25 0 41 18t16 42v113q0 14 14 14h16q14 0 14 -14v-113q0 -25 14.5 -42.5t41.5 -17.5q26 0 39 16.5t13 41.5v384q0 62 -32 96.5t-82 34.5h-28q-49 0 -86 -35.5t-37 -97.5v-380zM49 685q0 -9 3 -16
q16 -34 44.5 -53t60.5 -19q31 0 62 17.5t49 48.5q5 10 5 20q0 16 -11.5 27t-27.5 11q-22 0 -34 -21q-11 -25 -43 -25q-26 0 -34 24q-10 24 -36 24q-17 0 -27.5 -10.5t-10.5 -27.5zM139 304v120q0 12 6 19.5t15 7.5t16 -8t7 -20v-119q0 -14 -14 -14h-16q-14 0 -14 14z" />
    <glyph glyph-name="abreve" unicode="&#x103;" horiz-adv-x="292" 
d="M220 -26q-33 0 -51 20q-27 -17 -66 -17q-52 0 -83 37.5t-31 102.5v51q0 73 41 106q-37 23 -37 71v45q0 40 21.5 73.5t54.5 50.5q-39 26 -59 67q-5 15 -5 27q0 28 18.5 46.5t46.5 18.5q44 0 61 -41q3 -7 9 -7q15 0 19 10q19 36 58 36q27 0 46.5 -18.5t19.5 -46.5
q0 -15 -8 -33q-21 -36 -55 -56q73 -33 73 -127v-345q0 -29 -19.5 -50t-53.5 -21zM16 117q0 -54 23.5 -83.5t63.5 -29.5q42 0 66 23q9 6 12 -3q9 -23 39 -23q21 0 33.5 12t12.5 32v345q0 58 -31 85t-79 27h-31q-39 0 -72 -33t-33 -79v-45q0 -24 15 -40.5t41 -16.5q49 0 49 45
v21q0 26 21 26q19 0 19 -26v-56q0 -26 -19 -26h-38q-92 0 -92 -104v-51zM32 608q0 -8 3 -16q16 -34 44.5 -53t60.5 -19q31 0 62 17.5t49 48.5q5 10 5 20q0 16 -11.5 27t-27.5 11q-22 0 -34 -21q-11 -25 -43 -25q-26 0 -34 24q-10 24 -36 24q-16 0 -27 -11t-11 -27zM124 135
v39q0 22 22 22q19 0 19 -22v-39q0 -22 -20 -22q-21 0 -21 22z" />
    <glyph glyph-name="Cacute" unicode="&#x106;" horiz-adv-x="304" 
d="M135 -21q-136 0 -136 156v312q0 106 79 144q-24 17 -24 47q0 21 9 34.5t37 36.5q46 36 85 36q33 0 55.5 -21t22.5 -59q0 -43 -33 -68q40 -15 65 -54t25 -90v-62q0 -40 -20 -69t-65 -29q-44 0 -68 26l-1 1l1 -56q22 27 61 27q37 0 60.5 -20t23.5 -62v-78
q0 -79 -43.5 -115.5t-98.5 -36.5h-35zM26 135q0 -129 109 -129h35q46 0 80.5 29.5t34.5 95.5v78q0 55 -57 55q-24 0 -38.5 -15t-14.5 -35v-74q0 -20 -17 -20q-18 0 -18 23l-1 272q0 41 17 41q11 0 14 -8.5t3 -31.5v-39q0 -26 16 -41.5t46 -15.5q58 0 58 71v62q0 55 -31.5 90
t-76.5 35h-43q-50 0 -83 -33.5t-33 -97.5v-312zM81 638q0 -14 10.5 -23t25.5 -9h58q26 0 43.5 16t17.5 43q0 26 -14.5 39.5t-36.5 13.5q-30 0 -68 -30q-23 -19 -29.5 -27.5t-6.5 -22.5z" />
    <glyph glyph-name="cacute" unicode="&#x107;" horiz-adv-x="282" 
d="M131 -22q-66 0 -99 43.5t-33 110.5v248q0 96 69 132q-22 19 -22 46q0 21 9 34.5t37 36.5q46 36 85 36q33 0 55.5 -21t22.5 -59q0 -43 -33 -68q34 -16 55 -51t21 -81v-50q0 -66 -46 -85q41 -20 41 -70v-59q0 -75 -41 -109t-93 -34h-28zM26 132q0 -58 26 -92.5t79 -34.5h28
q43 0 75 27.5t32 88.5v59q0 26 -15 38.5t-38 12.5t-37 -13t-14 -33v-51q0 -19 -15 -19q-17 0 -17 21v212q0 38 14 38q10 0 13 -8t3 -29v-28q0 -51 58 -51q53 0 53 65v50q0 51 -29 83.5t-71 32.5h-38q-46 0 -76.5 -31t-30.5 -90v-248zM73 558q0 -14 10.5 -23t25.5 -9h58
q26 0 43.5 16t17.5 43q0 26 -14.5 39.5t-36.5 13.5q-30 0 -68 -30q-23 -19 -29.5 -27.5t-6.5 -22.5zM157 238h1q9 9 19 13q-10 4 -20 12v-25z" />
    <glyph glyph-name="Ccaron" unicode="&#x10c;" horiz-adv-x="304" 
d="M135 -21q-136 0 -136 156v312q0 60 26.5 98.5t69.5 52.5q-15 12 -29 32q-2 2 -6 8t-5.5 8t-4.5 6.5t-4 6.5l-3 6t-2.5 6t-1.5 5.5t-1.5 6.5t-0.5 6q0 25 16.5 40t37.5 15q23 0 62 -21q38 21 62 21t38.5 -16t14.5 -39q0 -10 -4.5 -20t-7.5 -14.5t-17 -24.5
q-14 -19 -24 -28q46 -12 75.5 -52t29.5 -97v-62q0 -40 -20 -69t-65 -29q-44 0 -68 26l-1 1l1 -56q22 27 61 27q37 0 60.5 -20t23.5 -62v-78q0 -79 -43.5 -115.5t-98.5 -36.5h-35zM26 135q0 -129 109 -129h35q46 0 80.5 29.5t34.5 95.5v78q0 55 -57 55q-24 0 -38.5 -15
t-14.5 -35v-74q0 -20 -17 -20q-18 0 -18 23l-1 272q0 41 17 41q11 0 14 -8.5t3 -31.5v-39q0 -26 16 -41.5t46 -15.5q58 0 58 71v62q0 55 -31.5 90t-76.5 35h-43q-50 0 -83 -33.5t-33 -97.5v-312zM64 689q0 -9 24 -44q31 -43 65 -43q33 0 64 43q24 35 24 44q0 13 -7.5 20.5
t-18.5 7.5q-15 0 -52 -19q-10 -4 -20 0q-37 19 -52 19q-11 0 -19 -7.5t-8 -20.5z" />
    <glyph glyph-name="ccaron" unicode="&#x10d;" horiz-adv-x="282" 
d="M131 -22q-66 0 -99 43.5t-33 110.5v248q0 53 23 89t61 50q-14 12 -26 29l-7 11q-22 31 -22 49q0 25 16.5 40t37.5 15q20 0 62 -21q42 21 62 21q23 0 38 -16t15 -39q0 -18 -21 -49l-8 -11q-14 -18 -22 -26q40 -12 65 -49t25 -88v-50q0 -66 -46 -85q41 -20 41 -70v-59
q0 -75 -41 -109t-93 -34h-28zM26 132q0 -58 26 -92.5t79 -34.5h28q43 0 75 27.5t32 88.5v59q0 26 -15 38.5t-38 12.5t-37 -13t-14 -33v-51q0 -19 -15 -19q-17 0 -17 21v212q0 38 14 38q10 0 13 -8t3 -29v-28q0 -51 58 -51q53 0 53 65v50q0 51 -29 83.5t-71 32.5h-38
q-46 0 -76.5 -31t-30.5 -90v-248zM55 608q0 -10 24 -44q31 -43 65 -43q33 0 64 43q24 34 24 44q0 13 -7.5 20.5t-18.5 7.5q-15 0 -52 -19q-10 -4 -20 0q-37 19 -52 19q-11 0 -19 -7.5t-8 -20.5zM157 238h1q9 9 19 13q-10 4 -20 12v-25z" />
    <glyph glyph-name="Dcroat" unicode="&#x110;" horiz-adv-x="325" 
d="M76 -22q-36 0 -55 21t-19 58v173q-33 18 -33 62q0 45 33 63v176q0 73 74 73h98q72 -1 112 -48.5t40 -119.5v-296q0 -69 -41.5 -115.5t-107.5 -46.5h-101zM-4 292q0 -29 22 -40q11 -6 11 -16v-179q0 -52 47 -52h101q54 0 88 38.5t34 96.5v296q0 62 -33 101t-92 40h-98
q-26 0 -36.5 -11t-10.5 -35v-182q0 -10 -11 -16q-22 -11 -22 -41zM138 132v105q0 10 11 16q19 11 19 39t-19 39q-11 6 -11 17v96q0 14 14 14h11q10 0 17 -8t7 -21v-280q0 -13 -7.5 -22t-16.5 -9h-11q-14 0 -14 14z" />
    <glyph glyph-name="dcroat" unicode="&#x111;" horiz-adv-x="317" 
d="M238 -24q-36 0 -58 25q-32 -21 -69 -21q-54 0 -83 36.5t-29 102.5v205q0 70 32 107.5t91 37.5h3q-14 16 -14 40q0 45 38 57q2 31 24.5 53.5t58.5 22.5h1q37 0 59.5 -22.5t25.5 -55.5q35 -13 35 -54q0 -21 -9 -36.5t-25 -18.5v-416h-2q-13 -63 -79 -63zM26 119
q0 -112 85 -112q48 0 72 34q3 3 3.5 2t3.5 -8q12 -32 48 -32q54 0 54 61v401q0 13 4 13q30 0 30 32q0 24 -21 30q-13 3 -13 13q0 26 -15 44t-44 18q-25 0 -41 -16.5t-16 -39.5v-4q0 -14 -5 -14q-33 0 -33 -31q1 -32 33 -32q5 0 5 -14v-2q0 -20 -16 -20h-38q-96 0 -96 -118
v-205zM134 148v168q0 22 23 22q8 0 15 -5.5t7 -16.5v-170q0 -9 -7 -14t-15 -5q-23 0 -23 21z" />
    <glyph glyph-name="Emacron" unicode="&#x112;" horiz-adv-x="254" 
d="M84 -23q-43 0 -64 28t-21 66v439q0 57 39 82q-25 19 -25 56q0 33 21 52t59 19h80q38 0 60 -18.5t22 -52.5q0 -38 -26 -56q41 -23 41 -75q0 -45 -27 -66.5t-64 -21.5h-14v-59h20q35 0 56.5 -20t21.5 -54q0 -35 -22 -55t-56 -20h-20v-69h14q37 0 64 -21.5t27 -66.5
q0 -44 -27 -65.5t-64 -21.5h-95zM26 71q0 -29 14 -48t44 -19h95q27 0 45.5 14.5t18.5 45.5t-18 46t-46 15h-27q-14 0 -14 14v95q0 14 14 14h33q51 0 51 48q0 47 -51 47h-33q-14 0 -14 14v85q0 14 14 14h27q28 0 46 15t18 46t-18.5 45.5t-45.5 14.5h-95q-30 0 -44 -19
t-14 -48v-439zM40 648q0 -45 53 -45h80q55 0 55 45q0 44 -55 44h-80q-53 0 -53 -44z" />
    <glyph glyph-name="emacron" unicode="&#x113;" horiz-adv-x="290" 
d="M133 -22q-57 0 -95.5 34.5t-38.5 104.5v242q0 116 67 154q-37 17 -37 63q0 33 21 52t59 19h80q38 0 60 -18.5t22 -52.5q0 -46 -39 -64q69 -38 69 -153v-76q0 -49 -33 -79q27 -19 29 -59v-28q0 -62 -39 -100.5t-93 -38.5h-32zM26 117q0 -58 30 -85t77 -27h32q43 0 74 31
t31 81v24q0 50 -52 50q-23 0 -36 -14t-13 -34t-3.5 -26t-16.5 -6q-19 0 -19 27v43q0 12 5.5 19t13.5 7h52q33 0 53 21.5t20 54.5v76q0 143 -113 143h-28q-107 0 -107 -143v-242zM56 576q0 -45 53 -45h80q55 0 55 45q0 44 -55 44h-80q-53 0 -53 -44zM130 303v59q0 19 19 19
q21 0 21 -21v-57q0 -22 -21 -22q-19 0 -19 22z" />
    <glyph glyph-name="Imacron" unicode="&#x12a;" horiz-adv-x="166" 
d="M82 -25q-39 0 -61 26.5t-22 67.5v443q0 38 20 64q-56 12 -56 70q0 33 21 52t59 19h80q38 0 60 -18.5t22 -52.5q0 -57 -58 -70q20 -26 20 -64v-443q0 -37 -21.5 -65.5t-63.5 -28.5zM-10 646q0 -45 53 -45h80q55 0 55 45q0 44 -55 44h-80q-53 0 -53 -44zM26 69
q0 -28 13.5 -47.5t42.5 -19.5t43.5 19.5t14.5 47.5v443q0 29 -14.5 48t-42.5 19q-29 0 -43 -19t-14 -48v-443z" />
    <glyph glyph-name="imacron" unicode="&#x12b;" horiz-adv-x="167" 
d="M84 -24q-43 0 -64 28.5t-21 65.5v319q0 51 34 76q-35 2 -54.5 21t-19.5 51q0 33 21.5 52t58.5 19h80q38 0 60 -18.5t22 -52.5q0 -30 -18.5 -49t-48.5 -22q34 -26 34 -77v-319q0 -37 -21 -65.5t-63 -28.5zM-14 537q0 -45 53 -45h80q55 0 55 45q0 44 -55 44h-80
q-53 0 -53 -44zM26 70q0 -28 14.5 -47.5t43.5 -19.5t43 19.5t14 47.5v319q0 27 -14 46t-43 19t-43.5 -18.5t-14.5 -46.5v-319z" />
    <glyph glyph-name="Idotaccent" unicode="&#x130;" horiz-adv-x="166" 
d="M82 -25q-39 0 -61 26.5t-22 67.5v443q0 48 29 74q-37 24 -37 76q0 38 23 65t69 27q47 0 69 -27t22 -65q0 -52 -36 -76q27 -24 29 -72v-445q0 -37 -21.5 -65.5t-63.5 -28.5zM18 662q0 -28 16 -46t49 -18q64 0 64 64q0 65 -64 65q-33 0 -49 -18.5t-16 -46.5zM26 69
q0 -28 13.5 -47.5t42.5 -19.5t43.5 19.5t14.5 47.5v443q0 29 -14.5 48t-42.5 19q-29 0 -43 -19t-14 -48v-443z" />
    <glyph glyph-name="dotlessi" unicode="&#x131;" horiz-adv-x="167" 
d="M84 -24q-43 0 -64 28.5t-21 65.5v319q0 36 21 64t64 28q42 0 63 -28t21 -64v-319q0 -37 -21 -65.5t-63 -28.5zM26 70q0 -28 14.5 -47.5t43.5 -19.5t43 19.5t14 47.5v319q0 27 -14 46t-43 19t-43.5 -18.5t-14.5 -46.5v-319z" />
    <glyph glyph-name="IJ" unicode="&#x132;" horiz-adv-x="440" 
d="M82 -25q-39 0 -61 26.5t-22 67.5v443q0 38 21 66t63 28q41 0 62.5 -28t21.5 -66v-288q19 14 47 14q42 0 63 -30v312q0 35 22.5 61t59.5 26q38 0 60 -26t22 -61v-380q0 -75 -45 -117.5t-104 -42.5h-16q-71 0 -113 60q-17 -65 -81 -65zM26 69q0 -28 13.5 -47.5t42.5 -19.5
t43.5 19.5t14.5 47.5v443q0 29 -14.5 48t-42.5 19q-29 0 -43 -19t-14 -48v-443zM162 140q0 -61 33 -97t81 -36h16q48 0 85 35.5t37 97.5v380q0 25 -14.5 42.5t-40.5 17.5q-25 0 -40 -18t-15 -42v-359q0 -26 -21 -26q-7 0 -13.5 7.5t-6.5 18.5q0 50 -49 50q-25 0 -38.5 -15.5
t-13.5 -37.5v-18z" />
    <glyph glyph-name="ij" unicode="&#x133;" horiz-adv-x="328" 
d="M161 -138q-33 0 -55.5 23t-22.5 56q0 18 8 36q-3 -1 -11 -1q-43 0 -64 28.5t-21 65.5v287q0 47 30 73q-41 26 -41 81q0 40 24 68t72 28q62 0 85 -48q25 46 83 46h1q48 0 71.5 -28.5t23.5 -67.5q0 -53 -36 -79q23 -22 23 -73v-336q0 -79 -44 -119t-105 -40h-21zM11 511
q0 -30 17 -49t52 -19q68 0 68 68q0 69 -68 69q-35 0 -52 -19.5t-17 -49.5zM22 70q0 -28 14.5 -47.5t43.5 -19.5t43 19.5t14 47.5v287q0 27 -14 46t-43 19t-43.5 -18.5t-14.5 -46.5v-287zM110 -59q0 -21 14 -36.5t37 -15.5h21q50 0 86 33t36 99v336q0 13 -1 21.5t-5.5 20.5
t-16.5 18t-31 6q-30 0 -42 -16.5t-12 -50.5v-338q0 -26 -18 -26h-17q-24 0 -37.5 -15t-13.5 -36zM135 430q29 -26 29 -73v-287q0 -28 -12 -52q3 1 9 1h8v337q0 50 23 74q-19 13 -28 32q-11 -21 -29 -32zM180 509q0 -30 17 -49t52 -19q68 0 68 68q0 69 -68 69
q-35 0 -52 -19.5t-17 -49.5z" />
    <glyph glyph-name="lacute" unicode="&#x13a;" horiz-adv-x="181" 
d="M124 -27q-49 0 -87 34t-38 102v416q0 34 23 57q-40 15 -40 55q0 20 9 34.5t37 36.5q46 36 85 36q33 0 55.5 -21t22.5 -59q0 -58 -52 -79q24 -22 24 -59v-396q22 0 38 -19t16 -57q0 -35 -24 -58t-69 -23zM9 637q0 -14 10.5 -23t25.5 -9h58q26 0 43.5 16t17.5 43
q0 26 -14.5 39.5t-36.5 13.5q-30 0 -68 -30q-23 -19 -29.5 -27.5t-6.5 -22.5zM26 109q0 -56 29 -82.5t69 -26.5q33 0 49.5 15t16.5 39q0 27 -12.5 38t-24.5 11q-17 0 -17 35v387q0 25 -15 39.5t-41 14.5q-20 0 -37 -14t-17 -40v-416z" />
    <glyph glyph-name="Lslash" unicode="&#x141;" horiz-adv-x="252" 
d="M95 -22q-37 0 -59.5 26.5t-22.5 67.5v122q-16 5 -30 22q-46 53 14 103l16 13v180q0 42 21.5 68t60.5 26q42 0 63 -28t21 -66v-83q18 -7 31 -23q45 -52 -16 -104l-15 -12v-137h18q37 0 64 -21.5t27 -66.5q0 -44 -27 -65.5t-64 -21.5h-102zM4 233q12 -15 25 -16
q11 -2 11 -14v-131q0 -28 14 -47.5t41 -19.5h102q28 0 46 14.5t18 45.5t-18 46t-46 15h-31q-14 0 -14 14v152q0 11 8 17l17 14q40 34 12 66q-10 13 -24 16q-13 3 -13 14v93q0 29 -14 48t-43 19q-55 0 -55 -67v-182q0 -11 -8 -17l-18 -15q-39 -32 -10 -65z" />
    <glyph glyph-name="lslash" unicode="&#x142;" horiz-adv-x="216" 
d="M149 -27q-49 0 -87 34t-38 102v83q-14 6 -30 23q-48 55 13 104l11 9q6 6 6 7v190q0 35 24.5 58t56.5 23q37 0 60 -22.5t23 -58.5v-95q17 -6 32 -24q22 -23 18.5 -52t-34.5 -52l-16 -12v-160q17 0 35.5 -17.5t18.5 -47.5v-11q0 -35 -24 -58t-69 -23zM14 233q14 -16 26 -17
q11 0 11 -13v-94q0 -56 29 -82.5t69 -26.5q33 0 49.5 15t16.5 39q0 27 -12.5 38t-24.5 11q-17 0 -17 35v153q0 12 8 18l18 14q42 32 12 66q-11 15 -24 16q-14 2 -14 13v107q0 25 -15 39.5t-41 14.5q-20 0 -37 -14t-17 -40v-194q0 -9 -8 -17l-19 -16q-39 -32 -10 -65z" />
    <glyph glyph-name="Omacron" unicode="&#x14c;" horiz-adv-x="323" 
d="M149 -20q-61 0 -105.5 42.5t-44.5 119.5v295q0 109 76 151q-35 18 -35 62q0 33 21 52t59 19h80q37 0 59.5 -18.5t22.5 -52.5q0 -44 -37 -62q38 -21 58.5 -60.5t20.5 -90.5v-295q0 -68 -42.5 -115t-105.5 -47h-27zM26 142q0 -65 36 -100t87 -35h27q51 0 86 39t35 96v295
q0 63 -33.5 102t-93.5 39h-26q-53 0 -85.5 -37.5t-32.5 -103.5v-295zM67 650q0 -45 53 -45h80q55 0 55 45q0 44 -55 44h-80q-53 0 -53 -44zM140 158v271q0 11 6 17t14 6q22 0 22 -25v-269q0 -27 -22 -27q-8 0 -14 7t-6 20z" />
    <glyph glyph-name="omacron" unicode="&#x14d;" horiz-adv-x="303" 
d="M142 -23q-59 0 -101 39t-42 110v248q0 98 69 138q-40 16 -40 64q0 33 21 52t59 19h80q37 0 59.5 -18.5t22.5 -52.5q0 -46 -38 -63q72 -38 72 -139v-248q0 -63 -38.5 -106t-95.5 -43h-28zM26 126q0 -58 34 -90t82 -32h28q45 0 76 35t31 87v248q0 57 -29.5 92t-83.5 35h-27
q-51 0 -81 -34t-30 -93v-248zM55 576q0 -45 53 -45h80q55 0 55 45q0 44 -55 44h-80q-53 0 -53 -44zM133 145v216q0 19 18 19q20 0 20 -21v-214q0 -22 -20 -22q-18 0 -18 22z" />
    <glyph glyph-name="OE" unicode="&#x152;" horiz-adv-x="398" 
d="M149 -23q-62 0 -106 42.5t-44 119.5v297q0 77 40 122.5t105 45.5h26q21 0 46 -5q5 -2 9 -2h108q37 0 64 -21.5t27 -65.5t-27.5 -66.5t-64.5 -22.5h-11v-57h18q35 0 56.5 -20t21.5 -54q0 -35 -22 -55t-56 -20h-18v-61h12q37 0 64 -21.5t27 -66.5q0 -44 -27 -65.5
t-64 -21.5h-136q-2 0 -9.5 -1t-11.5 -1h-27zM26 139q0 -65 36 -100t87 -35h27q8 0 22 2h135q27 0 45.5 14.5t18.5 45.5t-18 46t-46 15h-25q-14 0 -14 10v91q0 14 14 14h31q51 0 51 48q0 47 -51 47h-31q-14 0 -14 14v84q0 14 14 14h25q28 0 46 15t18 46t-18.5 45.5
t-45.5 14.5h-108q-8 0 -17 3q-16 4 -38 4h-26q-53 0 -85.5 -37.5t-32.5 -103.5v-297zM137 155v273q0 11 6 17t14 6q22 0 22 -25v-271q0 -27 -22 -27q-8 0 -14 7t-6 20z" />
    <glyph glyph-name="oe" unicode="&#x153;" horiz-adv-x="445" 
d="M142 -22q-59 0 -101 38.5t-42 108.5v248q0 71 37.5 112.5t100.5 41.5h15q46 0 77 -28q29 27 72 27h15q69 0 104.5 -45.5t35.5 -124.5v-70q0 -50 -34 -79q30 -21 30 -63v-26q0 -62 -39 -100.5t-93 -38.5h-19q-40 0 -72 27q-33 -28 -71 -28h-16zM26 125q0 -58 33.5 -89
t82.5 -31h16q37 0 61 31q9 10 18 0q27 -30 64 -30h19q43 0 74 31t31 81v26q0 50 -52 50q-23 0 -36 -14t-13 -34q0 -19 -3.5 -24.5t-16.5 -5.5q-19 0 -19 25v43q0 12 5.5 19t13.5 7h52q33 0 53 21.5t20 54.5v70q0 143 -113 143h-15q-40 0 -63 -30q-9 -12 -18 0q-26 31 -68 31
h-15q-51 0 -81 -34t-30 -93v-248zM135 141v219q0 19 18 19q20 0 20 -21v-217q0 -22 -20 -22q-18 0 -18 22zM285 306v53q0 19 19 19q21 0 21 -21v-51q0 -22 -21 -22q-19 0 -19 22z" />
    <glyph glyph-name="Scaron" unicode="&#x160;" horiz-adv-x="299" 
d="M142 -26q-55 0 -98.5 33.5t-43.5 113.5v31q0 49 38 70q-49 35 -49 105v119q0 58 25.5 96.5t66.5 53.5q-13 12 -25 28l-8 11q-21 31 -21 49q0 25 16.5 40t37.5 15q20 0 62 -21q42 21 62 21q24 0 38.5 -16t14.5 -39q0 -20 -21 -49l-8 -11q-11 -14 -21 -24q45 -13 73.5 -53
t28.5 -95v-40q0 -69 -48 -89q43 -33 43 -110v-83q0 -72 -33 -114t-103 -42h-27zM16 327q0 -49 28 -76t77 -27h28q20 0 20 -24v-53q0 -29 -17 -29q-19 0 -19 20v18q0 20 -12.5 34t-35.5 14q-58 0 -58 -52v-31q0 -66 34 -93t81 -27h27q109 0 109 129v83q0 58 -25.5 82
t-73.5 24h-31q-20 0 -20 26v82q0 28 17 28q18 0 18 -30v-26q0 -56 62 -56q58 0 58 69v40q0 54 -32 89.5t-78 35.5h-41q-50 0 -83 -33.5t-33 -97.5v-119zM54 684q0 -10 24 -44q31 -43 65 -43q33 0 64 43q24 34 24 44q0 13 -7.5 20.5t-18.5 7.5q-15 0 -52 -19q-10 -4 -20 0
q-37 19 -52 19q-11 0 -19 -7.5t-8 -20.5z" />
    <glyph glyph-name="scaron" unicode="&#x161;" horiz-adv-x="295" 
d="M136 -23q-23 0 -45 6.5t-44.5 20.5t-36 43t-13.5 68v9q0 50 40 72q-48 37 -48 113v74q0 57 26 92.5t68 47.5q-8 7 -22 25l-7 11q-22 31 -22 49q0 25 16.5 40t37.5 15q20 0 62 -21q42 21 62 21q23 0 38 -16t15 -39q0 -18 -21 -49l-8 -11q-14 -18 -22 -25
q41 -13 67.5 -49.5t26.5 -85.5v-21q0 -56 -42 -80q37 -32 37 -104v-60q0 -67 -34.5 -106.5t-100.5 -39.5h-30zM16 309q0 -53 27.5 -82.5t76.5 -29.5h25q10 0 14.5 -3.5t4.5 -15.5v-43q0 -21 -18 -21q-17 0 -17 19q0 18 -13 32t-35 14q-24 0 -40.5 -13t-16.5 -42v-9
q0 -61 33.5 -86t78.5 -25h30q54 0 81 31.5t27 87.5v60q0 56 -23 79t-73 23h-34q-18 0 -18 26v52q0 26 18 26t18 -28v-8q0 -51 57 -51q29 0 44.5 18.5t15.5 46.5v21q0 50 -31.5 82t-75.5 32h-48q-46 0 -77 -30.5t-31 -88.5v-74zM59 608q0 -10 24 -44q31 -43 65 -43
q33 0 64 43q24 34 24 44q0 13 -7.5 20.5t-18.5 7.5q-15 0 -52 -19q-10 -4 -20 0q-37 19 -52 19q-11 0 -19 -7.5t-8 -20.5z" />
    <glyph glyph-name="Ycircumflex" unicode="&#x176;" horiz-adv-x="297" 
d="M152 -27q-38 0 -60 26.5t-22 67.5v127q0 4 -2 9l-94 280q-12 32 0 65.5t46 47.5q13 4 16 5q-2 10 -2 17q0 4 0.5 7.5t1 6.5t2.5 7l3 6t4.5 7t5 7.5t6 9t6.5 9.5q39 54 87 54q47 0 86 -54q2 -3 6.5 -9.5t6 -9t5 -7.5t4.5 -7l3 -6t2.5 -7t1 -6.5t0.5 -7.5q0 -6 -2 -16
q2 -1 6.5 -2.5t6.5 -2.5q70 -33 46 -110l-86 -285q-2 -6 -2 -10v-125q0 -41 -22 -67.5t-60 -26.5zM0 491l94 -280q3 -9 3 -17v-127q0 -28 13.5 -47.5t41.5 -19.5t41.5 19.5t13.5 47.5v125q0 6 3 17l86 286q17 55 -31 77q-25 11 -45 -2.5t-28 -39.5l-35 -108q-2 -6 -5.5 -8.5
t-7 0t-5.5 9.5l-30 106q-7 25 -29.5 39t-49.5 3q-23 -9 -31 -32.5t1 -47.5zM61 618q0 -13 8 -20.5t19 -7.5q15 0 52 19q10 4 20 0q37 -19 52 -19q11 0 18.5 7.5t7.5 20.5q0 10 -24 44q-31 43 -64 43q-34 0 -65 -43q-24 -34 -24 -44zM118 570q12 -15 17 -33l15 -51l16 52
q6 17 16 32q-12 4 -32 14q-22 -11 -31 -14h-1z" />
    <glyph glyph-name="Ycircumflex" unicode="&#x177;" horiz-adv-x="297" 
d="M152 -27q-38 0 -60 26.5t-22 67.5v127q0 4 -2 9l-94 280q-12 32 0 65.5t46 47.5q13 4 16 5q-2 10 -2 17q0 4 0.5 7.5t1 6.5t2.5 7l3 6t4.5 7t5 7.5t6 9t6.5 9.5q39 54 87 54q47 0 86 -54q2 -3 6.5 -9.5t6 -9t5 -7.5t4.5 -7l3 -6t2.5 -7t1 -6.5t0.5 -7.5q0 -6 -2 -16
q2 -1 6.5 -2.5t6.5 -2.5q70 -33 46 -110l-86 -285q-2 -6 -2 -10v-125q0 -41 -22 -67.5t-60 -26.5zM0 491l94 -280q3 -9 3 -17v-127q0 -28 13.5 -47.5t41.5 -19.5t41.5 19.5t13.5 47.5v125q0 6 3 17l86 286q17 55 -31 77q-25 11 -45 -2.5t-28 -39.5l-35 -108q-2 -6 -5.5 -8.5
t-7 0t-5.5 9.5l-30 106q-7 25 -29.5 39t-49.5 3q-23 -9 -31 -32.5t1 -47.5zM61 618q0 -13 8 -20.5t19 -7.5q15 0 52 19q10 4 20 0q37 -19 52 -19q11 0 18.5 7.5t7.5 20.5q0 10 -24 44q-31 43 -64 43q-34 0 -65 -43q-24 -34 -24 -44zM118 570q12 -15 17 -33l15 -51l16 52
q6 17 16 32q-12 4 -32 14q-22 -11 -31 -14h-1z" />
    <glyph glyph-name="Ydieresis" unicode="&#x178;" horiz-adv-x="297" 
d="M152 -27q-38 0 -60 26.5t-22 67.5v127q0 4 -2 9l-94 280q-12 32 -0.5 65.5t45.5 47.5q-15 21 -15 49q0 32 21 56t61 24q39 0 61 -25q22 25 61 25q41 0 61 -24.5t20 -56.5q0 -27 -13 -47q68 -32 46 -110l-86 -285q-2 -6 -2 -10v-125q0 -41 -22 -67.5t-60 -26.5zM0 491
l94 -280q3 -9 3 -17v-127q0 -28 13.5 -47.5t41.5 -19.5t41.5 19.5t13.5 47.5v125q0 6 3 17l86 286q17 55 -31 77q-25 11 -45 -2.5t-28 -39.5l-35 -108q-2 -6 -5.5 -8.5t-7 0t-5.5 9.5l-30 106q-7 25 -29.5 39t-49.5 3q-23 -9 -31 -32.5t1 -47.5zM31 645q0 -23 13.5 -39
t41.5 -16q27 0 40 16t13 39t-13 38t-40 15q-28 0 -41.5 -15t-13.5 -38zM118 569q10 -13 17 -31v-1l15 -51l16 52q8 20 14 29q-19 5 -33 21q-14 -14 -29 -19zM154 644q0 -23 13.5 -38.5t40.5 -15.5q54 0 54 54q0 23 -13 38.5t-41 15.5q-27 0 -40.5 -15.5t-13.5 -38.5z" />
    <glyph glyph-name="Zcaron" unicode="&#x17d;" horiz-adv-x="262" 
d="M78 -23q-45 0 -74.5 22.5t-29.5 72.5q0 38 17 79l99 268h-12q-40 0 -68.5 21.5t-28.5 69.5q0 46 25.5 69t62.5 26q-1 1 -7 8t-9 11q-2 2 -4.5 6t-2.5 5q-22 31 -22 49q0 25 16.5 40t37.5 15q20 0 62 -21q42 21 62 21q23 0 38 -16t15 -39q0 -18 -21 -49q-1 -1 -2.5 -3
t-3 -4.5t-2.5 -3.5q-6 -8 -18 -22q80 -12 80 -92q0 -12 -2 -24t-4 -19t-4 -13.5t-2 -7.5l-107 -286h21q39 0 66.5 -22t27.5 -71q0 -45 -28 -67.5t-66 -22.5h-112zM1 72q0 -68 77 -68h112q29 0 48 15.5t19 47.5q0 66 -67 66h-43q-16 0 -11 16l114 306q11 33 11 55
q0 39 -21.5 53.5t-69.5 14.5h-92q-70 0 -70 -68q0 -64 70 -64h34q16 0 11 -16l-107 -289q-15 -34 -15 -69zM51 684q0 -10 24 -44q31 -43 65 -43q33 0 64 43q24 34 24 44q0 13 -7.5 20.5t-18.5 7.5q-15 0 -52 -19q-10 -4 -20 0q-37 19 -52 19q-11 0 -19 -7.5t-8 -20.5z" />
    <glyph glyph-name="zcaron" unicode="&#x17e;" horiz-adv-x="232" 
d="M70 -22q-42 0 -69 21t-27 70q0 28 15 67l77 212h-1q-37 0 -62 21t-25 67q0 42 21.5 65t54.5 25q-12 14 -18 22l-8 11q-21 31 -21 49q0 25 16.5 40t37.5 15q20 0 62 -21q42 21 62 21q24 0 38.5 -16t14.5 -39q0 -20 -21 -49l-8 -11q-11 -14 -21 -24q70 -16 70 -88
q0 -13 -2.5 -25t-5.5 -21l-3 -9l-83 -226h6q35 0 60.5 -21.5t25.5 -68.5q0 -43 -25 -65t-61 -22h-100zM1 69q0 -64 69 -64h100q26 0 42.5 14.5t16.5 45.5q0 63 -59 63h-28q-16 0 -11 16l90 246q10 30 10 46q0 34 -19.5 49t-61.5 15h-85q-60 0 -60 -64q0 -61 60 -61h23
q16 0 11 -16l-85 -232q-13 -35 -13 -58zM34 608q0 -10 24 -44q31 -43 65 -43q33 0 64 43q24 34 24 44q0 13 -7.5 20.5t-18.5 7.5q-15 0 -52 -19q-10 -4 -20 0q-37 19 -52 19q-11 0 -19 -7.5t-8 -20.5z" />
    <glyph glyph-name="florin" unicode="&#x192;" horiz-adv-x="244" 
d="M86 -97q-109 -9 -116 73q-5 43 17 62.5t51 22.5h-1v195q-22 5 -37.5 23.5t-15.5 51.5t14.5 52t36.5 23v59q0 70 37.5 104.5t94.5 34.5q108 0 108 -84q0 -41 -21.5 -58.5t-52.5 -18.5v-33q29 -1 49.5 -21.5t20.5 -58.5q0 -33 -21.5 -53.5t-52.5 -21.5v-203
q0 -138 -111 -149zM-3 -21q5 -57 86 -49q44 5 65.5 33t21.5 89v216q0 10 5 12t21 2q19 0 33.5 12t14.5 36q0 26 -13 39.5t-32 13.5h-4q-21 0 -21 15v53q0 8 7.5 13.5t17.5 5.5q49 0 49 50q0 57 -81 57q-47 0 -76 -27t-29 -85v-63q0 -23 -18 -23q-33 0 -33 -48q0 -25 11 -37
t28 -12q14 0 14 -16v-211q0 -8 -6.5 -14t-16.5 -7q-49 -5 -44 -55z" />
    <glyph glyph-name="uni0218" unicode="&#x218;" horiz-adv-x="299" 
d="M123 -239q-27 1 -44.5 21.5t-17.5 47.5v69q0 53 41 80q-102 24 -102 142v31q0 49 38 70q-49 35 -49 105v119q0 76 41.5 117t101.5 41h41q57 0 97 -43t40 -109v-40q0 -69 -48 -89q43 -33 43 -110v-83q0 -133 -100 -152q38 -25 38 -74q0 -51 -41 -97q-28 -30 -42.5 -39
t-36.5 -7zM16 327q0 -49 28 -76t77 -27h28q20 0 20 -24v-53q0 -29 -17 -29q-19 0 -19 20v18q0 20 -12.5 34t-35.5 14q-58 0 -58 -52v-31q0 -66 34 -93t81 -27h27q109 0 109 129v83q0 58 -25.5 82t-73.5 24h-31q-20 0 -20 26v82q0 28 17 28q18 0 18 -30v-26q0 -56 62 -56
q58 0 58 69v40q0 54 -32 89.5t-78 35.5h-41q-50 0 -83 -33.5t-33 -97.5v-119zM88 -170q0 -17 10.5 -29t26.5 -13q15 -1 24.5 5.5t32.5 31.5q34 39 34 79q0 25 -15.5 42.5t-45.5 18.5q-31 1 -49 -18t-18 -48v-69z" />
    <glyph glyph-name="uni0219" unicode="&#x219;" horiz-adv-x="295" 
d="M118 -239q-26 0 -44 20.5t-18 48.5v69q0 57 44 82q-43 9 -73 41t-30 93v9q0 50 40 72q-48 37 -48 113v74q0 70 39.5 108t95.5 38h48q54 0 94 -39.5t40 -101.5v-21q0 -56 -42 -80q37 -32 37 -104v-60q0 -58 -26.5 -96t-77.5 -47q41 -23 41 -76q0 -50 -41 -97
q-26 -28 -41 -37t-38 -9zM16 309q0 -53 27.5 -82.5t76.5 -29.5h25q10 0 14.5 -3.5t4.5 -15.5v-43q0 -21 -18 -21q-17 0 -17 19q0 18 -13 32t-35 14q-24 0 -40.5 -13t-16.5 -42v-9q0 -61 33.5 -86t78.5 -25h30q54 0 81 31.5t27 87.5v60q0 56 -23 79t-73 23h-34q-18 0 -18 26
v52q0 26 18 26t18 -28v-8q0 -51 57 -51q29 0 44.5 18.5t15.5 46.5v21q0 50 -31.5 82t-75.5 32h-48q-46 0 -77 -30.5t-31 -88.5v-74zM83 -170q0 -17 10.5 -29.5t26.5 -12.5q15 0 25 6.5t32 30.5q34 39 34 79q0 25 -15.5 42.5t-45.5 18.5q-31 1 -49 -18t-18 -48v-69z" />
    <glyph glyph-name="uni021A" unicode="&#x21a;" horiz-adv-x="255" 
d="M95 -238q-26 1 -44 21.5t-18 47.5v69q0 62 52 86q-39 23 -39 78v365q-34 3 -58 25t-24 62q0 44 28.5 65.5t65.5 21.5h141q37 0 64.5 -21.5t27.5 -65.5q0 -40 -23 -62.5t-56 -25.5v-364q0 -60 -43 -81q46 -22 46 -78q0 -51 -41 -97q-27 -29 -42 -38t-37 -8zM-9 516
q0 -31 19.5 -46t47.5 -15h1q14 0 14 -14v-377q0 -28 14 -45.5t42 -17.5t42 17.5t14 45.5v376q0 14 14 14q28 0 46.5 15.5t18.5 46.5t-18.5 45.5t-46.5 14.5h-141q-28 0 -47.5 -14.5t-19.5 -45.5zM60 -169q0 -17 10.5 -29t26.5 -13q15 -1 24.5 5.5t32.5 31.5q34 39 34 79
q0 25 -15.5 42.5t-45.5 18.5q-31 1 -49 -18t-18 -48v-69z" />
    <glyph glyph-name="uni021B" unicode="&#x21b;" horiz-adv-x="224" 
d="M91 -238q-26 0 -44 20.5t-18 48.5v69q0 30 16.5 54.5t44.5 34.5q-70 31 -70 127v259q-21 3 -36 22t-15 52t15.5 51.5t37.5 22.5v3q0 38 22.5 58.5t55.5 20.5q36 0 57.5 -21t21.5 -60h3q31 0 52 -20t21 -54q0 -39 -19.5 -59.5t-50.5 -20.5h-2v-235q19 0 42 -17.5t23 -56.5
q0 -73 -75 -82q38 -25 38 -74q0 -51 -41 -97q-26 -28 -41 -37t-38 -9zM-4 449q0 -48 33 -48q18 0 18 -19v-266q0 -57 28 -84.5t70 -27.5q46 0 61 14t15 43q0 49 -49 49q-16 0 -16 37v232q0 18 16 18h13q43 0 43 53q0 24 -13.5 35.5t-32.5 11.5q-11 0 -16 0.5t-9.5 3.5
t-4.5 10v18q0 21 -14 35t-38 14q-21 0 -36 -12t-15 -40v-13q0 -16 -14 -16q-17 0 -28 -11.5t-11 -36.5zM56 -169q0 -17 10.5 -29.5t26.5 -12.5q15 0 25 6.5t32 30.5q34 39 34 79q0 25 -15.5 42.5t-45.5 18.5q-31 1 -49 -18t-18 -48v-69z" />
    <glyph glyph-name="uni0237" unicode="&#x237;" horiz-adv-x="171" 
d="M7 -138q-33 0 -55.5 23t-22.5 56q0 31 21 54.5t57 23.5h8v337q0 94 81 94t81 -93v-336q0 -79 -44 -119t-105 -40h-21zM-44 -59q0 -21 14 -36.5t37 -15.5h21q50 0 86 33t36 99v336q0 13 -1 21.5t-5.5 20.5t-16.5 18t-31 6q-30 0 -42 -16.5t-12 -50.5v-338q0 -26 -18 -26
h-17q-24 0 -37.5 -15t-13.5 -36z" />
    <glyph glyph-name="circumflex" unicode="&#x2c6;" horiz-adv-x="248" 
d="M187 503q-21 0 -62 21q-42 -21 -62 -21q-21 0 -37.5 15t-16.5 40q0 4 0.5 7.5t1 6.5t2.5 7l3 6t4.5 7t5 7.5t6 9t6.5 9.5q40 54 87 54q46 0 86 -54q2 -3 6.5 -9.5t6 -9t5 -7.5t4.5 -7l3 -6t2.5 -7t1 -6.5t0.5 -7.5q0 -23 -14.5 -39t-38.5 -16zM36 558q0 -13 8 -20.5
t19 -7.5q15 0 52 19q10 4 20 0q37 -19 52 -19q11 0 18.5 7.5t7.5 20.5q0 10 -24 44q-31 43 -64 43q-34 0 -65 -43q-24 -34 -24 -44z" />
    <glyph glyph-name="caron" unicode="&#x2c7;" horiz-adv-x="229" 
d="M115 494q-47 0 -87 54l-8 11q-21 31 -21 49q0 25 16.5 40t37.5 15q20 0 62 -21q42 21 62 21q24 0 38.5 -16t14.5 -39q0 -20 -21 -49l-8 -11q-40 -54 -86 -54zM26 608q0 -10 24 -44q31 -43 65 -43q33 0 64 43q24 34 24 44q0 13 -7.5 20.5t-18.5 7.5q-15 0 -52 -19
q-10 -4 -20 0q-37 19 -52 19q-11 0 -19 -7.5t-8 -20.5z" />
    <glyph glyph-name="breve" unicode="&#x2d8;" horiz-adv-x="276" 
d="M134 486q-40 0 -74.5 23.5t-54.5 64.5q-6 12 -6 27q0 28 18.5 46.5t46.5 18.5q44 0 61 -41q3 -7 9 -7q15 0 19 10q19 36 58 36q28 0 47 -19t19 -46q0 -16 -8 -32q-22 -38 -59.5 -59.5t-75.5 -21.5zM26 601q0 -9 3 -16q16 -34 44.5 -53t60.5 -19q31 0 62 17.5t49 48.5
q5 10 5 20q0 16 -11.5 27t-27.5 11q-22 0 -34 -21q-11 -25 -43 -25q-26 0 -34 24q-10 24 -36 24q-16 0 -27 -10.5t-11 -27.5z" />
    <glyph glyph-name="dotaccent" unicode="&#x2d9;" horiz-adv-x="181" 
d="M91 500q-46 0 -69 27t-23 64q0 38 23 65t69 27t68.5 -27t22.5 -65q0 -37 -22.5 -64t-68.5 -27zM26 591q0 -28 16 -46t49 -18q64 0 64 64q0 65 -64 65q-33 0 -49 -18.5t-16 -46.5z" />
    <glyph glyph-name="ring" unicode="&#x2da;" horiz-adv-x="212" 
d="M106 419q-48 0 -84 29.5t-36 80.5q0 53 34 88t86 35t85.5 -35t33.5 -88q0 -51 -36 -80.5t-83 -29.5zM13 529q0 -40 27.5 -61.5t65.5 -21.5q37 0 64.5 22t27.5 61q0 42 -26 69t-66 27q-41 0 -67 -27t-26 -69zM80 533q0 10 7 17.5t19 7.5q11 0 18 -7.5t7 -17.5
q0 -11 -7 -18.5t-18 -7.5q-12 0 -19 7.5t-7 18.5z" />
    <glyph glyph-name="ogonek" unicode="&#x2db;" horiz-adv-x="224" 
d="M122 -193q-56 0 -89.5 38.5t-33.5 83.5q0 38 47 119q19 31 52 31q27 0 44 -18.5t17 -42.5q0 -19 -8 -31q-30 -55 -30 -58q16 19 43 19q24 0 42.5 -16.5t18.5 -43.5q0 -25 -16 -40q-35 -41 -87 -41zM26 -71q0 -35 26 -65t70 -30q40 0 67 32q9 9 9 22q0 14 -10 23.5
t-24 9.5t-25 -12q-7 -7 -17 -7q-28 0 -28 27q0 11 34 72q4 5 4 17q0 14 -9.5 24t-24.5 10q-18 0 -29 -18q-43 -75 -43 -105z" />
    <glyph glyph-name="tilde" unicode="&#x2dc;" horiz-adv-x="280" 
d="M185 484q-41 0 -73 34q-19 -29 -54 -29q-28 0 -46 19t-18 45q0 57 27.5 88t72.5 31q43 0 74 -29q17 29 51 29h2q27 0 46 -19t19 -46q0 -57 -28.5 -90t-72.5 -33zM21 553q0 -16 10.5 -26.5t26.5 -10.5t26 10.5t12 26.5q2 15 14 5q3 -3 12.5 -13t13.5 -13.5t12.5 -9.5
t17.5 -8.5t19 -2.5q32 0 53 25t21 71q0 16 -11 27t-27 11t-26.5 -11t-10.5 -27v-7q0 -3 -1.5 -4.5t-4 -1t-4.5 2.5l-12 13q-13 14 -19.5 19.5t-19 10.5t-29.5 5q-34 0 -53.5 -23t-19.5 -69z" />
    <glyph glyph-name="hungarumlaut" unicode="&#x2dd;" horiz-adv-x="294" 
d="M56 536q-23 1 -40 21t-17 49v69q0 40 24 67.5t64 25.5q39 -1 61 -32q25 35 69 32q38 -2 58 -27.5t20 -60.5q0 -51 -36 -95q-23 -31 -37.5 -40.5t-35.5 -8.5q-19 2 -34.5 15.5t-20.5 35.5l-2 -3q-19 -28 -35 -38.5t-38 -9.5zM26 606q0 -17 9.5 -29.5t22.5 -13.5
q14 -1 22.5 6t27.5 32q30 38 30 79q0 25 -13.5 42.5t-39.5 18.5q-27 1 -43 -18t-16 -48v-69zM156 606q0 -17 9.5 -29.5t22.5 -13.5q14 -1 22.5 6t27.5 32q30 38 30 79q0 25 -13.5 42.5t-39.5 18.5q-27 1 -43 -18t-16 -48v-69z" />
    <glyph glyph-name="gravecomb" unicode="&#x300;" 
d="M87 507q-37 0 -62.5 23.5t-25.5 62.5q0 38 23 59t55 21q40 0 85 -36q28 -23 37 -37t9 -34q0 -27 -19 -43t-44 -16h-58zM26 593q0 -27 17.5 -43t43.5 -16h58q15 0 25.5 9t10.5 23t-6.5 22.5t-29.5 27.5q-38 30 -68 30q-22 0 -36.5 -13.5t-14.5 -39.5z" />
    <glyph glyph-name="acutecomb" unicode="&#x301;" 
d="M62 507q-25 0 -44 16t-19 43q0 20 9 34t37 37q45 36 85 36q33 0 55.5 -21t22.5 -59q0 -39 -25.5 -62.5t-62.5 -23.5h-58zM26 566q0 -14 10.5 -23t25.5 -9h58q26 0 43.5 16t17.5 43q0 26 -14.5 39.5t-36.5 13.5q-30 0 -68 -30q-23 -19 -29.5 -27.5t-6.5 -22.5z" />
    <glyph glyph-name="uni0302" unicode="&#x302;" 
d="M187 503q-21 0 -62 21q-42 -21 -62 -21q-21 0 -37.5 15t-16.5 40q0 4 0.5 7.5t1 6.5t2.5 7l3 6t4.5 7t5 7.5t6 9t6.5 9.5q40 54 87 54q46 0 86 -54q2 -3 6.5 -9.5t6 -9t5 -7.5t4.5 -7l3 -6t2.5 -7t1 -6.5t0.5 -7.5q0 -23 -14.5 -39t-38.5 -16zM36 558q0 -13 8 -20.5
t19 -7.5q15 0 52 19q10 4 20 0q37 -19 52 -19q11 0 18.5 7.5t7.5 20.5q0 10 -24 44q-31 43 -64 43q-34 0 -65 -43q-24 -34 -24 -44z" />
    <glyph glyph-name="tildecomb" unicode="&#x303;" 
d="M185 484q-41 0 -73 34q-19 -29 -54 -29q-28 0 -46 19t-18 45q0 57 27.5 88t72.5 31q43 0 74 -29q17 29 51 29h2q27 0 46 -19t19 -46q0 -57 -28.5 -90t-72.5 -33zM21 553q0 -16 10.5 -26.5t26.5 -10.5t26 10.5t12 26.5q2 15 14 5q3 -3 12.5 -13t13.5 -13.5t12.5 -9.5
t17.5 -8.5t19 -2.5q32 0 53 25t21 71q0 16 -11 27t-27 11t-26.5 -11t-10.5 -27v-7q0 -3 -1.5 -4.5t-4 -1t-4.5 2.5l-12 13q-13 14 -19.5 19.5t-19 10.5t-29.5 5q-34 0 -53.5 -23t-19.5 -69z" />
    <glyph glyph-name="uni0304" unicode="&#x304;" 
d="M79 506q-38 0 -59 19.5t-21 52.5t21 52t59 19h80q38 0 60 -18.5t22 -52.5q0 -35 -22 -53.5t-60 -18.5h-80zM26 578q0 -45 53 -45h80q55 0 55 45q0 44 -55 44h-80q-53 0 -53 -44z" />
    <glyph glyph-name="uni0306" unicode="&#x306;" 
d="M134 486q-40 0 -74.5 23.5t-54.5 64.5q-6 12 -6 27q0 28 18.5 46.5t46.5 18.5q44 0 61 -41q3 -7 9 -7q15 0 19 10q19 36 58 36q28 0 47 -19t19 -46q0 -16 -8 -32q-22 -38 -59.5 -59.5t-75.5 -21.5zM26 601q0 -9 3 -16q16 -34 44.5 -53t60.5 -19q31 0 62 17.5t49 48.5
q5 10 5 20q0 16 -11.5 27t-27.5 11q-22 0 -34 -21q-11 -25 -43 -25q-26 0 -34 24q-10 24 -36 24q-16 0 -27 -10.5t-11 -27.5z" />
    <glyph glyph-name="uni0307" unicode="&#x307;" 
d="M91 500q-46 0 -69 27t-23 64q0 38 23 65t69 27t68.5 -27t22.5 -65q0 -37 -22.5 -64t-68.5 -27zM26 591q0 -28 16 -46t49 -18q64 0 64 64q0 65 -64 65q-33 0 -49 -18.5t-16 -46.5z" />
    <glyph glyph-name="uni0308" unicode="&#x308;" 
d="M81 503q-40 0 -61 24.5t-21 57.5t20.5 56.5t61.5 23.5q39 0 61 -25q22 24 58 25h3q41 0 61 -24.5t20 -56.5q0 -33 -20 -57t-61 -24q-39 0 -61 25q-22 -25 -61 -25zM26 585q0 -23 13.5 -39t41.5 -16q27 0 40 16t13 39t-13 38t-40 15q-28 0 -41.5 -15t-13.5 -38zM149 584
q0 -23 13.5 -38.5t40.5 -15.5q54 0 54 54q0 23 -13 38.5t-41 15.5q-27 0 -40.5 -15.5t-13.5 -38.5z" />
    <glyph glyph-name="uni030A" unicode="&#x30a;" 
d="M106 419q-48 0 -84 29.5t-36 80.5q0 53 34 88t86 35t85.5 -35t33.5 -88q0 -51 -36 -80.5t-83 -29.5zM13 529q0 -40 27.5 -61.5t65.5 -21.5q37 0 64.5 22t27.5 61q0 42 -26 69t-66 27q-41 0 -67 -27t-26 -69zM80 533q0 10 7 17.5t19 7.5q11 0 18 -7.5t7 -17.5
q0 -11 -7 -18.5t-18 -7.5q-12 0 -19 7.5t-7 18.5z" />
    <glyph glyph-name="uni030B" unicode="&#x30b;" 
d="M56 536q-23 1 -40 21t-17 49v69q0 40 24 67.5t64 25.5q39 -1 61 -32q25 35 69 32q38 -2 58 -27.5t20 -60.5q0 -51 -36 -95q-23 -31 -37.5 -40.5t-35.5 -8.5q-19 2 -34.5 15.5t-20.5 35.5l-2 -3q-20 -30 -35 -39.5t-38 -8.5zM26 606q0 -17 9.5 -29.5t22.5 -13.5
q14 -1 22.5 6t27.5 32q30 38 30 79q0 25 -13.5 42.5t-39.5 18.5q-27 1 -43 -18t-16 -48v-69zM156 606q0 -17 9.5 -30t22.5 -13q14 0 22.5 7t27.5 31q30 38 30 79q0 25 -13.5 42.5t-39.5 18.5q-27 1 -43 -18t-16 -48v-69z" />
    <glyph glyph-name="uni030C" unicode="&#x30c;" 
d="M115 494q-47 0 -87 54q-1 1 -3.5 5t-4.5 6q-21 31 -21 49q0 25 16.5 40t37.5 15q20 0 62 -21q42 21 62 21q24 0 38.5 -16t14.5 -39q0 -20 -21 -49q-1 -1 -2.5 -3t-3 -4.5t-2.5 -3.5q-40 -54 -86 -54zM26 608q0 -10 24 -44q31 -43 65 -43q33 0 64 43q24 34 24 44
q0 13 -7.5 20.5t-18.5 7.5q-15 0 -52 -19q-10 -4 -20 0q-37 19 -52 19q-11 0 -19 -7.5t-8 -20.5z" />
    <glyph glyph-name="uni0327" unicode="&#x327;" 
d="M56 -218q-25 2 -41 19.5t-16 41.5q0 39 32 55q-26 27 -17 67l18 84q5 21 21.5 34.5t37.5 13.5q29 0 47.5 -22.5t11.5 -50.5l-6 -38q62 -27 62 -100q0 -52 -34.5 -78t-79.5 -26h-36zM26 -157q0 -13 8.5 -22.5t22.5 -11.5h35q36 0 61.5 19t25.5 58q0 34 -14 51.5t-41 27.5
q-12 5 -9 17l9 47q4 16 -6.5 28.5t-26.5 12.5q-12 0 -21.5 -7.5t-11.5 -19.5l-18 -84q-5 -22 7 -38t30 -16h14q20 0 20 -14t-24 -14h-27q-34 0 -34 -34z" />
    <glyph glyph-name="uni0328" unicode="&#x328;" 
d="M122 -193q-56 0 -89.5 38.5t-33.5 83.5q0 38 47 119q19 31 52 31q27 0 44 -18.5t17 -42.5q0 -19 -8 -31q-30 -55 -30 -58q16 19 43 19q24 0 42.5 -16.5t18.5 -43.5q0 -25 -16 -40q-35 -41 -87 -41zM26 -71q0 -35 26 -65t70 -30q40 0 67 32q9 9 9 22q0 14 -10 23.5
t-24 9.5t-25 -12q-7 -7 -17 -7q-28 0 -28 27q0 11 34 72q4 5 4 17q0 14 -9.5 24t-24.5 10q-18 0 -29 -18q-43 -75 -43 -105z" />
    <glyph glyph-name="uni03BC" unicode="&#x3bc;" horiz-adv-x="345" 
d="M69 -118q-32 0 -51 22t-19 56v469q0 37 21.5 64t63.5 27q59 0 77 -52q18 58 78 58q43 0 64 -29t21 -66v-294q0 -21 13 -34q23 -21 24 -53t-24 -56q-50 -47 -105 5l-1 1q-23 -21 -56 -21q-16 0 -34 5v-23q0 -34 -19.5 -56.5t-52.5 -22.5zM26 -40q0 -22 10.5 -36.5
t32.5 -14.5q23 0 34 15t11 37v54q0 17 14 6q20 -15 47 -15q30 0 47 25q7 10 17 0q1 -2 4 -5q41 -45 76 -12q17 18 15 37.5t-16 32.5q-21 21 -21 53v294q0 28 -14.5 48t-43.5 20t-43 -19.5t-14 -47.5v-290q-1 -10 -8 -16t-15 -6q-7 0 -13.5 6.5t-6.5 17.5v286q0 63 -55 63
q-30 0 -44 -18t-14 -46v-469z" />
    <glyph glyph-name="uni1E9E" unicode="&#x1e9e;" horiz-adv-x="321" 
d="M208 -50q-60 0 -80 39q-19 -12 -44 -12q-43 0 -64 28t-21 66v388q0 118 100 141q19 4 68 4q71 0 110 -47t39 -121v-48q0 -56 -28 -89q49 -40 49 -120v-54q0 -79 -35 -127t-94 -48zM26 71q0 -29 14 -48t44 -19q48 0 48 67v163q0 14 14 14h2q24 0 38.5 -20t14.5 -51v-58
q0 -16 -7 -29.5t-19 -16.5q-17 -4 -25 -19.5t-4 -35.5q7 -41 62 -41q47 0 74.5 40t27.5 108v54q0 85 -60 112q-10 5 0 10q39 23 39 87v48q0 63 -31.5 102t-90.5 39h-23q-118 0 -118 -118v-388zM132 355v81q0 30 21 30t21 -39v-46q0 -19 -7 -29.5t-17 -10.5h-4q-14 0 -14 14z
M159 96q2 1 5 2t5 2q5 0 5 19v58q0 35 -15 42v-123z" />
    <glyph glyph-name="Ygrave" unicode="&#x1ef2;" horiz-adv-x="297" 
d="M152 -27q-38 0 -60 26.5t-22 67.5v127q0 4 -2 9l-94 280q-12 32 0 65.5t46 47.5q15 6 30 6q-11 20 -11 44q0 38 22.5 59t55.5 21q40 0 85 -36q28 -22 37 -36.5t9 -34.5q0 -11 -2 -15q12 0 30 -7q68 -32 46 -110l-86 -285q-2 -6 -2 -10v-125q0 -41 -22 -67.5t-60 -26.5z
M0 491l94 -280q3 -9 3 -17v-127q0 -28 13.5 -47.5t41.5 -19.5t41.5 19.5t13.5 47.5v125q0 6 3 17l86 286q17 55 -31 77q-25 11 -45 -2.5t-28 -39.5l-35 -108q-2 -6 -5.5 -8.5t-7 0t-5.5 9.5l-30 106q-7 25 -29.5 39t-49.5 3q-23 -9 -31 -32.5t1 -47.5zM66 646
q0 -27 17.5 -43t43.5 -16h58q15 0 25.5 9t10.5 23t-6.5 22.5t-29.5 27.5q-38 30 -68 30q-22 0 -36.5 -13.5t-14.5 -39.5zM124 560q8 -11 11 -23l15 -51l16 52q5 13 10 22h-52z" />
    <glyph glyph-name="ygrave" unicode="&#x1ef3;" horiz-adv-x="315" 
d="M153 -135q-57 0 -108 38.5t-51 103.5v23q0 55 47 75q-52 42 -52 125v209q0 35 17.5 61.5t56.5 29.5q-19 22 -19 55q0 38 22.5 59t55.5 21q40 0 85 -36q28 -23 37 -36.5t9 -34.5q0 -14 -7 -28q38 -5 54 -31t16 -56v-435q0 -67 -40.5 -105t-97.5 -38h-25zM16 230
q0 -63 32.5 -95.5t87.5 -32.5h31q17 0 17 -21v-54q0 -26 -20 -26q-24 0 -24 29q0 23 -17 39.5t-43 16.5q-28 0 -43.5 -16t-15.5 -40v-23q0 -52 42 -83.5t90 -31.5h25q47 0 79 30.5t32 85.5v435q0 13 -3.5 25t-17 23.5t-35.5 11.5q-62 0 -62 -61v-216q0 -22 -19 -22
q-22 0 -22 22v216q0 61 -57 61t-57 -64v-209zM71 585q0 -27 17.5 -43t43.5 -16h58q15 0 25.5 9t10.5 23t-6.5 22.5t-29.5 27.5q-38 30 -68 30q-22 0 -36.5 -13.5t-14.5 -39.5z" />
    <glyph glyph-name="endash" unicode="&#x2013;" horiz-adv-x="276" 
d="M84 176q-36 0 -60.5 20.5t-24.5 60.5q0 41 24.5 61.5t60.5 20.5h105q36 0 62 -20t26 -62q0 -38 -24.5 -59.5t-63.5 -21.5h-105zM26 257q0 -54 58 -54h105q61 0 61 54q0 28 -17.5 41.5t-43.5 13.5h-105q-58 0 -58 -55z" />
    <glyph glyph-name="emdash" unicode="&#x2014;" horiz-adv-x="412" 
d="M84 178q-39 0 -62 21t-23 58q0 40 24.5 60t60.5 20h241q39 0 63.5 -21.5t24.5 -58.5t-24.5 -58t-63.5 -21h-241zM26 257q0 -52 58 -52h241q61 0 61 52q0 53 -61 53h-241q-58 0 -58 -53z" />
    <glyph glyph-name="quoteleft" unicode="&#x2018;" horiz-adv-x="119" 
d="M46 373q-23 2 -40 21.5t-17 48.5v69q0 40 24 67.5t64 25.5q38 -2 58 -27.5t20 -60.5q0 -50 -36 -96q-24 -31 -37.5 -40.5t-35.5 -7.5zM16 443q0 -17 9.5 -29.5t22.5 -13.5t21.5 6t28.5 32q30 38 30 79q0 25 -13.5 42.5t-39.5 18.5q-27 1 -43 -18t-16 -48v-69z" />
    <glyph glyph-name="quoteright" unicode="&#x2019;" horiz-adv-x="124" 
d="M46 373q-23 2 -40 21.5t-17 48.5v69q0 40 24 67.5t64 25.5q38 -2 58 -27.5t20 -60.5q0 -50 -36 -96q-24 -31 -37.5 -40.5t-35.5 -7.5zM16 443q0 -17 9.5 -29.5t22.5 -13.5t21.5 6t28.5 32q30 38 30 79q0 25 -13.5 42.5t-39.5 18.5q-27 1 -43 -18t-16 -48v-69z" />
    <glyph glyph-name="quotesinglbase" unicode="&#x201a;" horiz-adv-x="155" 
d="M51 -77q-25 2 -43.5 23t-18.5 52v78q0 44 26 73.5t69 27.5t65 -30t22 -66q0 -55 -40 -105q-27 -34 -42.5 -44t-37.5 -9zM16 -2q0 -19 10.5 -33t26.5 -15q15 -1 25 7t32 36q34 42 34 88q0 28 -15.5 48t-45.5 21q-31 1 -49 -20t-18 -54v-78z" />
    <glyph glyph-name="quotedblleft" unicode="&#x201c;" horiz-adv-x="293" 
d="M78 374q-38 2 -58.5 28t-20.5 60q0 50 36 96q23 30 37.5 40t35.5 8q23 -2 39.5 -20.5t17.5 -47.5q1 2 14 20q23 30 37.5 40t35.5 8q23 -2 40 -21.5t17 -48.5v-69q0 -40 -24 -67.5t-63 -25.5q-48 3 -69 43q-24 -46 -75 -43zM26 462q0 -25 13.5 -42.5t39.5 -18.5
q27 -1 43 18t16 48v69q0 17 -9.5 29.5t-22.5 13.5t-21.5 -6t-28.5 -32q-30 -38 -30 -79zM170 462q0 -25 13.5 -42.5t39.5 -18.5q27 -1 43 18t16 48v69q0 17 -9.5 29.5t-22.5 13.5t-21.5 -6t-28.5 -32q-30 -38 -30 -79z" />
    <glyph glyph-name="quotedblright" unicode="&#x201d;" horiz-adv-x="262" 
d="M46 373q-23 2 -40 21.5t-17 48.5v69q0 40 24 67.5t64 25.5q43 -3 65 -38q24 41 73 38q38 -2 58 -27.5t20 -60.5q0 -50 -36 -96q-24 -31 -37.5 -40.5t-35.5 -7.5q-21 2 -37 18t-19 42l-9 -12q-24 -31 -37.5 -40.5t-35.5 -7.5zM16 443q0 -17 9.5 -29.5t22.5 -13.5t21.5 6
t28.5 32q30 38 30 79q0 25 -13.5 42.5t-39.5 18.5q-27 1 -43 -18t-16 -48v-69zM154 443q0 -17 9.5 -29.5t22.5 -13.5t21.5 6t28.5 32q30 38 30 79q0 25 -13.5 42.5t-39.5 18.5q-27 1 -43 -18t-16 -48v-69z" />
    <glyph glyph-name="quotedblbase" unicode="&#x201e;" horiz-adv-x="155" 
d="M51 -77q-25 2 -43.5 23t-18.5 52v78q0 44 26 73.5t69 27.5t65 -30t22 -66q0 -55 -40 -105q-27 -34 -42.5 -44t-37.5 -9zM16 -2q0 -19 10.5 -33t26.5 -15q15 -1 25 7t32 36q34 42 34 88q0 28 -15.5 48t-45.5 21q-31 1 -49 -20t-18 -54v-78z" />
    <glyph glyph-name="dagger" unicode="&#x2020;" horiz-adv-x="360" 
d="M180 74q-42 0 -62 26t-20 62l1 178h-25q-36 0 -60.5 20.5t-24.5 60.5q0 41 24.5 61.5t60.5 20.5h25v18q0 36 20.5 60.5t60.5 24.5q41 0 61.5 -24t20.5 -61v-18h21q36 0 62 -20t26 -62q0 -41 -26 -61.5t-62 -20.5h-21v-177q0 -36 -20.5 -62t-61.5 -26zM16 421
q0 -54 58 -54h38q14 0 14 -14l-1 -191q0 -26 13.5 -43.5t41.5 -17.5t41.5 17.5t13.5 43.5v190q0 14 14 14h34q26 0 43.5 13.5t17.5 41.5t-17.5 41.5t-43.5 13.5h-34q-14 0 -14 14v31q0 58 -55 58q-54 0 -54 -58v-31q0 -14 -14 -14h-38q-58 0 -58 -55z" />
    <glyph glyph-name="daggerdbl" unicode="&#x2021;" horiz-adv-x="360" 
d="M180 74q-42 0 -62 26t-20 62v15h-24q-36 0 -60.5 20.5t-24.5 60.5t24 61t60 21q-36 0 -60 20.5t-24 60.5q0 41 24.5 61.5t60.5 20.5h25v18q0 36 20.5 60.5t60.5 24.5q41 0 61.5 -24t20.5 -61v-18h21q36 0 62 -20t26 -62q0 -37 -22 -57.5t-54 -23.5q31 -3 53.5 -21.5
t22.5 -50.5v-9q0 -42 -26 -62.5t-62 -20.5h-21v-14q0 -36 -20.5 -62t-61.5 -26zM16 258q0 -54 58 -54h37q14 0 14 -14v-28q0 -26 13.5 -43.5t41.5 -17.5t41.5 17.5t13.5 43.5v27q0 14 14 14h34q26 0 43.5 13.5t17.5 41.5t-17.5 41.5t-43.5 13.5h-34q-14 0 -14 14v25
q0 14 14 14h34q26 0 43.5 13.5t17.5 41.5t-17.5 41.5t-43.5 13.5h-34q-14 0 -14 14v31q0 58 -55 58q-54 0 -54 -58v-31q0 -14 -14 -14h-38q-58 0 -58 -55q0 -54 58 -54h38q14 0 14 -14l-1 -26q0 -14 -14 -14h-37q-58 0 -58 -55z" />
    <glyph glyph-name="bullet" unicode="&#x2022;" horiz-adv-x="216" 
d="M111 132q-61 0 -91.5 35t-30.5 86t30.5 87t91.5 36q63 0 92 -36.5t29 -86.5q0 -51 -29 -86t-92 -35zM16 253q0 -41 23.5 -67.5t71.5 -26.5q50 0 72 26.5t22 67.5t-22.5 68.5t-71.5 27.5q-48 0 -71.5 -27.5t-23.5 -68.5z" />
    <glyph glyph-name="ellipsis" unicode="&#x2026;" horiz-adv-x="497" 
d="M78 -23q-49 0 -74 28.5t-25 69.5t25.5 70t73.5 29q59 0 86 -46q24 46 84 46h1q60 0 85 -46q26 46 86 46q50 0 74 -29t24 -70q0 -40 -24 -69t-74 -29q-60 0 -86 45q-24 -45 -85 -45t-85 45q-26 -45 -86 -45zM6 75q0 -31 17.5 -51t54.5 -20t54 20t17 51t-17 51.5t-54 20.5
q-36 0 -54 -20.5t-18 -51.5zM177 75q0 -31 17.5 -51t54.5 -20t54 20t17 51t-17 51.5t-54 20.5q-36 0 -54 -20.5t-18 -51.5zM348 75q0 -31 17.5 -51t54.5 -20t54 20t17 51t-17 51.5t-54 20.5q-36 0 -54 -20.5t-18 -51.5z" />
    <glyph glyph-name="perthousand" unicode="&#x2030;" horiz-adv-x="669" 
d="M351 -23q-43 0 -74.5 29.5t-31.5 81.5v78l-88 -148q-18 -31 -45.5 -41t-57.5 7t-36 47.5t13 58.5l119 202q-12 -3 -25 -3h-20q-43 0 -74.5 29.5t-31.5 81.5v92q0 52 28 83t75 31h19q49 0 76.5 -32.5t27.5 -81.5v-73l85 144q17 30 44.5 39t59.5 -8q29 -17 34.5 -47
t-12.5 -57l-118 -200q13 4 30 4h19q63 0 90 -53q27 53 90 53h19q49 0 76.5 -32.5t27.5 -81.5v-92q0 -47 -28.5 -79t-71.5 -32h-20q-64 0 -93 54q-28 -54 -86 -54h-20zM26 400q0 -40 23 -62t56 -22h20q31 0 52 24t21 60v92q0 39 -20.5 63t-56.5 24h-19q-35 0 -55.5 -23
t-20.5 -64v-92zM54 76q-12 -16 -10 -36.5t23 -32.5q39 -24 67 24l279 473q11 15 9 35t-22 32q-41 24 -67 -22zM95 411v72q0 15 14 15q15 0 15 -16v-71q0 -17 -15 -17q-14 0 -14 17zM272 88q0 -40 23 -62t56 -22h20q31 0 52 24t21 60v92q0 39 -20.5 63t-56.5 24h-19
q-35 0 -55.5 -23t-20.5 -64v-92zM344 99v72q0 15 14 15q15 0 15 -16v-71q0 -17 -15 -17q-14 0 -14 17zM471 88q0 -40 23 -62t56 -22h20q31 0 52 24t21 60v92q0 39 -20.5 63t-56.5 24h-19q-35 0 -55.5 -23t-20.5 -64v-92zM543 99v72q0 15 14 15q15 0 15 -16v-71
q0 -17 -15 -17q-14 0 -14 17z" />
    <glyph glyph-name="guilsinglleft" unicode="&#x2039;" horiz-adv-x="249" 
d="M224 135q-27 -22 -55.5 -16t-52.5 34l-93 113q-24 27 -24 56q0 28 24 55l93 113q24 28 52.5 34t55.5 -16q26 -22 26 -52t-24 -56l-66 -78l66 -78q24 -27 24 -57t-26 -52zM26 322q0 -19 17 -38l94 -114q36 -44 69 -15q36 30 -1 71l-72 86q-8 11 0 20l72 85q37 41 1 71
q-33 29 -69 -15l-94 -114q-17 -19 -17 -37z" />
    <glyph glyph-name="guilsinglright" unicode="&#x203a;" horiz-adv-x="249" 
d="M26 135q-26 22 -26 52t24 57l65 78l-65 78q-24 26 -24 56t26 52t55 16t52 -34l93 -113q24 -27 24 -55q0 -29 -24 -56l-93 -113q-23 -28 -52 -34t-55 16zM43 155q33 -29 69 15l94 114q17 19 17 38q0 18 -17 37l-94 114q-36 44 -69 15q-36 -30 1 -71l72 -85q8 -9 0 -20
l-72 -86q-37 -41 -1 -71z" />
    <glyph glyph-name="Euro" unicode="&#x20ac;" horiz-adv-x="325" 
d="M171 -22q-60 0 -101.5 41t-41.5 117v49q-39 16 -39 62q0 31 24 52q-24 20 -24 53q0 42 39 61v36q0 156 136 156h35q53 0 97.5 -33.5t44.5 -92.5q0 -80 -57 -96q7 -13 7 -31q0 -34 -24 -52q24 -19 24 -53q0 -20 -9 -35q56 -17 56 -101v-1q0 -54 -35.5 -93t-88.5 -39h-43z
M16 247q0 -20 11 -30t21 -10q7 0 7 -14v-57q0 -64 33 -97.5t83 -33.5h43q41 0 69 31t28 74q0 80 -59 80q-24 0 -37.5 -12t-13.5 -32q0 -23 -16 -23q-21 0 -21 45v25q0 14 14 14h42q44 0 44 40q0 21 -12.5 31t-31.5 10h-41q-14 0 -14 12t14 12h41q44 0 44 40q0 21 -12.5 31
t-31.5 10h-39q-14 0 -14 14v34q0 27 22 27q9 0 14 -6t5 -11q0 -45 48 -45q58 0 58 73q0 47 -36 73t-79 26h-35q-109 0 -109 -129v-44q0 -11 -12 -15q-27 -11 -27 -38q0 -20 11 -30t21 -10q7 0 7 -12q0 -10 -12 -15q-27 -11 -27 -38z" />
    <glyph glyph-name="trademark" unicode="&#x2122;" horiz-adv-x="408" 
d="M77 209q-27 0 -43 19t-16 48v203q-22 5 -35.5 22t-13.5 40q0 29 18.5 45.5t48.5 16.5h82q23 0 42 -11q15 13 36 13q24 0 39 -12t24 -43l15 -50l15 50q17 55 63 55h1q25 0 40.5 -18.5t15.5 -48.5v-264q0 -29 -15 -46t-40 -17q-27 0 -41.5 16t-16.5 39h-2l-1 1
q-22 -10 -41 -1q-1 -25 -16.5 -40t-40.5 -15q-24 0 -40 17t-16 46v206q-2 0 -3 -1v-203q0 -29 -16 -48t-43 -19zM-4 541q0 -18 11.5 -27.5t28.5 -9.5q9 0 9 -14v-214q0 -40 32 -40t32 40v214q0 14 9 14q39 0 39 37q0 35 -39 35h-82q-40 0 -40 -35zM166 274q0 -36 29 -36
q31 0 31 36v77q0 8 6.5 8t8.5 -7l11 -43q5 -20 21 -20q19 0 24 20l10 38q2 8 8.5 7.5t6.5 -8.5v-74q0 -34 32 -34q28 0 28 36v264q0 40 -29 40h-1q-16 0 -23.5 -7.5t-13.5 -28.5l-31 -105q-2 -6 -5.5 -8.5t-7 0t-5.5 8.5l-33 105q-7 21 -14.5 28.5t-22.5 7.5q-30 0 -30 -40
v-264z" />
    <glyph glyph-name="product" unicode="&#x220f;" horiz-adv-x="416" 
d="M129 -22q-41 0 -62 26.5t-21 63.5v361q-34 3 -58 25t-24 62q0 44 28.5 65.5t65.5 21.5h302q37 0 64.5 -21.5t27.5 -65.5q0 -41 -24 -63t-59 -25v-360q0 -37 -21 -63.5t-62 -26.5q-62 0 -78 58q-18 -58 -79 -58zM-9 516q0 -31 19.5 -46t47.5 -15h1q14 0 14 -14v-373
q0 -28 14 -45.5t42 -17.5t42 17.5t14 45.5v373q0 14 14 14h17q14 0 14 -14v-373q0 -28 14 -45.5t42 -17.5t42 17.5t14 45.5v373q0 14 14 14h4q28 0 46.5 15t18.5 46t-18.5 45.5t-46.5 14.5h-302q-28 0 -47.5 -14.5t-19.5 -45.5z" />
    <glyph glyph-name="minus" unicode="&#x2212;" horiz-adv-x="269" 
d="M87 172q-38 0 -63 21.5t-25 62.5q0 43 24.5 64t63.5 21h92q39 0 65 -21.5t26 -63.5t-26 -63t-65 -21h-92zM26 256q0 -57 61 -57h92q64 0 64 57q0 58 -64 58h-92q-61 0 -61 -58z" />
    <glyph glyph-name="radical" unicode="&#x221a;" horiz-adv-x="300" 
d="M128 -23q-70 0 -88 87l-68 332q-9 40 6.5 68.5t54.5 35.5q78 13 95 -71l44 233q15 75 88 75h75q39 0 62.5 -20.5t23.5 -56.5q0 -37 -23.5 -56.5t-62.5 -19.5h-17l-102 -519q-7 -37 -30.5 -62.5t-57.5 -25.5zM-2 401l68 -332q9 -42 35.5 -58.5t53 0.5t34.5 59l104 528
q3 13 15 13h27q59 0 59 49q0 50 -59 50h-75q-53 0 -62 -53l-62 -330q-1 -6 -4.5 -8.5t-7 0t-4.5 8.5l-18 93q-6 30 -20 44t-44 9q-53 -10 -40 -72z" />
    <glyph glyph-name="infinity" unicode="&#x221e;" horiz-adv-x="563" 
d="M396 77q-69 0 -109 40q-38 -40 -109 -40h-4q-79 0 -127 46.5t-48 116.5v26q0 73 48 121.5t127 48.5h11q66 0 102 -39q34 38 99 39h14q78 0 121 -48t43 -122v-26q0 -71 -42.5 -117t-121.5 -46h-4zM26 240q0 -59 40 -97.5t108 -38.5h4q81 0 105 54q4 11 8 0q24 -54 105 -54
h4q66 0 101.5 38t35.5 98v26q0 63 -35.5 103t-101.5 40h-11q-76 0 -98 -55q-4 -11 -8 0q-22 55 -98 55h-11q-68 0 -108 -40.5t-40 -102.5v-26zM154 258q0 23 32 23h19q35 0 35 -23q0 -24 -35 -24h-19q-14 0 -23 7.5t-9 16.5zM334 258q0 23 35 23h19q32 0 32 -23
q0 -9 -9 -16.5t-23 -7.5h-19q-35 0 -35 24z" />
    <glyph glyph-name="approxequal" unicode="&#x2248;" horiz-adv-x="391" 
d="M257 57q-59 0 -113 63q-24 -40 -67 -40q-33 0 -55.5 23t-22.5 56q0 58 57 102q-25 7 -41 28t-16 48q0 36 25.5 70t63.5 51q21 9 44 9q62 0 116 -63q23 36 66 36q33 0 55.5 -22.5t22.5 -54.5q0 -63 -60 -103q26 -6 43 -26.5t17 -48.5q0 -32 -22 -66t-68 -53q-22 -9 -45 -9
zM26 159q0 -22 14.5 -37t36.5 -15q35 0 50 40q7 21 14 21q1 0 7 -8.5t16.5 -21t23.5 -25t31.5 -21t37.5 -8.5q17 0 34 7q38 16 56 42.5t18 51.5q0 21 -14.5 35.5t-36.5 14.5q-17 0 -30 -10t-18 -25q-1 -5 -7 -13q-7 -8 -15 2q-56 73 -112 73q-18 0 -33 -7q-31 -13 -52 -40.5
t-21 -55.5zM26 337q0 -22 14.5 -37t36.5 -15q35 0 50 40q7 21 14 21q1 0 7 -8.5t16.5 -21t23.5 -25t31.5 -21t37.5 -8.5q17 0 34 7q38 16 56 42.5t18 51.5q0 21 -14.5 35.5t-36.5 14.5q-17 0 -30 -10t-18 -25q-1 -5 -7 -13q-7 -8 -15 2q-56 73 -112 73q-18 0 -33 -7
q-31 -13 -52 -40.5t-21 -55.5z" />
    <glyph glyph-name="notequal" unicode="&#x2260;" horiz-adv-x="343" 
d="M84 17q-56 21 -44 85q-41 20 -41 72q0 41 23.5 61.5t60.5 20.5h11l1 2h-12q-36 0 -60 20t-24 60q0 41 23.5 61.5t60.5 20.5h72l9 24q12 33 37 47t57 2q28 -9 40 -32t7 -51q39 -22 39 -72q0 -38 -23 -59t-63 -21h-7l-1 -2h8q37 0 61.5 -20.5t24.5 -61.5t-25 -61t-61 -20
h-66l-10 -26q-14 -33 -40 -48t-58 -2zM26 174q0 -39 33 -51q14 -5 10 -15q-17 -52 25 -66q41 -17 63 35l12 32q5 11 16 11h73q59 0 59 54q0 55 -59 55h-29q-16 0 -11 16l10 29q5 11 16 11h14q59 0 59 53q0 39 -32 51q-13 4 -10 14q18 51 -26 64q-42 17 -60 -32l-11 -31
q-5 -11 -16 -11h-79q-57 0 -57 -55q0 -53 57 -53h34q8 0 11 -4.5t0 -11.5l-11 -29q-5 -11 -16 -11h-18q-57 0 -57 -55z" />
    <glyph glyph-name="uni004A0301" horiz-adv-x="274" 
d="M110 -20q-59 0 -100 43.5t-41 116.5v18q0 33 21 56.5t58 23.5q42 0 63 -30v312q0 31 19 56q-42 15 -42 56q0 21 9 34.5t37 36.5q46 36 85 36q33 0 55.5 -21t22.5 -59q0 -53 -45 -76q23 -26 23 -62v-381q0 -75 -45 -117.5t-104 -42.5h-16zM-4 140q0 -61 33 -97t81 -36h16
q48 0 85 35.5t37 97.5v380q0 25 -14.5 42.5t-40.5 17.5q-25 0 -40 -18t-15 -42v-359q0 -26 -21 -26q-7 0 -13.5 7.5t-6.5 18.5q0 50 -49 50q-25 0 -38.5 -15.5t-13.5 -37.5v-18zM115 632q0 -14 10.5 -23t25.5 -9h58q26 0 43.5 16t17.5 43q0 26 -14.5 39.5t-36.5 13.5
q-30 0 -68 -30q-23 -19 -29.5 -27.5t-6.5 -22.5z" />
    <glyph glyph-name="A.ss01" horiz-adv-x="317" 
d="M82 17q-38 0 -60.5 26t-22.5 61v380q0 75 45.5 117.5t104.5 42.5h28q62 0 101.5 -42t39.5 -116v-384q0 -37 -22.5 -61t-57.5 -24q-29 0 -49 16t-28 41q-20 -57 -79 -57zM26 104q0 -25 15 -42.5t41 -17.5q25 0 41 18t16 42v113q0 14 14 14h16q14 0 14 -14v-113
q0 -25 14.5 -42.5t41.5 -17.5q24 0 38 17t14 41v384q0 62 -32 96.5t-82 34.5h-28q-49 0 -86 -35.5t-37 -97.5v-380zM139 344v120q0 12 6 19.5t15 7.5t16 -8t7 -20v-119q0 -14 -14 -14h-16q-14 0 -14 14z" />
    <glyph glyph-name="Aacute.ss01" horiz-adv-x="317" 
d="M82 17q-38 0 -60.5 26t-22.5 61v380q0 101 82 144q-22 17 -22 45q0 20 9 34.5t37 36.5q45 36 85 36q33 0 55.5 -21t22.5 -59q0 -44 -32 -68q82 -37 82 -146v-384q0 -37 -23 -61t-57 -24q-29 0 -49 16t-28 41q-20 -57 -79 -57zM26 104q0 -25 15 -42.5t41 -17.5q25 0 41 18
t16 42v113q0 14 14 14h16q14 0 14 -14v-113q0 -25 14.5 -42.5t41.5 -17.5q24 0 38 17t14 41v384q0 62 -32 96.5t-82 34.5h-28q-49 0 -86 -35.5t-37 -97.5v-380zM86 673q0 -14 10.5 -23t25.5 -9h58q26 0 43.5 16t17.5 43q0 26 -14.5 39.5t-36.5 13.5q-30 0 -68 -30
q-23 -19 -29.5 -27.5t-6.5 -22.5zM139 344v120q0 12 6 19.5t15 7.5t16 -8t7 -20v-119q0 -14 -14 -14h-16q-14 0 -14 14z" />
    <glyph glyph-name="Abreve.ss01" horiz-adv-x="317" 
d="M82 17q-38 0 -60.5 26t-22.5 61v380q0 54 24.5 91t63.5 55q-38 24 -59 68q-6 10 -6 27q0 28 18.5 46.5t46.5 18.5q44 0 61 -41q2 -7 9 -7q15 0 19 10q20 36 58 36q26 0 46 -18.5t20 -46.5q0 -18 -8 -33q-22 -36 -57 -57q83 -37 83 -147v-384q0 -37 -23 -61t-57 -24
q-29 0 -49 16t-28 41q-20 -57 -79 -57zM26 104q0 -25 15 -42.5t41 -17.5q25 0 41 18t16 42v113q0 14 14 14h16q14 0 14 -14v-113q0 -25 14.5 -42.5t41.5 -17.5q24 0 38 16.5t14 41.5v384q0 62 -32 96.5t-82 34.5h-28q-49 0 -86 -35.5t-37 -97.5v-380zM49 725q0 -9 3 -16
q16 -34 44.5 -53t60.5 -19q31 0 62 17.5t49 48.5q5 10 5 20q0 16 -11.5 27t-27.5 11q-22 0 -34 -21q-11 -25 -43 -25q-26 0 -34 24q-10 24 -36 24q-17 0 -27.5 -10.5t-10.5 -27.5zM139 344v120q0 12 6 19.5t15 7.5t16 -8t7 -20v-119q0 -14 -14 -14h-16q-14 0 -14 14z" />
    <glyph glyph-name="Acircumflex.ss01" horiz-adv-x="317" 
d="M82 17q-38 0 -60.5 26t-22.5 61v380q0 88 64 133q-20 15 -20 43q0 4 0.5 7.5t1 6.5t2.5 7l3 6t4.5 7t5 7.5t6 9t6.5 9.5q40 54 87 54q46 0 86 -54q2 -3 6.5 -9.5t6 -9t5 -7.5t4.5 -7l3 -6t2.5 -7t1 -6.5t0.5 -7.5q0 -24 -16 -40q60 -42 60 -134v-384q0 -37 -23 -61
t-57 -24q-29 0 -49 16t-28 41q-20 -57 -79 -57zM26 104q0 -25 15 -42.5t41 -17.5q25 0 41 18t16 42v113q0 14 14 14h16q14 0 14 -14v-113q0 -25 14.5 -42.5t41.5 -17.5q24 0 38 17t14 41v384q0 62 -32 96.5t-82 34.5h-28q-49 0 -86 -35.5t-37 -97.5v-380zM70 660
q0 -13 8 -20.5t19 -7.5q15 0 52 19q10 4 20 0q37 -19 52 -19q11 0 18.5 7.5t7.5 20.5q0 10 -24 44q-31 43 -64 43q-34 0 -65 -43q-24 -34 -24 -44zM139 344v120q0 12 6 19.5t15 7.5t16 -8t7 -20v-119q0 -14 -14 -14h-16q-14 0 -14 14z" />
    <glyph glyph-name="Adieresis.ss01" horiz-adv-x="317" 
d="M82 17q-38 0 -60.5 26t-22.5 61v380q0 86 61 130q-43 20 -43 74q0 33 20.5 56.5t61.5 23.5q39 0 61 -25q21 25 57 25h4q41 0 61 -24.5t20 -56.5q0 -50 -38 -71q54 -43 54 -130v-384q0 -37 -23 -61t-57 -24q-29 0 -49 16t-28 41q-20 -57 -79 -57zM26 104q0 -25 15 -42.5
t41 -17.5q25 0 41 18t16 42v113q0 14 14 14h16q14 0 14 -14v-113q0 -25 14.5 -42.5t41.5 -17.5q24 0 38 17t14 41v384q0 62 -32 96.5t-82 34.5h-28q-49 0 -86 -35.5t-37 -97.5v-380zM44 688q0 -23 13.5 -39t41.5 -16q27 0 40 16t13 39t-13 38t-40 15q-28 0 -41.5 -15
t-13.5 -38zM139 344v120q0 12 6 19.5t15 7.5t16 -8t7 -20v-119q0 -14 -14 -14h-16q-14 0 -14 14zM167 687q0 -23 13.5 -38.5t40.5 -15.5q54 0 54 54q0 23 -13 38.5t-41 15.5q-27 0 -40.5 -15.5t-13.5 -38.5z" />
    <glyph glyph-name="Agrave.ss01" horiz-adv-x="317" 
d="M82 17q-38 0 -60.5 26t-22.5 61v380q0 53 24 90.5t62 55.5q-36 23 -36 70q0 38 22.5 59t55.5 21q40 0 85 -36q28 -22 37 -36.5t9 -34.5q0 -26 -18 -42q78 -38 78 -145v-384q0 -37 -23 -61t-57 -24q-29 0 -49 16t-28 41q-20 -57 -79 -57zM26 104q0 -25 15 -42.5t41 -17.5
q25 0 41 18t16 42v113q0 14 14 14h16q14 0 14 -14v-113q0 -25 14.5 -42.5t41.5 -17.5q24 0 38 17t14 41v384q0 62 -32 96.5t-82 34.5h-28q-49 0 -86 -35.5t-37 -97.5v-380zM76 700q0 -27 17.5 -43t43.5 -16h58q15 0 25.5 9t10.5 23t-6.5 22.5t-29.5 27.5q-38 30 -68 30
q-22 0 -36.5 -13.5t-14.5 -39.5zM139 344v120q0 12 6 19.5t15 7.5t16 -8t7 -20v-119q0 -14 -14 -14h-16q-14 0 -14 14z" />
    <glyph glyph-name="Amacron.ss01" horiz-adv-x="317" 
d="M82 17q-38 0 -60.5 26t-22.5 61v380q0 96 75 140q-36 17 -36 62q0 33 21 52t59 19h80q37 0 59.5 -18.5t22.5 -52.5q0 -41 -32 -60q70 -40 70 -140v-384q0 -37 -23 -61t-57 -24q-29 0 -49 16t-28 41q-20 -57 -79 -57zM26 104q0 -25 15 -42.5t41 -17.5q25 0 41 18t16 42
v113q0 14 14 14h16q14 0 14 -14v-113q0 -25 14.5 -42.5t41.5 -17.5q24 0 38 17t14 41v384q0 62 -32 96.5t-82 34.5h-28q-49 0 -86 -35.5t-37 -97.5v-380zM65 686q0 -45 53 -45h80q55 0 55 45q0 44 -55 44h-80q-53 0 -53 -44zM139 344v120q0 12 6 19.5t15 7.5t16 -8t7 -20
v-119q0 -14 -14 -14h-16q-14 0 -14 14z" />
    <glyph glyph-name="Aring.ss01" horiz-adv-x="317" 
d="M82 17q-38 0 -60.5 26t-22.5 61v380q0 84 59 129q-20 28 -20 63q0 53 34 88t86 35t85.5 -35t33.5 -88q0 -31 -17 -58q58 -42 58 -132v-384q0 -37 -23 -61t-57 -24q-29 0 -49 16t-28 41q-20 -57 -79 -57zM26 104q0 -25 15 -42.5t41 -17.5q25 0 41 18t16 42v113q0 14 14 14
h16q14 0 14 -14v-113q0 -25 14.5 -42.5t41.5 -17.5q24 0 38 17t14 41v384q0 86 -60 119q-12 5 -3 16q22 22 22 55q0 42 -26 69t-66 27q-41 0 -67 -27t-26 -69q0 -36 24 -58q11 -10 -1 -17q-62 -35 -62 -117v-380zM132 680q0 10 7 17.5t19 7.5q11 0 18 -7.5t7 -17.5
q0 -11 -7 -18.5t-18 -7.5q-12 0 -19 7.5t-7 18.5zM139 344v120q0 12 6 19.5t15 7.5t16 -8t7 -20v-119q0 -14 -14 -14h-16q-14 0 -14 14z" />
    <glyph glyph-name="Atilde.ss01" horiz-adv-x="317" 
d="M82 17q-38 0 -60.5 26t-22.5 61v380q0 84 60 130q-21 6 -33 23t-12 38q0 57 27.5 88t72.5 31q43 0 74 -29q17 29 51 29h2q27 0 46 -19t19 -46q0 -76 -49 -108q61 -43 61 -135v-384q0 -37 -23 -61t-57 -24q-29 0 -49 16t-28 41q-20 -57 -79 -57zM26 104q0 -25 15 -42.5
t41 -17.5q25 0 41 18t16 42v113q0 14 14 14h16q14 0 14 -14v-113q0 -25 14.5 -42.5t41.5 -17.5q24 0 38 17t14 41v384q0 62 -32 96.5t-82 34.5h-28q-49 0 -86 -35.5t-37 -97.5v-380zM41 675q0 -16 10.5 -26.5t26.5 -10.5t26 10.5t12 26.5q2 15 14 5q3 -3 12.5 -13
t13.5 -13.5t12.5 -9.5t17.5 -8.5t19 -2.5q32 0 53 25t21 71q0 16 -11 27t-27 11t-26.5 -11t-10.5 -27v-7q0 -3 -1.5 -4.5t-4 -1t-4.5 2.5l-12 13q-13 14 -19.5 19.5t-19 10.5t-29.5 5q-34 0 -53.5 -23t-19.5 -69zM139 344v120q0 12 6 19.5t15 7.5t16 -8t7 -20v-119
q0 -14 -14 -14h-16q-14 0 -14 14z" />
    <glyph glyph-name="AE.ss01" horiz-adv-x="406" 
d="M83 16q-38 0 -61 26.5t-23 60.5v380q0 75 45.5 117.5t104.5 42.5h182q37 0 64 -23.5t27 -66.5q0 -44 -27 -66.5t-64 -22.5h-13v-55h19q35 0 56.5 -20t21.5 -54q0 -35 -22 -55t-56 -20h-19v-66h12q38 0 65 -22.5t27 -66.5t-27 -65.5t-64 -21.5h-92q-58 0 -78 56
q-9 -25 -29.5 -41.5t-48.5 -16.5zM26 103q0 -25 15.5 -42.5t41.5 -17.5q25 0 40.5 18t15.5 42v167q0 14 14 14h16q14 0 14 -14v-165q0 -25 14.5 -42.5t41.5 -17.5h92q27 0 45.5 14.5t18.5 45.5q0 32 -18.5 47.5t-45.5 14.5l-26 -1q-14 0 -14 14v93q0 14 14 14h32q51 0 51 48
q0 47 -51 47h-32q-14 0 -14 14v89q0 7 14 7h26q28 0 46 15t18 46t-18.5 47t-45.5 16h-182q-49 0 -86 -35.5t-37 -97.5v-380zM139 397v68q0 12 6 19.5t15 7.5t16 -8t7 -20v-67q0 -14 -14 -14h-16q-14 0 -14 14z" />
    <glyph glyph-name="B.ss01" horiz-adv-x="319" 
d="M84 18q-43 0 -64 28t-21 66v438q0 38 21 66t64 28h87q71 0 110 -47t39 -121v-48q0 -65 -33 -96q32 -32 32 -88v-58q0 -73 -41 -120.5t-113 -47.5h-81zM26 112q0 -29 14 -48t44 -19h81q60 0 93.5 39t33.5 102v58q0 61 -46 85q-8 4 1 9q46 17 46 90v48q0 63 -31.5 102
t-90.5 39h-87q-58 0 -58 -67v-438zM136 169v105q0 14 14 14h4q9 0 16.5 -9t7.5 -22v-73q0 -13 -7 -21t-17 -8h-4q-14 0 -14 14zM136 395v97q0 14 14 14h4q10 0 17 -8t7 -21v-65q0 -13 -7.5 -22t-16.5 -9h-4q-14 0 -14 14z" />
    <glyph glyph-name="C.ss01" horiz-adv-x="304" 
d="M135 19q-136 0 -136 156v312q0 76 41.5 117t101.5 41h43q56 0 95.5 -43t39.5 -109v-62q0 -40 -20 -69t-65 -29q-44 0 -69 27l1 -56q22 27 61 27q37 0 60.5 -20t23.5 -62v-78q0 -79 -43.5 -115.5t-98.5 -36.5h-35zM26 175q0 -129 109 -129h35q46 0 80.5 29.5t34.5 95.5v78
q0 55 -57 55q-24 0 -38.5 -15t-14.5 -35v-74q0 -20 -18 -20q-17 0 -17 23l-1 272q0 41 16 41q11 0 14.5 -9t3.5 -31v-39q0 -26 16 -41.5t46 -15.5q58 0 58 71v62q0 55 -31.5 90t-76.5 35h-43q-50 0 -83 -33.5t-33 -97.5v-312z" />
    <glyph glyph-name="Cacute.ss01" horiz-adv-x="304" 
d="M135 19q-136 0 -136 156v312q0 106 79 144q-24 17 -24 47q0 21 9 34.5t37 36.5q46 36 85 36q33 0 55.5 -21t22.5 -59q0 -43 -33 -68q40 -15 65 -54t25 -90v-62q0 -40 -20 -69t-65 -29q-44 0 -69 27l1 -56q22 27 61 27q37 0 60.5 -20t23.5 -62v-78q0 -79 -43.5 -115.5
t-98.5 -36.5h-35zM26 175q0 -129 109 -129h35q46 0 80.5 29.5t34.5 95.5v78q0 55 -57 55q-24 0 -38.5 -15t-14.5 -35v-74q0 -20 -17 -20q-18 0 -18 23l-1 272q0 41 17 41q11 0 14 -8.5t3 -31.5v-39q0 -26 16 -41.5t46 -15.5q58 0 58 71v62q0 55 -31.5 90t-76.5 35h-43
q-50 0 -83 -33.5t-33 -97.5v-312zM81 678q0 -14 10.5 -23t25.5 -9h58q26 0 43.5 16t17.5 43q0 26 -14.5 39.5t-36.5 13.5q-30 0 -68 -30q-23 -19 -29.5 -27.5t-6.5 -22.5z" />
    <glyph glyph-name="Ccaron.ss01" horiz-adv-x="304" 
d="M135 19q-136 0 -136 156v312q0 60 26.5 98.5t69.5 52.5q-15 12 -29 32q-2 2 -6 8t-5.5 8t-4.5 6.5t-4 6.5l-3 6t-2.5 6t-1.5 5.5t-1.5 6.5t-0.5 6q0 25 16.5 40t37.5 15q23 0 62 -21q38 21 62 21t38.5 -16t14.5 -39q0 -10 -4.5 -20t-7.5 -14.5t-17 -24.5q-14 -19 -24 -28
q46 -12 75.5 -52t29.5 -97v-62q0 -40 -20 -69t-65 -29q-44 0 -69 27l1 -56q22 27 61 27q37 0 60.5 -20t23.5 -62v-78q0 -79 -43.5 -115.5t-98.5 -36.5h-35zM26 175q0 -129 109 -129h35q46 0 80.5 29.5t34.5 95.5v78q0 55 -57 55q-24 0 -38.5 -15t-14.5 -35v-74
q0 -20 -17 -20q-18 0 -18 23l-1 272q0 41 17 41q11 0 14 -8.5t3 -31.5v-39q0 -26 16 -41.5t46 -15.5q58 0 58 71v62q0 55 -31.5 90t-76.5 35h-43q-50 0 -83 -33.5t-33 -97.5v-312zM64 729q0 -9 24 -44q31 -43 65 -43q33 0 64 43q24 35 24 44q0 13 -7.5 20.5t-18.5 7.5
q-15 0 -52 -19q-10 -4 -20 0q-37 19 -52 19q-11 0 -19 -7.5t-8 -20.5z" />
    <glyph glyph-name="Ccedilla.ss01" horiz-adv-x="304" 
d="M121 -178q-25 2 -41 19.5t-16 41.5q0 39 32 55q-27 29 -17 67l4 21q-84 29 -84 149v312q0 76 41.5 117t101.5 41h43q56 0 95.5 -43t39.5 -109v-62q0 -40 -20 -69t-65 -29q-44 0 -68 27q0 -37 1 -54q23 25 59 25h1q37 0 60.5 -20t23.5 -62v-78q0 -63 -28.5 -99t-71.5 -47
q59 -29 59 -99q0 -52 -34.5 -78t-79.5 -26h-36zM26 175q0 -108 75 -126q14 -3 11 -16l-7 -34q-5 -22 7 -38t30 -16h14q20 0 20 -14t-24 -14h-27q-34 0 -34 -34q0 -13 8.5 -22.5t22.5 -11.5h35q36 0 61.5 19t25.5 58q0 35 -14 51.5t-41 27.5q-11 4 -10 17l1 12q1 11 13 14
q92 16 92 123v78q0 55 -57 55q-24 0 -38.5 -15t-14.5 -35v-74q0 -20 -16 -20q-17 0 -17 23q0 39 -1.5 127t-1.5 145q0 41 17 41q11 0 14 -8.5t3 -31.5v-39q0 -26 16 -41.5t46 -15.5q58 0 58 71v62q0 55 -31.5 90t-76.5 35h-43q-50 0 -83 -33.5t-33 -97.5v-312z" />
    <glyph glyph-name="D.ss01" horiz-adv-x="315" 
d="M73 19q-36 0 -55 21t-19 58v473q0 73 74 73h91q72 -1 112 -48.5t40 -119.5v-295q0 -68 -41.5 -115t-107.5 -47h-94zM26 98q0 -52 47 -52h94q54 0 88 38.5t34 96.5v295q0 62 -33 101t-92 40h-91q-26 0 -36.5 -11t-10.5 -35v-473zM135 173v311q0 14 14 14h4q10 0 17 -8
t7 -21v-279q0 -13 -7.5 -22t-16.5 -9h-4q-14 0 -14 14z" />
    <glyph glyph-name="Eth.ss01" horiz-adv-x="325" 
d="M76 18q-36 0 -55 21t-19 58v173q-33 18 -33 62q0 42 32 63l1 176q0 73 74 73h98q72 -1 112 -48.5t40 -119.5v-296q0 -69 -41.5 -115.5t-107.5 -46.5h-101zM-4 332q0 -29 22 -40q11 -6 11 -16v-179q0 -52 47 -52h101q54 0 88 38.5t34 96.5v296q0 62 -33 101t-92 40h-98
q-26 0 -36.5 -11t-10.5 -35v-182q0 -10 -11 -16q-22 -11 -22 -41zM138 172v105q0 10 11 16q19 11 19 39t-19 39q-11 6 -11 17v96q0 14 14 14h11q10 0 17 -8t7 -21v-280q0 -13 -7.5 -22t-16.5 -9h-11q-14 0 -14 14z" />
    <glyph glyph-name="Dcroat.ss01" horiz-adv-x="325" 
d="M76 18q-36 0 -55 21t-19 58v173q-33 18 -33 62q0 43 33 63v176q0 73 74 73h98q72 -1 112 -48.5t40 -119.5v-296q0 -69 -41.5 -115.5t-107.5 -46.5h-101zM-4 332q0 -29 22 -40q11 -6 11 -16v-179q0 -52 47 -52h101q54 0 88 38.5t34 96.5v296q0 62 -33 101t-92 40h-98
q-26 0 -36.5 -11t-10.5 -35v-182q0 -10 -11 -16q-22 -11 -22 -41zM138 172v105q0 10 11 16q19 11 19 39t-19 39q-11 6 -11 17v96q0 14 14 14h11q10 0 17 -8t7 -21v-280q0 -13 -7.5 -22t-16.5 -9h-11q-14 0 -14 14z" />
    <glyph glyph-name="E.ss01" horiz-adv-x="254" 
d="M84 17q-43 0 -64 28t-21 66v439q0 38 21 66t64 28h95q37 0 64 -21.5t27 -65.5q0 -45 -27 -66.5t-64 -21.5h-14v-59h20q35 0 56.5 -20t21.5 -54q0 -35 -22 -55t-56 -20h-20v-69h14q37 0 64 -21.5t27 -66.5q0 -44 -27 -65.5t-64 -21.5h-95zM26 111q0 -29 14 -48t44 -19h95
q27 0 45.5 14.5t18.5 45.5t-18 46t-46 15h-27q-14 0 -14 14v95q0 14 14 14h33q51 0 51 48q0 47 -51 47h-33q-14 0 -14 14v85q0 14 14 14h27q28 0 46 15t18 46t-18.5 45.5t-45.5 14.5h-95q-30 0 -44 -19t-14 -48v-439z" />
    <glyph glyph-name="Eacute.ss01" horiz-adv-x="254" 
d="M84 17q-43 0 -64 28t-21 66v439q0 65 47 86q-14 17 -14 38t9 34.5t37 36.5q46 36 85 36q33 0 55.5 -21t22.5 -59q0 -39 -26 -63q55 -18 55 -81q0 -45 -27 -66.5t-64 -21.5h-14v-59h20q35 0 56.5 -20t21.5 -54q0 -35 -22 -55t-56 -20h-20v-69h14q37 0 64 -21.5t27 -66.5
q0 -44 -27 -65.5t-64 -21.5h-95zM26 111q0 -29 14 -48t44 -19h95q27 0 45.5 14.5t18.5 45.5t-18 46t-46 15h-27q-14 0 -14 14v95q0 14 14 14h33q51 0 51 48q0 47 -51 47h-33q-14 0 -14 14v85q0 14 14 14h27q28 0 46 15t18 46t-18.5 45.5t-45.5 14.5h-95q-30 0 -44 -19
t-14 -48v-439zM59 674q0 -14 10.5 -23t25.5 -9h58q26 0 43.5 16t17.5 43q0 26 -14.5 39.5t-36.5 13.5q-30 0 -68 -30q-23 -19 -29.5 -27.5t-6.5 -22.5z" />
    <glyph glyph-name="Ecircumflex.ss01" horiz-adv-x="254" 
d="M84 17q-43 0 -64 28t-21 66v439q0 51 31 76q-16 18 -16 40q0 4 0.5 7.5t1 6.5t2.5 7l3 6t4.5 7t5 7.5t6 9t6.5 9.5q39 54 87 54q47 0 86 -54q2 -3 6.5 -9.5t6 -9t5 -7.5t4.5 -7l3 -6t2.5 -7t1 -6.5t0.5 -7.5q0 -19 -12 -36q37 -23 37 -73q0 -45 -27 -66.5t-64 -21.5h-14
v-59h20q35 0 56.5 -20t21.5 -54q0 -35 -22 -55t-56 -20h-20v-69h14q37 0 64 -21.5t27 -66.5q0 -44 -27 -65.5t-64 -21.5h-95zM26 111q0 -29 14 -48t44 -19h95q27 0 45.5 14.5t18.5 45.5t-18 46t-46 15h-27q-14 0 -14 14v95q0 14 14 14h33q51 0 51 48q0 47 -51 47h-33
q-14 0 -14 14v85q0 14 14 14h27q28 0 46 15t18 46t-18.5 45.5t-45.5 14.5h-95q-30 0 -44 -19t-14 -48v-439zM41 666q0 -13 8 -20.5t19 -7.5q15 0 52 19q10 4 20 0q37 -19 52 -19q11 0 18.5 7.5t7.5 20.5q0 10 -24 44q-31 43 -64 43q-34 0 -65 -43q-24 -34 -24 -44z" />
    <glyph glyph-name="Edieresis.ss01" horiz-adv-x="254" 
d="M84 17q-43 0 -64 28t-21 66v439q0 48 28 73q-37 22 -37 71q0 32 21 56t61 24q39 0 61 -25q22 25 61 25q41 0 61 -24.5t20 -56.5q0 -46 -34 -69q29 -22 29 -67t-27 -66.5t-64 -21.5h-14v-59h20q35 0 56.5 -20t21.5 -54q0 -35 -22 -55t-56 -20h-20v-69h14q37 0 64 -21.5
t27 -66.5q0 -44 -27 -65.5t-64 -21.5h-95zM17 694q0 -23 13.5 -39t41.5 -16q27 0 40 16t13 39t-13 38t-40 15q-28 0 -41.5 -15t-13.5 -38zM26 111q0 -29 14 -48t44 -19h95q27 0 45.5 14.5t18.5 45.5t-18 46t-46 15h-27q-14 0 -14 14v95q0 14 14 14h33q51 0 51 48
q0 47 -51 47h-33q-14 0 -14 14v85q0 14 14 14h27q28 0 46 15t18 46t-18.5 45.5t-45.5 14.5h-95q-30 0 -44 -19t-14 -48v-439zM140 693q0 -23 13.5 -38.5t40.5 -15.5q54 0 54 54q0 23 -13 38.5t-41 15.5q-27 0 -40.5 -15.5t-13.5 -38.5z" />
    <glyph glyph-name="Egrave.ss01" horiz-adv-x="254" 
d="M84 17q-43 0 -64 28t-21 66v439q0 66 50 88q-27 22 -27 63q0 38 22.5 59t55.5 21q40 0 85 -36q28 -23 37 -36.5t9 -34.5t-13 -37q52 -20 52 -80q0 -45 -27 -66.5t-64 -21.5h-14v-59h20q35 0 56.5 -20t21.5 -54q0 -35 -22 -55t-56 -20h-20v-69h14q37 0 64 -21.5t27 -66.5
q0 -44 -27 -65.5t-64 -21.5h-95zM26 111q0 -29 14 -48t44 -19h95q27 0 45.5 14.5t18.5 45.5t-18 46t-46 15h-27q-14 0 -14 14v95q0 14 14 14h33q51 0 51 48q0 47 -51 47h-33q-14 0 -14 14v85q0 14 14 14h27q28 0 46 15t18 46t-18.5 45.5t-45.5 14.5h-95q-30 0 -44 -19
t-14 -48v-439zM49 701q0 -27 17.5 -43t43.5 -16h58q15 0 25.5 9t10.5 23t-6.5 22.5t-29.5 27.5q-38 30 -68 30q-22 0 -36.5 -13.5t-14.5 -39.5z" />
    <glyph glyph-name="Emacron.ss01" horiz-adv-x="254" 
d="M84 17q-43 0 -64 28t-21 66v439q0 57 39 82q-25 19 -25 56q0 33 21 52t59 19h80q38 0 60 -18.5t22 -52.5q0 -38 -26 -56q41 -23 41 -75q0 -45 -27 -66.5t-64 -21.5h-14v-59h20q35 0 56.5 -20t21.5 -54q0 -35 -22 -55t-56 -20h-20v-69h14q37 0 64 -21.5t27 -66.5
q0 -44 -27 -65.5t-64 -21.5h-95zM26 111q0 -29 14 -48t44 -19h95q27 0 45.5 14.5t18.5 45.5t-18 46t-46 15h-27q-14 0 -14 14v95q0 14 14 14h33q51 0 51 48q0 47 -51 47h-33q-14 0 -14 14v85q0 14 14 14h27q28 0 46 15t18 46t-18.5 45.5t-45.5 14.5h-95q-30 0 -44 -19
t-14 -48v-439zM40 688q0 -45 53 -45h80q55 0 55 45q0 44 -55 44h-80q-53 0 -53 -44z" />
    <glyph glyph-name="F.ss01" horiz-adv-x="248" 
d="M85 17q-43 0 -64.5 28.5t-21.5 65.5v439q0 38 21 66t65 28h98q37 0 64 -21.5t27 -65.5q0 -45 -27 -66.5t-64 -21.5h-14v-79h18q35 0 56.5 -20t21.5 -54q0 -35 -22 -55t-56 -20h-18v-130q0 -41 -22 -67.5t-62 -26.5zM26 111q0 -28 14.5 -47.5t44.5 -19.5q57 0 57 67v143
q0 14 14 14h31q51 0 51 48q0 47 -51 47h-31q-14 0 -14 14v105q0 14 14 14h27q28 0 46 15t18 46t-18.5 45.5t-45.5 14.5h-98q-30 0 -44.5 -19t-14.5 -48v-439z" />
    <glyph glyph-name="G.ss01" horiz-adv-x="318" 
d="M249 14q-32 0 -53 21q-29 -21 -71 -21q-55 0 -90.5 40.5t-35.5 99.5v333q0 75 43 116.5t104 41.5h46q58 0 97.5 -43t39.5 -109v-56q0 -67 -43 -91q40 -27 40 -82v-173q0 -34 -20.5 -55.5t-56.5 -21.5zM26 154q0 -49 27.5 -81t71.5 -32q49 0 68 30q4 5 7.5 3t4.5 -6
q12 -27 44 -27q50 0 50 50v173q0 30 -17 49.5t-42 19.5h-27q-36 0 -50.5 -20.5t-8 -43t24.5 -29.5q13 -3 13 -14v-35q0 -11 -3 -17q-8 -13 -22 -13q-10 0 -18 6t-8 18v270q0 22 4 31.5t15 9.5q20 0 20 -40v-35q0 -26 17 -42.5t47 -16.5q58 0 58 75v56q0 55 -32 90t-78 35
h-46q-50 0 -85 -34t-35 -97v-333z" />
    <glyph glyph-name="H.ss01" horiz-adv-x="328" 
d="M83 16q-42 0 -63 28.5t-21 65.5v443q0 38 21 66t63 28q62 0 81 -62q16 62 80 62q44 0 64.5 -26.5t20.5 -64.5v-446q0 -37 -20.5 -64t-64.5 -27q-63 0 -80 59q-17 -62 -81 -62zM26 110q0 -28 14 -47.5t43 -19.5t44 19.5t15 47.5v160q0 14 14 14h17q14 0 14 -14v-160
q0 -64 57 -64q58 0 58 64v446q0 64 -58 64q-28 0 -42.5 -18t-14.5 -46v-163q0 -14 -14 -14h-18q-14 0 -14 14v160q0 29 -14.5 48t-43.5 19t-43 -19t-14 -48v-443z" />
    <glyph glyph-name="I.ss01" horiz-adv-x="166" 
d="M82 15q-39 0 -61 26.5t-22 67.5v443q0 38 21 66t63 28q41 0 62.5 -28t21.5 -66v-443q0 -37 -21.5 -65.5t-63.5 -28.5zM26 109q0 -28 13.5 -47.5t42.5 -19.5t43.5 19.5t14.5 47.5v443q0 29 -14.5 48t-42.5 19q-29 0 -43 -19t-14 -48v-443z" />
    <glyph glyph-name="IJ.ss01" horiz-adv-x="440" 
d="M82 15q-39 0 -61 26.5t-22 67.5v443q0 38 21 66t63 28q41 0 62.5 -28t21.5 -66v-288q19 14 47 14q42 0 63 -30v312q0 35 22.5 61t59.5 26q38 0 60 -26t22 -61v-380q0 -75 -45 -117.5t-104 -42.5h-16q-71 0 -113 60q-17 -65 -81 -65zM26 109q0 -28 13.5 -47.5t42.5 -19.5
t43.5 19.5t14.5 47.5v443q0 29 -14.5 48t-42.5 19q-29 0 -43 -19t-14 -48v-443zM162 180q0 -61 33 -97t81 -36h16q48 0 85 35.5t37 97.5v380q0 25 -14.5 42.5t-40.5 17.5q-25 0 -40 -18t-15 -42v-359q0 -26 -21 -26q-7 0 -13.5 7.5t-6.5 18.5q0 50 -49 50q-25 0 -38.5 -15.5
t-13.5 -37.5v-18z" />
    <glyph glyph-name="Iacute.ss01" horiz-adv-x="166" 
d="M82 15q-39 0 -61 26.5t-22 67.5v443q0 39 21 66q-39 14 -39 55q0 20 9 34.5t37 36.5q45 36 85 36q33 0 55.5 -21t22.5 -59q0 -56 -48 -78q26 -28 26 -68l-1 -445q0 -37 -21.5 -65.5t-63.5 -28.5zM8 673q0 -14 10.5 -23t25.5 -9h58q26 0 43.5 16t17.5 43q0 26 -14.5 39.5
t-36.5 13.5q-30 0 -68 -30q-23 -19 -29.5 -27.5t-6.5 -22.5zM26 109q0 -28 13.5 -47.5t42.5 -19.5t43.5 19.5t14.5 47.5v443q0 29 -14.5 48t-42.5 19q-29 0 -43 -19t-14 -48v-443z" />
    <glyph glyph-name="Icircumflex.ss01" horiz-adv-x="166" 
d="M82 15q-39 0 -61 26.5t-22 67.5v443q0 30 13 55q-18 3 -31.5 17.5t-13.5 36.5q0 17 21 49q1 1 2.5 3t3 4.5t2.5 3.5q40 54 87 54q46 0 86 -54q1 -1 3.5 -5t4.5 -6q21 -29 21 -49t-12.5 -35.5t-32.5 -18.5q14 -24 14 -55v-443q0 -37 -21.5 -65.5t-63.5 -28.5zM-6 661
q0 -13 8 -20.5t19 -7.5q15 0 52 19q10 4 20 0q37 -19 52 -19q11 0 18.5 7.5t7.5 20.5q0 9 -24 44q-31 43 -64 43q-34 0 -65 -43q-24 -35 -24 -44zM26 109q0 -28 13.5 -47.5t42.5 -19.5t43.5 19.5t14.5 47.5v443q0 29 -14.5 48t-42.5 19q-29 0 -43 -19t-14 -48v-443z" />
    <glyph glyph-name="Idieresis.ss01" horiz-adv-x="166" 
d="M82 15q-39 0 -61 26.5t-22 67.5v443q0 31 13 54q-33 5 -50 28t-17 53q0 33 20.5 56.5t61.5 23.5q39 0 61 -25q22 24 58 25h3q41 0 61 -24.5t20 -56.5t-18.5 -55.5t-57.5 -25.5q13 -23 13 -53v-443q0 -37 -21.5 -65.5t-63.5 -28.5zM-28 687q0 -23 13.5 -39t41.5 -16
q27 0 40 16t13 39t-13 38t-40 15q-28 0 -41.5 -15t-13.5 -38zM26 109q0 -28 13.5 -47.5t42.5 -19.5t43.5 19.5t14.5 47.5v443q0 29 -14.5 48t-42.5 19q-29 0 -43 -19t-14 -48v-443zM95 686q0 -23 13.5 -38.5t40.5 -15.5q54 0 54 54q0 23 -13 38.5t-41 15.5
q-27 0 -40.5 -15.5t-13.5 -38.5z" />
    <glyph glyph-name="Idotaccent.ss01" horiz-adv-x="166" 
d="M82 15q-39 0 -61 26.5t-22 67.5v443q0 48 29 74q-37 24 -37 76q0 38 23 65t69 27q47 0 69 -27t22 -65q0 -52 -36 -76q29 -26 29 -72v-445q0 -37 -21.5 -65.5t-63.5 -28.5zM18 702q0 -28 16 -46t49 -18q64 0 64 64q0 65 -64 65q-33 0 -49 -18.5t-16 -46.5zM26 109
q0 -28 13.5 -47.5t42.5 -19.5t43.5 19.5t14.5 47.5v443q0 29 -14.5 48t-42.5 19q-29 0 -43 -19t-14 -48v-443z" />
    <glyph glyph-name="Igrave.ss01" horiz-adv-x="166" 
d="M82 15q-39 0 -61 26.5t-22 67.5v443q0 43 25 71q-47 23 -47 77q0 38 22.5 59t55.5 21q40 0 85 -36q28 -22 37 -36.5t9 -34.5q0 -40 -40 -55q21 -27 21 -64v-445q0 -37 -21.5 -65.5t-63.5 -28.5zM4 700q0 -27 17.5 -43t43.5 -16h58q15 0 25.5 9t10.5 23t-6.5 22.5
t-29.5 27.5q-38 30 -68 30q-22 0 -36.5 -13.5t-14.5 -39.5zM26 109q0 -28 13.5 -47.5t42.5 -19.5t43.5 19.5t14.5 47.5v443q0 29 -14.5 48t-42.5 19q-29 0 -43 -19t-14 -48v-443z" />
    <glyph glyph-name="Imacron.ss01" horiz-adv-x="166" 
d="M82 15q-39 0 -61 26.5t-22 67.5v443q0 38 20 64q-56 12 -56 70q0 33 21 52t59 19h80q38 0 60 -18.5t22 -52.5q0 -57 -58 -70q20 -26 20 -64v-443q0 -37 -21.5 -65.5t-63.5 -28.5zM-10 686q0 -45 53 -45h80q55 0 55 45q0 44 -55 44h-80q-53 0 -53 -44zM26 109
q0 -28 13.5 -47.5t42.5 -19.5t43.5 19.5t14.5 47.5v443q0 29 -14.5 48t-42.5 19q-29 0 -43 -19t-14 -48v-443z" />
    <glyph glyph-name="J.ss01" horiz-adv-x="274" 
d="M110 20q-59 0 -100 43.5t-41 116.5v18q0 33 21 56.5t58 23.5q42 0 63 -30v312q0 35 22.5 61t59.5 26q38 0 60 -26t22 -61v-380q0 -75 -45 -117.5t-104 -42.5h-16zM-4 180q0 -61 33 -97t81 -36h16q48 0 85 35.5t37 97.5v380q0 25 -14.5 42.5t-40.5 17.5q-25 0 -40 -18
t-15 -42v-359q0 -26 -21 -26q-7 0 -13.5 7.5t-6.5 18.5q0 50 -49 50q-25 0 -38.5 -15.5t-13.5 -37.5v-18z" />
    <glyph glyph-name="uni004A0301.ss01" horiz-adv-x="274" 
d="M110 20q-59 0 -100 43.5t-41 116.5v18q0 33 21 56.5t58 23.5q42 0 63 -30v312q0 31 19 56q-42 15 -42 56q0 21 9 34.5t37 36.5q46 36 85 36q33 0 55.5 -21t22.5 -59q0 -53 -45 -76q23 -26 23 -62v-381q0 -75 -45 -117.5t-104 -42.5h-16zM-4 180q0 -61 33 -97t81 -36h16
q48 0 85 35.5t37 97.5v380q0 25 -14.5 42.5t-40.5 17.5q-25 0 -40 -18t-15 -42v-359q0 -26 -21 -26q-7 0 -13.5 7.5t-6.5 18.5q0 50 -49 50q-25 0 -38.5 -15.5t-13.5 -37.5v-18zM115 672q0 -14 10.5 -23t25.5 -9h58q26 0 43.5 16t17.5 43q0 26 -14.5 39.5t-36.5 13.5
q-30 0 -68 -30q-23 -19 -29.5 -27.5t-6.5 -22.5z" />
    <glyph glyph-name="K.ss01" horiz-adv-x="305" 
d="M81 15q-40 0 -61 25.5t-21 68.5v446q0 39 19.5 65.5t62.5 26.5q41 0 60.5 -24t21.5 -60l8 21q13 34 42 51.5t71 0.5q34 -15 44.5 -49.5t-7.5 -73.5l-62 -163v-2l70 -206q27 -85 -48 -120q-34 -14 -67 4.5t-46 61.5l-5 18q-1 -42 -22 -66.5t-60 -24.5zM26 109
q0 -67 55 -67t55 67v125q0 9 7 9.5t9 -7.5l42 -140q9 -30 30.5 -44.5t45.5 -4.5q54 24 33 86l-70 207q-3 8 0 18l63 165q13 26 7.5 51.5t-29.5 36.5q-54 22 -78 -37l-44 -115q-4 -9 -10 -8t-6 11v93q0 65 -55 65t-55 -65v-446z" />
    <glyph glyph-name="L.ss01" horiz-adv-x="238" 
d="M81 18q-37 0 -59.5 26.5t-22.5 67.5v440q0 42 21.5 68t60.5 26q42 0 63 -28t21 -66v-359h18q37 0 64 -21.5t27 -66.5q0 -44 -27 -65.5t-64 -21.5h-102zM26 112q0 -28 14 -47.5t41 -19.5h102q27 0 45.5 14.5t18.5 45.5t-18 46t-46 15h-31q-14 0 -14 14v372q0 29 -14 48
t-43 19q-55 0 -55 -67v-440z" />
    <glyph glyph-name="Lslash.ss01" horiz-adv-x="252" 
d="M95 18q-37 0 -59.5 26.5t-22.5 67.5v122q-16 5 -30 22q-46 53 14 103l16 13v180q0 42 21.5 68t60.5 26q42 0 63 -28t21 -66v-83q18 -7 31 -23q45 -52 -16 -104l-15 -12v-137h18q37 0 64 -21.5t27 -66.5q0 -44 -27 -65.5t-64 -21.5h-102zM4 273q12 -15 25 -16
q11 -2 11 -14v-131q0 -28 14 -47.5t41 -19.5h102q28 0 46 14.5t18 45.5t-18 46t-46 15h-31q-14 0 -14 14v152q0 11 8 17l17 14q40 34 12 66q-10 13 -24 16q-13 3 -13 14v93q0 29 -14 48t-43 19q-55 0 -55 -67v-182q0 -11 -8 -17l-18 -15q-39 -32 -10 -65z" />
    <glyph glyph-name="M.ss01" horiz-adv-x="417" 
d="M77 14q-35 0 -56.5 24t-21.5 63v450q0 41 21.5 67.5t57.5 26.5t54.5 -18.5t32.5 -60.5l45 -136l42 136q13 42 31.5 60.5t55.5 18.5q36 0 57.5 -26.5t21.5 -67.5v-449q0 -40 -21.5 -64t-56.5 -24q-39 0 -60 24t-21 61v47q-19 -29 -51 -29q-30 0 -50 27v-43
q0 -37 -20.5 -62t-60.5 -25zM26 101q0 -27 13 -43.5t38 -16.5q54 0 54 60v157q0 9 6.5 10t8.5 -7l25 -82q10 -35 36 -35h2q25 0 36 35l25 79q3 10 9.5 8.5t6.5 -10.5v-157q0 -58 54 -58q25 0 38 17t13 44v449q0 28 -13 47.5t-39 19.5t-38 -13t-23 -48l-59 -188q-3 -9 -9 -9
t-9 9l-62 188q-12 36 -24 48.5t-37 12.5q-26 0 -39 -19.5t-13 -47.5v-450z" />
    <glyph glyph-name="N.ss01" horiz-adv-x="334" 
d="M80 17q-38 0 -59.5 26t-21.5 63v445q0 41 22.5 67.5t58.5 26.5h2q61 0 83 -73l6 -20v9q0 37 21.5 61.5t61.5 24.5q39 0 60 -24t21 -62v-448q0 -41 -18.5 -67.5t-55.5 -26.5q-53 0 -73 60l-26 75v-48q0 -37 -21 -63t-61 -26zM26 106q0 -27 14 -44.5t40 -17.5
q27 0 40.5 17.5t13.5 44.5v164q0 7 3 10t7 0.5t6 -8.5l63 -184q15 -42 48 -42q47 0 47 67v448q0 59 -54 59q-56 0 -56 -59v-130q0 -9 -6.5 -10.5t-9.5 8.5l-43 134q-4 12 -6 16.5t-9 16t-18 17t-25 5.5h-1q-26 0 -40 -19.5t-14 -47.5v-445z" />
    <glyph glyph-name="Ntilde.ss01" horiz-adv-x="334" 
d="M80 17q-38 0 -59.5 26t-21.5 63v445q0 57 39 83q-14 18 -14 40q0 57 27.5 88t72.5 31q43 0 74 -29q17 29 52 29h1q27 0 46 -19t19 -46q0 -54 -26 -88q45 -20 45 -79v-448q0 -41 -18.5 -67.5t-55.5 -26.5q-53 0 -73 60l-26 75v-48q0 -37 -21 -63t-61 -26zM26 106
q0 -27 14 -44.5t40 -17.5q27 0 40.5 17.5t13.5 44.5v164q0 7 3 10t7 0.5t6 -8.5l63 -184q15 -42 48 -42q47 0 47 67v448q0 59 -54 59q-56 0 -56 -59v-130q0 -9 -6.5 -10.5t-9.5 8.5l-43 134q-4 12 -6 16.5t-9 16t-18 17t-25 5.5h-1q-26 0 -40 -19.5t-14 -47.5v-445zM51 674
q0 -16 10.5 -26.5t26.5 -10.5t26 10.5t12 26.5q2 15 14 5q3 -3 12.5 -13t13.5 -13.5t12.5 -9.5t17.5 -8.5t19 -2.5q32 0 53 25t21 71q0 16 -11 27t-27 11t-26.5 -11t-10.5 -27v-7q0 -3 -1.5 -4.5t-4 -1t-4.5 2.5l-12 13q-13 14 -19.5 19.5t-19 10.5t-29.5 5q-34 0 -53.5 -23
t-19.5 -69zM132 627q23 -19 33 -55l6 -20v9q0 28 12 49q-23 10 -41 29q-3 -5 -10 -12z" />
    <glyph glyph-name="O.ss01" horiz-adv-x="323" 
d="M149 20q-61 0 -105.5 42.5t-44.5 119.5v295q0 77 40 122.5t105 45.5h26q72 0 113 -47.5t41 -120.5v-295q0 -68 -42.5 -115t-105.5 -47h-27zM26 182q0 -65 36 -100t87 -35h27q51 0 86 39t35 96v295q0 63 -33.5 102t-93.5 39h-26q-53 0 -85.5 -37.5t-32.5 -103.5v-295z
M140 198v271q0 11 6 17t14 6q22 0 22 -25v-269q0 -27 -22 -27q-8 0 -14 7t-6 20z" />
    <glyph glyph-name="Oacute.ss01" horiz-adv-x="323" 
d="M149 20q-61 0 -105.5 42.5t-44.5 119.5v295q0 115 82 154q-21 16 -21 44q0 20 9 34.5t37 36.5q46 36 85 36q33 0 55.5 -21t22.5 -59q0 -46 -34 -70q43 -18 66 -59.5t23 -95.5v-295q0 -68 -42.5 -115t-105.5 -47h-27zM26 182q0 -65 36 -100t87 -35h27q51 0 86 39t35 96
v295q0 63 -33.5 102t-93.5 39h-26q-53 0 -85.5 -37.5t-32.5 -103.5v-295zM87 675q0 -14 10.5 -23t25.5 -9h58q26 0 43.5 16t17.5 43q0 26 -14.5 39.5t-36.5 13.5q-30 0 -68 -30q-23 -19 -29.5 -27.5t-6.5 -22.5zM140 198v271q0 11 6 17t14 6q22 0 22 -25v-269q0 -27 -22 -27
q-8 0 -14 7t-6 20z" />
    <glyph glyph-name="Ocircumflex.ss01" horiz-adv-x="323" 
d="M149 20q-61 0 -105.5 42.5t-44.5 119.5v295q0 99 65 145q-20 16 -20 43q0 18 22 49q1 1 3 5t4 6q40 54 87 54t86 -54q1 -1 3.5 -5t4.5 -6q21 -32 21 -49q0 -28 -20 -43q69 -44 69 -145v-295q0 -68 -42.5 -115t-105.5 -47h-27zM26 182q0 -65 36 -100t87 -35h27q51 0 86 39
t35 96v295q0 63 -33.5 102t-93.5 39h-26q-53 0 -85.5 -37.5t-32.5 -103.5v-295zM71 665q0 -13 8 -20.5t19 -7.5q15 0 52 19q10 4 20 0q37 -19 52 -19q11 0 18.5 7.5t7.5 20.5q0 9 -24 44q-31 43 -64 43q-34 0 -65 -43q-24 -35 -24 -44zM140 198v271q0 11 6 17t14 6
q22 0 22 -25v-269q0 -27 -22 -27q-8 0 -14 7t-6 20z" />
    <glyph glyph-name="Odieresis.ss01" horiz-adv-x="323" 
d="M149 20q-61 0 -105.5 42.5t-44.5 119.5v295q0 97 61 142q-41 22 -41 73q0 33 20.5 56.5t61.5 23.5q39 0 61 -25q20 24 57 25h4q41 0 61 -24.5t20 -56.5q0 -54 -43 -73q63 -46 63 -141v-295q0 -68 -42.5 -115t-105.5 -47h-27zM26 182q0 -65 36 -100t87 -35h27q51 0 86 39
t35 96v295q0 63 -33.5 102t-93.5 39h-26q-53 0 -85.5 -37.5t-32.5 -103.5v-295zM46 692q0 -23 13.5 -39t41.5 -16q27 0 40 16t13 39t-13 38t-40 15q-28 0 -41.5 -15t-13.5 -38zM140 198v271q0 11 6 17t14 6q22 0 22 -25v-269q0 -27 -22 -27q-8 0 -14 7t-6 20zM169 691
q0 -23 13.5 -38.5t40.5 -15.5q54 0 54 54q0 23 -13 38.5t-41 15.5q-27 0 -40.5 -15.5t-13.5 -38.5z" />
    <glyph glyph-name="Ograve.ss01" horiz-adv-x="323" 
d="M149 20q-61 0 -105.5 42.5t-44.5 119.5v295q0 55 22 96t60 59q-37 24 -37 71q0 38 22.5 59t55.5 21q40 0 85 -36q28 -23 37 -36.5t9 -34.5q0 -26 -19 -43q43 -18 66.5 -60t23.5 -96v-295q0 -68 -42.5 -115t-105.5 -47h-27zM26 182q0 -65 36 -100t87 -35h27q51 0 86 39
t35 96v295q0 63 -33.5 102t-93.5 39h-26q-53 0 -85.5 -37.5t-32.5 -103.5v-295zM71 703q0 -27 17.5 -43t43.5 -16h58q15 0 25.5 9t10.5 23t-6.5 22.5t-29.5 27.5q-38 30 -68 30q-22 0 -36.5 -13.5t-14.5 -39.5zM140 198v271q0 11 6 17t14 6q22 0 22 -25v-269q0 -27 -22 -27
q-8 0 -14 7t-6 20z" />
    <glyph glyph-name="Omacron.ss01" horiz-adv-x="323" 
d="M149 20q-61 0 -105.5 42.5t-44.5 119.5v295q0 109 76 151q-35 18 -35 62q0 33 21 52t59 19h80q37 0 59.5 -18.5t22.5 -52.5q0 -44 -36 -62h-1q38 -21 58.5 -60.5t20.5 -90.5v-295q0 -68 -42.5 -115t-105.5 -47h-27zM26 182q0 -65 36 -100t87 -35h27q51 0 86 39t35 96v295
q0 63 -33.5 102t-93.5 39h-26q-53 0 -85.5 -37.5t-32.5 -103.5v-295zM67 690q0 -45 53 -45h80q55 0 55 45q0 44 -55 44h-80q-53 0 -53 -44zM140 198v271q0 11 6 17t14 6q22 0 22 -25v-269q0 -27 -22 -27q-8 0 -14 7t-6 20z" />
    <glyph glyph-name="Oslash.ss01" horiz-adv-x="340" 
d="M158 20q-46 0 -81 24q-29 -25 -67 -2q-60 32 -22 96l19 34l1 3v303q0 77 40 122.5t105 45.5h26q50 0 87 -24q31 18 65 0h1q1 0 1 -1q54 -34 20 -98l-19 -32q-1 -2 -1 -4v-305q0 -68 -42.5 -115t-105.5 -47h-27zM11 124q-24 -39 12 -59q24 -15 42 4q9 9 20 2
q30 -24 73 -24h27q51 0 86 39t35 96v305q0 8 4 16l19 33q22 41 -10 62q-24 13 -43 -3q-10 -8 -19 0q-32 24 -78 24h-26q-53 0 -85.5 -37.5t-32.5 -103.5v-303q0 -7 -4 -15zM144 193v20q0 7 5 17l24 43q3 6 7 7.5t7 -1.5t3 -10v-76q0 -13 -7 -21t-17 -8q-8 0 -15 8t-7 21z
M144 382v94q0 11 7 17.5t15 6.5q24 0 24 -27v-37q0 -7 -5 -17l-24 -42q-5 -9 -11 -7.5t-6 12.5z" />
    <glyph glyph-name="Otilde.ss01" horiz-adv-x="323" 
d="M149 20q-61 0 -105.5 42.5t-44.5 119.5v295q0 95 59 140q-20 6 -32.5 22.5t-12.5 38.5q0 57 27.5 88t72.5 31q43 0 74 -29q17 28 51 29h2q27 0 46 -19t19 -46q0 -78 -51 -110q70 -43 70 -145v-295q0 -68 -42.5 -115t-105.5 -47h-27zM26 182q0 -65 36 -100t87 -35h27
q51 0 86 39t35 96v295q0 63 -33.5 102t-93.5 39h-26q-53 0 -85.5 -37.5t-32.5 -103.5v-295zM40 678q0 -16 10.5 -26.5t26.5 -10.5q15 0 25.5 10.5t12.5 26.5q2 15 14 5q3 -3 12.5 -13t13.5 -13.5t12.5 -9.5t17.5 -8.5t19 -2.5q32 0 53 25t21 71q0 16 -11 27t-27 11
t-26.5 -11t-10.5 -27v-7q0 -3 -1.5 -4.5t-4 -1t-4.5 2.5l-12 13q-13 14 -19.5 19.5t-19 10.5t-29.5 5q-34 0 -53.5 -23t-19.5 -69zM140 198v271q0 11 6 17t14 6q22 0 22 -25v-269q0 -27 -22 -27q-8 0 -14 7t-6 20z" />
    <glyph glyph-name="OE.ss01" horiz-adv-x="398" 
d="M149 17q-62 0 -106 42.5t-44 119.5v297q0 77 40 122.5t105 45.5h26q21 0 46 -5q5 -2 9 -2h108q37 0 64 -21.5t27 -65.5t-27.5 -66.5t-64.5 -22.5h-11v-57h18q35 0 56.5 -20t21.5 -54q0 -35 -22 -55t-56 -20h-18v-61h12q37 0 64 -21.5t27 -66.5q0 -44 -27 -65.5t-64 -21.5
h-136q-2 0 -9.5 -1t-11.5 -1h-27zM26 179q0 -65 36 -100t87 -35h27q8 0 22 2h135q27 0 45.5 14.5t18.5 45.5t-18 46t-46 15h-25q-14 0 -14 10v91q0 14 14 14h31q51 0 51 48q0 47 -51 47h-31q-14 0 -14 14v84q0 14 14 14h25q28 0 46 15t18 46t-18.5 45.5t-45.5 14.5h-108
q-8 0 -17 3q-16 4 -38 4h-26q-53 0 -85.5 -37.5t-32.5 -103.5v-297zM137 195v273q0 11 6 17t14 6q22 0 22 -25v-271q0 -27 -22 -27q-8 0 -14 7t-6 20z" />
    <glyph glyph-name="P.ss01" horiz-adv-x="313" 
d="M87 16q-43 0 -65.5 26t-22.5 63v448q0 38 22.5 65t65.5 27h87q73 0 114 -47.5t41 -120.5v-97q0 -69 -41.5 -115.5t-107.5 -46.5h-9v-111q0 -37 -20 -64t-64 -27zM26 105q0 -27 15 -44.5t46 -17.5q57 0 57 64v124q0 14 14 14h22q54 0 88 38.5t34 96.5v97q0 63 -33.5 102
t-94.5 39h-87q-31 0 -46 -18.5t-15 -46.5v-448zM144 368v120q0 14 14 14h5q10 0 17.5 -8t7.5 -21v-88q0 -13 -8 -22t-17 -9h-5q-14 0 -14 14z" />
    <glyph glyph-name="Thorn.ss01" horiz-adv-x="330" 
d="M86 14q-42 0 -64.5 26t-22.5 63v453q0 39 22 64t65 25q44 0 63.5 -24.5t19.5 -61.5h22q73 0 114 -47.5t41 -120.5v-120q0 -68 -41.5 -115t-107.5 -47h-28v-4q0 -37 -20.5 -64t-62.5 -27zM26 103q0 -28 14.5 -45t45.5 -17q56 0 56 64v17q0 14 14 14h41q54 0 88 38.5
t34 96.5v120q0 63 -33.5 102t-94.5 39h-35q-14 0 -14 14v10q0 62 -56 62q-60 0 -60 -62v-453zM142 261v143q0 14 14 14h24q10 0 17.5 -8t7.5 -21v-111q0 -13 -8 -22t-17 -9h-24q-14 0 -14 14zM169 274h9v117h-9v-117z" />
    <glyph glyph-name="Q.ss01" horiz-adv-x="316" 
d="M275 -24q-34 -18 -63 -8t-48 43l-4 7h-14q-61 0 -104 42.5t-43 119.5v297q0 77 38.5 122.5t103.5 45.5h22q72 0 113 -47.5t41 -120.5v-297q0 -48 -21 -84l4 -6q20 -30 13.5 -63t-38.5 -51zM26 180q0 -65 34.5 -100t85.5 -35h23q5 0 12 -10l6 -11q29 -50 74 -25
q23 13 26 36t-10 41l-6 10q-6 9 0 20q19 33 19 74v297q0 63 -33.5 102t-93.5 39h-22q-53 0 -84 -37.5t-31 -103.5v-297zM137 196v273q0 11 6 17t14 6q22 0 22 -25v-271q0 -27 -22 -27q-8 0 -14 7t-6 20z" />
    <glyph glyph-name="R.ss01" horiz-adv-x="322" 
d="M85 16q-44 0 -65 26t-21 63v446q0 38 21 66t65 28h89q72 0 113 -47.5t41 -120.5v-71q0 -50 -35 -90q33 -35 33 -87v-124q0 -37 -22.5 -63t-63.5 -26q-59 0 -78 49q-21 -49 -77 -49zM26 105q0 -62 59 -62q57 0 57 62v146q0 14 14 14h5q20 0 20 -31v-129q0 -27 14.5 -44.5
t44.5 -17.5q29 0 44 17.5t15 44.5v124q0 50 -36 77q-11 8 0 17q38 35 38 83v71q0 63 -33.5 102t-93.5 39h-89q-59 0 -59 -67v-446zM142 372v118q0 14 14 14h3q10 0 17 -8t7 -21v-86q0 -13 -7.5 -22t-16.5 -9h-3q-14 0 -14 14z" />
    <glyph glyph-name="S.ss01" horiz-adv-x="299" 
d="M142 14q-55 0 -98.5 33.5t-43.5 113.5v31q0 50 37 69l1 1q-49 35 -49 105v119q0 76 41.5 117t101.5 41h41q57 0 97 -43t40 -109v-40q0 -69 -48 -89q43 -33 43 -110v-83q0 -72 -33 -114t-103 -42h-27zM16 367q0 -49 28 -76t77 -27h28q20 0 20 -24v-53q0 -29 -17 -29
q-19 0 -19 20v18q0 20 -12.5 34t-35.5 14q-58 0 -58 -52v-31q0 -66 34 -93t81 -27h27q109 0 109 129v83q0 58 -25.5 82t-73.5 24h-31q-20 0 -20 26v82q0 28 17 28q18 0 18 -30v-26q0 -56 62 -56q58 0 58 69v40q0 54 -32 89.5t-78 35.5h-41q-50 0 -83 -33.5t-33 -97.5v-119z
" />
    <glyph glyph-name="Scaron.ss01" horiz-adv-x="299" 
d="M142 14q-55 0 -98.5 33.5t-43.5 113.5v31q0 50 37 69l1 1q-49 35 -49 105v119q0 58 25.5 96.5t66.5 53.5q-13 12 -25 28q-1 1 -3.5 5t-4.5 6q-21 31 -21 49q0 25 16.5 40t37.5 15q20 0 62 -21q42 21 62 21q24 0 38.5 -16t14.5 -39q0 -20 -21 -49q-1 -1 -2.5 -3t-3 -4.5
t-2.5 -3.5q-11 -14 -21 -24q45 -13 73.5 -53t28.5 -95v-40q0 -69 -48 -89q43 -33 43 -110v-83q0 -72 -33 -114t-103 -42h-27zM16 367q0 -49 28 -76t77 -27h28q20 0 20 -24v-53q0 -29 -17 -29q-19 0 -19 20v18q0 20 -12.5 34t-35.5 14q-58 0 -58 -52v-31q0 -66 34 -93t81 -27
h27q109 0 109 129v83q0 58 -25.5 82t-73.5 24h-31q-20 0 -20 26v82q0 28 17 28q18 0 18 -30v-26q0 -56 62 -56q58 0 58 69v40q0 54 -32 89.5t-78 35.5h-41q-50 0 -83 -33.5t-33 -97.5v-119zM54 724q0 -10 24 -44q31 -43 65 -43q33 0 64 43q24 34 24 44q0 13 -7.5 20.5
t-18.5 7.5q-15 0 -52 -19q-10 -4 -20 0q-37 19 -52 19q-11 0 -19 -7.5t-8 -20.5z" />
    <glyph glyph-name="uni0218.ss01" horiz-adv-x="299" 
d="M123 -199q-27 1 -44.5 21.5t-17.5 47.5v69q0 53 41 80q-102 24 -102 142v31q0 50 37 69l1 1q-49 35 -49 105v119q0 76 41.5 117t101.5 41h41q57 0 97 -43t40 -109v-40q0 -69 -48 -89q43 -33 43 -110v-83q0 -133 -100 -152q38 -25 38 -74q0 -51 -41 -97q-28 -30 -42.5 -39
t-36.5 -7zM16 367q0 -49 28 -76t77 -27h28q20 0 20 -24v-53q0 -29 -17 -29q-19 0 -19 20v18q0 20 -12.5 34t-35.5 14q-58 0 -58 -52v-31q0 -66 34 -93t81 -27h27q109 0 109 129v83q0 58 -25.5 82t-73.5 24h-31q-20 0 -20 26v82q0 28 17 28q18 0 18 -30v-26q0 -56 62 -56
q58 0 58 69v40q0 54 -32 89.5t-78 35.5h-41q-50 0 -83 -33.5t-33 -97.5v-119zM88 -130q0 -17 10.5 -29t26.5 -13q15 -1 24.5 5.5t32.5 31.5q34 39 34 79q0 25 -15.5 42.5t-45.5 18.5q-31 1 -49 -18t-18 -48v-69z" />
    </font>
</defs>
</svg>
