<?xml version="1.0" standalone="no"?>
<!DOCTYPE svg PUBLIC "-//W3C//DTD SVG 1.1//EN" "http://www.w3.org/Graphics/SVG/1.1/DTD/svg11.dtd" >
<svg xmlns="http://www.w3.org/2000/svg" xmlns:xlink="http://www.w3.org/1999/xlink" version="1.1">
<metadata>
Created by FontForge 20170731 at Tue Jan 10 14:53:06 2023
 By Aleksey,,,
Copyright (c) 2021 by Andrii Shevchyk. All Rights Reserved.
</metadata>
<defs>
<font id="Saneyi-Regular" horiz-adv-x="1794" >
  <font-face 
    font-family="Saneyi Regular"
    font-weight="400"
    font-stretch="normal"
    units-per-em="2048"
    panose-1="0 0 0 0 0 0 0 0 0 0"
    ascent="1638"
    descent="-410"
    x-height="1556"
    cap-height="1556"
    bbox="-8 -492 2378 2183"
    underline-thickness="102"
    underline-position="-460"
    unicode-range="U+000A-F04B"
  />
<missing-glyph horiz-adv-x="1079" 
d="M102 1434h875v-1434h-875v1434zM160 1393l379 -633l381 633h-760zM514 717l-369 614v-1231zM541 674l-379 -631h758zM565 717l371 -621v1239z" />
    <glyph glyph-name=".notdef" horiz-adv-x="1079" 
d="M102 1434h875v-1434h-875v1434zM160 1393l379 -633l381 633h-760zM514 717l-369 614v-1231zM541 674l-379 -631h758zM565 717l371 -621v1239z" />
    <glyph glyph-name=".null" horiz-adv-x="0" 
 />
    <glyph glyph-name="uni000D" unicode="&#xd;" horiz-adv-x="0" 
 />
    <glyph glyph-name="uni000A" unicode="&#xa;" horiz-adv-x="0" 
 />
    <glyph glyph-name="space" unicode=" " horiz-adv-x="450" 
 />
    <glyph glyph-name="exclam" unicode="!" horiz-adv-x="376" 
d="M197 143h-17v1413h17v-1413zM188 66q14 0 23.5 -10t9.5 -23t-9.5 -23t-23.5 -10q-13 0 -22.5 9.5t-9.5 23.5t9.5 23.5t22.5 9.5z" />
    <glyph glyph-name="quotedbl" unicode="&#x22;" horiz-adv-x="432" 
d="M131 1182h-16v374h16v-374zM317 1182h-16v374h16v-374z" />
    <glyph glyph-name="numbersign" unicode="#" horiz-adv-x="1908" 
d="M1792 1053h-487l-119 -549h487l-4 -17h-487l-105 -487h-16l104 487h-549l-104 -487h-16l104 487h-487l4 17h487l119 549h-490l5 16h487l106 487h15l-105 -487h549l107 487h16l-106 -487h487zM1169 504l119 549h-551l-116 -549h548z" />
    <glyph glyph-name="dollar" unicode="$" horiz-adv-x="1091" 
d="M547 907q47 -28 69 -41t65.5 -41t65.5 -45t57.5 -46t54.5 -52t42.5 -55.5t35 -63t20 -68t8.5 -77.5q0 -121 -66 -223.5t-179.5 -162t-246.5 -59.5q-21 0 -53 4v-159h-17v159q-122 15 -217 80q-3 1 -5.5 38t-3.5 73l-1 37q95 -95 227 -125v895q-133 84 -200 170
q-49 61 -60.5 130t6.5 125.5t58 100.5q80 83 196 92v148h17v-148q10 3 20 0q30 0 68 -10q27 -6 51 -18l-6 -15q-4 2 -12.5 5.5t-12.5 5.5q-10 4 -51 14q-40 4 -57 4v-594q54 -36 127 -78zM403 995v582q-43 -3 -86.5 -21.5t-83 -52t-61 -90t-14.5 -125.5q9 -71 61 -135
q63 -79 184 -158zM526 66q199 0 309.5 89t110.5 263q0 49 -12.5 94t-30.5 80t-52.5 72.5t-63 63t-78 59t-82.5 53.5t-90 53q-16 10 -56.5 34t-60.5 38v-889q55 -10 106 -10z" />
    <glyph glyph-name="percent" unicode="%" horiz-adv-x="1634" 
d="M1294 1556h17l-994 -1556h-16zM723 1266q0 -123 -88 -211t-211 -88q-124 0 -211.5 88t-87.5 211q0 124 87.5 211.5t211.5 87.5q123 0 211 -87.5t88 -211.5zM141 1266q0 -112 79.5 -170t203.5 -58t203.5 58t79.5 170q0 117 -83 199.5t-200 82.5t-200 -82.5t-83 -199.5z
M1210 598q124 0 211.5 -88t87.5 -211q0 -125 -87.5 -212t-211.5 -87q-123 0 -211 87.5t-88 211.5q0 123 88 211t211 88zM1210 70q124 0 203.5 58.5t79.5 170.5q0 117 -83 200t-200 83t-199.5 -83t-82.5 -200q0 -112 79 -170.5t203 -58.5z" />
    <glyph glyph-name="ampersand" unicode="&#x26;" horiz-adv-x="1603" 
d="M1251 248l248 -248h-22q-182 182 -234 233q-84 -129 -217.5 -202.5t-288.5 -73.5q-122 0 -233 48t-191.5 128.5t-128 192t-47.5 233.5q0 165 84 306.5t230 219.5q-88 172 -37 342q25 86 94 154t160 96q96 30 191.5 7.5t182.5 -93.5l-10 -12q-83 69 -176.5 90.5
t-183.5 -6.5q-87 -26 -153 -91t-91 -149q-37 -124 0 -243.5t152 -249.5q62 -70 661 -670q82 139 82 299h16q0 -166 -88 -311zM1040 57q16 21 31 49t30 72t14.5 98.5t-21.5 108.5q-466 466 -525 530q-44 27 -92.5 35t-89.5 0t-67.5 -17.5t-47.5 -21.5q-118 -155 -118 -352
q0 -159 78 -294t212.5 -213.5t292.5 -78.5q160 0 303 84z" />
    <glyph glyph-name="quotesingle" unicode="'" horiz-adv-x="245" 
d="M131 1182h-16v374h16v-374z" />
    <glyph glyph-name="parenleft" unicode="(" horiz-adv-x="464" 
d="M393 1716q-224 -441 -224 -937.5t224 -936.5l-14 -8q-226 444 -226 944.5t226 943.5z" />
    <glyph glyph-name="parenright" unicode=")" horiz-adv-x="464" 
d="M84 1722q226 -443 226 -943.5t-226 -944.5l-14 8q224 440 224 936.5t-224 937.5z" />
    <glyph glyph-name="asterisk" unicode="*" horiz-adv-x="589" 
d="M483 1376v-14h-170l121 -121l-12 -10l-119 119v-168h-16v168l-119 -119l-12 10l120 121h-170v14h170l-120 121l12 10l119 -118v167h16v-167l119 118l12 -10l-121 -121h170z" />
    <glyph glyph-name="plus" unicode="+" horiz-adv-x="1175" 
d="M596 721h479v-16h-479v-480h-16v480h-480v16h480v479h16v-479z" />
    <glyph glyph-name="comma" unicode="," horiz-adv-x="258" 
d="M156 162h16l-156 -377h-16z" />
    <glyph glyph-name="hyphen" unicode="-" horiz-adv-x="622" 
d="M582 705h-541v16h541v-16z" />
    <glyph glyph-name="period" unicode="." horiz-adv-x="208" 
d="M104 66q14 0 23.5 -10t9.5 -23t-9.5 -23t-23.5 -10q-13 0 -22.5 9.5t-9.5 23.5t9.5 23.5t22.5 9.5z" />
    <glyph glyph-name="slash" unicode="/" horiz-adv-x="1189" 
d="M1087 1556h15l-993 -1556h-17z" />
    <glyph glyph-name="zero" unicode="0" horiz-adv-x="1376" 
d="M688 1589q147 0 272 -109t198 -295.5t73 -404.5q0 -219 -73 -405.5t-198 -295t-272 -108.5t-272 108.5t-198 295t-73 405.5q0 218 73 404.5t198 295.5t272 109zM688 -12q142 0 263.5 106t192 288.5t70.5 397.5q0 214 -70.5 397t-192 289.5t-263.5 106.5
q-143 0 -264 -106.5t-191.5 -289t-70.5 -397.5t70.5 -397.5t191.5 -288.5t264 -106z" />
    <glyph glyph-name="one" unicode="1" horiz-adv-x="507" 
d="M139 1556h205v-1556h-16v1370q0 34 -19.5 64t-47.5 49t-55.5 33t-47.5 20l-19 6v14z" />
    <glyph glyph-name="two" unicode="2" horiz-adv-x="1187" 
d="M352 233q-3 -16 -4 -34t3.5 -46t16.5 -52t39 -48t66 -37h559v-16h-928l705 733q22 21 43.5 44t49 58.5t50 71t42.5 81t31 90t11 96t-14 100.5q-24 88 -97.5 158t-163.5 105.5t-177 35.5q-65 0 -126.5 -16.5t-99 -36t-73 -48t-45.5 -39.5t-20 -23l-1 -1l-12 10l1 1
q63 79 169 126q97 43 207 43q90 0 183 -36.5t169 -109.5t102 -165q14 -51 14 -104t-11 -99t-32 -92.5t-43.5 -83.5t-51 -73.5t-50 -59.5t-43.5 -45z" />
    <glyph glyph-name="three" unicode="3" horiz-adv-x="1191" 
d="M557 795l524 -781v-14h-983v16h658q50 14 83 42.5t46.5 64t17.5 64.5t2 59l-370 555l290 483q0 18 3 43.5t-6 58t-23.5 61.5t-49 55t-83.5 38h-568v16h901v-16l-446 -739z" />
    <glyph glyph-name="four" unicode="4" horiz-adv-x="1331" 
d="M950 1556v-1064h277v-15h-277v-477h-16v477h-828v10l828 1069h16zM934 492v1040l-658 -850q-1 -21 2 -42.5t13.5 -52t39 -56t72.5 -39.5h531z" />
    <glyph glyph-name="five" unicode="5" horiz-adv-x="1181" 
d="M815 836q22 -22 43.5 -45t50 -59.5t51 -73.5t43.5 -83.5t32 -92.5t11 -99t-14 -104q-26 -92 -102 -165.5t-169 -110t-183 -36.5q-68 0 -131 17t-102 37.5t-75.5 50t-47 41t-20.5 23.5l-1 1l12 8l5 -5q5 -6 14 -15.5t22.5 -21.5t32 -25.5t40 -26.5t49.5 -25t58.5 -21.5
t67.5 -15t76 -5.5q87 0 177 35.5t163.5 105.5t97.5 158q14 49 14 100.5t-11 96t-31 89.5t-42.5 81t-50 71t-49 58t-43.5 44l-705 733h928v-16h-559q-39 -14 -66 -38t-39 -47.5t-16.5 -52t-3.5 -46.5t4 -35z" />
    <glyph glyph-name="six" unicode="6" horiz-adv-x="1329" 
d="M664 1034q144 0 266 -71.5t193 -193.5t71 -265q0 -144 -71 -266.5t-193 -193.5t-266 -71q-108 0 -206.5 42t-169.5 113t-113 169.5t-42 206.5q0 179 107 317l446 735h19l-205 -333q-1 -22 2.5 -44t15.5 -52.5t42.5 -56t76.5 -38.5q8 2 27 2zM664 -12q140 0 259 69
t188 188t69 259q0 139 -69 257.5t-188 187.5t-259 69t-258.5 -69t-187 -187.5t-68.5 -257.5q0 -140 68.5 -259t187 -188t258.5 -69z" />
    <glyph glyph-name="seven" unicode="7" horiz-adv-x="1153" 
d="M885 1284q0 19 3 45t-6.5 58.5t-24.5 61.5t-50 55t-84 38h-565v17h901v-17l-932 -1542h-18z" />
    <glyph glyph-name="eight" unicode="8" horiz-adv-x="1296" 
d="M723 987q186 -29 310 -172t124 -334q0 -138 -68 -255.5t-185.5 -186t-256.5 -68.5q-138 0 -255.5 68.5t-186 186t-68.5 255.5q0 191 124 334t310 172q-100 25 -164.5 107.5t-64.5 187.5q0 127 89.5 217t215.5 90q127 0 217 -89.5t90 -217.5q0 -105 -65.5 -187.5
t-165.5 -107.5zM356 1282q0 -115 81.5 -174t209.5 -59t209.5 59t81.5 174q0 120 -85.5 205.5t-205.5 85.5t-205.5 -85.5t-85.5 -205.5zM647 45q137 0 249 51.5t179.5 152t67.5 232.5q0 134 -67 248t-181 181t-248 67t-247.5 -67t-179.5 -181t-66 -248q0 -132 67 -232.5
t178 -152t248 -51.5z" />
    <glyph glyph-name="nine" unicode="9" horiz-adv-x="1329" 
d="M1194 1055q0 -178 -107 -320l-444 -735h-18l202 336q1 21 -2.5 42.5t-15 52t-42 55.5t-77.5 38h-26q-108 0 -206.5 42t-169.5 113t-113 169.5t-42 206.5q0 144 71 266t193.5 193t266.5 71t266 -71t193 -193t71 -266zM664 539q140 0 259 69t188 188t69 259
q0 139 -69 257.5t-188 187.5t-259 69t-258.5 -69t-187 -187.5t-68.5 -257.5q0 -140 68.5 -259t187 -188t258.5 -69z" />
    <glyph glyph-name="colon" unicode=":" horiz-adv-x="243" 
d="M123 66q13 0 23 -10t10 -23t-10 -23t-23 -10t-23 10t-10 23t10 23t23 10zM119 842q-14 0 -23.5 9.5t-9.5 22.5q0 14 10 23.5t23 9.5t23 -9.5t10 -23.5q0 -13 -9.5 -22.5t-23.5 -9.5z" />
    <glyph glyph-name="semicolon" unicode=";" horiz-adv-x="278" 
d="M8 -217l156 377h16l-155 -377h-17zM147 842q-13 0 -22.5 9t-9.5 23t9.5 23.5t22.5 9.5t23 -9.5t10 -23.5q0 -13 -9.5 -22.5t-23.5 -9.5z" />
    <glyph glyph-name="less" unicode="&#x3c;" horiz-adv-x="913" 
d="M137 567l670 -350l-8 -14l-697 364l697 346l8 -14z" />
    <glyph glyph-name="equal" unicode="=" horiz-adv-x="923" 
d="M864 690h-807v17h807v-17zM864 403h-807v17h807v-17z" />
    <glyph glyph-name="greater" unicode="&#x3e;" horiz-adv-x="913" 
d="M113 913l698 -346l-696 -364l-9 14l670 350l-670 332z" />
    <glyph glyph-name="question" unicode="?" horiz-adv-x="1155" 
d="M475 66q13 0 23 -10t10 -23t-10 -23t-23 -10q-12 0 -21.5 10t-9.5 23t9.5 23t21.5 10zM610 1585q80 -10 152.5 -45t132 -91.5t94.5 -142.5t35 -190q0 -57 -21 -113.5t-65.5 -115t-76 -93t-89.5 -92.5q-4 -4 -19 -18t-22 -22q-105 -106 -169.5 -235t-76.5 -253h-16
q12 127 77.5 258.5t172.5 241.5q14 12 43 41q39 40 49.5 50.5t46 49.5t49 57.5t39 55t35.5 62.5t19.5 60t9.5 66q0 100 -34.5 183t-92.5 138.5t-128 89.5t-147 44q-100 13 -196.5 -11.5t-179 -98.5t-113.5 -189l-15 4q25 90 80 157t125.5 102t147.5 47.5t153 2.5z" />
    <glyph glyph-name="at" unicode="@" horiz-adv-x="1435" 
d="M987 1210q158 -79 243.5 -253t63.5 -369q-9 -77 -33.5 -134t-53.5 -82.5t-57 -40.5t-46 -17l-19 -1q-64 0 -100 39q-17 19 -26 47.5t-8 43.5t1 20v100q-28 -78 -97 -128t-155 -50q-109 0 -186.5 78t-77.5 188q0 109 77.5 186.5t186.5 77.5q86 0 155 -49t97 -127l-2 158
h17v-434q0 -68 30 -101q28 -32 88 -32q4 -1 19.5 0.5t42.5 15t52.5 38.5t48.5 79t32 127q20 191 -63.5 360.5t-235.5 245.5q-157 81 -327.5 57.5t-305.5 -143.5t-179.5 -284.5t15.5 -329.5q30 -84 97.5 -167t138.5 -126q137 -82 348 -82v-15q-217 0 -356 84
q-73 42 -141.5 128t-100.5 174q-62 169 -16.5 338t184.5 292q138 123 312.5 147t336.5 -59zM702 401q103 0 176.5 73.5t73.5 176.5t-73.5 176.5t-176.5 73.5q-104 0 -177.5 -73.5t-73.5 -176.5t73.5 -176.5t177.5 -73.5z" />
    <glyph glyph-name="A" unicode="A" horiz-adv-x="1513" 
d="M823 1499l662 -1499h-17l-540 1231q-29 47 -74.5 74.5t-95.5 27.5h-4q-48 0 -93.5 -27.5t-74.5 -74.5l-543 -1231h-16l661 1499q25 60 68 60q42 0 67 -60z" />
    <glyph glyph-name="B" unicode="B" horiz-adv-x="1406" 
d="M1300 553q23 -74 23 -145q0 -169 -122 -288.5t-292 -119.5h-764v317q0 31 2.5 75t11.5 137.5t35 175.5t66 122q20 17 39 25q-21 9 -39 27q-40 40 -66 121t-35 174.5t-11.5 137.5t-2.5 74v170h17h649q172 -19 272.5 -119t100.5 -255q0 -94 -47.5 -173.5t-130.5 -123.5
q-10 -6 -42.5 -18.5t-43.5 -12.5q57 -8 139 -41q33 -14 82 -45q59 -41 98 -94t61 -121zM909 16q164 0 281 115.5t117 276.5q0 90 -29 161q-22 68 -80 129q-52 58 -129 93q-67 34 -172 51l-23 2v0h-538q-38 0 -64 -29q-31 -31 -54 -95.5t-33 -125t-16 -134t-6.5 -99.5
t-0.5 -44v-26q17 -74 58.5 -130t94.5 -86t105.5 -44.5t101.5 -14.5h387zM272 889q29 -29 64 -29h538q2 0 10.5 1t10.5 1q117 20 194.5 111.5t77.5 208.5q0 150 -94.5 245t-263.5 115h-295q-49 -3 -103 -21t-106.5 -49.5t-90.5 -83t-48 -112.5q20 -301 106 -387z" />
    <glyph glyph-name="C" unicode="C" horiz-adv-x="1599" 
d="M897 -14q176 0 330.5 71.5t265.5 198.5h20q-113 -134 -273.5 -210.5t-342.5 -76.5q-164 0 -314 64t-258.5 172.5t-172.5 258.5t-64 314t64 314t172.5 258.5t258.5 172.5t314 64q196 0 366.5 -88.5t282.5 -241.5h-18q-111 145 -276.5 229.5t-354.5 84.5q-216 0 -375 -93
t-242 -259t-83 -385q0 -148 26.5 -272t69.5 -210t103 -152.5t122.5 -106t133 -64.5t129.5 -34t116 -9z" />
    <glyph glyph-name="D" unicode="D" horiz-adv-x="1224" 
d="M895 1335q117 -113 179.5 -257t62.5 -302q0 -161 -65.5 -307t-176.5 -252t-265 -168.5t-323 -62.5q-73 0 -143 12v1556q76 13 143 13q166 0 318 -60t270 -172zM506 25q268 64 442 273t174 478t-174 478.5t-442 273.5q-71 -6 -131.5 -32t-99.5 -61.5t-60.5 -61.5
t-34.5 -50v-1092q10 -17 23 -35.5t42 -48.5t63 -53t86.5 -43t111.5 -26z" />
    <glyph glyph-name="E" unicode="E" horiz-adv-x="1730" 
d="M750 0q232 -43 449.5 47t350.5 283l17 -2q-135 -201 -358 -294.5t-461 -49.5q-161 30 -296.5 121t-222 217.5t-122 285.5t-5.5 320q40 215 181.5 378t345 235t418.5 32q222 -41 392.5 -196t233.5 -373q-277 -156 -605.5 -204.5t-684.5 25.5q-95 2 -168 -39.5t-100 -121.5
q17 -126 73 -239t140 -198.5t192.5 -144.5t229.5 -82zM186 1122q-6 -104 44 -174.5t147 -105.5q268 -60 522 -47t487 94q52 31 87 80.5t48.5 103.5t11 107.5t-21.5 97.5q-89 108 -209 180t-260 98q-170 32 -337 -9t-305 -151.5t-214 -273.5z" />
    <glyph glyph-name="F" unicode="F" horiz-adv-x="1206" 
d="M512 1540q-48 -2 -102.5 -20.5t-107 -50t-90.5 -83t-48 -112.5q21 -317 106 -402q28 -28 64 -28h555v-17h-555v2q-40 -3 -64 -30q-31 -31 -54 -95.5t-33 -125t-16 -134t-6.5 -99.5t-0.5 -44v-301h-17v301q0 31 2.5 75t11.5 137.5t35 175.5t66 122q25 21 39 25
q-23 10 -39 26q-40 40 -66 123.5t-35 180.5t-11.5 142.5t-2.5 77.5v170h1057v-16h-688z" />
    <glyph glyph-name="G" unicode="G" horiz-adv-x="1744" 
d="M1690 786v-8q0 -32 -4 -94q-2 -12 -17 -92q-11 -39 -27 -86q-19 -55 -34 -84q-16 -35 -43 -78q-18 -31 -52 -74q-11 -13 -33 -37.5t-26 -29.5q-42 -42 -65 -60q-58 -46 -93 -65q-25 -15 -61 -33q-47 -22 -107 -41q-57 -15 -110 -24q-45 -7 -109 -11h-14
q-218 0 -403.5 108.5t-293.5 295t-108 405.5t108 405.5t293.5 295t403.5 108.5q234 0 428 -125v-18q-197 127 -428 127q-159 0 -291 -62.5t-219.5 -170t-135.5 -252t-48 -308.5t48 -308t135.5 -251.5t219.5 -170t291 -62.5q53 0 106 6q70 12 105 22q61 19 100 35
q34 14 97 51q33 20 75 56q50 40 70 63q39 39 61 72q47 65 54 78q27 46 43 84l8 16q0 1 1 3.5t1 4.5q4 4 4 8q-5 94 -70.5 175t-163.5 110h-487v16h791z" />
    <glyph glyph-name="H" unicode="H" horiz-adv-x="1482" 
d="M1303 1556h16v-1556h-16v487q-12 90 -88 155.5t-189 90.5h-580q-104 -24 -173.5 -80t-92.5 -139v-514h-16v1556h16v-587q24 -86 99.5 -142t185.5 -77h545q118 23 199 88t94 157v561z" />
    <glyph glyph-name="I" unicode="I" horiz-adv-x="344" 
d="M180 0h-16v1556h16v-1556z" />
    <glyph glyph-name="J" unicode="J" horiz-adv-x="917" 
d="M764 459q0 -233 -117 -357q-110 -116 -305 -116q-8 0 -22 1t-55.5 7.5t-79 17t-85 33t-82.5 53.5l97 92q6 -5 16.5 -13t44.5 -29.5t68.5 -39t84.5 -33t97 -19t101.5 8.5t101.5 44q2 0 6 4q42 45 69 105.5t33.5 107.5t10.5 87.5t0 45.5v1097h16v-1097z" />
    <glyph glyph-name="K" unicode="K" horiz-adv-x="1083" 
d="M424 1004q-72 -81 -78 -232v-16q0 -59 24 -131t56 -99l625 -510v-20l-842 686q-22 22 -29 41v-723h-16v1556h16v-755q7 19 29 41l842 706v-18l-621 -518z" />
    <glyph glyph-name="L" unicode="L" horiz-adv-x="919" 
d="M623 16h292v-16h-753v1556h16v-1146q2 -47 22.5 -99.5t59.5 -103.5t90.5 -93t123 -69t149.5 -29z" />
    <glyph glyph-name="M" unicode="M" horiz-adv-x="1828" 
d="M1649 1556h16v-1556h-16v1116q-25 26 -55 36t-58 4.5t-46.5 -13t-35.5 -17.5l-539 -1081h-4l-538 1081q-119 68 -195 -16v-1110h-16v1556h16l602 -1210q58 -43 132.5 -43t134.5 41z" />
    <glyph glyph-name="N" unicode="N" horiz-adv-x="1298" 
d="M1118 1556h17v-1556h-17l-712 1190q-23 10 -44 16t-37.5 9.5t-32.5 2t-26 -2.5t-22 -8t-18 -10t-15.5 -13t-12 -12.5t-10.5 -13t-8 -11.5v-1147h-16v1556h39l686 -1138q70 -32 116.5 -40.5t70 -1t42.5 29.5v1150z" />
    <glyph glyph-name="O" unicode="O" 
d="M897 1587q164 0 314 -64t258.5 -172.5t172.5 -258.5t64 -314t-64 -314t-172.5 -258.5t-258.5 -172.5t-314 -64t-314 64t-258.5 172.5t-172.5 258.5t-64 314t64 314t172.5 258.5t258.5 172.5t314 64zM897 -14q214 0 397 106.5t289.5 289t106.5 396.5q0 161 -63 308
t-169.5 253t-253 169t-307.5 63t-308 -63t-253 -169t-169 -253t-63 -308t63 -307.5t169 -252.5t253 -169t308 -63z" />
    <glyph glyph-name="P" unicode="P" horiz-adv-x="1300" 
d="M872 1556q170 -19 270.5 -119.5t100.5 -254.5q0 -94 -47.5 -173.5t-130.5 -123.5q-72 -41 -166 -41h-565q-35 0 -64 -29q-31 -31 -54 -95.5t-33 -125t-16 -134t-6.5 -99.5t-0.5 -44v-317h-17v317q0 31 2.5 75t11.5 137.5t35 174.5t66 121q18 18 39 27q-21 9 -39 27
q-40 40 -66 121t-35 174.5t-11.5 137.5t-2.5 74v170h729zM958 864q117 20 193 110.5t76 207.5q0 149 -95 244t-264 114h-356q-49 -2 -103 -20t-106.5 -49t-90.5 -82.5t-48 -112.5q20 -301 106 -387q29 -29 64 -29h565q34 0 59 4z" />
    <glyph glyph-name="Q" unicode="Q" 
d="M1354 113l-31 -23l180 -209l-10 -10l-184 211l-23 -12q-182 -101 -389 -101q-164 0 -314 64t-258.5 172.5t-172.5 258.5t-64 314t64 314t172.5 258.5t258.5 172.5t314 64t314 -64t258.5 -172.5t172.5 -258.5t64 -314q0 -199 -93 -375t-259 -290zM1044 414l269 -312l24 19
q166 110 259.5 284.5t93.5 372.5q0 161 -63 308t-169.5 253t-253 169t-307.5 63t-308 -63t-253 -169t-169 -253t-63 -308t63 -307.5t169 -252.5t253 -169t308 -63q26 0 84 4q55 33 80.5 88t22.5 109.5t-13.5 104t-24.5 80.5l-14 31z" />
    <glyph glyph-name="R" unicode="R" horiz-adv-x="1402" 
d="M1350 0h-21l-506 844h-487q-38 0 -64 -29q-31 -31 -54 -95.5t-33 -125t-16 -134t-6.5 -99.5t-0.5 -44v-317h-17v317q0 31 2.5 75t11.5 137.5t35 175.5t66 122q25 21 39 25q-21 9 -39 27q-40 40 -66 121t-35 174.5t-11.5 137.5t-2.5 74v170h729q171 -19 271 -119t100 -255
q0 -94 -47.5 -173.5t-130.5 -123.5q-72 -41 -166 -41h-59zM336 860h565q35 0 60 4q117 20 192.5 110.5t75.5 207.5q0 150 -95 245t-264 115h-356q-49 -3 -103 -21t-106.5 -49.5t-90.5 -83t-48 -112.5q20 -301 106 -387q29 -29 64 -29z" />
    <glyph glyph-name="S" unicode="S" horiz-adv-x="962" 
d="M485 907q47 -28 69 -41t65.5 -41t65.5 -45t57.5 -46t54.5 -52t42.5 -55.5t35 -63t20 -68t8.5 -77.5q0 -121 -66 -223.5t-179 -162t-246 -59.5q-157 0 -287 84q-3 1 -5.5 38t-3.5 73l-1 37q68 -66 159.5 -102.5t190.5 -36.5q199 0 309.5 89t110.5 263q0 49 -12.5 94
t-30.5 80t-53 72.5t-63.5 63t-78 59t-82 53t-90.5 53.5q-82 48 -128 77.5t-107 78t-99 96.5q-49 61 -60.5 130t6.5 125.5t58 100.5q85 88 213 94h21q31 -3 67 -12q29 -6 52 -18l-6 -15q-4 2 -12.5 5.5t-12.5 5.5q-10 4 -51 14q-40 4 -58 4q-33 -1 -69.5 -11t-74 -33.5
t-66 -56t-44 -82t-8.5 -108.5q8 -70 62 -135q36 -46 95 -93t106.5 -77t125.5 -76z" />
    <glyph glyph-name="T" unicode="T" horiz-adv-x="1097" 
d="M4 1556h1088v-14h-324q-170 -60 -213 -260v-1282h-14v1282q-43 200 -213 260h-324v14z" />
    <glyph glyph-name="U" unicode="U" horiz-adv-x="1148" 
d="M995 442q0 -233 -116 -356q-111 -117 -304 -117h-2q-195 0 -303 117q-118 125 -118 356v1114h16v-1114q-1 -16 1 -47.5t10 -84t34.5 -111t67.5 -103.5q104 -110 292 -110q189 0 293 110q42 45 69 105.5t33.5 107.5t10.5 87.5t0 45.5v1114h16v-1114z" />
    <glyph glyph-name="V" unicode="V" horiz-adv-x="1523" 
d="M1501 1556l-661 -1499q-27 -59 -70 -59q-41 0 -68 59l-682 1499h17l584 -1282h2q52 -63 141 -71h14q91 0 154 102l551 1251h18z" />
    <glyph glyph-name="W" unicode="W" horiz-adv-x="2131" 
d="M2093 1556h16l-661 -1499q-27 -59 -68 -59q-42 0 -69 59l-240 529l-231 -529q-27 -59 -68 -59q-43 0 -70 59l-682 1499h17l584 -1282h2q52 -63 141 -71h14q91 0 154 102l131 299l-434 952h16l426 -933l412 933h18l-422 -952l150 -330h2q25 -31 64.5 -49.5t78.5 -21.5h12
q94 0 154 102z" />
    <glyph glyph-name="X" unicode="X" horiz-adv-x="1155" 
d="M1112 1556l-524 -778l524 -778h-16l-338 498q-85 60 -180 57q-98 3 -183 -57l-338 -498h-16l524 778l-524 778h16l340 -497q83 -61 181 -58q94 -3 180 58l338 497h16z" />
    <glyph glyph-name="Y" unicode="Y" horiz-adv-x="1105" 
d="M1075 1556h17l-531 -911v-2v-643h-16v645l-531 911h15l348 -589q72 -72 174 -72h4q101 0 174 70z" />
    <glyph glyph-name="Z" unicode="Z" horiz-adv-x="997" 
d="M334 16h631v-16h-934v6l766 1311v2q0 72 -38.5 132t-101.5 91h-548v14h841v-10l-760 -1296v-10q0 -72 40 -133t104 -91z" />
    <glyph glyph-name="bracketleft" unicode="[" horiz-adv-x="593" 
d="M467 1370h-291v-1563h291v-16h-307v1595h307v-16z" />
    <glyph glyph-name="backslash" unicode="\" horiz-adv-x="1185" 
d="M102 1556l994 -1556h-15l-995 1556h16z" />
    <glyph glyph-name="bracketright" unicode="]" horiz-adv-x="593" 
d="M125 1386h307v-1595h-307v16h291v1563h-291v16z" />
    <glyph glyph-name="asciicircum" unicode="^" horiz-adv-x="860" 
d="M438 1556l322 -522l-15 -8l-315 514l-315 -514l-15 8l320 522h18z" />
    <glyph glyph-name="underscore" unicode="_" horiz-adv-x="997" 
d="M834 -102h-670v16h670v-16z" />
    <glyph glyph-name="grave" unicode="`" horiz-adv-x="329" 
d="M106 1556l136 -219h-21l-133 219h18z" />
    <glyph glyph-name="a" unicode="a" horiz-adv-x="1531" 
d="M823 1499l684 -1499h-18l-565 1245l-2 2q-25 35 -71 59t-85 27h-12q-48 0 -93.5 -27.5t-74.5 -74.5l-543 -1231h-16l661 1499q25 60 68 60q42 0 67 -60z" />
    <glyph glyph-name="b" unicode="b" horiz-adv-x="1406" 
d="M1300 553q23 -74 23 -145q0 -169 -122 -288.5t-292 -119.5h-764v317q0 31 2.5 75t11.5 137.5t35 175.5t66 122q20 17 39 25q-21 9 -39 27q-40 40 -66 121t-35 174.5t-11.5 137.5t-2.5 74v170h17h649q172 -19 272.5 -119t100.5 -255q0 -94 -47.5 -173.5t-130.5 -123.5
q-10 -6 -42.5 -18.5t-43.5 -12.5q57 -8 139 -41q33 -14 82 -45q55 -38 98 -94q39 -53 61 -121zM909 16q164 0 281 115.5t117 276.5q0 90 -29 161q-22 68 -80 129q-52 58 -129 93q-67 34 -172 51l-23 2v0h-538q-38 0 -64 -29q-31 -31 -54 -95.5t-33 -125t-16 -134t-6.5 -99.5
t-0.5 -44v-26q17 -74 58.5 -130t94.5 -86t105.5 -44.5t101.5 -14.5h387zM272 889q29 -29 64 -29h538q2 0 10.5 1t10.5 1q117 20 194.5 111.5t77.5 208.5q0 150 -94.5 245t-263.5 115h-295q-49 -3 -103 -21t-106.5 -49.5t-90.5 -83t-48 -112.5q20 -301 106 -387z" />
    <glyph glyph-name="c" unicode="c" horiz-adv-x="1599" 
d="M897 -14q176 0 330.5 71.5t265.5 198.5h20q-113 -134 -273.5 -210.5t-342.5 -76.5q-164 0 -314 64t-258.5 172.5t-172.5 258.5t-64 314t64 314t172.5 258.5t258.5 172.5t314 64q196 0 366.5 -88.5t282.5 -241.5h-18q-111 145 -276.5 229.5t-354.5 84.5q-216 0 -375 -93
t-242 -259t-83 -385q0 -148 26.5 -272t69.5 -210t103 -152.5t122.5 -106t133 -64.5t129.5 -34t116 -9z" />
    <glyph glyph-name="d" unicode="d" horiz-adv-x="1224" 
d="M895 1335q117 -113 179.5 -257t62.5 -302q0 -161 -65.5 -307t-176.5 -252t-265 -168.5t-323 -62.5q-73 0 -143 12v1556q76 13 143 13q166 0 318 -60t270 -172zM506 25q268 64 442 273t174 478t-174 478.5t-442 273.5q-71 -7 -131.5 -33t-100 -62t-60 -61.5t-34.5 -48.5
v-1092q10 -17 23 -35.5t42 -48.5t63 -53t86.5 -43t111.5 -26z" />
    <glyph glyph-name="e" unicode="e" horiz-adv-x="1730" 
d="M750 0q232 -43 449.5 47t350.5 283l17 -2q-135 -201 -358 -294.5t-461 -49.5q-161 30 -296.5 121t-222 217.5t-122 285.5t-5.5 320q40 215 181.5 378t345 235t418.5 32q222 -41 392.5 -196t233.5 -373q-277 -156 -605.5 -204.5t-684.5 25.5q-95 2 -168 -39.5t-100 -121.5
q17 -126 73 -239t140 -198.5t192.5 -144.5t229.5 -82zM186 1122q-6 -104 44 -174.5t147 -105.5q268 -60 522 -47t487 94q52 31 87 80.5t48.5 103.5t11 107.5t-21.5 97.5q-89 108 -209 180t-260 98q-170 32 -337 -9t-305 -151.5t-214 -273.5z" />
    <glyph glyph-name="f" unicode="f" horiz-adv-x="1208" 
d="M514 1540q-49 -3 -103 -21t-106.5 -49.5t-90.5 -83t-48 -112.5q21 -317 106 -402q28 -28 64 -28h555v-17h-555q-39 0 -64 -28q-31 -31 -54 -95.5t-33 -125t-16 -134t-6.5 -99.5t-0.5 -44v-301h-17v301q0 31 2.5 75t11.5 137.5t35 175.5t66 122q25 21 39 25q-23 10 -39 26
q-40 40 -66 123.5t-35 180.5t-11.5 142.5t-2.5 77.5v170h1057v-16h-688z" />
    <glyph glyph-name="g" unicode="g" horiz-adv-x="1744" 
d="M1690 786v-8q0 -210 -99 -390.5t-268 -291.5v-2q-53 -32 -66 -39q-1 0 -4 -1t-4 -1q-166 -84 -354 -84q-218 0 -403.5 108.5t-293.5 295t-108 405.5t108 405.5t293.5 295t403.5 108.5q234 0 428 -125v-18q-197 127 -428 127q-159 0 -291 -62.5t-219.5 -170t-135.5 -252
t-48 -308.5t48 -308t135.5 -251.5t219.5 -170t291 -62.5q208 0 385 100q239 143 340 399q-5 94 -70.5 175t-163.5 110h-487v16h791z" />
    <glyph glyph-name="h" unicode="h" horiz-adv-x="1482" 
d="M1303 1556h16v-1556h-16v487q-12 90 -88 155.5t-189 90.5h-580q-104 -24 -173.5 -80t-92.5 -139v-514h-16v1556h16v-587q24 -86 99.5 -142t185.5 -77h545q118 23 199 88t94 157v561z" />
    <glyph glyph-name="i" unicode="i" horiz-adv-x="344" 
d="M180 0h-16v1556h16v-1556z" />
    <glyph glyph-name="j" unicode="j" horiz-adv-x="917" 
d="M764 1556v-1097q0 -233 -117 -357q-110 -116 -305 -116q-18 0 -44 2.5t-76.5 12t-105.5 34.5t-98 63l7 6l90 86q6 -5 16.5 -13t44.5 -30t68.5 -39t84.5 -33t97 -20t101.5 8t101.5 43q1 1 3 3.5t3 3.5q42 45 69 105.5t33.5 107.5t10.5 87.5t0 45.5v1097h16zM584 70
q18 12 32 26z" />
    <glyph glyph-name="k" unicode="k" horiz-adv-x="1083" 
d="M424 1004q-72 -81 -78 -232v-16q0 -59 24 -131t56 -99l625 -510v-20l-842 686q-22 22 -29 41v-723h-16v1556h16v-755q7 19 29 41l842 706v-18l-621 -518z" />
    <glyph glyph-name="l" unicode="l" horiz-adv-x="923" 
d="M625 16h293v-16h-754v1556h16v-1146q2 -47 22.5 -99.5t59.5 -103.5t90.5 -93t123 -69t149.5 -29z" />
    <glyph glyph-name="m" unicode="m" horiz-adv-x="1832" 
d="M1651 1556h16v-1556h-16v1116q-25 26 -55 36t-58 4.5t-46.5 -13t-35.5 -17.5l-538 -1081h-5l-538 1081q-119 68 -195 -16v-1110h-16v1556h16l602 -1210q58 -43 132.5 -43t134.5 41z" />
    <glyph glyph-name="n" unicode="n" horiz-adv-x="1298" 
d="M1118 1556h17v-1556h-17l-712 1190q-23 10 -44 16t-37.5 9.5t-32.5 2t-26 -2.5t-22 -8t-18 -10t-15.5 -13t-12 -12.5t-10.5 -13t-8 -11.5v-1147h-16v1556h39l686 -1138q70 -32 116.5 -40.5t70 -1t42.5 29.5v1150z" />
    <glyph glyph-name="o" unicode="o" 
d="M897 1587q164 0 314 -64t258.5 -172.5t172.5 -258.5t64 -314t-64 -314t-172.5 -258.5t-258.5 -172.5t-314 -64t-314 64t-258.5 172.5t-172.5 258.5t-64 314t64 314t172.5 258.5t258.5 172.5t314 64zM897 -14q214 0 397 106.5t289.5 289t106.5 396.5q0 161 -63 307.5
t-169.5 253t-253 169.5t-307.5 63t-308 -63t-253 -169.5t-169 -253t-63 -307.5t63 -307.5t169 -252.5t253 -169t308 -63z" />
    <glyph glyph-name="p" unicode="p" horiz-adv-x="1302" 
d="M874 1556q170 -19 270.5 -119.5t100.5 -254.5q0 -94 -47.5 -173.5t-130.5 -123.5q-72 -41 -166 -41h-565q-35 0 -64 -29q-31 -31 -54 -95.5t-33 -125t-16 -134t-6.5 -99.5t-0.5 -44v-317h-17v317q0 31 2.5 75t11.5 137.5t35 174.5t66 121q18 18 39 27q-21 9 -39 27
q-40 40 -66 121t-35 174.5t-11.5 137.5t-2.5 74v170h729zM961 864q117 20 192.5 110.5t75.5 207.5q0 149 -95 244t-264 114h-356q-49 -2 -103 -20t-106.5 -49t-90.5 -82.5t-48 -112.5q20 -301 106 -387q29 -29 64 -29h565q35 0 60 4z" />
    <glyph glyph-name="q" unicode="q" 
d="M1354 113l-31 -23l180 -209l-10 -10l-182 211h-2l-25 -12q-179 -101 -387 -101q-164 0 -314 64t-258.5 172.5t-172.5 258.5t-64 314t64 314t172.5 258.5t258.5 172.5t314 64t314 -64t258.5 -172.5t172.5 -258.5t64 -314q0 -199 -93 -375t-259 -290zM1311 104l2 -2l24 17
q166 113 259.5 287t93.5 372q0 161 -63 308t-169.5 253t-253 169t-307.5 63t-308 -63t-253 -169t-169 -253t-63 -308t63 -307.5t169 -252.5t253 -169t308 -63q26 0 84 4q55 33 80.5 88t22.5 109.5t-13.5 104t-24.5 80.5l-14 31l12 11z" />
    <glyph glyph-name="r" unicode="r" horiz-adv-x="1402" 
d="M1350 0h-19l-508 844h-487q-38 0 -64 -29q-31 -31 -54 -95.5t-33 -125t-16 -134t-6.5 -99.5t-0.5 -44v-317h-17v317q0 31 2.5 75t11.5 137.5t35 175.5t66 122q20 17 39 25q-21 9 -39 27q-40 40 -66 121t-35 174.5t-11.5 137.5t-2.5 74v170h729q171 -19 271 -119t100 -255
q0 -94 -47.5 -173.5t-130.5 -123.5q-72 -41 -166 -41h-59zM336 860h565q35 0 60 4q117 20 192.5 110.5t75.5 207.5q0 150 -95 245t-264 115h-356q-49 -3 -103 -21t-106.5 -49.5t-90.5 -83t-48 -112.5q20 -301 106 -387q29 -29 64 -29z" />
    <glyph glyph-name="s" unicode="s" horiz-adv-x="960" 
d="M483 907q47 -28 69 -41t65.5 -41t65.5 -45t57.5 -46t54.5 -52t42.5 -55.5t35 -63.5t20 -69t8.5 -78q0 -120 -66 -222t-179 -161.5t-246 -59.5q-162 0 -287 84q-3 1 -5.5 38t-3.5 73l-1 37q68 -66 159.5 -102.5t190.5 -36.5q199 0 309.5 89t110.5 263q0 49 -12.5 94
t-30.5 80t-53 72.5t-63.5 63t-78 59t-82 53t-90.5 53.5q-82 48 -128 77.5t-107 78t-99 96.5q-49 61 -60.5 130t6.5 125.5t58 100.5q86 89 213 92q11 3 21 0q29 0 67 -10q29 -6 52 -18l-7 -15q-4 2 -12 5.5t-12 5.5q-10 4 -51 14q-40 4 -58 4q-33 -1 -69.5 -11t-74 -33.5
t-66 -56t-44 -82t-8.5 -108.5q8 -70 62 -135q36 -46 95 -93t106.5 -77t125.5 -76z" />
    <glyph glyph-name="t" unicode="t" horiz-adv-x="1097" 
d="M4 1556h1088v-16h-324q-170 -57 -213 -258v-1282h-14v1282q-43 201 -213 258h-324v16z" />
    <glyph glyph-name="u" unicode="u" horiz-adv-x="1148" 
d="M995 444q0 -233 -116 -356q-111 -117 -304 -117h-2q-195 0 -303 117q-118 125 -118 356v1112h16v-1112q-1 -16 1 -47.5t10 -84t34.5 -111t67.5 -103.5q104 -110 292 -110q189 0 293 110q42 45 69 105.5t33.5 107.5t10.5 87.5t0 45.5v1112h16v-1112z" />
    <glyph glyph-name="v" unicode="v" horiz-adv-x="1523" 
d="M1483 1556h18l-661 -1499q-27 -59 -70 -59q-41 0 -68 59l-682 1499h17l584 -1282h2q52 -63 141 -71h14q91 0 154 102z" />
    <glyph glyph-name="w" unicode="w" horiz-adv-x="2131" 
d="M2093 1556h16l-661 -1499q-27 -59 -68 -59q-42 0 -69 59l-240 529l-231 -529q-27 -59 -70 -59q-41 0 -68 59l-682 1499h17l584 -1282h2q52 -63 141 -71h14q91 0 154 102l131 299l-434 952h16l426 -933l412 933h18l-422 -952l150 -330h2q25 -31 64.5 -49.5t78.5 -21.5h12
q94 0 154 102z" />
    <glyph glyph-name="x" unicode="x" horiz-adv-x="1155" 
d="M1112 1556l-524 -778l524 -778h-16l-338 498q-85 60 -183 57q-95 3 -180 -57l-338 -498h-16l524 778l-524 778h16l340 -497q83 -61 181 -58q94 -3 180 58l338 497h16z" />
    <glyph glyph-name="y" unicode="y" horiz-adv-x="1105" 
d="M1075 1556h17l-531 -911v-645h-16v645l-531 911h15l348 -589q69 -69 174 -72h4q105 3 174 72z" />
    <glyph glyph-name="z" unicode="z" horiz-adv-x="997" 
d="M334 16h631v-16h-934v6l766 1311v2q0 72 -38.5 131.5t-101.5 89.5h-548v16h841v-10l-760 -1296v-10q0 -72 40 -133t104 -91z" />
    <glyph glyph-name="braceleft" unicode="{" horiz-adv-x="679" 
d="M313 -47q26 -75 101.5 -118.5t156.5 -45.5v-16q-86 2 -165 49t-107 127q-8 25 -10.5 51t2.5 57.5t9 50t13 56.5q19 78 21 94q9 71 -7 134t-53 106q-53 59 -153 77v17q96 14 153 78q37 42 53 104.5t7 134.5q-2 18 -21 95l-3 12q-12 46 -16.5 71t-5 63t10.5 69
q28 80 107 127t165 49v-17q-81 -2 -156.5 -46t-101.5 -118q-8 -24 -10.5 -48t3 -56t9 -47t13.5 -55q16 -66 20 -97q10 -74 -6 -140.5t-55 -111.5q-48 -54 -131 -75q79 -20 131 -78q80 -90 61 -250q-4 -29 -20 -96q-10 -39 -13.5 -55t-9 -48t-3 -56t10.5 -48z" />
    <glyph glyph-name="bar" unicode="|" horiz-adv-x="335" 
d="M176 -164h-16v1559h16v-1559z" />
    <glyph glyph-name="braceright" unicode="}" horiz-adv-x="679" 
d="M403 670q57 -63 154 -78v-17q-101 -18 -154 -77q-37 -43 -52 -106t-5 -134q4 -33 19 -94l3 -12q12 -46 16.5 -71t5 -63.5t-10.5 -70.5q-28 -79 -107.5 -125.5t-165.5 -48.5v16q81 2 157 45.5t102 118.5q8 24 10.5 48t-3 56t-9 48t-13.5 55q-16 67 -20 96q-19 161 63 250
q51 57 129 78q-81 21 -129 75q-82 92 -63 252q4 31 20 97q10 40 13.5 55t9 47t3 56t-10.5 48q-26 74 -102 118t-157 46v17q86 -2 165.5 -49t107.5 -127q11 -31 10.5 -69t-5 -63t-16.5 -71l-3 -12q-14 -59 -19 -95q-10 -72 5 -134.5t52 -104.5z" />
    <glyph glyph-name="asciitilde" unicode="~" horiz-adv-x="905" 
d="M82 561q50 35 105 45.5t106.5 0.5t105 -28t106.5 -36t104.5 -28t106.5 0.5t105 45.5v-16q-50 -35 -105 -45.5t-106.5 -0.5t-104.5 28t-106.5 36t-105 28t-106.5 -0.5t-105 -45.5v16z" />
    <glyph glyph-name="uni00A0" unicode="&#xa0;" horiz-adv-x="450" 
 />
    <glyph glyph-name="exclamdown" unicode="&#xa1;" horiz-adv-x="348" 
d="M182 -492h-16v1414h16v-1414zM174 1065q14 0 23.5 -9.5t9.5 -23.5t-9.5 -23.5t-23.5 -9.5t-23.5 9.5t-9.5 23.5t9.5 23.5t23.5 9.5z" />
    <glyph glyph-name="cent" unicode="&#xa2;" horiz-adv-x="1107" 
d="M963 489h16q-53 -117 -162.5 -188.5t-241.5 -71.5h-12v-168h-14v170q-175 11 -296.5 139t-121.5 304q0 177 121.5 305t296.5 139v174h14v-174h12q130 0 237.5 -69t162.5 -181h-19q-53 106 -156 171t-225 65q-2 0 -6 -1t-6 -1v-856h12q126 0 230.5 66.5t157.5 176.5z
M549 246v856q-169 -11 -285.5 -134.5t-116.5 -293.5t116.5 -293.5t285.5 -134.5z" />
    <glyph glyph-name="sterling" unicode="&#xa3;" horiz-adv-x="1036" 
d="M469 16h463v-16h-815v18q92 12 147 76q53 59 74 146q21 78 22.5 172t-8.5 172h-157v16h155q-1 13 -4 38.5t-4 37.5q-18 140 -18 239q0 107 22 170q26 77 86 125.5t139 55.5q79 8 150.5 -27.5t112.5 -103.5l-13 -9q-40 64 -107.5 97.5t-142.5 25.5q-74 -8 -130 -53
t-81 -117q-22 -61 -22 -164q3 -101 20 -237q3 -40 9 -78h168v-16h-166q19 -213 -15 -346q-2 -6 -5 -17.5t-5 -17.5q-9 -47 23 -108t102 -79z" />
    <glyph glyph-name="currency" unicode="&#xa4;" horiz-adv-x="1028" 
d="M891 561q0 -153 -109 -262l-6 -6l113 -111l-12 -12l-113 113q-107 -93 -246 -93q-149 0 -258 103l-110 -111l-13 11l113 112q-105 108 -105 256q0 142 95 248l-113 113l10 10l113 -113l6 6q109 109 262 109q149 0 258 -103l111 111l12 -10l-113 -113q105 -108 105 -258z
M770 309q104 104 104 252q0 150 -104 254q-105 105 -252 105t-252 -105q-104 -104 -104 -254q0 -148 104 -252t252 -104t252 104z" />
    <glyph glyph-name="yen" unicode="&#xa5;" horiz-adv-x="1257" 
d="M637 643v-27h223v-16h-223v-123h223v-16h-223v-461h-16v461h-224v16h224v123h-224v16h224v27v2l-531 911h14l349 -589q72 -72 174 -72h4q101 0 174 70l346 591h16z" />
    <glyph glyph-name="section" unicode="&#xa7;" horiz-adv-x="921" 
d="M766 518q-31 -78 -121 -151q104 -115 43 -252q-28 -66 -91.5 -105t-143.5 -39q-30 0 -58 5.5t-50 14.5t-41 20.5t-33.5 24.5t-26.5 26t-20 25t-13.5 21t-8.5 15l-3 6l16 6q2 -6 8.5 -18t25.5 -36t44.5 -43.5t68 -34.5t91.5 -15q75 0 135 36t86 97q20 45 20.5 88t-15.5 77
t-38 62.5t-54 52t-56 38t-50 26.5q-9 4 -27.5 12t-27.5 12q-70 30 -117.5 58t-87.5 69q-58 60 -75 129.5t10 135.5q29 72 120 151q-104 115 -43 252q28 65 92 104t142 39q38 0 73 -8.5t60 -22.5t46 -30.5t34.5 -33.5t23 -31t13.5 -23l4 -8l-14 -6q-2 6 -8.5 18t-26 36
t-44.5 43.5t-68 34.5t-93 15q-73 0 -133 -36.5t-86 -96.5q-20 -45 -20.5 -88t15 -77t38 -63t53 -52t55 -37.5t49.5 -26.5q9 -4 28 -12.5t28 -12.5q55 -25 78 -36.5t62 -37t66 -53.5q57 -62 74.5 -130.5t-8.5 -133.5zM635 377q87 75 117 147q25 60 8 124.5t-72 121.5
q-56 61 -201 125q-9 4 -27.5 12.5t-27.5 12.5q-82 37 -145 100q-90 -77 -117 -146q-25 -62 -9 -126t70 -121q27 -28 63.5 -52t63.5 -37t76 -34q9 -4 27.5 -12.5t27.5 -12.5q85 -38 146 -102z" />
    <glyph glyph-name="dieresis" unicode="&#xa8;" horiz-adv-x="587" 
d="M104 1257q14 0 23.5 -9.5t9.5 -22.5q0 -12 -10 -22.5t-23 -10.5t-22.5 10.5t-9.5 22.5q0 13 9 22.5t23 9.5zM483 1257q14 0 23.5 -9.5t9.5 -22.5q0 -12 -10 -22.5t-23 -10.5t-22.5 10.5t-9.5 22.5q0 13 9.5 22.5t22.5 9.5z" />
    <glyph glyph-name="copyright" unicode="&#xa9;" horiz-adv-x="1458" 
d="M729 1305q160 0 296.5 -79.5t216 -216t79.5 -296.5q0 -161 -79.5 -298t-216 -216.5t-296.5 -79.5q-161 0 -298 79.5t-216.5 216.5t-79.5 298q0 160 79.5 296.5t216.5 216t298 79.5zM729 135q156 0 289 77.5t211 210.5t78 290q0 156 -78 288.5t-211 209.5t-289 77
q-117 0 -224 -45.5t-184.5 -122.5t-123 -183.5t-45.5 -223.5q0 -157 77 -290t210 -210.5t290 -77.5zM729 1004q-121 0 -207 -85.5t-86 -205.5q0 -121 86 -207t207 -86q83 0 152.5 44t107.5 116h17q-38 -78 -113 -127.5t-164 -49.5q-127 0 -218 91t-91 219q0 126 91 216.5
t218 90.5q89 0 164 -49t113 -127h-17q-38 72 -107.5 116t-152.5 44z" />
    <glyph glyph-name="guillemotleft" unicode="&#xab;" horiz-adv-x="741" 
d="M629 829l-219 -303l219 -303h-21l-217 303l217 303h21zM350 829l-219 -303l219 -303h-20l-217 303l219 303h18z" />
    <glyph glyph-name="uni00AD" unicode="&#xad;" horiz-adv-x="0" 
 />
    <glyph glyph-name="registered" unicode="&#xae;" horiz-adv-x="954" 
d="M477 1409q146 0 249 -103t103 -249t-103 -249t-249 -103t-249 103t-103 249t103 249t249 103zM477 721q139 0 237.5 98.5t98.5 237.5q0 138 -98.5 237t-237.5 99t-237.5 -99t-98.5 -237q0 -139 98.5 -237.5t237.5 -98.5zM606 1120q0 -33 -21.5 -59.5t-54.5 -34.5l84 -139
h-20l-82 137h-115v-137h-16v338h129q40 0 68 -28.5t28 -68.5v-8zM510 1040q32 0 56 24t24 56v8q0 32 -24 56t-56 24h-113v-168h113z" />
    <glyph glyph-name="degree" unicode="&#xb0;" horiz-adv-x="667" 
d="M334 1477q89 0 153 -64.5t64 -155.5q0 -89 -64 -153t-153 -64q-91 0 -155 64t-64 153q0 91 64 155.5t155 64.5zM334 1055q83 0 142 59.5t59 142.5q0 85 -59 144t-142 59q-85 0 -144 -59t-59 -144q0 -83 59.5 -142.5t143.5 -59.5z" />
    <glyph glyph-name="plusminus" unicode="&#xb1;" horiz-adv-x="1179" 
d="M598 737h479v-16h-479v-479h-16v479h-480v16h480v480h16v-480zM1077 0h-975v16h975v-16z" />
    <glyph glyph-name="twosuperior" unicode="&#xb2;" horiz-adv-x="608" 
d="M143 965h342v-17h-368v10l2 5q2 1 67.5 67t137.5 140.5t88 93.5q37 43 49.5 92t-2.5 90q-25 74 -115 92q-75 15 -141 -31q-61 -42 -70 -114l-16 2q13 80 78 127q67 49 153 30q98 -19 127 -100q15 -46 1 -99.5t-52 -99.5q-58 -65 -281 -288z" />
    <glyph glyph-name="threesuperior" unicode="&#xb3;" horiz-adv-x="608" 
d="M412 1286q60 -45 73 -125q9 -77 -38 -139t-123 -72q-8 -2 -25 -2q-67 0 -115 39q-62 46 -71 123l16 2q10 -72 66 -113q56 -44 127 -34q70 10 113 66.5t34 127.5q-9 69 -66 113q-56 44 -129 35v14l183 221h-283v14h318l-195 -233q66 0 115 -37z" />
    <glyph glyph-name="acute" unicode="&#xb4;" horiz-adv-x="329" 
d="M223 1556h21l-135 -217h-19z" />
    <glyph glyph-name="paragraph" unicode="&#xb6;" horiz-adv-x="878" 
d="M434 1376h285v-1376h-17v1362h-251v-1362h-17v768h-6q-126 0 -215.5 89.5t-89.5 215.5t89.5 214.5t215.5 88.5h6zM434 784v578h-6q-120 0 -204.5 -84.5t-84.5 -204.5t84.5 -204.5t204.5 -84.5h6z" />
    <glyph glyph-name="periodcentered" unicode="&#xb7;" horiz-adv-x="208" 
d="M104 672q14 0 23.5 -10t9.5 -23t-9.5 -23t-23.5 -10q-13 0 -22.5 9.5t-9.5 23.5t9.5 23.5t22.5 9.5z" />
    <glyph glyph-name="cedilla" unicode="&#xb8;" horiz-adv-x="610" 
d="M436 -172q26 -50 -16 -115q0 -4 -13.5 -21.5t-49.5 -38t-81 -20.5q-48 0 -112 27l6 14q28 -12 53.5 -18.5t45.5 -7t38 2.5t32 9.5t25 13t19 15t13 14.5t8 11l4 5q36 62 14 101q-15 25 -54 39.5t-70 16.5l-32 1h-14l74 115l12 -8l-57 -90q120 -7 155 -66z" />
    <glyph glyph-name="onesuperior" unicode="&#xb9;" horiz-adv-x="358" 
d="M119 1559h110v-617h-16v600h-94v17z" />
    <glyph glyph-name="guillemotright" unicode="&#xbb;" horiz-adv-x="741" 
d="M113 844h18l219 -303l-217 -303h-20l219 303zM410 844l219 -303l-219 -303h-19l217 303l-217 303h19z" />
    <glyph glyph-name="questiondown" unicode="&#xbf;" horiz-adv-x="1155" 
d="M678 1509q-14 0 -23.5 9.5t-9.5 23.5t9.5 23.5t23.5 9.5t23.5 -9.5t9.5 -23.5t-9.5 -23.5t-23.5 -9.5zM1034 303l15 -4q-24 -90 -78.5 -157t-125 -102t-147.5 -47.5t-153 -2.5q-80 10 -152.5 45t-132.5 91.5t-95.5 142.5t-35.5 190q0 47 17 96t37.5 85.5t61.5 85.5t65 74
t71 72l41 41q106 107 171 236.5t75 253.5h16q-10 -127 -76.5 -259t-173.5 -241q-5 -5 -13 -13.5t-15 -15.5t-13 -12q-46 -46 -70 -71t-64 -72.5t-60.5 -83.5t-37 -83.5t-16.5 -92.5q0 -100 34 -183t92 -138.5t128 -89.5t148 -44q73 -10 147 3t142 47t121 98.5t77 150.5z" />
    <glyph glyph-name="Agrave" unicode="&#xc0;" horiz-adv-x="1531" 
d="M823 1499l684 -1499h-18l-565 1245l-2 2q-25 35 -71 59t-85 27h-12q-48 0 -93.5 -27.5t-74.5 -74.5l-543 -1231h-16l661 1499q25 60 68 60q42 0 67 -60zM760 1745h-21l-133 219h19z" />
    <glyph glyph-name="Aacute" unicode="&#xc1;" horiz-adv-x="1531" 
d="M823 1499l684 -1499h-18l-565 1245l-2 2q-25 35 -71 59t-85 27h-12q-48 0 -93.5 -27.5t-74.5 -74.5l-543 -1231h-16l661 1499q25 60 68 60q42 0 67 -60zM891 1964l-133 -219h-21l135 219h19z" />
    <glyph glyph-name="Acircumflex" unicode="&#xc2;" horiz-adv-x="1531" 
d="M823 1499l684 -1499h-18l-565 1245l-2 2q-25 35 -71 59t-85 27h-12q-48 0 -93.5 -27.5t-74.5 -74.5l-543 -1231h-16l661 1499q25 60 68 60q42 0 67 -60zM766 1958l-129 -213h-21l134 219h32l136 -219h-21z" />
    <glyph glyph-name="Atilde" unicode="&#xc3;" horiz-adv-x="1531" 
d="M823 1499l684 -1499h-18l-565 1245l-2 2q-25 35 -71 59t-85 27h-12q-48 0 -93.5 -27.5t-74.5 -74.5l-543 -1231h-16l661 1499q25 60 68 60q42 0 67 -60zM575 1800q-16 -22 -22 -53h-18q5 35 26 63q26 39 70 39q46 0 143 -59q9 -5 26 -15t28.5 -16t21.5 -10q59 -18 92 2
q28 22 39 76h18q-12 -65 -47 -90q-21 -15 -51 -15q-20 0 -57 11q-22 7 -80 43q-88 55 -131 55q-36 0 -58 -31z" />
    <glyph glyph-name="Adieresis" unicode="&#xc4;" horiz-adv-x="1531" 
d="M823 1499l684 -1499h-18l-565 1245l-2 2q-25 35 -71 59t-85 27h-12q-48 0 -93.5 -27.5t-74.5 -74.5l-543 -1231h-16l661 1499q25 60 68 60q42 0 67 -60zM559 1745q-13 0 -23 9.5t-10 23.5q0 13 9.5 22.5t23.5 9.5t23.5 -9.5t9.5 -22.5q0 -14 -10 -23.5t-23 -9.5z
M938 1745q-14 0 -23.5 9.5t-9.5 23.5q0 13 9.5 22.5t23.5 9.5t23.5 -9.5t9.5 -22.5q0 -14 -9.5 -23.5t-23.5 -9.5z" />
    <glyph glyph-name="Aring" unicode="&#xc5;" horiz-adv-x="1531" 
d="M823 1499l684 -1499h-18l-565 1245l-2 2q-25 35 -71 59t-85 27h-12q-48 0 -93.5 -27.5t-74.5 -74.5l-543 -1231h-16l661 1499q21 50 55 57q-56 6 -94.5 48.5t-38.5 99.5q0 62 43.5 105.5t104.5 43.5t104 -43.5t43 -105.5q0 -58 -39 -100.5t-96 -47.5q31 -6 53 -57z
M758 1569q57 0 96 39.5t39 95.5q0 57 -39 97t-96 40q-56 0 -95.5 -40t-39.5 -97q0 -56 39.5 -95.5t95.5 -39.5z" />
    <glyph glyph-name="AE" unicode="&#xc6;" horiz-adv-x="2013" 
d="M1333 16h658v-16h-983v14l524 781l4 6l-446 737l-1055 -1538h-19l1063 1556h912v-16h-568q-49 -12 -83.5 -37.5t-49 -54.5t-23.5 -61.5t-6 -58.5t3 -44l290 -483l-370 -553q-2 -31 2 -60t17.5 -65t46.5 -64.5t83 -42.5z" />
    <glyph glyph-name="Ccedilla" unicode="&#xc7;" horiz-adv-x="1599" 
d="M897 1571q-216 0 -375 -93t-242 -259t-83 -385q0 -148 26.5 -272t69.5 -210t103 -152.5t122.5 -106t133 -64.5t129.5 -34t116 -9q176 0 330.5 71.5t265.5 198.5h20q-112 -133 -271 -209.5t-339 -77.5l-49 -73q121 -7 156 -64q26 -45 -15 -117q-2 -3 -5.5 -8.5
t-16.5 -19.5t-28 -24.5t-40.5 -19t-54.5 -8.5q-48 0 -113 29l8 14q48 -22 89.5 -25.5t66.5 6t44.5 25t27 26t8.5 14.5q37 60 16 100q-15 25 -57 39.5t-63.5 16t-36.5 1.5h-15l58 88q-129 2 -250.5 44t-219 117t-171.5 174t-114 221.5t-40 252.5q0 164 64 314t172.5 258.5
t258.5 172.5t314 64q196 0 366.5 -88.5t282.5 -241.5h-18q-111 145 -276.5 229.5t-354.5 84.5z" />
    <glyph glyph-name="Egrave" unicode="&#xc8;" horiz-adv-x="1730" 
d="M860 1745h-20l-133 219h18zM750 0q232 -43 449.5 47t350.5 283l17 -2q-135 -201 -358 -294.5t-461 -49.5q-161 30 -296.5 121t-222 217.5t-122 285.5t-5.5 320q40 215 181.5 378t345 235t418.5 32q222 -41 392.5 -196t233.5 -373q-277 -156 -605.5 -204.5t-684.5 25.5
q-95 2 -168 -39.5t-100 -121.5q17 -126 73 -239t140 -198.5t192.5 -144.5t229.5 -82zM186 1122q-6 -104 44 -174.5t147 -105.5q268 -60 522 -47t487 94q52 31 87 80.5t48.5 103.5t11 107.5t-21.5 97.5q-89 108 -209 180t-260 98q-170 32 -337 -9t-305 -151.5t-214 -273.5z
" />
    <glyph glyph-name="Eacute" unicode="&#xc9;" horiz-adv-x="1730" 
d="M985 1964l-133 -219h-18l133 219h18zM750 0q232 -43 449.5 47t350.5 283l17 -2q-135 -201 -358 -294.5t-461 -49.5q-161 30 -296.5 121t-222 217.5t-122 285.5t-5.5 320q40 215 181.5 378t345 235t418.5 32q222 -41 392.5 -196t233.5 -373q-277 -156 -605.5 -204.5
t-684.5 25.5q-95 2 -168 -39.5t-100 -121.5q17 -126 73 -239t140 -198.5t192.5 -144.5t229.5 -82zM186 1122q-6 -104 44 -174.5t147 -105.5q268 -60 522 -47t487 94q52 31 87 80.5t48.5 103.5t11 107.5t-21.5 97.5q-89 108 -209 180t-260 98q-170 32 -337 -9t-305 -151.5
t-214 -273.5z" />
    <glyph glyph-name="Ecircumflex" unicode="&#xca;" horiz-adv-x="1730" 
d="M881 1958l-131 -213h-19l133 219h33l133 -219h-18zM750 0q232 -43 449.5 47t350.5 283l17 -2q-135 -201 -358 -294.5t-461 -49.5q-161 30 -296.5 121t-222 217.5t-122 285.5t-5.5 320q40 215 181.5 378t345 235t418.5 32q222 -41 392.5 -196t233.5 -373
q-277 -156 -605.5 -204.5t-684.5 25.5q-95 2 -168 -39.5t-100 -121.5q17 -126 73 -239t140 -198.5t192.5 -144.5t229.5 -82zM186 1122q-6 -104 44 -174.5t147 -105.5q268 -60 522 -47t487 94q52 31 87 80.5t48.5 103.5t11 107.5t-21.5 97.5q-89 108 -209 180t-260 98
q-170 32 -337 -9t-305 -151.5t-214 -273.5z" />
    <glyph glyph-name="Edieresis" unicode="&#xcb;" horiz-adv-x="1730" 
d="M690 1745q-12 0 -21.5 10t-9.5 23t9.5 22.5t21.5 9.5q14 0 23.5 -9.5t9.5 -22.5q0 -14 -9.5 -23.5t-23.5 -9.5zM1069 1745q-12 0 -22.5 10t-10.5 23t10.5 22.5t22.5 9.5q14 0 23.5 -9.5t9.5 -22.5q0 -14 -10 -23.5t-23 -9.5zM750 0q232 -43 449.5 47t350.5 283l17 -2
q-135 -201 -358 -294.5t-461 -49.5q-161 30 -296.5 121t-222 217.5t-122 285.5t-5.5 320q40 215 181.5 378t345 235t418.5 32q221 -41 391 -196t235 -373q-277 -156 -605.5 -204.5t-684.5 25.5q-95 2 -168 -39.5t-100 -121.5q17 -126 73 -239t140 -198.5t192.5 -144.5
t229.5 -82zM186 1122q-6 -104 44 -174.5t147 -105.5q268 -60 522 -47t487 94q52 31 87 80.5t48.5 103.5t11 107.5t-21.5 97.5q-89 108 -209 180t-260 98q-170 32 -337 -9t-305 -151.5t-214 -273.5z" />
    <glyph glyph-name="Igrave" unicode="&#xcc;" horiz-adv-x="344" 
d="M178 0h-14v1556h14v-1556zM190 1745h-20l-133 219h18z" />
    <glyph glyph-name="Iacute" unicode="&#xcd;" horiz-adv-x="344" 
d="M180 0h-16v1556h16v-1556zM297 1964h20l-135 -219h-18z" />
    <glyph glyph-name="Icircumflex" unicode="&#xce;" horiz-adv-x="346" 
d="M180 0h-16v1556h16v-1556zM188 1964l136 -219h-21l-131 213l-131 -213h-18l133 219h32z" />
    <glyph glyph-name="Idieresis" unicode="&#xcf;" horiz-adv-x="344" 
d="M180 0h-16v1556h16v-1556zM39 1810q14 0 23.5 -9.5t9.5 -22.5q0 -14 -10 -23.5t-23 -9.5t-23 9.5t-10 23.5q0 13 9.5 22.5t23.5 9.5zM305 1810q14 0 23.5 -9.5t9.5 -22.5q0 -14 -10 -23.5t-23 -9.5t-23 9.5t-10 23.5q0 13 9.5 22.5t23.5 9.5z" />
    <glyph glyph-name="Eth" unicode="&#xd0;" horiz-adv-x="1255" 
d="M924 1337q118 -112 180.5 -256t62.5 -303q0 -161 -66 -307t-177 -252t-264.5 -168.5t-321.5 -62.5q-72 0 -143 12v770h-105v16h105v770q76 13 143 13q166 0 317.5 -60t268.5 -172zM537 27q175 42 314.5 150t219.5 265.5t80 335.5t-80 335.5t-219.5 266t-314.5 150.5
q-71 -7 -132 -33t-100.5 -62.5t-60 -61.5t-35.5 -50v-537h102v-16h-102v-537q11 -18 24 -35.5t43 -48t63.5 -53.5t86 -43t111.5 -26z" />
    <glyph glyph-name="Ntilde" unicode="&#xd1;" horiz-adv-x="1298" 
d="M457 1800q-14 -19 -23 -55h-18q10 43 26 65q29 39 70 39q52 0 145 -61q57 -34 74 -39q62 -19 92 2q29 17 41 76h19q-12 -66 -49 -90q-21 -15 -52 -15q-28 0 -55 11q-22 7 -80 43q-93 55 -131 55q-34 0 -59 -31zM1118 1556h17v-1556h-17l-712 1190q-23 10 -44 16
t-37.5 9.5t-32.5 2t-26 -2.5t-22 -8t-18 -10t-15.5 -13t-12 -12.5t-10.5 -13t-8 -11.5v-1147h-16v1556h39l686 -1138q70 -32 116.5 -40.5t70 -1t42.5 29.5v1150z" />
    <glyph glyph-name="Ograve" unicode="&#xd2;" 
d="M897 1587q164 0 314 -64t258.5 -172.5t172.5 -258.5t64 -314t-64 -314t-172.5 -258.5t-258.5 -172.5t-314 -64t-314 64t-258.5 172.5t-172.5 258.5t-64 314t64 314t172.5 258.5t258.5 172.5t314 64zM897 -14q214 0 397 106.5t289.5 289t106.5 396.5q0 161 -63 307.5
t-169.5 253t-253 169.5t-307.5 63t-308 -63t-253 -169.5t-169 -253t-63 -307.5t63 -307.5t169 -252.5t253 -169t308 -63zM918 1745h-19l-133 219h18z" />
    <glyph glyph-name="Oacute" unicode="&#xd3;" 
d="M897 1587q164 0 314 -64t258.5 -172.5t172.5 -258.5t64 -314t-64 -314t-172.5 -258.5t-258.5 -172.5t-314 -64t-314 64t-258.5 172.5t-172.5 258.5t-64 314t64 314t172.5 258.5t258.5 172.5t314 64zM897 -14q214 0 397 106.5t289.5 289t106.5 396.5q0 161 -63 307.5
t-169.5 253t-253 169.5t-307.5 63t-308 -63t-253 -169.5t-169 -253t-63 -307.5t63 -307.5t169 -252.5t253 -169t308 -63zM973 1964l-133 -219h-21l135 219h19z" />
    <glyph glyph-name="Ocircumflex" unicode="&#xd4;" 
d="M897 1587q164 0 314 -64t258.5 -172.5t172.5 -258.5t64 -314t-64 -314t-172.5 -258.5t-258.5 -172.5t-314 -64t-314 64t-258.5 172.5t-172.5 258.5t-64 314t64 314t172.5 258.5t258.5 172.5t314 64zM897 -14q214 0 397 106.5t289.5 289t106.5 396.5q0 161 -63 307.5
t-169.5 253t-253 169.5t-307.5 63t-308 -63t-253 -169.5t-169 -253t-63 -307.5t63 -307.5t169 -252.5t253 -169t308 -63zM897 1958l-131 -213h-18l133 219h32l134 -219h-19z" />
    <glyph glyph-name="Otilde" unicode="&#xd5;" 
d="M897 1587q164 0 314 -64t258.5 -172.5t172.5 -258.5t64 -314t-64 -314t-172.5 -258.5t-258.5 -172.5t-314 -64t-314 64t-258.5 172.5t-172.5 258.5t-64 314t64 314t172.5 258.5t258.5 172.5t314 64zM897 -14q214 0 397 106.5t289.5 289t106.5 396.5q0 161 -63 307.5
t-169.5 253t-253 169.5t-307.5 63t-308 -63t-253 -169.5t-169 -253t-63 -307.5t63 -307.5t169 -252.5t253 -169t308 -63zM705 1800q-14 -19 -23 -55h-18q9 39 26 65q29 39 70 39q52 0 145 -61q57 -34 74 -39q62 -19 92 2q29 17 41 76h18q-15 -68 -49 -90q-21 -15 -51 -15
t-55 11q-14 4 -80 41v2q-93 55 -131 55q-34 0 -59 -31z" />
    <glyph glyph-name="Odieresis" unicode="&#xd6;" 
d="M897 1587q164 0 314 -64t258.5 -172.5t172.5 -258.5t64 -314t-64 -314t-172.5 -258.5t-258.5 -172.5t-314 -64t-314 64t-258.5 172.5t-172.5 258.5t-64 314t64 314t172.5 258.5t258.5 172.5t314 64zM897 -14q214 0 397 106.5t289.5 289t106.5 396.5q0 161 -63 307.5
t-169.5 253t-253 169.5t-307.5 63t-308 -63t-253 -169.5t-169 -253t-63 -307.5t63 -307.5t169 -252.5t253 -169t308 -63zM764 1745q-14 0 -23.5 9.5t-9.5 23.5q0 13 9.5 22.5t23.5 9.5t23.5 -9.5t9.5 -22.5q0 -14 -9.5 -23.5t-23.5 -9.5zM1030 1745q-14 0 -23.5 9.5
t-9.5 23.5q0 13 9.5 22.5t23.5 9.5t23.5 -9.5t9.5 -22.5q0 -14 -9.5 -23.5t-23.5 -9.5z" />
    <glyph glyph-name="multiply" unicode="&#xd7;" horiz-adv-x="598" 
d="M496 1020l-187 -184l187 -187l-13 -10l-184 184l-186 -184l-11 10l185 187l-185 184l11 12l186 -186l184 186z" />
    <glyph glyph-name="Oslash" unicode="&#xd8;" horiz-adv-x="1804" 
d="M1427 1391q133 -112 209 -273t76 -342q0 -164 -64 -314t-172.5 -258.5t-258.5 -172.5t-314 -64q-150 0 -287 53.5t-247 149.5l-146 -170h-22l155 180q-124 115 -193 268.5t-69 327.5q0 164 64 314t172.5 258.5t258.5 172.5t314 64q288 0 512 -182l133 153h25zM367 193
l1038 1198q-220 178 -502 178q-161 0 -308 -63t-253 -169t-168.5 -253t-62.5 -308q0 -169 68 -320.5t188 -262.5zM903 -16q214 0 397 106.5t289.5 289t106.5 396.5q0 178 -74.5 334.5t-204.5 267.5l-1038 -1196q227 -198 524 -198z" />
    <glyph glyph-name="Ugrave" unicode="&#xd9;" horiz-adv-x="1148" 
d="M995 444q0 -233 -116 -356q-111 -117 -304 -117h-2q-195 0 -303 117q-118 125 -118 356v1112h16v-1112q-1 -16 1 -47.5t10 -84t34.5 -111t67.5 -103.5q104 -110 292 -110q189 0 293 110q42 45 69 105.5t33.5 107.5t10.5 87.5t0 45.5v1112h16v-1112zM651 1745h-20
l-133 219h18z" />
    <glyph glyph-name="Uacute" unicode="&#xda;" horiz-adv-x="1148" 
d="M995 444q0 -233 -116 -356q-111 -117 -304 -117h-2q-195 0 -303 117q-118 125 -118 356v1112h16v-1112q-1 -16 1 -47.5t10 -84t34.5 -111t67.5 -103.5q104 -110 292 -110q189 0 293 110q42 45 69 105.5t33.5 107.5t10.5 87.5t0 45.5v1112h16v-1112zM651 1964l-135 -219
h-18l133 219h20z" />
    <glyph glyph-name="Ucircumflex" unicode="&#xdb;" horiz-adv-x="1153" 
d="M997 442q0 -233 -116 -356q-111 -117 -303 -117h-3q-195 0 -303 117q-118 125 -118 356v1114h16v-1114q-1 -16 1 -47.5t10 -84t34.5 -111t67.5 -103.5q104 -110 292 -110q189 0 293 110q42 45 69 105.5t33.5 107.5t10.5 87.5t0 45.5v1114h16v-1114zM561 1960l-129 -215
h-20l133 219h33l135 -219h-21z" />
    <glyph glyph-name="Udieresis" unicode="&#xdc;" horiz-adv-x="1153" 
d="M997 442q0 -233 -116 -356q-111 -117 -303 -117h-3q-195 0 -303 117q-118 125 -118 356v1114h16v-1114q-1 -16 1 -47.5t10 -84t34.5 -111t67.5 -103.5q104 -110 292 -110q189 0 293 110q42 45 69 105.5t33.5 107.5t10.5 87.5t0 45.5v1114h16v-1114zM387 1745
q-13 0 -23 9.5t-10 23.5q0 13 9.5 22.5t23.5 9.5t23.5 -9.5t9.5 -22.5q0 -14 -10 -23.5t-23 -9.5zM766 1745q-14 0 -23.5 9.5t-9.5 23.5q0 13 9.5 22.5t23.5 9.5q12 0 22.5 -9.5t10.5 -22.5t-10.5 -23t-22.5 -10z" />
    <glyph glyph-name="Yacute" unicode="&#xdd;" horiz-adv-x="1105" 
d="M1075 1556h17l-531 -911v-645h-16v643v2l-531 911h15l348 -591q73 -70 172 -70h6q102 0 174 72zM629 1964l-133 -219h-21l135 219h19z" />
    <glyph glyph-name="Thorn" unicode="&#xde;" horiz-adv-x="880" 
d="M449 1135q171 -19 270.5 -120t99.5 -255q0 -94 -47.5 -173.5t-130.5 -123.5q-72 -41 -166 -41h-295v-422h-16v1556h16v-421h269zM535 442q117 20 192.5 110.5t75.5 207.5q0 149 -95 244t-264 114h-264v-680h295q35 0 60 4z" />
    <glyph glyph-name="germandbls" unicode="&#xdf;" horiz-adv-x="1198" 
d="M735 872q156 -28 259.5 -150t103.5 -284q0 -120 -59.5 -221.5t-161 -160t-220.5 -58.5v14q175 0 299.5 124.5t124.5 301.5t-124.5 301.5t-299.5 124.5v15q143 0 245 102t102 246q0 142 -102 244t-245 102q-208 0 -340 -123q-151 -142 -151 -428v-1022h-16v1022
q0 292 157 440q134 125 350 125q149 0 255 -105.5t106 -254.5q0 -129 -80 -228t-203 -127z" />
    <glyph glyph-name="agrave" unicode="&#xe0;" horiz-adv-x="1531" 
d="M823 1499l684 -1499h-18l-565 1245l-2 2q-25 35 -71 59t-85 27h-12q-48 0 -93.5 -27.5t-74.5 -74.5l-543 -1231h-16l661 1499q25 60 68 60q42 0 67 -60zM752 1745h-21l-133 219h18z" />
    <glyph glyph-name="aacute" unicode="&#xe1;" horiz-adv-x="1531" 
d="M823 1499l684 -1499h-18l-565 1245l-2 2q-25 35 -71 59t-85 27h-12q-48 0 -93.5 -27.5t-74.5 -74.5l-543 -1231h-16l661 1499q25 60 68 60q42 0 67 -60zM891 1964l-133 -219h-21l135 219h19z" />
    <glyph glyph-name="acircumflex" unicode="&#xe2;" horiz-adv-x="1531" 
d="M823 1499l684 -1499h-18l-565 1245l-2 2q-25 35 -71 59t-85 27h-12q-48 0 -93.5 -27.5t-74.5 -74.5l-543 -1231h-16l661 1499q25 60 68 60q42 0 67 -60zM750 1960l-132 -215h-20l135 219h31l135 -219h-20z" />
    <glyph glyph-name="atilde" unicode="&#xe3;" horiz-adv-x="1531" 
d="M823 1499l684 -1499h-18l-565 1245l-2 2q-25 35 -71 59t-85 27h-12q-48 0 -93.5 -27.5t-74.5 -74.5l-543 -1231h-16l661 1499q25 60 68 60q42 0 67 -60zM575 1800q-17 -28 -22 -55h-18q5 33 26 65q26 39 70 39q50 0 143 -61q8 -4 20.5 -11.5l20 -12t17.5 -9t18 -6.5
q56 -20 92 2q27 18 39 76h18q-12 -68 -47 -92q-26 -15 -53 -15q-18 0 -55 11q-11 4 -23.5 10.5t-30 17t-26.5 15.5q-91 57 -131 57q-36 0 -58 -31z" />
    <glyph glyph-name="adieresis" unicode="&#xe4;" horiz-adv-x="1531" 
d="M823 1499l684 -1499h-18l-565 1245l-2 2q-25 35 -71 59t-85 27h-12q-48 0 -93.5 -27.5t-74.5 -74.5l-543 -1231h-16l661 1499q25 60 68 60q42 0 67 -60zM559 1747q-12 0 -22.5 10.5t-10.5 22.5q0 13 10.5 22.5t22.5 9.5q14 0 23.5 -9.5t9.5 -22.5q0 -12 -10 -22.5
t-23 -10.5zM938 1747q-13 0 -23 10.5t-10 22.5q0 13 9.5 22.5t23.5 9.5t23.5 -9.5t9.5 -22.5q0 -12 -10 -22.5t-23 -10.5z" />
    <glyph glyph-name="aring" unicode="&#xe5;" horiz-adv-x="1531" 
d="M823 1499l684 -1499h-18l-565 1245l-2 2q-25 35 -71 59t-85 27h-12q-48 0 -93.5 -27.5t-74.5 -74.5l-543 -1231h-16l661 1499q25 60 68 60q42 0 67 -60zM745 1747q-91 0 -155 64t-64 155t64 154t155 63t154.5 -63t63.5 -154t-63.5 -155t-154.5 -64zM745 2169
q-84 0 -143 -59.5t-59 -143.5q0 -85 58.5 -144t143.5 -59q84 0 143.5 59.5t59.5 143.5q0 83 -60 143t-143 60z" />
    <glyph glyph-name="ae" unicode="&#xe6;" horiz-adv-x="2013" 
d="M1333 16h658v-16h-912v119l453 676l4 6l-446 737l-1055 -1538h-19l1063 1556h912v-16h-568q-49 -12 -83.5 -38t-49 -55t-23.5 -61.5t-6 -58t3 -43.5l290 -483l-370 -555q-2 -30 2 -59t17.5 -64.5t46.5 -64t83 -42.5z" />
    <glyph glyph-name="ccedilla" unicode="&#xe7;" horiz-adv-x="1597" 
d="M897 1569q-324 0 -512 -202.5t-188 -535.5q0 -148 26.5 -272t69.5 -209.5t103 -152.5t122.5 -106t133.5 -64t129.5 -34t115.5 -9q176 0 330.5 71.5t265.5 198.5h20q-113 -132 -272 -209t-338 -78l-49 -73q123 -7 156 -64q26 -45 -15 -117q-2 -3 -5.5 -8.5t-16.5 -19
t-28 -23.5t-40.5 -18.5t-54.5 -8.5q-52 0 -113 27l8 14q48 -22 89.5 -25.5t66.5 5.5t44.5 24.5t27 26t8.5 14.5q38 62 16 101q-15 25 -57 39.5t-63.5 16t-36.5 1.5h-15l58 90q-129 2 -250.5 43.5t-219 116.5t-171.5 174t-114 221t-40 252q0 164 64 314t172.5 258.5
t258.5 172.5t314 64q196 0 366.5 -88t282.5 -240h-18q-111 144 -277 228t-354 84z" />
    <glyph glyph-name="egrave" unicode="&#xe8;" horiz-adv-x="1730" 
d="M860 1745h-20l-133 219h18zM750 0q232 -43 449.5 47t350.5 283l17 -2q-135 -201 -358 -294.5t-461 -49.5q-161 30 -296.5 121t-222 217.5t-122 285.5t-5.5 320q40 215 181.5 378t345 235t418.5 32q222 -41 392.5 -196t233.5 -373q-277 -156 -605.5 -204.5t-684.5 25.5
q-95 2 -168 -39.5t-100 -121.5q17 -126 73 -239t140 -198.5t192.5 -144.5t229.5 -82zM186 1122q-6 -104 44 -174.5t147 -105.5q268 -60 522 -47t487 94q52 31 87 80.5t48.5 103.5t11 107.5t-21.5 97.5q-89 108 -209 180t-260 98q-170 32 -337 -9t-305 -151.5t-214 -273.5z
" />
    <glyph glyph-name="eacute" unicode="&#xe9;" horiz-adv-x="1730" 
d="M985 1964l-133 -219h-18l133 219h18zM750 0q232 -43 449.5 47t350.5 283l17 -2q-135 -201 -358 -294.5t-461 -49.5q-161 30 -296.5 121t-222 217.5t-122 285.5t-5.5 320q40 215 181.5 378t345 235t418.5 32q222 -41 392.5 -196t233.5 -373q-277 -156 -605.5 -204.5
t-684.5 25.5q-95 2 -168 -39.5t-100 -121.5q17 -126 73 -239t140 -198.5t192.5 -144.5t229.5 -82zM186 1122q-6 -104 44 -174.5t147 -105.5q268 -60 522 -47t487 94q52 31 87 80.5t48.5 103.5t11 107.5t-21.5 97.5q-89 108 -209 180t-260 98q-170 32 -337 -9t-305 -151.5
t-214 -273.5z" />
    <glyph glyph-name="ecircumflex" unicode="&#xea;" horiz-adv-x="1730" 
d="M881 1958l-131 -213h-19l133 219h33l133 -219h-18zM750 0q232 -43 449.5 47t350.5 283l17 -2q-135 -201 -358 -294.5t-461 -49.5q-161 30 -296.5 121t-222 217.5t-122 285.5t-5.5 320q40 215 181.5 378t345 235t418.5 32q222 -41 392.5 -196t233.5 -373
q-277 -156 -605.5 -204.5t-684.5 25.5q-95 2 -168 -39.5t-100 -121.5q17 -126 73 -239t140 -198.5t192.5 -144.5t229.5 -82zM186 1122q-6 -104 44 -174.5t147 -105.5q268 -60 522 -47t487 94q52 31 87 80.5t48.5 103.5t11 107.5t-21.5 97.5q-89 108 -209 180t-260 98
q-170 32 -337 -9t-305 -151.5t-214 -273.5z" />
    <glyph glyph-name="edieresis" unicode="&#xeb;" horiz-adv-x="1730" 
d="M690 1745q-12 0 -21.5 10t-9.5 23t9.5 22.5t21.5 9.5q14 0 23.5 -9.5t9.5 -22.5q0 -14 -9.5 -23.5t-23.5 -9.5zM1069 1745q-12 0 -22.5 10t-10.5 23t10.5 22.5t22.5 9.5q14 0 23.5 -9.5t9.5 -22.5q0 -14 -10 -23.5t-23 -9.5zM750 0q232 -43 449.5 47t350.5 283l17 -2
q-135 -201 -358 -294.5t-461 -49.5q-161 30 -296.5 121t-222 217.5t-122 285.5t-5.5 320q40 215 181.5 378t345 235t418.5 32q221 -41 391 -196t235 -373q-277 -156 -605.5 -204.5t-684.5 25.5q-95 2 -168 -39.5t-100 -121.5q17 -126 73 -239t140 -198.5t192.5 -144.5
t229.5 -82zM186 1122q-6 -104 44 -174.5t147 -105.5q268 -60 522 -47t487 94q52 31 87 80.5t48.5 103.5t11 107.5t-21.5 97.5q-89 108 -209 180t-260 98q-170 32 -337 -9t-305 -151.5t-214 -273.5z" />
    <glyph glyph-name="igrave" unicode="&#xec;" horiz-adv-x="344" 
d="M178 0h-14v1556h14v-1556zM190 1745h-20l-133 219h18z" />
    <glyph glyph-name="iacute" unicode="&#xed;" horiz-adv-x="344" 
d="M180 0h-16v1556h16v-1556zM297 1964h20l-135 -219h-18z" />
    <glyph glyph-name="icircumflex" unicode="&#xee;" horiz-adv-x="346" 
d="M180 0h-16v1556h16v-1556zM188 1964l136 -219h-21l-131 215l-131 -215h-18l133 219h32z" />
    <glyph glyph-name="idieresis" unicode="&#xef;" horiz-adv-x="344" 
d="M180 0h-16v1556h16v-1556zM39 1810q14 0 23.5 -9.5t9.5 -22.5q0 -14 -10 -23.5t-23 -9.5t-23 9.5t-10 23.5q0 13 9.5 22.5t23.5 9.5zM305 1810q14 0 23.5 -9.5t9.5 -22.5q0 -14 -10 -23.5t-23 -9.5t-23 9.5t-10 23.5q0 13 9.5 22.5t23.5 9.5z" />
    <glyph glyph-name="eth" unicode="&#xf0;" horiz-adv-x="1255" 
d="M924 1337q118 -112 180.5 -256t62.5 -303q0 -161 -66 -307t-177 -252t-264.5 -168.5t-321.5 -62.5q-72 0 -143 12v770h-105v16h105v770q76 13 143 13q166 0 317.5 -60t268.5 -172zM537 27q175 42 314.5 150t219.5 265.5t80 335.5t-80 335.5t-219.5 266t-314.5 150.5
q-58 -5 -110 -24.5t-86 -42t-64 -52.5t-43.5 -48.5t-24.5 -37.5v-539h102v-16h-102v-534q11 -18 24 -36.5t42.5 -49t63.5 -54t86.5 -43.5t111.5 -26z" />
    <glyph glyph-name="ntilde" unicode="&#xf1;" horiz-adv-x="1298" 
d="M457 1800q-14 -19 -23 -55h-18q10 43 26 65q29 39 70 39q52 0 145 -61q49 -29 74 -39q62 -19 92 2q29 17 41 76h19q-12 -66 -49 -90q-21 -15 -52 -15q-28 0 -55 11q-22 7 -80 43q-88 55 -131 55q-34 0 -59 -31zM1118 1556h17v-1556h-17l-712 1190q-23 10 -44 16
t-37.5 9.5t-32.5 2t-26 -2.5t-22 -8t-18 -10t-15.5 -13t-12 -12.5t-10.5 -13t-8 -11.5v-1147h-16v1556h39l686 -1138q70 -32 116.5 -40.5t70 -1t42.5 29.5v1150z" />
    <glyph glyph-name="ograve" unicode="&#xf2;" 
d="M897 1585q164 0 314 -64t258.5 -172.5t172.5 -258.5t64 -314q0 -218 -108.5 -404.5t-295 -295.5t-405.5 -109t-405.5 109t-295 295.5t-108.5 404.5q0 164 64 314t172.5 258.5t258.5 172.5t314 64zM897 -16q214 0 397 106.5t289.5 289t106.5 396.5q0 161 -63 308
t-169.5 253t-253 169t-307.5 63t-308 -63t-253 -169t-169 -253t-63 -308t63 -307.5t169 -252.5t253 -169t308 -63zM918 1745h-19l-133 217h18z" />
    <glyph glyph-name="oacute" unicode="&#xf3;" 
d="M897 1585q164 0 314 -64t258.5 -172.5t172.5 -258.5t64 -314q0 -218 -108.5 -404.5t-295 -295.5t-405.5 -109t-405.5 109t-295 295.5t-108.5 404.5q0 164 64 314t172.5 258.5t258.5 172.5t314 64zM897 -16q214 0 397 106.5t289.5 289t106.5 396.5q0 161 -63 308
t-169.5 253t-253 169t-307.5 63t-308 -63t-253 -169t-169 -253t-63 -308t63 -307.5t169 -252.5t253 -169t308 -63zM973 1962l-133 -217h-21l135 217h19z" />
    <glyph glyph-name="ocircumflex" unicode="&#xf4;" 
d="M897 1589q219 0 405.5 -109t295 -295.5t108.5 -404.5q0 -164 -64 -314t-172.5 -258.5t-258.5 -172.5t-314 -64t-314 64t-258.5 172.5t-172.5 258.5t-64 314q0 218 108.5 404.5t295 295.5t405.5 109zM897 -12q161 0 307.5 62.5t253 168.5t169.5 253t63 308t-63 307.5
t-169.5 253t-253 169.5t-307.5 63t-308 -63t-253 -169.5t-169 -253t-63 -307.5t63 -308t169 -253t253 -168.5t308 -62.5zM897 1960l-131 -213h-18l133 219h32l134 -219h-19z" />
    <glyph glyph-name="otilde" unicode="&#xf5;" 
d="M897 1589q219 0 405.5 -109t295 -295.5t108.5 -404.5q0 -164 -64 -314t-172.5 -258.5t-258.5 -172.5t-314 -64t-314 64t-258.5 172.5t-172.5 258.5t-64 314q0 218 108.5 404.5t295 295.5t405.5 109zM897 -12q161 0 307.5 62.5t253 168.5t169.5 253t63 308t-63 307.5
t-169.5 253t-253 169.5t-307.5 63t-308 -63t-253 -169.5t-169 -253t-63 -307.5t63 -308t169 -253t253 -168.5t308 -62.5zM705 1802q-15 -24 -23 -55h-18q9 39 26 65q29 39 70 39q52 0 145 -61q57 -34 74 -39q59 -21 92 2q29 17 41 76h18q-15 -70 -49 -92q-26 -15 -51 -15
q-22 0 -55 11q-22 7 -80 43q-91 57 -131 57q-34 0 -59 -31z" />
    <glyph glyph-name="odieresis" unicode="&#xf6;" 
d="M897 1589q219 0 405.5 -109t295 -295.5t108.5 -404.5q0 -164 -64 -314t-172.5 -258.5t-258.5 -172.5t-314 -64t-314 64t-258.5 172.5t-172.5 258.5t-64 314q0 218 108.5 404.5t295 295.5t405.5 109zM897 -12q161 0 307.5 62.5t253 168.5t169.5 253t63 308t-63 307.5
t-169.5 253t-253 169.5t-307.5 63t-308 -63t-253 -169.5t-169 -253t-63 -307.5t63 -308t169 -253t253 -168.5t308 -62.5zM764 1747q-14 0 -23.5 9.5t-9.5 23.5q0 13 9.5 22.5t23.5 9.5t23.5 -9.5t9.5 -22.5q0 -14 -9.5 -23.5t-23.5 -9.5zM1030 1747q-14 0 -23.5 9.5
t-9.5 23.5q0 13 9.5 22.5t23.5 9.5t23.5 -9.5t9.5 -22.5q0 -14 -9.5 -23.5t-23.5 -9.5z" />
    <glyph glyph-name="divide" unicode="&#xf7;" horiz-adv-x="976" 
d="M930 625h-883v16h883v-16zM487 336q13 0 23 -10t10 -23t-10 -23t-23 -10q-12 0 -22 10t-10 23t10 23t22 10zM487 928q-12 0 -22 10t-10 23q0 12 10 22t22 10q13 0 23 -10t10 -22q0 -13 -10 -23t-23 -10z" />
    <glyph glyph-name="oslash" unicode="&#xf8;" horiz-adv-x="1804" 
d="M1427 1395q133 -112 209 -273t76 -342q0 -164 -64 -314t-172.5 -258.5t-258.5 -172.5t-314 -64q-305 0 -534 203l-146 -170h-22l155 180q-123 112 -192.5 267t-69.5 329q0 164 64 314t172.5 258.5t258.5 172.5t314 64q290 0 512 -184l133 156h25zM367 197l1038 1198
q-220 178 -502 178q-161 0 -308 -63t-253 -169t-168.5 -253t-62.5 -308q0 -170 67.5 -321t188.5 -262zM903 -12q214 0 397 106.5t289.5 289t106.5 396.5q0 178 -74.5 334.5t-204.5 267.5l-1038 -1196q223 -198 524 -198z" />
    <glyph glyph-name="ugrave" unicode="&#xf9;" horiz-adv-x="1153" 
d="M997 436q0 -231 -116 -356q-114 -117 -303 -117h-3q-192 0 -303 117q-118 127 -118 356v1114h16v-1114q-1 -16 1 -47.5t10 -84t34.5 -110.5t67.5 -102q103 -112 292 -112q190 0 293 112q42 44 69 104t33.5 107t10.5 87.5t0 45.5v1114h16v-1114zM653 1739h-20l-133 219h18
z" />
    <glyph glyph-name="uacute" unicode="&#xfa;" horiz-adv-x="1153" 
d="M997 436q0 -231 -116 -356q-114 -117 -303 -117h-3q-192 0 -303 117q-118 127 -118 356v1114h16v-1114q-1 -16 1 -47.5t10 -84t34.5 -110.5t67.5 -102q103 -112 292 -112q190 0 293 112q42 44 69 104t33.5 107t10.5 87.5t0 45.5v1114h16v-1114zM653 1958l-135 -219h-18
l133 219h20z" />
    <glyph glyph-name="ucircumflex" unicode="&#xfb;" horiz-adv-x="1153" 
d="M997 436q0 -233 -116 -356q-111 -117 -303 -117h-3q-195 0 -303 117q-118 125 -118 356v1112h16v-1114q-1 -15 1 -46t10 -83t34.5 -111t67.5 -104q104 -110 292 -113q189 3 293 113q42 45 69 105.5t33.5 107.5t10.5 87t0 44v1114h16v-1112zM561 1952l-129 -213h-20
l133 219h33l135 -219h-21z" />
    <glyph glyph-name="udieresis" unicode="&#xfc;" horiz-adv-x="1153" 
d="M997 436q0 -233 -116 -356q-111 -117 -303 -117h-3q-195 0 -303 117q-118 125 -118 356v1112h16v-1114q-1 -15 1 -46t10 -83t34.5 -111t67.5 -104q104 -110 292 -113q189 3 293 113q42 45 69 105.5t33.5 107.5t10.5 87t0 44v1114h16v-1112zM387 1739q-13 0 -23 9.5
t-10 23.5q0 13 9.5 22.5t23.5 9.5t23.5 -9.5t9.5 -22.5q0 -14 -10 -23.5t-23 -9.5zM766 1739q-14 0 -23.5 9.5t-9.5 23.5q0 13 9.5 22.5t23.5 9.5q12 0 22.5 -9.5t10.5 -22.5t-10.5 -23t-22.5 -10z" />
    <glyph glyph-name="yacute" unicode="&#xfd;" horiz-adv-x="1105" 
d="M1075 1556h17l-531 -911v-645h-16v643v2l-531 911h15l348 -591q73 -70 172 -70h6q102 0 174 72zM629 1964l-133 -219h-21l135 219h19z" />
    <glyph glyph-name="thorn" unicode="&#xfe;" horiz-adv-x="880" 
d="M449 1135q171 -19 270.5 -120t99.5 -255q0 -94 -47.5 -173.5t-130.5 -123.5q-72 -41 -166 -41h-295v-422h-16v1556h16v-421h269zM535 442q117 20 192.5 110.5t75.5 207.5q0 149 -95 244t-264 114h-264v-680h295q35 0 60 4z" />
    <glyph glyph-name="ydieresis" unicode="&#xff;" horiz-adv-x="1101" 
d="M1073 1559h17l-531 -912v-645h-16v643v2l-531 912h15l348 -592q73 -70 172 -70h6q102 0 174 72zM360 1745q-12 0 -22 10t-10 23t10 22.5t22 9.5q14 0 23.5 -9.5t9.5 -22.5q0 -14 -9.5 -23.5t-23.5 -9.5zM739 1745q-12 0 -22 10t-10 23t10 22.5t22 9.5q14 0 23.5 -9.5
t9.5 -22.5q0 -14 -10 -23.5t-23 -9.5z" />
    <glyph glyph-name="dotlessi" unicode="&#x131;" horiz-adv-x="344" 
d="M180 0h-16v1556h16v-1556z" />
    <glyph glyph-name="Lslash" unicode="&#x141;" horiz-adv-x="956" 
d="M662 16h290v-16h-753v700l-99 -139l-16 4l115 160v831h16v-808l107 147l16 -4l-123 -168v-313q3 -59 36 -125.5t88 -126t140.5 -99.5t182.5 -43z" />
    <glyph glyph-name="lslash" unicode="&#x142;" horiz-adv-x="956" 
d="M662 16h290v-16h-753v700l-99 -139l-16 4l115 160v831h16v-808l107 147l16 -4l-123 -168v-313q3 -59 36 -125.5t88 -126t140.5 -99.5t182.5 -43z" />
    <glyph glyph-name="OE" unicode="&#x152;" horiz-adv-x="2297" 
d="M1618 16h655v-16h-981v14l109 164q-220 -178 -504 -178q-164 0 -314 64t-258.5 172.5t-172.5 258.5t-64 314q0 218 108.5 404.5t295 295.5t405.5 109q166 0 314 -64t259 -178l-98 164v16h901v-16h-565q-49 -12 -84.5 -38t-50 -55t-24 -61.5t-6.5 -58t3 -43.5l291 -483
l-371 -555q-2 -30 2.5 -59t18.5 -64t47.5 -64t83.5 -43zM897 16q153 0 291 55.5t246 155.5l385 574l-301 502q-111 139 -274 219t-347 80q-161 0 -308 -63t-253 -169.5t-169 -253t-63 -307.5t63 -308t169 -253t253 -169t308 -63z" />
    <glyph glyph-name="oe" unicode="&#x153;" horiz-adv-x="2295" 
d="M1618 16h655v-16h-981v14l109 164q-220 -178 -504 -178q-164 0 -314 64t-258.5 172.5t-172.5 258.5t-64 314t64 314t172.5 258.5t258.5 172.5t314 64q166 0 314 -64t259 -178l-98 164v16h901v-16h-565q-49 -12 -84.5 -38t-50 -55t-24 -61.5t-6.5 -58t3 -43.5l291 -483
l-371 -555q-2 -30 2.5 -59t18.5 -64t47.5 -64t83.5 -43zM897 16q153 0 291 55.5t246 155.5l385 574l-301 502q-111 139 -274 219t-347 80q-161 0 -308 -63t-253 -169.5t-169 -253t-63 -307.5t63 -308t169 -253t253 -169t308 -63z" />
    <glyph glyph-name="Scaron" unicode="&#x160;" horiz-adv-x="960" 
d="M483 903q47 -28 69 -41t65.5 -41t65.5 -45t57.5 -46t54.5 -52t42.5 -55.5t35 -63t20 -68t8.5 -77.5q0 -120 -66 -222t-179 -161.5t-246 -59.5q-160 0 -287 82q-3 2 -5.5 39.5t-3.5 73.5l-1 37q68 -66 159.5 -103t190.5 -37q199 0 309.5 88.5t110.5 262.5q0 39 -8 75
t-18.5 65.5t-33.5 61t-40.5 53t-52.5 50t-56 45t-65 44.5t-65.5 41t-70.5 42q-82 48 -128 77.5t-107 78t-99 96.5q-49 61 -60.5 130t6.5 125t58 99q85 91 213 94h21q29 0 67 -10q31 -7 52 -20l-7 -15q-4 2 -12 6.5t-12 6.5q-23 8 -51 12q-30 6 -58 6q-33 -1 -69.5 -11
t-74 -33.5t-66 -56t-44 -82t-8.5 -108.5q8 -69 62 -135q36 -46 96 -94t104.5 -76.5t126.5 -77.5zM354 1745h-32l-136 219h21l131 -213l129 213h20z" />
    <glyph glyph-name="scaron" unicode="&#x161;" horiz-adv-x="960" 
d="M483 903q47 -28 69 -41t65.5 -41t65.5 -45t57.5 -46t54.5 -52t42.5 -55.5t35 -63t20 -68t8.5 -77.5q0 -120 -66 -222t-179 -161.5t-246 -59.5q-160 0 -287 82q-3 2 -5.5 39.5t-3.5 73.5l-1 37q68 -66 159.5 -103t190.5 -37q199 0 309.5 88.5t110.5 262.5q0 39 -8 75
t-18.5 65.5t-33.5 61t-40.5 53t-52.5 50t-56 45t-65 44.5t-65.5 41t-70.5 42q-82 48 -128 77.5t-107 78t-99 96.5q-49 61 -60.5 130t6.5 125t58 99q85 91 213 94h21q29 0 67 -10q31 -7 52 -20l-7 -15q-4 2 -12 6.5t-12 6.5q-23 8 -51 12q-30 6 -58 6q-33 -1 -69.5 -11
t-74 -33.5t-66 -56t-44 -82t-8.5 -108.5q8 -69 62 -135q36 -46 96 -94t104.5 -76.5t126.5 -77.5zM354 1745h-32l-136 219h21l131 -213l129 213h20z" />
    <glyph glyph-name="Ydieresis" unicode="&#x178;" horiz-adv-x="1105" 
d="M1075 1556h17l-531 -911v-645h-16v643v2l-531 911h15l348 -591q73 -70 172 -70h6q102 0 174 72zM362 1743q-12 0 -22 10t-10 23t10 22.5t22 9.5q14 0 23.5 -9.5t9.5 -22.5q0 -14 -9.5 -23.5t-23.5 -9.5zM741 1743q-12 0 -22 10t-10 23t10 22.5t22 9.5q14 0 23.5 -9.5
t9.5 -22.5q0 -14 -10 -23.5t-23 -9.5z" />
    <glyph glyph-name="Zcaron" unicode="&#x17d;" horiz-adv-x="999" 
d="M334 16h631v-16h-934v6l766 1311v2q0 72 -38.5 131.5t-101.5 89.5h-548v16h841v-10l-760 -1296v-10q0 -74 40 -134t104 -90zM514 1745h-33l-133 219h19l131 -213l131 213h18z" />
    <glyph glyph-name="zcaron" unicode="&#x17e;" horiz-adv-x="999" 
d="M334 16h631v-16h-934v6l766 1311v2q0 72 -38.5 131.5t-101.5 89.5h-548v16h841v-10l-760 -1296v-10q0 -74 40 -134t104 -90zM514 1745h-33l-133 219h19l131 -213l131 213h18z" />
    <glyph glyph-name="circumflex" unicode="&#x2c6;" horiz-adv-x="481" 
d="M256 1556l135 -217h-20l-131 213l-131 -213h-19l133 217h33z" />
    <glyph glyph-name="caron" unicode="&#x2c7;" horiz-adv-x="473" 
d="M367 1556h20l-135 -217h-33l-133 217h18l132 -213z" />
    <glyph glyph-name="tilde" unicode="&#x2dc;" horiz-adv-x="632" 
d="M530 1516h17q-12 -69 -47 -91q-24 -14 -51 -14q-25 0 -58 10q-20 7 -78 43h-2q-89 58 -129 58q-36 0 -59 -33q-18 -26 -23 -53h-18q9 38 27 63q27 41 69 41q46 0 146 -61q61 -36 73 -41q62 -19 92 2q29 20 41 76z" />
    <glyph glyph-name="endash" unicode="&#x2013;" horiz-adv-x="829" 
d="M788 705h-747v16h747v-16z" />
    <glyph glyph-name="emdash" unicode="&#x2014;" horiz-adv-x="1239" 
d="M1198 705h-1157v16h1157v-16z" />
    <glyph glyph-name="quoteleft" unicode="&#x2018;" horiz-adv-x="329" 
d="M223 1556h21l-135 -217h-19z" />
    <glyph glyph-name="quoteright" unicode="&#x2019;" horiz-adv-x="329" 
d="M223 1556h21l-135 -217h-19z" />
    <glyph glyph-name="quotesinglbase" unicode="&#x201a;" horiz-adv-x="258" 
d="M156 160h16l-156 -375h-16z" />
    <glyph glyph-name="quotereversed" unicode="&#x201b;" horiz-adv-x="329" 
d="M104 1556l136 -217h-21l-133 217h18z" />
    <glyph glyph-name="quotedblleft" unicode="&#x201c;" horiz-adv-x="524" 
d="M90 1339l133 217h21l-135 -217h-19zM418 1556h18l-133 -217h-20z" />
    <glyph glyph-name="quotedblright" unicode="&#x201d;" horiz-adv-x="524" 
d="M90 1339l133 217h21l-135 -217h-19zM418 1556h18l-133 -217h-20z" />
    <glyph glyph-name="quotedblbase" unicode="&#x201e;" horiz-adv-x="483" 
d="M51 -57l133 217h21l-135 -217h-19zM379 160h18l-133 -217h-20z" />
    <glyph glyph-name="dagger" unicode="&#x2020;" horiz-adv-x="1024" 
d="M924 909v-16h-404v-1053h-16v1053h-406v16h406v488h16v-488h404z" />
    <glyph glyph-name="daggerdbl" unicode="&#x2021;" horiz-adv-x="1073" 
d="M948 893h-403v-481h403v-15h-403v-557h-17v557h-405v15h405v481h-405v16h405v488h17v-488h403v-16z" />
    <glyph glyph-name="bullet" unicode="&#x2022;" horiz-adv-x="258" 
d="M129 539q19 0 33 -15t14 -35t-14 -33.5t-33 -13.5q-20 0 -34.5 13.5t-14.5 33.5t14.5 35t34.5 15z" />
    <glyph glyph-name="ellipsis" unicode="&#x2026;" horiz-adv-x="643" 
d="M104 66q14 0 23.5 -10t9.5 -23t-9.5 -23t-23.5 -10q-13 0 -22.5 9.5t-9.5 23.5t9.5 23.5t22.5 9.5zM322 66q12 0 21 -10t9 -23t-9 -23t-21 -10q-14 0 -23.5 10t-9.5 23t9.5 23t23.5 10zM537 66q13 0 22.5 -9.5t9.5 -23.5t-9.5 -23.5t-22.5 -9.5t-23 10t-10 23t10 23
t23 10z" />
    <glyph glyph-name="perthousand" unicode="&#x2030;" horiz-adv-x="2498" 
d="M1294 1556h17l-994 -1556h-16zM723 1266q0 -123 -88 -211t-211 -88q-124 0 -211.5 88t-87.5 211q0 124 87.5 211.5t211.5 87.5q123 0 211 -87.5t88 -211.5zM141 1266q0 -112 79.5 -170t203.5 -58t203.5 58t79.5 170q0 117 -83 199.5t-200 82.5t-200 -82.5t-83 -199.5z
M1210 598q124 0 211.5 -88t87.5 -211q0 -125 -87.5 -212t-211.5 -87q-123 0 -211 87.5t-88 211.5q0 123 88 211t211 88zM1210 70q124 0 203.5 58.5t79.5 170.5q0 117 -83 200t-200 83t-199.5 -83t-82.5 -200q0 -112 79 -170.5t203 -58.5zM2079 598q124 0 211.5 -88
t87.5 -211q0 -125 -87 -212t-212 -87q-123 0 -211 87.5t-88 211.5q0 123 88 211t211 88zM2079 70q124 0 203 58.5t79 170.5q0 117 -82.5 200t-199.5 83t-200 -83t-83 -200q0 -112 79.5 -170.5t203.5 -58.5z" />
    <glyph glyph-name="guilsinglleft" unicode="&#x2039;" horiz-adv-x="464" 
d="M350 776l-219 -305l219 -303h-20l-217 303l219 305h18z" />
    <glyph glyph-name="guilsinglright" unicode="&#x203a;" horiz-adv-x="464" 
d="M131 776l219 -305l-217 -303h-20l219 303l-219 305h18z" />
    <glyph glyph-name="fraction" unicode="&#x2044;" horiz-adv-x="1189" 
d="M1087 1556h15l-993 -1556h-17z" />
    <glyph glyph-name="Euro" unicode="&#x20ac;" horiz-adv-x="1941" 
d="M1161 1573q-308 0 -494.5 -185t-203.5 -493h1171v-14h-1173v-45q0 -93 8 -158h1165v-16h-1163q19 -162 77 -286.5t130.5 -196t163.5 -117.5t167.5 -61t151.5 -15q175 0 330 72.5t266 199.5h21q-112 -134 -273 -210.5t-344 -76.5q-200 0 -373.5 91t-286.5 249t-141 351
h-245v16h243q-6 50 -6 102t6 101h-243v14h245q21 145 92.5 273t177 220t243.5 145.5t288 53.5q196 0 366.5 -87.5t282.5 -239.5h-18q-111 145 -276.5 229t-354.5 84z" />
    <glyph glyph-name="trademark" unicode="&#x2122;" horiz-adv-x="663" 
d="M92 1499v17h187v-17h-86v-227h-17v227h-84zM545 1516h16v-244h-16v215l-88 -129h-23l-88 129v-215h-16v244h16l100 -146z" />
    <glyph glyph-name="minus" unicode="&#x2212;" horiz-adv-x="622" 
d="M582 705h-541v16h541v-16z" />
    <glyph glyph-name="uni2400" unicode="&#x2400;" horiz-adv-x="0" 
 />
    <glyph glyph-name="uniF000" unicode="&#xf000;" horiz-adv-x="1716" 
d="M743 0q229 -43 445 46t348 282l18 -4q-135 -200 -356 -292t-457 -48q-160 30 -294 120t-219.5 215.5t-120.5 283t-5 317.5t120 294t215.5 219.5t283 120.5t317.5 5q220 -41 389 -195t232 -371q-274 -155 -600.5 -202.5t-677.5 26.5q-95 2 -168 -39.5t-98 -120.5
q33 -251 209 -431.5t419 -225.5zM1034 1542q-168 32 -333.5 -8.5t-303 -150t-213.5 -271.5q-9 -209 191 -278q518 -121 999 47q52 30 87 79t48.5 102t11 106.5t-21.5 97.5q-87 107 -207 178.5t-258 97.5z" />
    <glyph glyph-name="uniF01F" unicode="&#xf01f;" horiz-adv-x="1509" 
d="M1464 0l-233 532h-957l-235 -532h-16l661 1499q25 60 68 60q42 0 67 -60l662 -1499h-17zM281 549h942l-299 682q-29 47 -74.5 74.5t-95.5 27.5h-4q-48 0 -93.5 -27.5t-74.5 -74.5z" />
    <glyph glyph-name="uniF020" unicode="&#xf020;" horiz-adv-x="1650" 
d="M1487 1509v-1499h-19l2 1245v2q-9 35 -43.5 59t-72.5 27h-13q-47 0 -103 -28t-108 -76l-1101 -1229h-23l1346 1499q56 62 94 62q41 0 41 -62z" />
    <glyph glyph-name="uniF021" unicode="&#xf021;" horiz-adv-x="1652" 
d="M166 0l-2 1499q0 60 41 60q42 0 96 -60l1344 -1499h-23l-1100 1229q-112 104 -213 104h-12q-38 -3 -72.5 -27t-44.5 -59v-2l2 -1245h-16z" />
    <glyph glyph-name="uniF022" unicode="&#xf022;" horiz-adv-x="1636" 
d="M1473 1571v-1501q0 -60 -41 -60q-39 0 -95 62l-1345 1499h22l1102 -1229q52 -48 108 -76t103 -28h12q38 3 72.5 26.5t44.5 59.5v2l-2 1245h19z" />
    <glyph glyph-name="uniF023" unicode="&#xf023;" horiz-adv-x="1646" 
d="M162 59l2 1500h16l-2 -1246q10 -37 45 -60.5t72 -25.5h12q100 0 213 105l1100 1227h22l-1343 -1500q-56 -59 -96 -59q-41 0 -41 59z" />
    <glyph glyph-name="uniF024" unicode="&#xf024;" horiz-adv-x="1648" 
d="M1444 1559q41 0 41 -60v-1499h-19l2 635h-872l-569 -635h-23l1346 1499q54 60 94 60zM610 649h858v596v2q-10 35 -44.5 59t-71.5 27h-13q-47 0 -103 -28t-108 -76z" />
    <glyph glyph-name="uniF025" unicode="&#xf025;" horiz-adv-x="1652" 
d="M164 1499q0 60 41 60q42 0 96 -60l1344 -1499h-23l-567 635h-873v-635h-16zM182 649h858l-518 580q-112 104 -213 104h-12q-38 -3 -72.5 -27t-44.5 -59v-2z" />
    <glyph glyph-name="uniF02E" unicode="&#xf02e;" horiz-adv-x="1165" 
d="M985 1556h16v-1556h-16v487q-12 90 -87.5 155.5t-188.5 90.5h-263q-104 -24 -173.5 -80t-92.5 -139v-514h-16v1556h16v-587q24 -86 99.5 -142t185.5 -77h227q118 23 199 88t94 157v561z" />
    <glyph glyph-name="uniF030" unicode="&#xf030;" horiz-adv-x="1226" 
d="M516 1540q-48 -3 -102 -21.5t-106.5 -49.5t-91 -82.5t-48.5 -112.5q21 -317 106 -402q28 -28 64 -28h555v-17h-555q-39 0 -64 -28q-31 -31 -54 -95.5t-33 -125t-16 -134t-6.5 -99.5t-0.5 -44v-29q12 -59 51 -108.5t90.5 -80t104.5 -48t100 -19.5h688v-16h-1057v170
q0 26 6 143q0 39 4 94.5t14 137.5t35.5 155.5t61.5 110.5q25 21 39 25q-23 10 -39 26q-40 40 -66 123.5t-35 180.5t-11.5 142.5t-2.5 77.5v170h1057v-16h-688z" />
    <glyph glyph-name="uniF031" unicode="&#xf031;" horiz-adv-x="1110" 
d="M1079 1556h17l-531 -911v-2l-332 -643h-16l332 645l-531 911h15l348 -589q72 -72 174 -72h4q101 0 174 70z" />
    <glyph glyph-name="uniF033" unicode="&#xf033;" horiz-adv-x="970" 
d="M897 -14v-17q-164 0 -314 64t-258.5 172.5t-172.5 258.5t-64 314t64 314t172.5 258.5t258.5 172.5t314 64v-16q-161 0 -308 -63t-253 -169.5t-169 -253t-63 -307.5t63 -308t169 -253t253 -168.5t308 -62.5z" />
    <glyph glyph-name="uniF034" unicode="&#xf034;" horiz-adv-x="980" 
d="M84 1571v16q164 0 314 -64t258.5 -172.5t172.5 -258.5t64 -314t-64 -314t-172.5 -258.5t-258.5 -172.5t-314 -64v17q161 0 307.5 62.5t253 168.5t169.5 253t63 308t-63 307.5t-169.5 253t-253 169.5t-307.5 63z" />
    <glyph glyph-name="uniF038" unicode="&#xf038;" horiz-adv-x="1019" 
d="M897 1571q-161 0 -308 -63t-253 -169.5t-169 -253t-63 -307.5q0 -242 133 -439.5t349 -289.5q25 -7 65.5 -4.5t81 10.5t82 38t66.5 77v780h16v-981q-164 0 -314 64t-258.5 172.5t-172.5 258.5t-64 314t64 314t172.5 258.5t258.5 172.5t314 64v-16z" />
    <glyph glyph-name="uniF040" unicode="&#xf040;" horiz-adv-x="520" 
d="M256 723q48 -74 80.5 -131t66.5 -153.5t29 -170.5q-6 -114 -70 -216.5t-178 -184.5l-10 14q110 76 173 177t71 210q8 166 -176 445q-143 230 -152 422q-6 151 58.5 262.5t213.5 208.5l9 -13q-145 -96 -208 -204t-57 -254q9 -192 150 -412z" />
    <glyph glyph-name="uniF041" unicode="&#xf041;" horiz-adv-x="1875" 
d="M1839 1559h19l-746 -1549q-4 -13 -24.5 -10.5t-20.5 20.5l-82 1125q-2 27 -23 51t-55 31t-78 -21q0 -1 -151.5 -292t-307 -588.5t-163.5 -311.5q-5 -10 -15.5 -12.5t-19 5t-8.5 22.5v1530h16v-1143q82 -84 213 -13l563 1078q4 10 13 8t10 -16q73 -1078 86 -1151
q68 -63 174 -15z" />
    <glyph glyph-name="uniF042" unicode="&#xf042;" horiz-adv-x="1880" 
d="M39 0h-16l745 1550q4 12 24.5 9.5t20.5 -21.5l80 -1122q2 -27 23.5 -51.5t56 -32t78.5 21.5q604 1161 620 1192q6 10 17 13t19.5 -4.5t8.5 -22.5v-1532h-16v1145q-27 27 -59 37t-63 5t-51.5 -12.5t-39.5 -17.5l-563 -1079q-4 -10 -13 -8t-10 16q-11 168 -46 646.5
t-40 504.5q-72 67 -174 14z" />
    <glyph glyph-name="uniF044" unicode="&#xf044;" horiz-adv-x="1038" 
d="M1018 16v-16h-983v14l522 781l6 6l-448 739v16h903v-16h-567q-49 -12 -83.5 -38t-49.5 -55t-24 -61.5t-7 -58t2 -43.5l293 -483l-371 -555q-2 -30 2 -59t17.5 -64.5t46.5 -64t83 -42.5h658z" />
    <glyph glyph-name="uniF045" unicode="&#xf045;" horiz-adv-x="1542" 
d="M975 1536q300 0 536 -182l-8 -13q-236 179 -528 179q-176 0 -336 -69t-276 -185t-185 -276.5t-69 -336.5q0 -183 73.5 -350.5t208.5 -290.5l-10 -12q-138 126 -213.5 296.5t-75.5 356.5q0 179 70 342.5t188.5 282t282 188.5t342.5 70zM1067 1331q47 -1 98 -17t87.5 -35.5
t70.5 -43t48 -35.5t18 -16q11 -10 11 -27t-11 -27l-334 -350l-13 -8v2q-1 1 -2 5t0 9q0 2 6 123t12.5 255.5t8.5 164.5zM887 1262l59 -480q3 -16 -2 -16q-4 0 -12 8q-357 320 -404 365q31 36 74.5 65.5t83 45.5t77.5 26.5t58 14t23 3.5q15 2 28.5 -7.5t14.5 -24.5zM864 582
h15q1 -7 -5 -15l-270 -401q-9 -12 -24 -15.5t-29 5.5l-2 2q-119 86 -178 196q-23 42 -33 84q29 7 158.5 42.5t247 68t120.5 33.5zM375 608q-15 -3 -28.5 6.5t-14.5 24.5v2q-20 147 22 268q14 43 37 78l465 -285l10 -10q0 -3 -14 -6z" />
    <glyph glyph-name="uniF046" unicode="&#xf046;" horiz-adv-x="1574" 
d="M610 1151l820 287v-1159q0 -116 -84.5 -197.5t-204.5 -81.5t-204.5 81.5t-84.5 197.5q0 117 84.5 198.5t204.5 81.5q58 0 108 -20l-6 -15q-52 19 -102 19q-112 0 -192.5 -77.5t-80.5 -186.5q0 -108 80 -184.5t193 -76.5q114 0 194 76t80 185v1136l-790 -276v-858
q0 -116 -84.5 -198.5t-204.5 -82.5t-204.5 82.5t-84.5 198.5q0 115 84.5 196.5t204.5 81.5q56 0 106 -18l-4 -17q-50 21 -102 21q-112 0 -192.5 -77.5t-80.5 -186.5t80 -186t193 -77q114 0 194 77t80 186v870z" />
    <glyph glyph-name="uniF047" unicode="&#xf047;" horiz-adv-x="1060" 
d="M754 1511q107 0 183.5 -75.5t76.5 -182.5q0 -106 -76.5 -182t-183.5 -76h-467q-100 0 -171 71t-71 171q0 97 66 166t161 74q10 85 74 140.5t150 55.5q75 0 135 -46t80 -118q14 2 43 2zM754 1012q101 0 172 70.5t71 170.5t-71 172t-172 72q-23 0 -47 -6h-9l-2 6
q-17 71 -72.5 115.5t-127.5 44.5q-81 0 -140 -54.5t-67 -134.5l-2 -6h-6q-92 -3 -156 -68t-64 -157q0 -94 66 -159.5t160 -65.5h467zM575 53l218 871l14 -2l-217 -873q-12 -49 -35 -49q-25 0 -37 47l-268 873l16 6l266 -875q10 -35 23 -35q10 0 20 37z" />
    <glyph glyph-name="uniF048" unicode="&#xf048;" horiz-adv-x="1769" 
d="M1647 899q73 -64 73 -192q0 -9 -2 -27.5t-14.5 -60t-34 -74.5t-68 -59.5t-108.5 -26.5v16q43 0 77.5 12.5t56 31.5t37.5 44.5t23 47.5t11.5 46t5 33.5t0.5 16.5q0 121 -68 180q-59 53 -170 53q-3 -382 -213 -586q-55 -53 -124 -93t-124.5 -58.5t-115.5 -29.5t-87 -13
t-48 -2h-4q-334 0 -517 198q-155 171 -177 462q-4 58 -1 128v8h1252v-16h-1237q-3 -10 -1 -45.5t3.5 -79t14 -102t30 -115t51 -118t78.5 -111.5q178 -193 504 -193q17 0 34.5 0.5t80.5 10.5t118.5 27.5t129 57.5t130.5 95q207 204 207 581v6l6 2h6q5 1 11.5 1h17t22 -1.5
t24.5 -3.5t27 -6.5t28 -10t28 -14.5t27 -20zM1343 0h-1120v16h1120v-16z" />
    <glyph glyph-name="uniF049" unicode="&#xf049;" horiz-adv-x="1341" 
d="M1315 758l-322 -316l76 -442l-399 209l-398 -209l76 442l-321 316l444 63l199 404l200 -404zM1049 29l-74 420l305 296l-422 62l-188 383l-189 -383l-420 -62l304 -296l-72 -420l377 198z" />
    <glyph glyph-name="uniF04A" unicode="&#xf04a;" horiz-adv-x="1036" 
d="M858 1782l12 8v-1790h-14v1757q-23 -20 -48.5 -52.5t-59.5 -90.5t-56.5 -146t-23.5 -188q0 -14 0.5 -33t7 -80.5t18.5 -117.5t37.5 -128.5t61.5 -129.5l-13 -11q-37 59 -63.5 133.5t-38.5 131.5t-19 119.5t-7.5 82t-0.5 33.5q1 94 22.5 180t47 138t60.5 99t49 60t27 24z
M260 1188h-14v536h14v-536zM401 1188h-16v536h16v-536zM174 1108q36 -36 47 -64q13 -28 10 -798v-82q-3 -70 0 -137h-16v137v82q7 757 -8 792q-12 27 -45 60q-19 21 -27.5 32.5t-19 32.5t-13.5 43v518h17v-516q2 -20 11.5 -39.5t17 -29t26.5 -31.5z" />
    <glyph glyph-name="uniF04B" unicode="&#xf04b;" horiz-adv-x="1548" 
d="M1419 1143q42 -65 54.5 -155.5t-1 -173.5t-45.5 -150q-169 -363 -649 -662l-4 -2v0l-4 2q-91 56 -176 119.5t-176 146.5t-169.5 185.5t-129.5 210.5q-31 67 -44.5 150.5t-1 173.5t53.5 155q81 129 250 129q66 0 128 -20t103.5 -46.5t79.5 -63t55 -58t31 -42.5v0
q14 22 30.5 43t54.5 57.5t79.5 63t103.5 46.5t129 20q167 0 248 -129zM1413 670q31 66 44 146.5t1.5 168t-51.5 150.5q-77 120 -236 120q-73 0 -140 -24.5t-109.5 -56t-77.5 -69.5t-47.5 -56.5t-16.5 -26.5l-6 -12v0l-8 12q0 3 -15 26t-48 58t-76.5 68t-110 57t-139.5 24
q-159 0 -236 -120q-40 -63 -52 -150.5t1 -168t43 -146.5q50 -106 126.5 -206.5t166.5 -182.5t174 -145t174 -118q90 55 173 118t173 145t166.5 182.5t126.5 206.5z" />
    </font>
</defs>
</svg>
